%TF.GenerationSoftware,KiCad,Pcbnew,7.0.8*%
%TF.CreationDate,2024-02-20T09:55:18-08:00*%
%TF.ProjectId,adapter-encoder-pcb,61646170-7465-4722-9d65-6e636f646572,rev?*%
%TF.SameCoordinates,PX8db6561PY6e74585*%
%TF.FileFunction,Copper,L1,Top*%
%TF.FilePolarity,Positive*%
%FSLAX46Y46*%
G04 Gerber Fmt 4.6, Leading zero omitted, Abs format (unit mm)*
G04 Created by KiCad (PCBNEW 7.0.8) date 2024-02-20 09:55:18*
%MOMM*%
%LPD*%
G01*
G04 APERTURE LIST*
G04 Aperture macros list*
%AMRoundRect*
0 Rectangle with rounded corners*
0 $1 Rounding radius*
0 $2 $3 $4 $5 $6 $7 $8 $9 X,Y pos of 4 corners*
0 Add a 4 corners polygon primitive as box body*
4,1,4,$2,$3,$4,$5,$6,$7,$8,$9,$2,$3,0*
0 Add four circle primitives for the rounded corners*
1,1,$1+$1,$2,$3*
1,1,$1+$1,$4,$5*
1,1,$1+$1,$6,$7*
1,1,$1+$1,$8,$9*
0 Add four rect primitives between the rounded corners*
20,1,$1+$1,$2,$3,$4,$5,0*
20,1,$1+$1,$4,$5,$6,$7,0*
20,1,$1+$1,$6,$7,$8,$9,0*
20,1,$1+$1,$8,$9,$2,$3,0*%
%AMHorizOval*
0 Thick line with rounded ends*
0 $1 width*
0 $2 $3 position (X,Y) of the first rounded end (center of the circle)*
0 $4 $5 position (X,Y) of the second rounded end (center of the circle)*
0 Add line between two ends*
20,1,$1,$2,$3,$4,$5,0*
0 Add two circle primitives to create the rounded ends*
1,1,$1,$2,$3*
1,1,$1,$4,$5*%
%AMFreePoly0*
4,1,6,0.325000,0.000000,0.325000,-0.150000,-0.175000,-0.150000,-0.175000,0.150000,0.175000,0.150000,0.325000,0.000000,0.325000,0.000000,$1*%
%AMFreePoly1*
4,1,6,0.325000,0.000000,0.175000,-0.150000,-0.175000,-0.150000,-0.175000,0.150000,0.325000,0.150000,0.325000,0.000000,0.325000,0.000000,$1*%
%AMFreePoly2*
4,1,6,0.150000,-0.175000,-0.150000,-0.175000,-0.150000,0.175000,0.000000,0.325000,0.150000,0.325000,0.150000,-0.175000,0.150000,-0.175000,$1*%
%AMFreePoly3*
4,1,6,0.150000,0.175000,0.150000,-0.175000,-0.150000,-0.175000,-0.150000,0.325000,0.000000,0.325000,0.150000,0.175000,0.150000,0.175000,$1*%
%AMFreePoly4*
4,1,6,0.175000,-0.150000,-0.175000,-0.150000,-0.325000,0.000000,-0.325000,0.150000,0.175000,0.150000,0.175000,-0.150000,0.175000,-0.150000,$1*%
%AMFreePoly5*
4,1,7,0.175000,-0.150000,-0.175000,-0.150000,-0.325000,-0.150000,-0.325000,0.000000,-0.175000,0.150000,0.175000,0.150000,0.175000,-0.150000,0.175000,-0.150000,$1*%
%AMFreePoly6*
4,1,6,0.150000,-0.175000,0.000000,-0.325000,-0.150000,-0.325000,-0.150000,0.175000,0.150000,0.175000,0.150000,-0.175000,0.150000,-0.175000,$1*%
%AMFreePoly7*
4,1,6,0.150000,-0.325000,0.000000,-0.325000,-0.150000,-0.175000,-0.150000,0.175000,0.150000,0.175000,0.150000,-0.325000,0.150000,-0.325000,$1*%
G04 Aperture macros list end*
%TA.AperFunction,ComponentPad*%
%ADD10C,0.400000*%
%TD*%
%TA.AperFunction,SMDPad,CuDef*%
%ADD11C,1.000000*%
%TD*%
%TA.AperFunction,SMDPad,CuDef*%
%ADD12RoundRect,0.025000X-0.225000X0.175000X-0.225000X-0.175000X0.225000X-0.175000X0.225000X0.175000X0*%
%TD*%
%TA.AperFunction,SMDPad,CuDef*%
%ADD13RoundRect,0.025000X-0.175000X-0.225000X0.175000X-0.225000X0.175000X0.225000X-0.175000X0.225000X0*%
%TD*%
%TA.AperFunction,SMDPad,CuDef*%
%ADD14RoundRect,0.150000X-0.150000X-0.250000X0.150000X-0.250000X0.150000X0.250000X-0.150000X0.250000X0*%
%TD*%
%TA.AperFunction,SMDPad,CuDef*%
%ADD15RoundRect,0.025000X0.175000X0.225000X-0.175000X0.225000X-0.175000X-0.225000X0.175000X-0.225000X0*%
%TD*%
%TA.AperFunction,SMDPad,CuDef*%
%ADD16R,0.990600X0.609600*%
%TD*%
%TA.AperFunction,SMDPad,CuDef*%
%ADD17FreePoly0,90.000000*%
%TD*%
%TA.AperFunction,SMDPad,CuDef*%
%ADD18R,0.300000X0.700000*%
%TD*%
%TA.AperFunction,SMDPad,CuDef*%
%ADD19FreePoly1,90.000000*%
%TD*%
%TA.AperFunction,SMDPad,CuDef*%
%ADD20FreePoly2,90.000000*%
%TD*%
%TA.AperFunction,SMDPad,CuDef*%
%ADD21R,0.700000X0.300000*%
%TD*%
%TA.AperFunction,SMDPad,CuDef*%
%ADD22FreePoly3,90.000000*%
%TD*%
%TA.AperFunction,SMDPad,CuDef*%
%ADD23FreePoly4,90.000000*%
%TD*%
%TA.AperFunction,SMDPad,CuDef*%
%ADD24FreePoly5,90.000000*%
%TD*%
%TA.AperFunction,SMDPad,CuDef*%
%ADD25FreePoly6,90.000000*%
%TD*%
%TA.AperFunction,SMDPad,CuDef*%
%ADD26FreePoly7,90.000000*%
%TD*%
%TA.AperFunction,SMDPad,CuDef*%
%ADD27RoundRect,0.025000X0.225000X-0.175000X0.225000X0.175000X-0.225000X0.175000X-0.225000X-0.175000X0*%
%TD*%
%TA.AperFunction,SMDPad,CuDef*%
%ADD28HorizOval,0.550000X-0.242705X0.176336X0.242705X-0.176336X0*%
%TD*%
%TA.AperFunction,SMDPad,CuDef*%
%ADD29RoundRect,0.150000X-0.150000X-0.350000X0.150000X-0.350000X0.150000X0.350000X-0.150000X0.350000X0*%
%TD*%
%TA.AperFunction,SMDPad,CuDef*%
%ADD30RoundRect,0.312500X-0.312500X-0.587500X0.312500X-0.587500X0.312500X0.587500X-0.312500X0.587500X0*%
%TD*%
%TA.AperFunction,ViaPad*%
%ADD31C,0.450000*%
%TD*%
%TA.AperFunction,ViaPad*%
%ADD32C,0.700000*%
%TD*%
%TA.AperFunction,ViaPad*%
%ADD33C,0.609600*%
%TD*%
%TA.AperFunction,Conductor*%
%ADD34C,0.250000*%
%TD*%
%TA.AperFunction,Conductor*%
%ADD35C,0.381000*%
%TD*%
%TA.AperFunction,Conductor*%
%ADD36C,0.304800*%
%TD*%
%TA.AperFunction,Conductor*%
%ADD37C,0.203200*%
%TD*%
%TA.AperFunction,Conductor*%
%ADD38C,0.254000*%
%TD*%
%TA.AperFunction,Conductor*%
%ADD39C,0.248920*%
%TD*%
G04 APERTURE END LIST*
D10*
%TO.P,M1,1,1*%
%TO.N,/RX*%
X-17425167Y10411000D03*
X-17200000Y10801000D03*
D11*
X-17200000Y10541000D03*
D10*
X-16974833Y10411000D03*
%TD*%
%TO.P,M3,1,1*%
%TO.N,GND*%
X-16964833Y11940000D03*
X-17190000Y11550000D03*
D11*
X-17190000Y11810000D03*
D10*
X-17415167Y11940000D03*
%TD*%
%TO.P,M6,1,1*%
%TO.N,GND*%
X-505167Y-4270000D03*
X-280000Y-3880000D03*
D11*
X-280000Y-4140000D03*
D10*
X-54833Y-4270000D03*
%TD*%
D12*
%TO.P,C4,1*%
%TO.N,/SIN*%
X-2550000Y-3420000D03*
%TO.P,C4,2*%
%TO.N,GND*%
X-2550000Y-4220000D03*
%TD*%
D13*
%TO.P,C3,1*%
%TO.N,/3v3*%
X-4870000Y90000D03*
%TO.P,C3,2*%
%TO.N,GND*%
X-4070000Y90000D03*
%TD*%
D14*
%TO.P,C1,1*%
%TO.N,/3v3*%
X-4970000Y-690000D03*
%TO.P,C1,2*%
%TO.N,GND*%
X-3670000Y-690000D03*
%TD*%
D10*
%TO.P,M2,1,1*%
%TO.N,/3v3_FUSED*%
X-16964833Y13210000D03*
X-17190000Y12820000D03*
D11*
X-17190000Y13080000D03*
D10*
X-17415167Y13210000D03*
%TD*%
D15*
%TO.P,C5,1*%
%TO.N,Net-(U2-NRST)*%
X-4750000Y-5020000D03*
%TO.P,C5,2*%
%TO.N,GND*%
X-5550000Y-5020000D03*
%TD*%
D16*
%TO.P,F1,1,1*%
%TO.N,/3v3_FUSED*%
X-21900000Y11498500D03*
%TO.P,F1,2,2*%
%TO.N,/3v3*%
X-21900000Y10101500D03*
%TD*%
D17*
%TO.P,U2,1,PC14*%
%TO.N,unconnected-(U2-PC14-Pad1)*%
X-5750000Y-4375000D03*
D18*
%TO.P,U2,2,PC15*%
%TO.N,unconnected-(U2-PC15-Pad2)*%
X-5250000Y-4200000D03*
%TO.P,U2,3,NRST*%
%TO.N,Net-(U2-NRST)*%
X-4750000Y-4200000D03*
%TO.P,U2,4,VDDA*%
%TO.N,/3v3*%
X-4250000Y-4200000D03*
D19*
%TO.P,U2,5,PA0*%
%TO.N,/V_TEMP*%
X-3750000Y-4375000D03*
D20*
%TO.P,U2,6,PA1*%
%TO.N,unconnected-(U2-PA1-Pad6)*%
X-3275000Y-3900000D03*
D21*
%TO.P,U2,7,PA4*%
%TO.N,/SIN*%
X-3450000Y-3400000D03*
%TO.P,U2,8,PA5*%
%TO.N,/COS*%
X-3450000Y-2900000D03*
%TO.P,U2,9,PA6*%
%TO.N,unconnected-(U2-PA6-Pad9)*%
X-3450000Y-2400000D03*
D22*
%TO.P,U2,10,PA7*%
%TO.N,unconnected-(U2-PA7-Pad10)*%
X-3275000Y-1900000D03*
D23*
%TO.P,U2,11,PB1*%
%TO.N,/LED_GPIO*%
X-3750000Y-1425000D03*
D18*
%TO.P,U2,12,VSS*%
%TO.N,GND*%
X-4250000Y-1600000D03*
%TO.P,U2,13,VDD*%
%TO.N,/3v3*%
X-4750000Y-1600000D03*
%TO.P,U2,14,PA9*%
%TO.N,/TX*%
X-5250000Y-1600000D03*
D24*
%TO.P,U2,15,PA10*%
%TO.N,/RX*%
X-5750000Y-1425000D03*
D25*
%TO.P,U2,16,PA13*%
%TO.N,/SWDIO*%
X-6225000Y-1900000D03*
D21*
%TO.P,U2,17,PA14*%
%TO.N,/SWCLK*%
X-6050000Y-2400000D03*
%TO.P,U2,18,PB6*%
%TO.N,unconnected-(U2-PB6-Pad18)*%
X-6050000Y-2900000D03*
%TO.P,U2,19,PB7*%
%TO.N,unconnected-(U2-PB7-Pad19)*%
X-6050000Y-3400000D03*
D26*
%TO.P,U2,20,PB9*%
%TO.N,GND*%
X-6225000Y-3900000D03*
%TD*%
D27*
%TO.P,C2,1*%
%TO.N,/COS*%
X-2550000Y-2840000D03*
%TO.P,C2,2*%
%TO.N,GND*%
X-2550000Y-2040000D03*
%TD*%
D28*
%TO.P,U1,1,COS_P*%
%TO.N,/COS*%
X-1003939Y3084114D03*
%TO.P,U1,2,COS_N*%
%TO.N,unconnected-(U1-COS_N-Pad2)*%
X-1750426Y2056662D03*
%TO.P,U1,3,GND2*%
%TO.N,GND*%
X-2496913Y1029210D03*
%TO.P,U1,4,GND1*%
X-3243401Y1759D03*
%TO.P,U1,5,Vgmr*%
%TO.N,unconnected-(U1-Vgmr-Pad5)*%
X1003939Y-3084114D03*
%TO.P,U1,6,Vdd*%
%TO.N,/3v3*%
X1750426Y-2056662D03*
%TO.P,U1,7,SIN_N*%
%TO.N,unconnected-(U1-SIN_N-Pad7)*%
X2496913Y-1029210D03*
%TO.P,U1,8,SIN_P*%
%TO.N,/SIN*%
X3243401Y-1759D03*
%TD*%
D29*
%TO.P,U4,1,1*%
%TO.N,/3v3_FUSED*%
X-18600000Y8750000D03*
%TO.P,U4,2,2*%
%TO.N,GND*%
X-17100000Y8750000D03*
%TO.P,U4,3,3*%
%TO.N,/RX*%
X-15600000Y8750000D03*
D30*
%TO.P,U4,4,MNT*%
%TO.N,GND*%
X-21205000Y13950000D03*
X-12995000Y13950000D03*
%TD*%
D31*
%TO.N,/3v3*%
X-24434800Y-5118100D03*
X-20840700Y10350000D03*
D32*
X-625000Y-2515000D03*
D31*
X-20550000Y10850000D03*
X-6934200Y-3810000D03*
D33*
X-4457700Y-2743200D03*
D31*
%TO.N,GND*%
X-19500000Y9800000D03*
X-2810000Y440000D03*
X-19590000Y14010000D03*
X-2540000Y-1570000D03*
X-47550000Y-11850000D03*
X-29410000Y-2920000D03*
X-14721696Y12100996D03*
X-16470000Y9250000D03*
X-2280000Y200000D03*
X-2050000Y-4100000D03*
X-14220000Y10370000D03*
X-45140000Y-11860000D03*
X-14480000Y13870000D03*
X-28470000Y-2960000D03*
X-51280000Y-14300000D03*
X-51140000Y-10620000D03*
X-30240000Y-2920000D03*
X-7962900Y-1155700D03*
X-49310000Y-10650000D03*
X-49370000Y-14380000D03*
X-19830000Y12820000D03*
X-7632700Y-596900D03*
X952500Y965200D03*
X-1680000Y1140000D03*
X-45950000Y-11860000D03*
X-6410000Y-4521200D03*
X-46670000Y-11850000D03*
%TO.N,/V_TEMP*%
X-6770000Y-5090000D03*
X-3200000Y-4540000D03*
X-23650000Y-6160000D03*
%TO.N,/TX*%
X-50580000Y-12170000D03*
X-50590000Y-12790000D03*
X-6756400Y-3238500D03*
X-5020000Y-3190000D03*
%TO.N,/RX*%
X-7137400Y-1828800D03*
%TO.N,/SWDIO*%
X-50010000Y-12040000D03*
%TO.N,/SWCLK*%
X-50060000Y-13050000D03*
%TD*%
D34*
%TO.N,/3v3*%
X-4750000Y-760000D02*
X-4870000Y-640000D01*
D35*
X-20550000Y10800000D02*
X-21248500Y10101500D01*
D34*
X-4250000Y-4556382D02*
X-4250000Y-4200000D01*
D35*
X-5040000Y-810000D02*
X-4870000Y-640000D01*
X-3856382Y-4950000D02*
X-3845172Y-4961210D01*
X1723764Y-2030000D02*
X386051Y-2030000D01*
X-20550000Y10850000D02*
X-20550000Y10800000D01*
D34*
X-4750000Y-1600000D02*
X-4750000Y-760000D01*
D36*
X-4750000Y-2530000D02*
X-4250000Y-3030000D01*
X-4750000Y-1600000D02*
X-4750000Y-2530000D01*
D35*
X-511975Y-2401975D02*
X-625000Y-2515000D01*
X-1380000Y-3833949D02*
X-1380000Y-3796051D01*
X-3485962Y-5110000D02*
X-2656051Y-5110000D01*
X-1008026Y-2898026D02*
X-625000Y-2515000D01*
D36*
X-4250000Y-3030000D02*
X-4250000Y-4200000D01*
D35*
X-1758025Y-4738025D02*
X-1751975Y-4731975D01*
D37*
X-24434800Y-5118100D02*
X-24197692Y-5118100D01*
D35*
X-21248500Y10101500D02*
X-21900000Y10101500D01*
D37*
X-23011172Y-4142000D02*
X-7476620Y-4142000D01*
D34*
X-3856382Y-4950000D02*
X-4250000Y-4556382D01*
X-4870000Y-640000D02*
X-4870000Y90000D01*
X1750426Y-2056662D02*
X1723764Y-2030000D01*
D37*
X-24197692Y-5118100D02*
X-23370382Y-4290790D01*
X-7117410Y-3993210D02*
X-6934200Y-3810000D01*
D35*
X386051Y-2030009D02*
G75*
G03*
X-511975Y-2401975I-16J-1269982D01*
G01*
X-2656051Y-5110007D02*
G75*
G03*
X-1758025Y-4738025I-14J1270016D01*
G01*
D37*
X-7476620Y-4142028D02*
G75*
G03*
X-7117411Y-3993209I-45J508037D01*
G01*
X-23011172Y-4141993D02*
G75*
G03*
X-23370382Y-4290790I7J-507998D01*
G01*
D35*
X-1008013Y-2898039D02*
G75*
G03*
X-1380000Y-3796051I898048J-898052D01*
G01*
X-1751961Y-4731989D02*
G75*
G03*
X-1380000Y-3833949I-898004J897998D01*
G01*
X-3845176Y-4961214D02*
G75*
G03*
X-3485962Y-5110000I359211J359223D01*
G01*
D34*
%TO.N,GND*%
X-2170000Y-4220000D02*
X-2050000Y-4100000D01*
X-2550000Y-4220000D02*
X-2170000Y-4220000D01*
X-2550000Y-2040000D02*
X-2550000Y-1580000D01*
X-2550000Y-1580000D02*
X-2540000Y-1570000D01*
%TO.N,/COS*%
X-3450000Y-2900000D02*
X-2610000Y-2900000D01*
X-668790Y2748965D02*
X-1003939Y3084114D01*
X-2350000Y-2820000D02*
X-2280000Y-2820000D01*
X-2550000Y-2840000D02*
X-2300000Y-2840000D01*
X-2280000Y-2820000D02*
X-2091974Y-2631974D01*
X-1348025Y541975D02*
X-891974Y998026D01*
X-520000Y1896051D02*
X-520000Y2389755D01*
X-2610000Y-2900000D02*
X-2550000Y-2840000D01*
X-1720000Y-1733949D02*
X-1720000Y-356051D01*
X-519958Y2389755D02*
G75*
G03*
X-668790Y2748965I-508007J-46D01*
G01*
X-2091960Y-2631988D02*
G75*
G03*
X-1720000Y-1733949I-898005J897997D01*
G01*
X-1348012Y541962D02*
G75*
G03*
X-1720000Y-356051I898047J-898053D01*
G01*
X-891960Y998012D02*
G75*
G03*
X-520000Y1896051I-898005J897997D01*
G01*
%TO.N,/SIN*%
X3141642Y100000D02*
X3223807Y17835D01*
X-3450000Y-3400000D02*
X-2570000Y-3400000D01*
X266051Y100000D02*
X3141642Y100000D01*
X-2550000Y-3420000D02*
X-2338262Y-3420000D01*
X-2570000Y-3400000D02*
X-2550000Y-3420000D01*
X-971025Y-611025D02*
X-631974Y-271974D01*
X-2338262Y-3420000D02*
X-1714974Y-2796712D01*
X-1343000Y-1898687D02*
X-1343000Y-1509051D01*
X-1714979Y-2796707D02*
G75*
G03*
X-1343000Y-1898687I-897986J898016D01*
G01*
X-971012Y-611038D02*
G75*
G03*
X-1343000Y-1509051I898047J-898053D01*
G01*
X266051Y99991D02*
G75*
G03*
X-631974Y-271974I-16J-1269982D01*
G01*
D37*
%TO.N,/V_TEMP*%
X-23650000Y-6160000D02*
X-23650000Y-5353013D01*
X-22606000Y-4472200D02*
X-7913851Y-4472200D01*
X-22874398Y-4472200D02*
X-22606000Y-4472200D01*
X-23426815Y-4814197D02*
X-23233608Y-4620990D01*
D34*
X-3750000Y-4375000D02*
X-3365000Y-4375000D01*
X-3365000Y-4375000D02*
X-3200000Y-4540000D01*
D37*
X-7015825Y-4844175D02*
X-6770000Y-5090000D01*
X-23426833Y-4814179D02*
G75*
G03*
X-23650000Y-5353013I538868J-538812D01*
G01*
X-22874398Y-4472175D02*
G75*
G03*
X-23233608Y-4620990I33J-508016D01*
G01*
X-7015834Y-4844184D02*
G75*
G03*
X-7913851Y-4472200I-898031J-898007D01*
G01*
D34*
%TO.N,Net-(U2-NRST)*%
X-4750000Y-4200000D02*
X-4750000Y-5020000D01*
D38*
%TO.N,/TX*%
X-34854151Y-5205932D02*
X-34837168Y-5188949D01*
X-49026815Y-13466815D02*
X-49016584Y-13456584D01*
X-23164293Y-3784713D02*
X-7872303Y-3784713D01*
X-32481184Y-4445000D02*
X-25400000Y-4445000D01*
X-7513093Y-3635923D02*
X-7115670Y-3238500D01*
D34*
X-6751256Y-3236883D02*
X-6772976Y-3215163D01*
D38*
X-50356815Y-13463185D02*
X-50353184Y-13466816D01*
D36*
X-5250000Y-1600000D02*
X-5250000Y-2960000D01*
D38*
X-35598100Y-8857064D02*
X-35598100Y-7001983D01*
D36*
X-5250000Y-2960000D02*
X-5020000Y-3190000D01*
D38*
X-49814369Y-13690000D02*
X-49565631Y-13690000D01*
X-48477769Y-13233400D02*
X-39974436Y-13233400D01*
X-33041117Y-4445000D02*
X-32484784Y-4445000D01*
X-23811815Y-4221815D02*
X-23523503Y-3933503D01*
X-32484784Y-4445000D02*
X-32482984Y-4446800D01*
X-32482984Y-4446800D02*
X-32481184Y-4445000D01*
X-25400000Y-4445000D02*
X-24350631Y-4445000D01*
X-50580000Y-12170000D02*
X-50580000Y-12924369D01*
X-36885228Y-11953808D02*
X-36877692Y-11946272D01*
D34*
X-6772976Y-3215163D02*
X-7095163Y-3215163D01*
D38*
X-50353184Y-13466816D02*
G75*
G03*
X-49814369Y-13690000I538819J538825D01*
G01*
X-33041117Y-4445032D02*
G75*
G03*
X-34837168Y-5188949I-48J-2539959D01*
G01*
X-36877686Y-11946278D02*
G75*
G03*
X-35598100Y-8857064I-3089179J3089187D01*
G01*
X-7872303Y-3784679D02*
G75*
G03*
X-7513093Y-3635923I38J507988D01*
G01*
X-50579974Y-12924369D02*
G75*
G03*
X-50356815Y-13463185I762009J-22D01*
G01*
X-34854154Y-5205929D02*
G75*
G03*
X-35598100Y-7001983I1796089J-1796062D01*
G01*
X-48477769Y-13233395D02*
G75*
G03*
X-49016584Y-13456584I4J-761996D01*
G01*
X-23164293Y-3784688D02*
G75*
G03*
X-23523502Y-3933504I28J-508003D01*
G01*
X-39974436Y-13233417D02*
G75*
G03*
X-36885229Y-11953807I-29J4368826D01*
G01*
X-24350631Y-4445021D02*
G75*
G03*
X-23811815Y-4221815I-34J762030D01*
G01*
X-49565631Y-13690021D02*
G75*
G03*
X-49026815Y-13466815I-34J762030D01*
G01*
D36*
%TO.N,/RX*%
X-7116509Y-1836991D02*
X-6927702Y-1648184D01*
D34*
X-15600000Y9634369D02*
X-15600000Y8750000D01*
D36*
X-5750000Y-1425000D02*
X-6015000Y-1425000D01*
X-6388887Y-1425000D02*
X-5750000Y-1425000D01*
D34*
X-15967815Y10317815D02*
X-15823184Y10173184D01*
X-17200000Y10541000D02*
X-16506631Y10541000D01*
X-15600018Y9634369D02*
G75*
G03*
X-15823184Y10173184I-761947J40D01*
G01*
D36*
X-6388887Y-1424982D02*
G75*
G03*
X-6927702Y-1648184I22J-762009D01*
G01*
D34*
X-15967834Y10317796D02*
G75*
G03*
X-16506631Y10541000I-538831J-538787D01*
G01*
D38*
%TO.N,/SWDIO*%
X-40137058Y-12472249D02*
X-40140138Y-12475400D01*
X-7372789Y-2417987D02*
X-7827794Y-2872992D01*
X-23840572Y-3170572D02*
X-23960000Y-3290000D01*
X-41040000Y-12475400D02*
X-49258969Y-12475400D01*
X-40140138Y-12475400D02*
X-41040000Y-12475400D01*
D39*
X-36356100Y-8830795D02*
X-36356100Y-7670000D01*
X-36356100Y-7670000D02*
X-36356100Y-6989950D01*
X-25400000Y-3683000D02*
X-24668631Y-3683000D01*
D38*
X-8187004Y-3021782D02*
X-23481362Y-3021782D01*
X-7051618Y-2343592D02*
X-7193184Y-2343592D01*
X-6225000Y-1900000D02*
X-6502817Y-1900000D01*
D39*
X-33049150Y-3683000D02*
X-25400000Y-3683000D01*
D38*
X-37447161Y-11415841D02*
X-37412507Y-11381187D01*
X-49797785Y-12252215D02*
X-50010000Y-12040000D01*
X-40137058Y-12472249D02*
X-39997554Y-12472249D01*
X-35388966Y-4655083D02*
X-35384016Y-4650133D01*
D39*
X-24129815Y-3459815D02*
X-23960000Y-3290000D01*
D38*
X-6502817Y-1900000D02*
X-6872013Y-2269197D01*
D39*
X-35388953Y-4655096D02*
G75*
G03*
X-36356100Y-6989950I2334888J-2334895D01*
G01*
D38*
X-39997554Y-12472268D02*
G75*
G03*
X-37447162Y-11415840I-11J3606777D01*
G01*
X-23481362Y-3021788D02*
G75*
G03*
X-23840571Y-3170573I-3J-508003D01*
G01*
X-49797785Y-12252215D02*
G75*
G03*
X-49258969Y-12475400I538820J538824D01*
G01*
X-37412516Y-11381178D02*
G75*
G03*
X-36356100Y-8830795I-2550349J2550387D01*
G01*
X-7051618Y-2343624D02*
G75*
G03*
X-6872014Y-2269196I-47J254033D01*
G01*
D39*
X-33049150Y-3683009D02*
G75*
G03*
X-35384015Y-4650134I-15J-3301982D01*
G01*
D38*
X-8187004Y-3021756D02*
G75*
G03*
X-7827795Y-2872991I39J507965D01*
G01*
X-7193184Y-2343579D02*
G75*
G03*
X-7372789Y-2417987I19J-254012D01*
G01*
D39*
X-24668631Y-3683021D02*
G75*
G03*
X-24129815Y-3459815I-34J762030D01*
G01*
D34*
%TO.N,/SWCLK*%
X-50060000Y-13050000D02*
X-49864400Y-12854400D01*
X-49864400Y-12854400D02*
X-39976201Y-12854400D01*
D38*
X-23322827Y-3403247D02*
X-8029653Y-3403247D01*
X-7140578Y-2724592D02*
X-6788592Y-2724592D01*
D34*
X-35977100Y-8855299D02*
X-35977100Y-8050000D01*
D38*
X-7670443Y-3254457D02*
X-7140578Y-2724592D01*
X-25400000Y-4064000D02*
X-24509631Y-4064000D01*
D34*
X-35977100Y-8050000D02*
X-35977100Y-6981947D01*
D38*
X-6788592Y-2724592D02*
X-6464000Y-2400000D01*
X-25400000Y-4064000D02*
X-33055950Y-4064000D01*
D34*
X-37156400Y-11686400D02*
X-37145099Y-11675099D01*
X-35977100Y-8857893D02*
X-35977100Y-8050000D01*
D38*
X-23970815Y-3840815D02*
X-23682037Y-3552037D01*
X-6464000Y-2400000D02*
X-6050000Y-2400000D01*
X-33055950Y-4064008D02*
G75*
G03*
X-35103449Y-4912102I-15J-2895583D01*
G01*
X-8029653Y-3403238D02*
G75*
G03*
X-7670444Y-3254456I-12J508047D01*
G01*
D34*
X-37145110Y-11675088D02*
G75*
G03*
X-35977100Y-8855299I-2819755J2819797D01*
G01*
D38*
X-23322827Y-3403288D02*
G75*
G03*
X-23682036Y-3552038I-38J-508003D01*
G01*
D34*
X-39976201Y-12854384D02*
G75*
G03*
X-37156400Y-11686400I-64J3987993D01*
G01*
D38*
X-24509631Y-4064021D02*
G75*
G03*
X-23970815Y-3840815I-34J762030D01*
G01*
D34*
X-35128985Y-4934465D02*
G75*
G03*
X-35977100Y-6981947I2047520J-2047526D01*
G01*
D35*
%TO.N,/3v3_FUSED*%
X-20800000Y11498500D02*
X-20576051Y11498500D01*
X-20800000Y11498500D02*
X-20277551Y11498500D01*
X-18600000Y8750000D02*
X-18600000Y9522449D01*
X-21900000Y11498500D02*
X-20800000Y11498500D01*
X-18971975Y10420475D02*
X-19678026Y11126526D01*
X-17643949Y13080000D02*
X-17190000Y13080000D01*
X-19379525Y11870475D02*
X-18541974Y12708026D01*
X-18599962Y9522449D02*
G75*
G03*
X-18971975Y10420475I-1270003J-40D01*
G01*
X-19678035Y11126517D02*
G75*
G03*
X-20576051Y11498500I-898030J-898008D01*
G01*
X-17643949Y13079991D02*
G75*
G03*
X-18541974Y12708026I-16J-1269982D01*
G01*
X-20277551Y11498493D02*
G75*
G03*
X-19379525Y11870475I-14J1270016D01*
G01*
%TD*%
%TA.AperFunction,Conductor*%
%TO.N,/3v3_FUSED*%
G36*
X-17376843Y13531140D02*
G01*
X-17376841Y13531133D01*
X-17190982Y13084949D01*
X-17190964Y13075994D01*
X-17190978Y13075959D01*
X-17376485Y12629745D01*
X-17382826Y12623421D01*
X-17391780Y12623432D01*
X-17392612Y12623817D01*
X-17552624Y12705558D01*
X-17553098Y12705828D01*
X-17681999Y12787624D01*
X-17682003Y12787626D01*
X-17796036Y12843302D01*
X-17922291Y12852132D01*
X-17922294Y12852131D01*
X-18078403Y12796949D01*
X-18087345Y12797423D01*
X-18092726Y12802667D01*
X-18255728Y13122581D01*
X-18256430Y13131509D01*
X-18250619Y13138315D01*
X-18046613Y13242274D01*
X-17893744Y13318621D01*
X-17760118Y13381227D01*
X-17603423Y13449273D01*
X-17392146Y13537433D01*
X-17383192Y13537455D01*
X-17376843Y13531140D01*
G37*
%TD.AperFunction*%
%TD*%
%TA.AperFunction,Conductor*%
%TO.N,/COS*%
G36*
X-996491Y3081686D02*
G01*
X-675842Y2934529D01*
X-499040Y2853388D01*
X-492950Y2846822D01*
X-492424Y2844928D01*
X-473969Y2747318D01*
X-454390Y2652768D01*
X-434812Y2567217D01*
X-415234Y2490667D01*
X-399900Y2437762D01*
X-400888Y2428862D01*
X-407880Y2423268D01*
X-410899Y2422807D01*
X-640590Y2418124D01*
X-648931Y2421382D01*
X-649134Y2421582D01*
X-756334Y2529638D01*
X-867076Y2632264D01*
X-977800Y2725874D01*
X-1011976Y2751989D01*
X-1088531Y2810490D01*
X-1187721Y2878225D01*
X-1192621Y2885720D01*
X-1190785Y2894485D01*
X-1189480Y2896074D01*
X-1009716Y3079247D01*
X-1001478Y3082750D01*
X-996491Y3081686D01*
G37*
%TD.AperFunction*%
%TD*%
%TA.AperFunction,Conductor*%
%TO.N,/3v3*%
G36*
X-937725Y-2385431D02*
G01*
X-628929Y-2512335D01*
X-622579Y-2518650D01*
X-622556Y-2518706D01*
X-495727Y-2827015D01*
X-495749Y-2835970D01*
X-502096Y-2842286D01*
X-502611Y-2842484D01*
X-609860Y-2880800D01*
X-610185Y-2880905D01*
X-668367Y-2897928D01*
X-700223Y-2907249D01*
X-700226Y-2907249D01*
X-700229Y-2907251D01*
X-774179Y-2936732D01*
X-774182Y-2936734D01*
X-844380Y-2988505D01*
X-916299Y-3073469D01*
X-924260Y-3077570D01*
X-932106Y-3075375D01*
X-1222023Y-2864734D01*
X-1226702Y-2857099D01*
X-1224612Y-2848393D01*
X-1149703Y-2746687D01*
X-1092021Y-2666868D01*
X-1046943Y-2594935D01*
X-1002909Y-2507472D01*
X-952913Y-2391615D01*
X-946490Y-2385379D01*
X-937725Y-2385431D01*
G37*
%TD.AperFunction*%
%TD*%
%TA.AperFunction,Conductor*%
%TO.N,/SWCLK*%
G36*
X-49694671Y-12732925D02*
G01*
X-49691024Y-12741104D01*
X-49691020Y-12741416D01*
X-49691020Y-12969691D01*
X-49694447Y-12977964D01*
X-49700562Y-12981190D01*
X-49762028Y-12992727D01*
X-49762031Y-12992729D01*
X-49800422Y-13028569D01*
X-49800425Y-13028572D01*
X-49824306Y-13080721D01*
X-49851239Y-13141766D01*
X-49852551Y-13144021D01*
X-49892845Y-13198255D01*
X-49900530Y-13202852D01*
X-49909215Y-13200669D01*
X-49910484Y-13199576D01*
X-49967449Y-13142967D01*
X-50059320Y-13051670D01*
X-50061898Y-13047808D01*
X-50141740Y-12852786D01*
X-50141703Y-12843833D01*
X-50135515Y-12837599D01*
X-50038116Y-12795955D01*
X-49960150Y-12763808D01*
X-49959571Y-12763605D01*
X-49955399Y-12762381D01*
X-49890969Y-12743495D01*
X-49889207Y-12743126D01*
X-49807871Y-12732549D01*
X-49807281Y-12732503D01*
X-49703031Y-12729720D01*
X-49694671Y-12732925D01*
G37*
%TD.AperFunction*%
%TD*%
%TA.AperFunction,Conductor*%
%TO.N,/3v3*%
G36*
X-4674100Y-645868D02*
G01*
X-4669427Y-653507D01*
X-4669302Y-654696D01*
X-4661000Y-808435D01*
X-4652000Y-964617D01*
X-4643000Y-1110300D01*
X-4634000Y-1245482D01*
X-4625905Y-1357623D01*
X-4628728Y-1366121D01*
X-4636733Y-1370135D01*
X-4637575Y-1370165D01*
X-4869012Y-1370165D01*
X-4877285Y-1366738D01*
X-4878502Y-1365308D01*
X-4931647Y-1291604D01*
X-4969793Y-1245771D01*
X-4972500Y-1238286D01*
X-4972500Y-1237442D01*
X-4979898Y-1200252D01*
X-5008078Y-1158078D01*
X-5050252Y-1129898D01*
X-5087442Y-1122500D01*
X-5093066Y-1122500D01*
X-5100543Y-1119799D01*
X-5101559Y-1118955D01*
X-5101561Y-1118953D01*
X-5149545Y-1087987D01*
X-5154638Y-1080621D01*
X-5153755Y-1073107D01*
X-4972656Y-694551D01*
X-4965995Y-688567D01*
X-4963931Y-688044D01*
X-4682804Y-643769D01*
X-4674100Y-645868D01*
G37*
%TD.AperFunction*%
%TD*%
%TA.AperFunction,Conductor*%
%TO.N,/TX*%
G36*
X-50382890Y-12251594D02*
G01*
X-50376584Y-12257952D01*
X-50376609Y-12266878D01*
X-50407928Y-12342180D01*
X-50431409Y-12404903D01*
X-50431410Y-12404906D01*
X-50445075Y-12460975D01*
X-50445077Y-12460989D01*
X-50451437Y-12527112D01*
X-50452806Y-12608497D01*
X-50456371Y-12616711D01*
X-50464504Y-12620000D01*
X-50695496Y-12620000D01*
X-50703769Y-12616573D01*
X-50707194Y-12608497D01*
X-50708564Y-12527112D01*
X-50710685Y-12505069D01*
X-50714926Y-12460982D01*
X-50720282Y-12439005D01*
X-50728592Y-12404906D01*
X-50728593Y-12404903D01*
X-50752073Y-12342180D01*
X-50783392Y-12266878D01*
X-50783405Y-12257923D01*
X-50777112Y-12251594D01*
X-50584520Y-12170893D01*
X-50575569Y-12170857D01*
X-50382890Y-12251594D01*
G37*
%TD.AperFunction*%
%TD*%
%TA.AperFunction,Conductor*%
%TO.N,Net-(U2-NRST)*%
G36*
X-4745402Y-4218015D02*
G01*
X-4739241Y-4224176D01*
X-4601390Y-4546749D01*
X-4600645Y-4553477D01*
X-4605000Y-4577000D01*
X-4610000Y-4605500D01*
X-4615001Y-4635500D01*
X-4620001Y-4667000D01*
X-4623493Y-4690052D01*
X-4628120Y-4697719D01*
X-4635061Y-4700000D01*
X-4864939Y-4700000D01*
X-4873212Y-4696573D01*
X-4876507Y-4690053D01*
X-4880000Y-4667001D01*
X-4885000Y-4635500D01*
X-4890001Y-4605500D01*
X-4895001Y-4577000D01*
X-4899357Y-4553474D01*
X-4898613Y-4546753D01*
X-4760759Y-4224175D01*
X-4754356Y-4217915D01*
X-4745402Y-4218015D01*
G37*
%TD.AperFunction*%
%TD*%
%TA.AperFunction,Conductor*%
%TO.N,/RX*%
G36*
X-15475197Y9546573D02*
G01*
X-15472355Y9541954D01*
X-15442284Y9450481D01*
X-15409568Y9361462D01*
X-15376853Y9282945D01*
X-15362877Y9253888D01*
X-15344135Y9214923D01*
X-15344131Y9214915D01*
X-15344128Y9214910D01*
X-15315095Y9163867D01*
X-15313983Y9154981D01*
X-15315710Y9151330D01*
X-15590445Y8762523D01*
X-15598018Y8757744D01*
X-15606752Y8759720D01*
X-15609555Y8762523D01*
X-15884291Y9151331D01*
X-15886267Y9160065D01*
X-15884908Y9163863D01*
X-15855866Y9214923D01*
X-15855863Y9214928D01*
X-15823148Y9282945D01*
X-15790433Y9361462D01*
X-15757717Y9450481D01*
X-15727645Y9541954D01*
X-15721806Y9548743D01*
X-15716530Y9550000D01*
X-15483470Y9550000D01*
X-15475197Y9546573D01*
G37*
%TD.AperFunction*%
%TD*%
%TA.AperFunction,Conductor*%
%TO.N,/V_TEMP*%
G36*
X-3569136Y-4250886D02*
G01*
X-3487179Y-4256691D01*
X-3485268Y-4256988D01*
X-3462196Y-4262558D01*
X-3419692Y-4272819D01*
X-3419200Y-4272961D01*
X-3385499Y-4284292D01*
X-3362218Y-4292120D01*
X-3295442Y-4308240D01*
X-3210825Y-4314233D01*
X-3202815Y-4318236D01*
X-3199952Y-4325852D01*
X-3199022Y-4535102D01*
X-3202412Y-4543390D01*
X-3202475Y-4543453D01*
X-3349890Y-4689946D01*
X-3358174Y-4693347D01*
X-3366436Y-4689894D01*
X-3367247Y-4688988D01*
X-3407891Y-4638549D01*
X-3408898Y-4637085D01*
X-3440048Y-4583406D01*
X-3469221Y-4539676D01*
X-3511311Y-4510570D01*
X-3521329Y-4509064D01*
X-3571694Y-4501496D01*
X-3579366Y-4496878D01*
X-3581655Y-4489926D01*
X-3581655Y-4262558D01*
X-3578228Y-4254285D01*
X-3569955Y-4250858D01*
X-3569136Y-4250886D01*
G37*
%TD.AperFunction*%
%TD*%
%TA.AperFunction,Conductor*%
%TO.N,/SWCLK*%
G36*
X-6151777Y-2368353D02*
G01*
X-6057372Y-2396854D01*
X-6050443Y-2402526D01*
X-6049059Y-2407730D01*
X-6045446Y-2537561D01*
X-6048641Y-2545926D01*
X-6056816Y-2549581D01*
X-6057537Y-2549579D01*
X-6123081Y-2547362D01*
X-6201063Y-2546105D01*
X-6279045Y-2546227D01*
X-6357027Y-2547730D01*
X-6429912Y-2550424D01*
X-6438306Y-2547305D01*
X-6438617Y-2547005D01*
X-6600723Y-2384899D01*
X-6604150Y-2376626D01*
X-6600723Y-2368353D01*
X-6595785Y-2365412D01*
X-6571691Y-2358250D01*
X-6528768Y-2344111D01*
X-6485846Y-2328592D01*
X-6442923Y-2311693D01*
X-6403903Y-2295075D01*
X-6395939Y-2294640D01*
X-6151777Y-2368353D01*
G37*
%TD.AperFunction*%
%TD*%
%TA.AperFunction,Conductor*%
%TO.N,/TX*%
G36*
X-6837984Y-3041417D02*
G01*
X-6837972Y-3041444D01*
X-6757295Y-3233978D01*
X-6757258Y-3242933D01*
X-6757295Y-3243022D01*
X-6837650Y-3434788D01*
X-6844008Y-3441094D01*
X-6852963Y-3441057D01*
X-6853716Y-3440710D01*
X-6903914Y-3415355D01*
X-6904558Y-3414975D01*
X-6946668Y-3386331D01*
X-6983490Y-3362445D01*
X-6983492Y-3362444D01*
X-6983495Y-3362442D01*
X-7028419Y-3346174D01*
X-7028418Y-3346174D01*
X-7084513Y-3341122D01*
X-7092445Y-3336967D01*
X-7095163Y-3329469D01*
X-7095163Y-3101607D01*
X-7091736Y-3093334D01*
X-7083723Y-3089910D01*
X-7030559Y-3088739D01*
X-6984693Y-3083510D01*
X-6945862Y-3073040D01*
X-6902367Y-3055891D01*
X-6853309Y-3035186D01*
X-6844358Y-3035127D01*
X-6837984Y-3041417D01*
G37*
%TD.AperFunction*%
%TD*%
%TA.AperFunction,Conductor*%
%TO.N,/COS*%
G36*
X-3070000Y-2757999D02*
G01*
X-3045914Y-2763217D01*
X-3040001Y-2764499D01*
X-3040002Y-2764499D01*
X-3030000Y-2766166D01*
X-3010000Y-2769500D01*
X-3009987Y-2769501D01*
X-3009984Y-2769502D01*
X-2980010Y-2772999D01*
X-2980007Y-2772999D01*
X-2980000Y-2773000D01*
X-2960920Y-2774272D01*
X-2952895Y-2778240D01*
X-2950000Y-2785945D01*
X-2950000Y-3014053D01*
X-2953427Y-3022326D01*
X-2960921Y-3025727D01*
X-2973082Y-3026537D01*
X-2980000Y-3026999D01*
X-2980009Y-3027000D01*
X-2980010Y-3027000D01*
X-3009984Y-3030497D01*
X-3009987Y-3030497D01*
X-3010000Y-3030499D01*
X-3030000Y-3033833D01*
X-3040002Y-3035500D01*
X-3040001Y-3035500D01*
X-3046729Y-3036957D01*
X-3070000Y-3042000D01*
X-3070015Y-3042004D01*
X-3070014Y-3042003D01*
X-3096100Y-3048959D01*
X-3103712Y-3048413D01*
X-3425824Y-2910759D01*
X-3432085Y-2904356D01*
X-3431985Y-2895402D01*
X-3425824Y-2889241D01*
X-3103712Y-2751585D01*
X-3096100Y-2751040D01*
X-3070000Y-2757999D01*
G37*
%TD.AperFunction*%
%TD*%
%TA.AperFunction,Conductor*%
%TO.N,/3v3*%
G36*
X-24421614Y-4894851D02*
G01*
X-24353187Y-4903938D01*
X-24350947Y-4904465D01*
X-24287580Y-4926179D01*
X-24232919Y-4943033D01*
X-24179558Y-4938324D01*
X-24127044Y-4901381D01*
X-24118307Y-4899424D01*
X-24112040Y-4902678D01*
X-23983999Y-5030719D01*
X-23980572Y-5038992D01*
X-23983999Y-5047265D01*
X-23984410Y-5047657D01*
X-24045319Y-5102922D01*
X-24045839Y-5103342D01*
X-24100404Y-5142503D01*
X-24100701Y-5142703D01*
X-24150464Y-5173991D01*
X-24205445Y-5213451D01*
X-24205455Y-5213460D01*
X-24267484Y-5269742D01*
X-24275914Y-5272763D01*
X-24283582Y-5269387D01*
X-24432028Y-5122255D01*
X-24435492Y-5113997D01*
X-24435492Y-5113908D01*
X-24435457Y-5102922D01*
X-24434842Y-4906412D01*
X-24431389Y-4898151D01*
X-24423105Y-4894750D01*
X-24421614Y-4894851D01*
G37*
%TD.AperFunction*%
%TD*%
%TA.AperFunction,Conductor*%
%TO.N,/TX*%
G36*
X-5098862Y-2838696D02*
G01*
X-5095676Y-2844608D01*
X-5083408Y-2904150D01*
X-5045554Y-2939190D01*
X-5045553Y-2939190D01*
X-5045551Y-2939192D01*
X-4991122Y-2959355D01*
X-4928620Y-2983068D01*
X-4925981Y-2984479D01*
X-4872117Y-3022901D01*
X-4867371Y-3030494D01*
X-4869386Y-3039219D01*
X-4870612Y-3040672D01*
X-5018328Y-3189317D01*
X-5022194Y-3191898D01*
X-5217784Y-3271973D01*
X-5226739Y-3271936D01*
X-5232704Y-3266332D01*
X-5280861Y-3168912D01*
X-5328498Y-3094588D01*
X-5366434Y-3030886D01*
X-5367495Y-3028556D01*
X-5392526Y-2952437D01*
X-5393072Y-2949738D01*
X-5401369Y-2847919D01*
X-5398626Y-2839395D01*
X-5390658Y-2835308D01*
X-5389708Y-2835269D01*
X-5107135Y-2835269D01*
X-5098862Y-2838696D01*
G37*
%TD.AperFunction*%
%TD*%
%TA.AperFunction,Conductor*%
%TO.N,/RX*%
G36*
X-16997968Y10998179D02*
G01*
X-16997710Y10998068D01*
X-16983799Y10991878D01*
X-16814280Y10916445D01*
X-16813979Y10916300D01*
X-16679888Y10846496D01*
X-16565742Y10782174D01*
X-16431502Y10712288D01*
X-16247390Y10630350D01*
X-16241226Y10623857D01*
X-16241339Y10615184D01*
X-16328940Y10403723D01*
X-16335272Y10397391D01*
X-16342159Y10396752D01*
X-16502215Y10430450D01*
X-16620234Y10386421D01*
X-16721075Y10292973D01*
X-16838148Y10181322D01*
X-16840220Y10179746D01*
X-16997047Y10086001D01*
X-17005906Y10084698D01*
X-17013093Y10090041D01*
X-17013853Y10091551D01*
X-17199055Y10536888D01*
X-17199067Y10545838D01*
X-17013266Y10991880D01*
X-17006923Y10998197D01*
X-16997968Y10998179D01*
G37*
%TD.AperFunction*%
%TD*%
%TA.AperFunction,Conductor*%
%TO.N,/3v3*%
G36*
X1269722Y-1767373D02*
G01*
X1743269Y-2051763D01*
X1748597Y-2058960D01*
X1748293Y-2065645D01*
X1660155Y-2318433D01*
X1654195Y-2325117D01*
X1646344Y-2325949D01*
X1526084Y-2296725D01*
X1395508Y-2270064D01*
X1264931Y-2248472D01*
X1134355Y-2231951D01*
X1014457Y-2221436D01*
X1006515Y-2217300D01*
X1003779Y-2209781D01*
X1003779Y-1850144D01*
X1007206Y-1841871D01*
X1014375Y-1838496D01*
X1055883Y-1834563D01*
X1065508Y-1832714D01*
X1107986Y-1824556D01*
X1160089Y-1809478D01*
X1160088Y-1809479D01*
X1182078Y-1800975D01*
X1212193Y-1789331D01*
X1258602Y-1766870D01*
X1267541Y-1766352D01*
X1269722Y-1767373D01*
G37*
%TD.AperFunction*%
%TD*%
%TA.AperFunction,Conductor*%
%TO.N,/TX*%
G36*
X-50378001Y-12789946D02*
G01*
X-50369743Y-12793407D01*
X-50366350Y-12801694D01*
X-50366420Y-12802923D01*
X-50375568Y-12886223D01*
X-50376062Y-12888534D01*
X-50380438Y-12902116D01*
X-50381149Y-12903839D01*
X-50399426Y-12939713D01*
X-50405478Y-12977913D01*
X-50405971Y-12979889D01*
X-50419322Y-13018682D01*
X-50419324Y-13018691D01*
X-50424290Y-13085835D01*
X-50402131Y-13166194D01*
X-50403235Y-13175080D01*
X-50408933Y-13180114D01*
X-50623236Y-13268871D01*
X-50632191Y-13268870D01*
X-50638521Y-13262540D01*
X-50674766Y-13174869D01*
X-50703554Y-13104935D01*
X-50728367Y-13044517D01*
X-50757156Y-12974583D01*
X-50793426Y-12886859D01*
X-50793421Y-12877906D01*
X-50787141Y-12871602D01*
X-50592574Y-12789996D01*
X-50588009Y-12789086D01*
X-50378001Y-12789946D01*
G37*
%TD.AperFunction*%
%TD*%
%TA.AperFunction,Conductor*%
%TO.N,/COS*%
G36*
X-2238614Y-2607266D02*
G01*
X-2236505Y-2608938D01*
X-2075162Y-2770281D01*
X-2071735Y-2778554D01*
X-2075162Y-2786827D01*
X-2077628Y-2788711D01*
X-2111458Y-2808054D01*
X-2111467Y-2808060D01*
X-2146879Y-2831689D01*
X-2158599Y-2839510D01*
X-2205724Y-2875454D01*
X-2205725Y-2875454D01*
X-2252870Y-2915915D01*
X-2252870Y-2915916D01*
X-2294154Y-2955288D01*
X-2302506Y-2958518D01*
X-2307286Y-2957372D01*
X-2545244Y-2843325D01*
X-2551223Y-2836659D01*
X-2551721Y-2834737D01*
X-2582401Y-2654040D01*
X-2580407Y-2645310D01*
X-2572824Y-2640547D01*
X-2570554Y-2640386D01*
X-2516051Y-2641866D01*
X-2516051Y-2641865D01*
X-2516049Y-2641866D01*
X-2467339Y-2640000D01*
X-2447316Y-2639233D01*
X-2378580Y-2632099D01*
X-2322574Y-2622620D01*
X-2309850Y-2620467D01*
X-2309851Y-2620467D01*
X-2309845Y-2620466D01*
X-2247451Y-2605821D01*
X-2238614Y-2607266D01*
G37*
%TD.AperFunction*%
%TD*%
%TA.AperFunction,Conductor*%
%TO.N,/3v3*%
G36*
X-7130557Y-3728618D02*
G01*
X-6937870Y-3807640D01*
X-6931515Y-3813950D01*
X-6931480Y-3814035D01*
X-6852567Y-4006944D01*
X-6852606Y-4015899D01*
X-6858966Y-4022203D01*
X-6859065Y-4022243D01*
X-6935289Y-4052613D01*
X-6997795Y-4076210D01*
X-7051204Y-4097869D01*
X-7079855Y-4111705D01*
X-7111074Y-4126783D01*
X-7182967Y-4166602D01*
X-7191865Y-4167613D01*
X-7198767Y-4162219D01*
X-7289329Y-4005386D01*
X-7290498Y-3996509D01*
X-7286013Y-3990027D01*
X-7232601Y-3951756D01*
X-7199747Y-3908161D01*
X-7182651Y-3859559D01*
X-7167955Y-3800313D01*
X-7167821Y-3799859D01*
X-7146071Y-3735690D01*
X-7140169Y-3728955D01*
X-7131234Y-3728365D01*
X-7130557Y-3728618D01*
G37*
%TD.AperFunction*%
%TD*%
%TA.AperFunction,Conductor*%
%TO.N,/3v3*%
G36*
X-4102978Y-4189648D02*
G01*
X-4098847Y-4197453D01*
X-4092012Y-4265665D01*
X-4084024Y-4343885D01*
X-4076036Y-4420605D01*
X-4068048Y-4495825D01*
X-4060663Y-4563975D01*
X-4063179Y-4572569D01*
X-4064022Y-4573508D01*
X-4224553Y-4734039D01*
X-4232826Y-4737466D01*
X-4241099Y-4734039D01*
X-4243602Y-4730323D01*
X-4254709Y-4704058D01*
X-4272581Y-4663293D01*
X-4290452Y-4624029D01*
X-4308324Y-4586264D01*
X-4324396Y-4553652D01*
X-4325339Y-4546018D01*
X-4281830Y-4343885D01*
X-4252522Y-4207723D01*
X-4247431Y-4200357D01*
X-4242117Y-4198532D01*
X-4111520Y-4186965D01*
X-4102978Y-4189648D01*
G37*
%TD.AperFunction*%
%TD*%
%TA.AperFunction,Conductor*%
%TO.N,/3v3*%
G36*
X-125890Y-1935973D02*
G01*
X-119966Y-1942688D01*
X-119907Y-1942866D01*
X-8958Y-2284343D01*
X-9660Y-2293270D01*
X-14844Y-2298418D01*
X-133412Y-2357825D01*
X-133414Y-2357826D01*
X-198642Y-2437872D01*
X-237249Y-2532813D01*
X-284402Y-2640143D01*
X-285819Y-2642543D01*
X-369417Y-2751896D01*
X-377164Y-2756387D01*
X-385818Y-2754085D01*
X-386964Y-2753084D01*
X-624278Y-2516973D01*
X-626848Y-2513126D01*
X-690657Y-2357827D01*
X-754565Y-2202287D01*
X-754540Y-2193334D01*
X-748367Y-2187095D01*
X-602423Y-2124333D01*
X-492313Y-2073893D01*
X-397022Y-2031142D01*
X-396819Y-2031056D01*
X-284642Y-1986754D01*
X-284505Y-1986704D01*
X-134825Y-1935413D01*
X-125890Y-1935973D01*
G37*
%TD.AperFunction*%
%TD*%
%TA.AperFunction,Conductor*%
%TO.N,/TX*%
G36*
X-50455512Y-12345416D02*
G01*
X-50452125Y-12352738D01*
X-50450244Y-12375825D01*
X-50443849Y-12454325D01*
X-50422026Y-12532559D01*
X-50422023Y-12532568D01*
X-50396083Y-12599151D01*
X-50395899Y-12599703D01*
X-50374452Y-12676585D01*
X-50374061Y-12678779D01*
X-50366026Y-12777406D01*
X-50368769Y-12785930D01*
X-50376737Y-12790017D01*
X-50377635Y-12790056D01*
X-50587621Y-12790989D01*
X-50592195Y-12790080D01*
X-50786990Y-12708456D01*
X-50793296Y-12702098D01*
X-50793259Y-12693143D01*
X-50761006Y-12617978D01*
X-50735043Y-12555773D01*
X-50718425Y-12500336D01*
X-50709597Y-12434722D01*
X-50707318Y-12353361D01*
X-50703661Y-12345188D01*
X-50695623Y-12341989D01*
X-50463785Y-12341989D01*
X-50455512Y-12345416D01*
G37*
%TD.AperFunction*%
%TD*%
%TA.AperFunction,Conductor*%
%TO.N,/SIN*%
G36*
X2784963Y331763D02*
G01*
X3237005Y3610D01*
X3241687Y-4023D01*
X3240983Y-10234D01*
X3142863Y-253537D01*
X3136590Y-259928D01*
X3127636Y-260012D01*
X3126855Y-259663D01*
X3003668Y-199169D01*
X3003659Y-199165D01*
X3003660Y-199165D01*
X2907456Y-158361D01*
X2869182Y-142127D01*
X2869178Y-142125D01*
X2869172Y-142123D01*
X2734696Y-94084D01*
X2600201Y-55039D01*
X2600200Y-55039D01*
X2474873Y-27043D01*
X2467546Y-21894D01*
X2465724Y-15624D01*
X2465724Y214076D01*
X2469151Y222349D01*
X2476620Y225749D01*
X2528276Y229294D01*
X2565525Y237210D01*
X2590816Y242584D01*
X2590819Y242586D01*
X2590828Y242587D01*
X2653380Y264880D01*
X2715932Y296173D01*
X2771755Y332132D01*
X2780565Y333730D01*
X2784963Y331763D01*
G37*
%TD.AperFunction*%
%TD*%
%TA.AperFunction,Conductor*%
%TO.N,/SIN*%
G36*
X-3070000Y-3257999D02*
G01*
X-3045914Y-3263217D01*
X-3040001Y-3264499D01*
X-3040002Y-3264499D01*
X-3030000Y-3266166D01*
X-3010000Y-3269500D01*
X-3009987Y-3269501D01*
X-3009984Y-3269502D01*
X-2980010Y-3272999D01*
X-2980007Y-3272999D01*
X-2980000Y-3273000D01*
X-2960920Y-3274272D01*
X-2952895Y-3278240D01*
X-2950000Y-3285945D01*
X-2950000Y-3514053D01*
X-2953427Y-3522326D01*
X-2960921Y-3525727D01*
X-2973082Y-3526537D01*
X-2980000Y-3526999D01*
X-2980009Y-3527000D01*
X-2980010Y-3527000D01*
X-3009984Y-3530497D01*
X-3009987Y-3530497D01*
X-3010000Y-3530499D01*
X-3030000Y-3533833D01*
X-3040002Y-3535500D01*
X-3040001Y-3535500D01*
X-3046729Y-3536957D01*
X-3070000Y-3542000D01*
X-3070015Y-3542004D01*
X-3070014Y-3542003D01*
X-3096100Y-3548959D01*
X-3103712Y-3548413D01*
X-3425824Y-3410759D01*
X-3432085Y-3404356D01*
X-3431985Y-3395402D01*
X-3425824Y-3389241D01*
X-3103712Y-3251585D01*
X-3096100Y-3251040D01*
X-3070000Y-3257999D01*
G37*
%TD.AperFunction*%
%TD*%
%TA.AperFunction,Conductor*%
%TO.N,/SWDIO*%
G36*
X-49804703Y-11958655D02*
G01*
X-49798394Y-11965010D01*
X-49798136Y-11965701D01*
X-49779522Y-12020760D01*
X-49779374Y-12021273D01*
X-49766993Y-12073048D01*
X-49752999Y-12115996D01*
X-49752997Y-12116000D01*
X-49752996Y-12116003D01*
X-49752995Y-12116005D01*
X-49752993Y-12116008D01*
X-49725661Y-12155825D01*
X-49725659Y-12155826D01*
X-49725658Y-12155828D01*
X-49681447Y-12191781D01*
X-49677192Y-12199657D01*
X-49679102Y-12207356D01*
X-49807737Y-12399872D01*
X-49815182Y-12404847D01*
X-49823965Y-12403100D01*
X-49824056Y-12403039D01*
X-49881073Y-12364168D01*
X-49928619Y-12331645D01*
X-49928624Y-12331642D01*
X-49970969Y-12305696D01*
X-49970968Y-12305696D01*
X-49970972Y-12305694D01*
X-49987218Y-12297505D01*
X-50022123Y-12279912D01*
X-50040860Y-12271797D01*
X-50085585Y-12252428D01*
X-50091815Y-12245996D01*
X-50091765Y-12237265D01*
X-50012687Y-12043980D01*
X-50006383Y-12037622D01*
X-50006353Y-12037609D01*
X-49813657Y-11958622D01*
X-49804703Y-11958655D01*
G37*
%TD.AperFunction*%
%TD*%
%TA.AperFunction,Conductor*%
%TO.N,/3v3_FUSED*%
G36*
X-18410696Y9521961D02*
G01*
X-18407428Y9516142D01*
X-18389902Y9438666D01*
X-18370281Y9358495D01*
X-18350661Y9284895D01*
X-18331040Y9217864D01*
X-18313228Y9162979D01*
X-18313934Y9154052D01*
X-18314802Y9152615D01*
X-18590431Y8762524D01*
X-18598003Y8757745D01*
X-18606738Y8759721D01*
X-18609541Y8762524D01*
X-18885175Y9152581D01*
X-18887151Y9161315D01*
X-18886730Y9162999D01*
X-18868961Y9216681D01*
X-18849340Y9282529D01*
X-18829720Y9354947D01*
X-18810099Y9433935D01*
X-18792528Y9510552D01*
X-18787338Y9517849D01*
X-18781309Y9519635D01*
X-18419021Y9525259D01*
X-18410696Y9521961D01*
G37*
%TD.AperFunction*%
%TD*%
%TA.AperFunction,Conductor*%
%TO.N,/3v3*%
G36*
X-21398223Y10400788D02*
G01*
X-21379386Y10384758D01*
X-21354071Y10367485D01*
X-21328757Y10354481D01*
X-21309613Y10347876D01*
X-21303443Y10345746D01*
X-21290061Y10343385D01*
X-21281759Y10341920D01*
X-21275519Y10338671D01*
X-21021809Y10084961D01*
X-21018382Y10076688D01*
X-21021809Y10068415D01*
X-21026158Y10065666D01*
X-21087915Y10043680D01*
X-21087916Y10043680D01*
X-21087917Y10043679D01*
X-21167108Y10008628D01*
X-21167107Y10008629D01*
X-21246312Y9966715D01*
X-21246311Y9966715D01*
X-21325507Y9917946D01*
X-21399087Y9866263D01*
X-21407827Y9864312D01*
X-21410882Y9865292D01*
X-21412902Y9866263D01*
X-21621836Y9966716D01*
X-21881410Y10091516D01*
X-21887381Y10098190D01*
X-21886885Y10107131D01*
X-21882478Y10112021D01*
X-21411941Y10401841D01*
X-21403101Y10403261D01*
X-21398223Y10400788D01*
G37*
%TD.AperFunction*%
%TD*%
%TA.AperFunction,Conductor*%
%TO.N,Net-(U2-NRST)*%
G36*
X-4625596Y-4573427D02*
G01*
X-4622604Y-4578538D01*
X-4610381Y-4622086D01*
X-4595762Y-4669673D01*
X-4581142Y-4712760D01*
X-4566523Y-4751347D01*
X-4554745Y-4778808D01*
X-4554634Y-4787762D01*
X-4556543Y-4790950D01*
X-4741045Y-5010351D01*
X-4748993Y-5014478D01*
X-4757530Y-5011776D01*
X-4758955Y-5010351D01*
X-4943458Y-4790949D01*
X-4946160Y-4782412D01*
X-4945256Y-4778808D01*
X-4933478Y-4751346D01*
X-4918859Y-4712759D01*
X-4904239Y-4669673D01*
X-4889620Y-4622086D01*
X-4877397Y-4578537D01*
X-4871862Y-4571499D01*
X-4866132Y-4570000D01*
X-4633869Y-4570000D01*
X-4625596Y-4573427D01*
G37*
%TD.AperFunction*%
%TD*%
%TA.AperFunction,Conductor*%
%TO.N,/SIN*%
G36*
X-2778916Y-3226655D02*
G01*
X-2717865Y-3277995D01*
X-2560129Y-3410641D01*
X-2556002Y-3418589D01*
X-2558704Y-3427126D01*
X-2560523Y-3428868D01*
X-2788473Y-3604310D01*
X-2797119Y-3606640D01*
X-2801849Y-3604935D01*
X-2835954Y-3583431D01*
X-2835953Y-3583431D01*
X-2876968Y-3562072D01*
X-2917958Y-3545223D01*
X-2917981Y-3545214D01*
X-2958980Y-3532860D01*
X-2958986Y-3532858D01*
X-2990502Y-3526819D01*
X-2997982Y-3521896D01*
X-3000000Y-3515328D01*
X-3000000Y-3286268D01*
X-2996573Y-3277995D01*
X-2988742Y-3274576D01*
X-2956914Y-3273380D01*
X-2913827Y-3267261D01*
X-2870741Y-3256641D01*
X-2827654Y-3241522D01*
X-2791290Y-3224963D01*
X-2782342Y-3224654D01*
X-2778916Y-3226655D01*
G37*
%TD.AperFunction*%
%TD*%
%TA.AperFunction,Conductor*%
%TO.N,/3v3_FUSED*%
G36*
X-21398611Y11799646D02*
G01*
X-21365686Y11779892D01*
X-21343740Y11766724D01*
X-21343737Y11766723D01*
X-21343736Y11766722D01*
X-21343735Y11766721D01*
X-21308565Y11749576D01*
X-21282780Y11737006D01*
X-21282777Y11737005D01*
X-21282773Y11737003D01*
X-21252300Y11725576D01*
X-21221820Y11714146D01*
X-21160860Y11698144D01*
X-21109864Y11690495D01*
X-21102191Y11685878D01*
X-21099900Y11678924D01*
X-21099900Y11318077D01*
X-21103327Y11309804D01*
X-21109864Y11306506D01*
X-21150660Y11300386D01*
X-21160860Y11298856D01*
X-21221820Y11282854D01*
X-21221822Y11282854D01*
X-21221827Y11282852D01*
X-21282773Y11259998D01*
X-21343735Y11230279D01*
X-21343737Y11230278D01*
X-21343740Y11230276D01*
X-21354711Y11223694D01*
X-21398611Y11197355D01*
X-21407468Y11196037D01*
X-21410753Y11197418D01*
X-21646293Y11342074D01*
X-21884768Y11488532D01*
X-21890023Y11495780D01*
X-21888614Y11504623D01*
X-21884769Y11508469D01*
X-21410753Y11799584D01*
X-21401910Y11800992D01*
X-21398611Y11799646D01*
G37*
%TD.AperFunction*%
%TD*%
%TA.AperFunction,Conductor*%
%TO.N,/SIN*%
G36*
X-2244867Y-3154847D02*
G01*
X-2241888Y-3157008D01*
X-2080326Y-3318570D01*
X-2076899Y-3326843D01*
X-2080326Y-3335116D01*
X-2082150Y-3336605D01*
X-2116153Y-3359068D01*
X-2162115Y-3393931D01*
X-2186357Y-3414693D01*
X-2208083Y-3433300D01*
X-2254033Y-3477152D01*
X-2254034Y-3477152D01*
X-2294446Y-3519676D01*
X-2302629Y-3523312D01*
X-2307440Y-3522411D01*
X-2545038Y-3423077D01*
X-2551349Y-3416724D01*
X-2551972Y-3414700D01*
X-2590190Y-3233186D01*
X-2588541Y-3224386D01*
X-2581152Y-3219328D01*
X-2579522Y-3219103D01*
X-2546279Y-3216886D01*
X-2523780Y-3215386D01*
X-2523778Y-3215385D01*
X-2523767Y-3215385D01*
X-2454567Y-3206271D01*
X-2454566Y-3206271D01*
X-2418472Y-3199169D01*
X-2385367Y-3192657D01*
X-2316167Y-3174543D01*
X-2316155Y-3174539D01*
X-2316155Y-3174540D01*
X-2295890Y-3167916D01*
X-2271033Y-3159793D01*
X-2270400Y-3159627D01*
X-2265497Y-3158652D01*
X-2265496Y-3158651D01*
X-2265495Y-3158651D01*
X-2264878Y-3158239D01*
X-2262013Y-3156845D01*
X-2253795Y-3154160D01*
X-2244867Y-3154847D01*
G37*
%TD.AperFunction*%
%TD*%
%TA.AperFunction,Conductor*%
%TO.N,/3v3*%
G36*
X-4862470Y81777D02*
G01*
X-4861050Y80357D01*
X-4676543Y-139049D01*
X-4673841Y-147586D01*
X-4674745Y-151191D01*
X-4686523Y-178652D01*
X-4701142Y-217239D01*
X-4715762Y-260326D01*
X-4730381Y-307913D01*
X-4742604Y-351462D01*
X-4748139Y-358501D01*
X-4753869Y-360000D01*
X-4986132Y-360000D01*
X-4994405Y-356573D01*
X-4997397Y-351463D01*
X-5009620Y-307913D01*
X-5024239Y-260326D01*
X-5038859Y-217240D01*
X-5053478Y-178653D01*
X-5065257Y-151191D01*
X-5065367Y-142238D01*
X-5063458Y-139050D01*
X-5063457Y-139049D01*
X-4878954Y80353D01*
X-4871007Y84479D01*
X-4862470Y81777D01*
G37*
%TD.AperFunction*%
%TD*%
%TA.AperFunction,Conductor*%
%TO.N,/V_TEMP*%
G36*
X-7018437Y-4699356D02*
G01*
X-6948521Y-4749413D01*
X-6890420Y-4787530D01*
X-6867426Y-4800006D01*
X-6837599Y-4816191D01*
X-6837600Y-4816190D01*
X-6774087Y-4844639D01*
X-6694641Y-4877661D01*
X-6688317Y-4884001D01*
X-6688303Y-4892896D01*
X-6767335Y-5086050D01*
X-6773640Y-5092409D01*
X-6773727Y-5092445D01*
X-6966426Y-5171412D01*
X-6975381Y-5171378D01*
X-6981689Y-5165023D01*
X-6981912Y-5164436D01*
X-7006827Y-5092445D01*
X-7007938Y-5089234D01*
X-7008073Y-5088786D01*
X-7025295Y-5022247D01*
X-7044449Y-4967116D01*
X-7080211Y-4914927D01*
X-7080211Y-4914926D01*
X-7139179Y-4864013D01*
X-7143202Y-4856012D01*
X-7140998Y-4848280D01*
X-7034711Y-4701990D01*
X-7027078Y-4697313D01*
X-7018437Y-4699356D01*
G37*
%TD.AperFunction*%
%TD*%
%TA.AperFunction,Conductor*%
%TO.N,/3v3*%
G36*
X-4626788Y-1103427D02*
G01*
X-4623493Y-1109948D01*
X-4620001Y-1133000D01*
X-4615001Y-1164500D01*
X-4610000Y-1194500D01*
X-4605000Y-1223000D01*
X-4600645Y-1246522D01*
X-4601390Y-1253250D01*
X-4739241Y-1575823D01*
X-4745644Y-1582084D01*
X-4754598Y-1581984D01*
X-4760759Y-1575823D01*
X-4803667Y-1475419D01*
X-4898613Y-1253247D01*
X-4899357Y-1246525D01*
X-4895001Y-1223000D01*
X-4890001Y-1194500D01*
X-4885000Y-1164500D01*
X-4880000Y-1133000D01*
X-4876507Y-1109947D01*
X-4871879Y-1102281D01*
X-4864939Y-1100000D01*
X-4635061Y-1100000D01*
X-4626788Y-1103427D01*
G37*
%TD.AperFunction*%
%TD*%
%TA.AperFunction,Conductor*%
%TO.N,/3v3*%
G36*
X-4746953Y6573D02*
G01*
X-4743631Y-133D01*
X-4730000Y-101000D01*
X-4715000Y-201500D01*
X-4700000Y-291500D01*
X-4685000Y-371000D01*
X-4671504Y-433083D01*
X-4673095Y-441895D01*
X-4675429Y-444541D01*
X-4960214Y-682812D01*
X-4968758Y-685493D01*
X-4976695Y-681347D01*
X-4977311Y-680543D01*
X-5216176Y-338880D01*
X-5218108Y-330136D01*
X-5215027Y-324073D01*
X-5176347Y-283803D01*
X-5131010Y-226102D01*
X-5085674Y-157901D01*
X-5085672Y-157897D01*
X-5085667Y-157890D01*
X-5040334Y-79195D01*
X-5040334Y-79196D01*
X-4998252Y3601D01*
X-4991449Y9424D01*
X-4987822Y10000D01*
X-4755226Y10000D01*
X-4746953Y6573D01*
G37*
%TD.AperFunction*%
%TD*%
%TA.AperFunction,Conductor*%
%TO.N,/COS*%
G36*
X-2793143Y-2676230D02*
G01*
X-2561581Y-2831561D01*
X-2556620Y-2839015D01*
X-2558383Y-2847795D01*
X-2560345Y-2850039D01*
X-2770299Y-3035839D01*
X-2778766Y-3038755D01*
X-2781068Y-3038382D01*
X-2820000Y-3028000D01*
X-2865000Y-3020500D01*
X-2865005Y-3020499D01*
X-2865010Y-3020499D01*
X-2909987Y-3017500D01*
X-2909996Y-3017500D01*
X-2910000Y-3017500D01*
X-2934375Y-3018312D01*
X-2955011Y-3019000D01*
X-2986754Y-3023233D01*
X-2995407Y-3020930D01*
X-2999897Y-3013182D01*
X-3000000Y-3011636D01*
X-3000000Y-2783772D01*
X-2996573Y-2775499D01*
X-2991581Y-2772542D01*
X-2960000Y-2763325D01*
X-2920000Y-2747151D01*
X-2889506Y-2731390D01*
X-2880002Y-2726479D01*
X-2880003Y-2726479D01*
X-2880001Y-2726478D01*
X-2840001Y-2701304D01*
X-2806631Y-2676548D01*
X-2797946Y-2674372D01*
X-2793143Y-2676230D01*
G37*
%TD.AperFunction*%
%TD*%
%TA.AperFunction,Conductor*%
%TO.N,/RX*%
G36*
X-6918681Y-1457090D02*
G01*
X-6918604Y-1457204D01*
X-6761736Y-1691957D01*
X-6759989Y-1700739D01*
X-6764056Y-1707513D01*
X-6824626Y-1757062D01*
X-6824630Y-1757066D01*
X-6862390Y-1808452D01*
X-6862391Y-1808453D01*
X-6887939Y-1860284D01*
X-6888077Y-1860547D01*
X-6919817Y-1917458D01*
X-6921050Y-1919253D01*
X-6970135Y-1978107D01*
X-6978065Y-1982265D01*
X-6986614Y-1979598D01*
X-6987351Y-1978927D01*
X-7136543Y-1831029D01*
X-7139132Y-1827154D01*
X-7219174Y-1631510D01*
X-7219135Y-1622557D01*
X-7213022Y-1616357D01*
X-7145031Y-1586721D01*
X-7141704Y-1585010D01*
X-7090948Y-1558918D01*
X-7090949Y-1558918D01*
X-7090943Y-1558915D01*
X-7046259Y-1530857D01*
X-7046257Y-1530856D01*
X-6995998Y-1495890D01*
X-6934944Y-1454052D01*
X-6926184Y-1452203D01*
X-6918681Y-1457090D01*
G37*
%TD.AperFunction*%
%TD*%
%TA.AperFunction,Conductor*%
%TO.N,/V_TEMP*%
G36*
X-23551328Y-5713427D02*
G01*
X-23547912Y-5721191D01*
X-23544313Y-5803812D01*
X-23544312Y-5803825D01*
X-23531885Y-5869534D01*
X-23531883Y-5869542D01*
X-23510873Y-5924740D01*
X-23481034Y-5987001D01*
X-23447026Y-6062956D01*
X-23446772Y-6071907D01*
X-23452923Y-6078415D01*
X-23453182Y-6078528D01*
X-23645478Y-6159105D01*
X-23654433Y-6159142D01*
X-23654522Y-6159105D01*
X-23846819Y-6078528D01*
X-23853125Y-6072170D01*
X-23853088Y-6063215D01*
X-23852975Y-6062956D01*
X-23818967Y-5987001D01*
X-23789128Y-5924740D01*
X-23783283Y-5909382D01*
X-23768118Y-5869541D01*
X-23755689Y-5803820D01*
X-23752088Y-5721190D01*
X-23748304Y-5713075D01*
X-23740399Y-5710000D01*
X-23559601Y-5710000D01*
X-23551328Y-5713427D01*
G37*
%TD.AperFunction*%
%TD*%
%TA.AperFunction,Conductor*%
%TO.N,/3v3*%
G36*
X-20700788Y11000831D02*
G01*
X-20700266Y11000344D01*
X-20549293Y10850707D01*
X-20399095Y10699168D01*
X-20395705Y10690880D01*
X-20399125Y10682666D01*
X-20468519Y10613159D01*
X-20523496Y10557882D01*
X-20570927Y10510093D01*
X-20625905Y10454815D01*
X-20695248Y10385359D01*
X-20703518Y10381925D01*
X-20711794Y10385345D01*
X-20965181Y10638732D01*
X-20968608Y10647005D01*
X-20965706Y10654717D01*
X-20926733Y10699168D01*
X-20899832Y10729850D01*
X-20899832Y10729851D01*
X-20899829Y10729854D01*
X-20857230Y10796953D01*
X-20857226Y10796960D01*
X-20857225Y10796960D01*
X-20824912Y10858413D01*
X-20824672Y10858826D01*
X-20811234Y10879995D01*
X-20782673Y10924982D01*
X-20781616Y10926393D01*
X-20717298Y10999749D01*
X-20709268Y11003709D01*
X-20700788Y11000831D01*
G37*
%TD.AperFunction*%
%TD*%
%TA.AperFunction,Conductor*%
%TO.N,GND*%
G36*
X-20004777Y10955375D02*
G01*
X-19922239Y10884880D01*
X-19919346Y10882205D01*
X-19901620Y10864479D01*
X-19891099Y10853957D01*
X-19876661Y10839519D01*
X-19876655Y10839514D01*
X-19255827Y10218686D01*
X-19255795Y10218649D01*
X-19216184Y10179043D01*
X-19213504Y10176144D01*
X-19198331Y10158380D01*
X-19125492Y10073103D01*
X-19116212Y10060332D01*
X-19048510Y9949861D01*
X-19041343Y9935797D01*
X-18991754Y9816093D01*
X-18986875Y9801079D01*
X-18956624Y9675091D01*
X-18954154Y9659499D01*
X-18946729Y9565193D01*
X-18948964Y9534812D01*
X-18956400Y9502387D01*
X-18963685Y9470619D01*
X-18981822Y9397603D01*
X-18982561Y9394630D01*
X-19001229Y9325727D01*
X-19018118Y9269044D01*
X-19019608Y9264045D01*
X-19031361Y9228542D01*
X-19068182Y9178444D01*
X-19127418Y9159558D01*
X-19186001Y9178773D01*
X-19223126Y9205750D01*
X-19228365Y9209557D01*
X-19228367Y9209558D01*
X-19257567Y9219043D01*
X-19311713Y9236631D01*
X-19311715Y9236631D01*
X-19355530Y9236624D01*
X-19531984Y9236624D01*
X-19532557Y9236575D01*
X-19553785Y9236581D01*
X-19553792Y9236580D01*
X-19637130Y9209525D01*
X-19662584Y9191038D01*
X-19708031Y9158031D01*
X-19708032Y9158030D01*
X-19708033Y9158029D01*
X-19759540Y9087153D01*
X-19759546Y9087141D01*
X-19786624Y9003815D01*
X-19786624Y-1972214D01*
X-19786598Y-1972509D01*
X-19786598Y-2014969D01*
X-19757684Y-2141646D01*
X-19757683Y-2141648D01*
X-19757682Y-2141651D01*
X-19701308Y-2258714D01*
X-19685743Y-2278232D01*
X-19620297Y-2360302D01*
X-19576456Y-2395266D01*
X-19519574Y-2440632D01*
X-19518713Y-2441318D01*
X-19401648Y-2497700D01*
X-19274973Y-2526620D01*
X-19252789Y-2526621D01*
X-19252772Y-2526624D01*
X-19210005Y-2526624D01*
X-19185109Y-2526626D01*
X-19185108Y-2526625D01*
X-19170230Y-2526626D01*
X-19170209Y-2526624D01*
X-8403825Y-2526624D01*
X-8386355Y-2528152D01*
X-8374163Y-2530301D01*
X-8374160Y-2530303D01*
X-8364851Y-2528661D01*
X-8361960Y-2528152D01*
X-8348449Y-2526970D01*
X-8344520Y-2526277D01*
X-8331425Y-2522767D01*
X-8319229Y-2520617D01*
X-8319228Y-2520615D01*
X-8313047Y-2517046D01*
X-8307588Y-2512466D01*
X-8307588Y-2512465D01*
X-8307586Y-2512465D01*
X-8301392Y-2501735D01*
X-8291343Y-2487381D01*
X-8283376Y-2477889D01*
X-8283376Y-2477882D01*
X-8280934Y-2471174D01*
X-8279697Y-2464161D01*
X-8281848Y-2451960D01*
X-8283376Y-2434492D01*
X-8283376Y-730403D01*
X-8264163Y-671272D01*
X-8255956Y-661373D01*
X-7918907Y-304102D01*
X-7856726Y-238190D01*
X-7802173Y-208363D01*
X-7783550Y-206624D01*
X-6053106Y-206624D01*
X-6050647Y-206684D01*
X-6049777Y-206726D01*
X-6025888Y-207895D01*
X-6025027Y-207241D01*
X-5998603Y-192834D01*
X-5997586Y-192465D01*
X-5997585Y-192462D01*
X-5989643Y-185800D01*
X-5975209Y-169427D01*
X-5384321Y279079D01*
X-5325606Y299525D01*
X-5266086Y281554D01*
X-5228496Y232031D01*
X-5222900Y198947D01*
X-5222900Y-48718D01*
X-5239721Y-104409D01*
X-5257939Y-131814D01*
X-5260277Y-135047D01*
X-5294115Y-178112D01*
X-5297391Y-181881D01*
X-5328900Y-214685D01*
X-5328908Y-214695D01*
X-5338360Y-227999D01*
X-5349231Y-240865D01*
X-5374221Y-265855D01*
X-5374221Y-265856D01*
X-5419962Y-369448D01*
X-5422900Y-394770D01*
X-5422900Y-985233D01*
X-5421705Y-995530D01*
X-5433976Y-1056481D01*
X-5479730Y-1098579D01*
X-5541261Y-1105789D01*
X-5577508Y-1098579D01*
X-5600000Y-1094105D01*
X-5900000Y-1094105D01*
X-5911866Y-1096465D01*
X-5959657Y-1105971D01*
X-5968812Y-1109764D01*
X-5969835Y-1107296D01*
X-6010720Y-1119700D01*
X-6332423Y-1119700D01*
X-6332447Y-1119698D01*
X-6347212Y-1119698D01*
X-6347265Y-1119681D01*
X-6472893Y-1119684D01*
X-6638818Y-1145968D01*
X-6638828Y-1145970D01*
X-6798586Y-1197884D01*
X-6798596Y-1197888D01*
X-6837619Y-1217773D01*
X-6948282Y-1274163D01*
X-6975197Y-1293719D01*
X-6996553Y-1309235D01*
X-7016096Y-1320331D01*
X-7024201Y-1323800D01*
X-7024206Y-1323803D01*
X-7085716Y-1365954D01*
X-7132423Y-1398447D01*
X-7134400Y-1399755D01*
X-7167330Y-1420431D01*
X-7171081Y-1422568D01*
X-7211316Y-1443253D01*
X-7214216Y-1444628D01*
X-7276117Y-1471611D01*
X-7276122Y-1471613D01*
X-7294517Y-1484244D01*
X-7300156Y-1487598D01*
X-7362294Y-1519261D01*
X-7446940Y-1603907D01*
X-7501285Y-1710566D01*
X-7501286Y-1710569D01*
X-7520011Y-1828797D01*
X-7520011Y-1828802D01*
X-7501286Y-1947030D01*
X-7501285Y-1947033D01*
X-7460409Y-2027257D01*
X-7450683Y-2088666D01*
X-7478909Y-2144064D01*
X-7494148Y-2156571D01*
X-7533536Y-2182892D01*
X-7533538Y-2182894D01*
X-7564698Y-2214057D01*
X-8023367Y-2672726D01*
X-8028321Y-2677070D01*
X-8062436Y-2703245D01*
X-8085183Y-2716376D01*
X-8115717Y-2729021D01*
X-8141084Y-2735816D01*
X-8183908Y-2741451D01*
X-8190480Y-2741881D01*
X-8245096Y-2741877D01*
X-8245152Y-2741882D01*
X-23509582Y-2741882D01*
X-23509712Y-2741888D01*
X-23558961Y-2741888D01*
X-23711181Y-2772165D01*
X-23854564Y-2831553D01*
X-23983613Y-2917777D01*
X-23983616Y-2917780D01*
X-23998062Y-2932224D01*
X-23998082Y-2932242D01*
X-24047252Y-2981413D01*
X-24073387Y-3007547D01*
X-24176260Y-3110420D01*
X-24178806Y-3114138D01*
X-24190658Y-3128409D01*
X-24287845Y-3225597D01*
X-24287850Y-3225601D01*
X-24324189Y-3261942D01*
X-24327848Y-3265258D01*
X-24391726Y-3317685D01*
X-24408124Y-3328642D01*
X-24474439Y-3364090D01*
X-24492657Y-3371637D01*
X-24564611Y-3393467D01*
X-24583951Y-3397315D01*
X-24665966Y-3405397D01*
X-24670902Y-3405640D01*
X-33076837Y-3405640D01*
X-33077032Y-3405648D01*
X-33224991Y-3405648D01*
X-33574985Y-3440118D01*
X-33919904Y-3508725D01*
X-33919927Y-3508731D01*
X-34256453Y-3610814D01*
X-34581351Y-3745390D01*
X-34581358Y-3745393D01*
X-34581367Y-3745397D01*
X-34581375Y-3745401D01*
X-34581383Y-3745405D01*
X-34891518Y-3911175D01*
X-34891536Y-3911186D01*
X-35183938Y-4106561D01*
X-35183945Y-4106566D01*
X-35455805Y-4329676D01*
X-35455809Y-4329679D01*
X-35526943Y-4400813D01*
X-35541221Y-4412670D01*
X-35544937Y-4415215D01*
X-35605224Y-4475502D01*
X-35607778Y-4479231D01*
X-35610287Y-4482253D01*
X-35610253Y-4482278D01*
X-35610307Y-4482353D01*
X-35612935Y-4485443D01*
X-35619601Y-4493474D01*
X-35620693Y-4494566D01*
X-35620812Y-4494707D01*
X-35709414Y-4583309D01*
X-35835718Y-4737211D01*
X-35928789Y-4850618D01*
X-35932524Y-4855169D01*
X-36127911Y-5147584D01*
X-36293689Y-5457728D01*
X-36293697Y-5457744D01*
X-36428281Y-5782652D01*
X-36530368Y-6119178D01*
X-36530371Y-6119192D01*
X-36598983Y-6464112D01*
X-36633458Y-6814095D01*
X-36633459Y-6814097D01*
X-36633460Y-6938101D01*
X-36633460Y-6989947D01*
X-36633461Y-7050560D01*
X-36633460Y-7050569D01*
X-36633460Y-8758232D01*
X-36634988Y-8775698D01*
X-36636000Y-8781438D01*
X-36636000Y-8829556D01*
X-36636061Y-8832024D01*
X-36651899Y-9154419D01*
X-36652384Y-9159335D01*
X-36699565Y-9477393D01*
X-36700529Y-9482237D01*
X-36778656Y-9794140D01*
X-36780090Y-9798867D01*
X-36888417Y-10101615D01*
X-36890307Y-10106178D01*
X-37027783Y-10396843D01*
X-37030111Y-10401199D01*
X-37195417Y-10676992D01*
X-37198162Y-10681098D01*
X-37389707Y-10939364D01*
X-37392840Y-10943183D01*
X-37609775Y-11182529D01*
X-37611478Y-11184318D01*
X-37644208Y-11217047D01*
X-37645995Y-11218748D01*
X-37885164Y-11435523D01*
X-37888982Y-11438656D01*
X-38147242Y-11630199D01*
X-38151349Y-11632943D01*
X-38427139Y-11798249D01*
X-38431495Y-11800577D01*
X-38722170Y-11938059D01*
X-38726733Y-11939949D01*
X-39029479Y-12048275D01*
X-39034205Y-12049709D01*
X-39346110Y-12127839D01*
X-39350955Y-12128803D01*
X-39669011Y-12175983D01*
X-39673927Y-12176468D01*
X-39995939Y-12192288D01*
X-39998407Y-12192349D01*
X-40077215Y-12192349D01*
X-40091574Y-12190090D01*
X-40091688Y-12190984D01*
X-40100933Y-12189801D01*
X-40126176Y-12191257D01*
X-40143685Y-12192266D01*
X-40146558Y-12192349D01*
X-40162993Y-12192349D01*
X-40162994Y-12192349D01*
X-40163008Y-12192350D01*
X-40167831Y-12193251D01*
X-40174170Y-12194023D01*
X-40198315Y-12195416D01*
X-40201214Y-12195500D01*
X-49256491Y-12195500D01*
X-49261425Y-12195258D01*
X-49343165Y-12187205D01*
X-49362506Y-12183358D01*
X-49433977Y-12161677D01*
X-49452195Y-12154131D01*
X-49518072Y-12118920D01*
X-49534471Y-12107963D01*
X-49585235Y-12066302D01*
X-49618755Y-12013938D01*
X-49619257Y-12011933D01*
X-49626228Y-11982778D01*
X-49627156Y-11979255D01*
X-49628303Y-11975279D01*
X-49629368Y-11971878D01*
X-49643216Y-11930917D01*
X-49643619Y-11929278D01*
X-49643670Y-11929295D01*
X-49647720Y-11916826D01*
X-49649039Y-11913693D01*
X-49649345Y-11912787D01*
X-49650469Y-11909779D01*
X-49657719Y-11898458D01*
X-49660178Y-11894166D01*
X-49700459Y-11815110D01*
X-49700460Y-11815109D01*
X-49700461Y-11815107D01*
X-49785107Y-11730461D01*
X-49785108Y-11730460D01*
X-49891767Y-11676115D01*
X-49891770Y-11676114D01*
X-50009997Y-11657389D01*
X-50010003Y-11657389D01*
X-50128231Y-11676114D01*
X-50128234Y-11676115D01*
X-50234893Y-11730460D01*
X-50309908Y-11805475D01*
X-50365306Y-11833702D01*
X-50426715Y-11823975D01*
X-50461768Y-11806114D01*
X-50579997Y-11787389D01*
X-50580003Y-11787389D01*
X-50698231Y-11806114D01*
X-50698234Y-11806115D01*
X-50804893Y-11860460D01*
X-50889540Y-11945107D01*
X-50943885Y-12051766D01*
X-50943886Y-12051769D01*
X-50962611Y-12169997D01*
X-50962611Y-12170002D01*
X-50943886Y-12288230D01*
X-50943886Y-12288231D01*
X-50943885Y-12288233D01*
X-50938914Y-12297989D01*
X-50929914Y-12323882D01*
X-50929186Y-12327513D01*
X-50929185Y-12327516D01*
X-50898956Y-12400197D01*
X-50885609Y-12435851D01*
X-50882872Y-12497965D01*
X-50886985Y-12509867D01*
X-50906421Y-12556435D01*
X-50938365Y-12630879D01*
X-50939278Y-12635279D01*
X-50948137Y-12660483D01*
X-50953885Y-12671764D01*
X-50953886Y-12671769D01*
X-50972611Y-12789997D01*
X-50972611Y-12790002D01*
X-50953886Y-12908231D01*
X-50949060Y-12917703D01*
X-50940018Y-12943800D01*
X-50939345Y-12947194D01*
X-50920827Y-12991980D01*
X-50903122Y-13034802D01*
X-50874404Y-13104564D01*
X-50849591Y-13164981D01*
X-50820733Y-13235085D01*
X-50814772Y-13249503D01*
X-50784443Y-13322867D01*
X-50783189Y-13325213D01*
X-50782464Y-13326451D01*
X-50760916Y-13368744D01*
X-50709114Y-13470424D01*
X-50709110Y-13470430D01*
X-50612723Y-13603110D01*
X-50597471Y-13618363D01*
X-50597449Y-13618389D01*
X-50591737Y-13624101D01*
X-50591731Y-13624108D01*
X-50558279Y-13657560D01*
X-50554744Y-13661094D01*
X-50513077Y-13702766D01*
X-50513049Y-13702789D01*
X-50493119Y-13722719D01*
X-50360445Y-13819111D01*
X-50360439Y-13819115D01*
X-50214324Y-13893564D01*
X-50214322Y-13893565D01*
X-50214320Y-13893565D01*
X-50214319Y-13893566D01*
X-50214294Y-13893574D01*
X-50058353Y-13944243D01*
X-50058350Y-13944243D01*
X-50058348Y-13944244D01*
X-49896374Y-13969899D01*
X-49896372Y-13969900D01*
X-49896369Y-13969900D01*
X-49866691Y-13969900D01*
X-49624578Y-13969900D01*
X-49624558Y-13969901D01*
X-49614974Y-13969901D01*
X-49614972Y-13969902D01*
X-49607312Y-13969901D01*
X-49607247Y-13969922D01*
X-49565619Y-13969920D01*
X-49565619Y-13969921D01*
X-49483619Y-13969918D01*
X-49321640Y-13944256D01*
X-49281312Y-13931151D01*
X-49165680Y-13893576D01*
X-49165678Y-13893574D01*
X-49165669Y-13893572D01*
X-49019548Y-13819113D01*
X-48917646Y-13745072D01*
X-48858516Y-13725858D01*
X-48799384Y-13745069D01*
X-48762838Y-13795368D01*
X-48759645Y-13830091D01*
X-48758389Y-13830092D01*
X-48758391Y-13843484D01*
X-48758394Y-13843508D01*
X-48758394Y-13886260D01*
X-48758398Y-13931151D01*
X-48758394Y-13931170D01*
X-48758394Y-14377944D01*
X-48758824Y-14384506D01*
X-48765830Y-14437751D01*
X-48771727Y-14482563D01*
X-48778520Y-14507924D01*
X-48810604Y-14585410D01*
X-48823736Y-14608160D01*
X-48874777Y-14674687D01*
X-48893352Y-14693264D01*
X-48959882Y-14744312D01*
X-48982633Y-14757445D01*
X-49008434Y-14768129D01*
X-49060106Y-14789526D01*
X-49085479Y-14796320D01*
X-49183521Y-14809212D01*
X-49190086Y-14809642D01*
X-51373465Y-14809642D01*
X-51380019Y-14809213D01*
X-51432888Y-14802264D01*
X-51478045Y-14796329D01*
X-51503435Y-14789528D01*
X-51580899Y-14757439D01*
X-51603643Y-14744307D01*
X-51670159Y-14693264D01*
X-51670177Y-14693250D01*
X-51688744Y-14674682D01*
X-51739798Y-14608143D01*
X-51752928Y-14585399D01*
X-51785018Y-14507920D01*
X-51791814Y-14482555D01*
X-51804717Y-14384508D01*
X-51805146Y-14377944D01*
X-51805146Y-10594593D01*
X-51804715Y-10588018D01*
X-51791807Y-10490009D01*
X-51785005Y-10464634D01*
X-51785003Y-10464630D01*
X-51752902Y-10387160D01*
X-51739779Y-10364436D01*
X-51688708Y-10297888D01*
X-51670156Y-10279335D01*
X-51603605Y-10228267D01*
X-51580884Y-10215147D01*
X-51503387Y-10183038D01*
X-51478035Y-10176242D01*
X-51380016Y-10163321D01*
X-51373436Y-10162890D01*
X-49190110Y-10162890D01*
X-49183528Y-10163322D01*
X-49126691Y-10170816D01*
X-49085491Y-10176249D01*
X-49060151Y-10183042D01*
X-49020269Y-10199561D01*
X-48982656Y-10215140D01*
X-48959916Y-10228267D01*
X-48897501Y-10276158D01*
X-48893381Y-10279319D01*
X-48874812Y-10297888D01*
X-48823761Y-10364414D01*
X-48810630Y-10387156D01*
X-48778535Y-10464630D01*
X-48771736Y-10489995D01*
X-48758825Y-10588021D01*
X-48758394Y-10594596D01*
X-48758394Y-11108205D01*
X-48758367Y-11108528D01*
X-48758368Y-11135838D01*
X-48758367Y-11135847D01*
X-48732710Y-11231629D01*
X-48683132Y-11317512D01*
X-48613015Y-11387636D01*
X-48613013Y-11387637D01*
X-48527139Y-11437221D01*
X-48431354Y-11462889D01*
X-48429672Y-11462889D01*
X-48429668Y-11462890D01*
X-48409659Y-11462890D01*
X-39880115Y-11462890D01*
X-39879713Y-11462854D01*
X-39754188Y-11462857D01*
X-39460117Y-11427155D01*
X-39172493Y-11356268D01*
X-38895511Y-11251229D01*
X-38633209Y-11113569D01*
X-38389413Y-10945297D01*
X-38167677Y-10748865D01*
X-37971234Y-10527138D01*
X-37802949Y-10283350D01*
X-37665277Y-10021055D01*
X-37560224Y-9744078D01*
X-37489323Y-9456458D01*
X-37489322Y-9456452D01*
X-37453608Y-9162401D01*
X-37453607Y-9162384D01*
X-37453602Y-9014274D01*
X-37453601Y-8969369D01*
X-37453602Y-8969366D01*
X-37453537Y-7115412D01*
X-37453534Y-7115403D01*
X-37453534Y-7030945D01*
X-37453534Y-7030940D01*
X-37453532Y-6996839D01*
X-37453533Y-6996838D01*
X-37453532Y-6986748D01*
X-37453466Y-6984183D01*
X-37433546Y-6598054D01*
X-37433134Y-6593730D01*
X-37433068Y-6593261D01*
X-37379926Y-6211626D01*
X-37379142Y-6207356D01*
X-37293001Y-5831288D01*
X-37291848Y-5827100D01*
X-37291639Y-5826454D01*
X-37205494Y-5559355D01*
X-37173430Y-5459938D01*
X-37171915Y-5455854D01*
X-37022103Y-5100328D01*
X-37020246Y-5096407D01*
X-36840164Y-4755197D01*
X-36837987Y-4751471D01*
X-36628989Y-4427146D01*
X-36626503Y-4423632D01*
X-36390172Y-4118652D01*
X-36387378Y-4115352D01*
X-36125515Y-3832033D01*
X-36122426Y-3828970D01*
X-35836989Y-3569427D01*
X-35833638Y-3566637D01*
X-35526788Y-3332832D01*
X-35523215Y-3330347D01*
X-35197223Y-3124013D01*
X-35193455Y-3121851D01*
X-34850805Y-2944562D01*
X-34846877Y-2942741D01*
X-34490132Y-2795824D01*
X-34486065Y-2794352D01*
X-34154350Y-2690342D01*
X-34117931Y-2678923D01*
X-34113724Y-2677801D01*
X-33736980Y-2594727D01*
X-33732707Y-2593977D01*
X-33350159Y-2543881D01*
X-33345856Y-2543506D01*
X-33041674Y-2530296D01*
X-32957096Y-2526624D01*
X-22387724Y-2526624D01*
X-22387248Y-2526580D01*
X-22345037Y-2526584D01*
X-22218357Y-2497678D01*
X-22101286Y-2441308D01*
X-21999694Y-2360299D01*
X-21918676Y-2258714D01*
X-21907228Y-2234944D01*
X-21862295Y-2141648D01*
X-21854152Y-2105973D01*
X-21833378Y-2014969D01*
X-21833378Y-1997898D01*
X-21833377Y-1997895D01*
X-21833377Y-1977890D01*
X-21833376Y-1977889D01*
X-21833441Y9313521D01*
X-21833441Y9349593D01*
X-21836531Y9361124D01*
X-21859106Y9445377D01*
X-21859108Y9445382D01*
X-21886543Y9492901D01*
X-21899470Y9553716D01*
X-21874181Y9610515D01*
X-21820337Y9641603D01*
X-21799421Y9643801D01*
X-21389644Y9643801D01*
X-21345042Y9652672D01*
X-21294466Y9686466D01*
X-21277083Y9712483D01*
X-21228257Y9750974D01*
X-21219477Y9753763D01*
X-21196350Y9759961D01*
X-21176218Y9765356D01*
X-21171953Y9766302D01*
X-21134956Y9772825D01*
X-21129244Y9773831D01*
X-21129244Y9773832D01*
X-21129239Y9773832D01*
X-21127426Y9774880D01*
X-21103160Y9784931D01*
X-21101134Y9785473D01*
X-21065599Y9810357D01*
X-21061927Y9812697D01*
X-21024362Y9834383D01*
X-20996489Y9867602D01*
X-20993539Y9870822D01*
X-20925521Y9938840D01*
X-20870125Y9967064D01*
X-20848618Y9967064D01*
X-20848618Y9967389D01*
X-20840697Y9967389D01*
X-20770989Y9978430D01*
X-20722467Y9986115D01*
X-20615807Y10040461D01*
X-20531161Y10125107D01*
X-20476815Y10231767D01*
X-20461697Y10327219D01*
X-20458089Y10349998D01*
X-20458089Y10357919D01*
X-20454394Y10357919D01*
X-20447272Y10403603D01*
X-20428929Y10429015D01*
X-20411483Y10446592D01*
X-20356670Y10501704D01*
X-20287382Y10571105D01*
X-20287377Y10571114D01*
X-20284197Y10574298D01*
X-20282889Y10575858D01*
X-20282883Y10575862D01*
X-20280189Y10580531D01*
X-20264197Y10601372D01*
X-20240461Y10625107D01*
X-20186115Y10731767D01*
X-20169049Y10839519D01*
X-20167389Y10849998D01*
X-20167389Y10850001D01*
X-20169470Y10863138D01*
X-20159745Y10924547D01*
X-20115782Y10968512D01*
X-20054373Y10978239D01*
X-20004777Y10955375D01*
G37*
%TD.AperFunction*%
%TA.AperFunction,Conductor*%
G36*
X-6431983Y-3699533D02*
G01*
X-6415057Y-3702900D01*
X-5810152Y-3702899D01*
X-5751021Y-3722112D01*
X-5714476Y-3772412D01*
X-5714476Y-3834586D01*
X-5751021Y-3884886D01*
X-5790525Y-3902166D01*
X-5809658Y-3905971D01*
X-5860233Y-3939765D01*
X-6010235Y-4089767D01*
X-6044029Y-4140342D01*
X-6055895Y-4200000D01*
X-6055895Y-4549999D01*
X-6044029Y-4609657D01*
X-6015811Y-4651887D01*
X-6010234Y-4660234D01*
X-5959658Y-4694028D01*
X-5900000Y-4705895D01*
X-5899999Y-4705895D01*
X-5600001Y-4705895D01*
X-5600000Y-4705895D01*
X-5540342Y-4694028D01*
X-5540334Y-4694022D01*
X-5538505Y-4693266D01*
X-5535204Y-4693005D01*
X-5530624Y-4692095D01*
X-5530517Y-4692636D01*
X-5476523Y-4688384D01*
X-5461500Y-4693265D01*
X-5459658Y-4694028D01*
X-5415057Y-4702900D01*
X-5203499Y-4702899D01*
X-5144369Y-4722112D01*
X-5107824Y-4772411D01*
X-5102900Y-4803499D01*
X-5102900Y-5262776D01*
X-5122113Y-5321907D01*
X-5172413Y-5358452D01*
X-5203500Y-5363376D01*
X-6321000Y-5363376D01*
X-6380131Y-5344163D01*
X-6416676Y-5293863D01*
X-6416676Y-5231689D01*
X-6410638Y-5217108D01*
X-6406115Y-5208233D01*
X-6392352Y-5121336D01*
X-6387389Y-5090002D01*
X-6387389Y-5089997D01*
X-6399857Y-5011280D01*
X-6406115Y-4971767D01*
X-6460461Y-4865107D01*
X-6545107Y-4780461D01*
X-6545108Y-4780460D01*
X-6610834Y-4746970D01*
X-6615999Y-4743939D01*
X-6634034Y-4731856D01*
X-6634039Y-4731853D01*
X-6711500Y-4699656D01*
X-6765829Y-4675320D01*
X-6769257Y-4673626D01*
X-6807474Y-4652889D01*
X-6811078Y-4650734D01*
X-6859217Y-4619153D01*
X-6926517Y-4570969D01*
X-6939280Y-4565165D01*
X-6958877Y-4553400D01*
X-7065070Y-4471914D01*
X-7079082Y-4463823D01*
X-7120683Y-4417620D01*
X-7127182Y-4355786D01*
X-7096094Y-4301942D01*
X-7077523Y-4288701D01*
X-7060684Y-4279374D01*
X-7039650Y-4267723D01*
X-7037224Y-4266466D01*
X-6988572Y-4242970D01*
X-6985657Y-4241677D01*
X-6940233Y-4223256D01*
X-6878178Y-4199830D01*
X-6800521Y-4168888D01*
X-6783101Y-4157472D01*
X-6778366Y-4154726D01*
X-6739881Y-4135117D01*
X-6709307Y-4119539D01*
X-6624661Y-4034893D01*
X-6570315Y-3928233D01*
X-6555699Y-3835948D01*
X-6551589Y-3810002D01*
X-6551589Y-3802083D01*
X-6549087Y-3802083D01*
X-6541241Y-3752533D01*
X-6497279Y-3708567D01*
X-6435870Y-3698839D01*
X-6431983Y-3699533D01*
G37*
%TD.AperFunction*%
%TA.AperFunction,Conductor*%
G36*
X2436751Y-180319D02*
G01*
X2440449Y-181145D01*
X2559425Y-207721D01*
X2562442Y-208495D01*
X2624328Y-226462D01*
X2684607Y-243962D01*
X2687505Y-244899D01*
X2794424Y-283093D01*
X2810367Y-288788D01*
X2813087Y-289850D01*
X2936698Y-342279D01*
X2939230Y-343436D01*
X3059822Y-402657D01*
X3061938Y-403602D01*
X3068157Y-406381D01*
X3067754Y-407281D01*
X3087109Y-417120D01*
X3260533Y-543120D01*
X3346241Y-587602D01*
X3473159Y-610634D01*
X3473162Y-610633D01*
X3473166Y-610634D01*
X3601228Y-595234D01*
X3601230Y-595233D01*
X3725955Y-539702D01*
X3726792Y-541582D01*
X3777060Y-528508D01*
X3834940Y-551214D01*
X3868419Y-603605D01*
X3867933Y-656054D01*
X3843712Y-742558D01*
X3830750Y-770923D01*
X3830705Y-770990D01*
X3830705Y-770991D01*
X3830705Y-770992D01*
X3833586Y-796208D01*
X3833706Y-797255D01*
X3836484Y-833707D01*
X3838851Y-842280D01*
X3870700Y-1120952D01*
X3869373Y-1152182D01*
X3869377Y-1152208D01*
X3882062Y-1175464D01*
X3898506Y-1208417D01*
X3903768Y-1215257D01*
X4112358Y-1597673D01*
X4121360Y-1620357D01*
X4220589Y-1999231D01*
X4223847Y-2022533D01*
X4232799Y-2434345D01*
X4228787Y-2464741D01*
X3985411Y-3297835D01*
X3969471Y-3329792D01*
X3500266Y-3958526D01*
X3485237Y-3974632D01*
X3017946Y-4376502D01*
X2995683Y-4391018D01*
X2613206Y-4573565D01*
X2569874Y-4583376D01*
X2076795Y-4583376D01*
X2036747Y-4575061D01*
X2013943Y-4565165D01*
X1894503Y-4513332D01*
X1579076Y-4376448D01*
X1559662Y-4365112D01*
X1559189Y-4364966D01*
X1539269Y-4358836D01*
X1534040Y-4356904D01*
X1531220Y-4355680D01*
X1528109Y-4354330D01*
X1519555Y-4352283D01*
X1519653Y-4351870D01*
X1512274Y-4350530D01*
X1292148Y-4282799D01*
X1270960Y-4273495D01*
X1264597Y-4269775D01*
X1264596Y-4269775D01*
X1256713Y-4271120D01*
X1244531Y-4273200D01*
X1238606Y-4273853D01*
X1236700Y-4273950D01*
X1218273Y-4274882D01*
X1217870Y-4275053D01*
X1195662Y-4281544D01*
X827522Y-4344397D01*
X800432Y-4348702D01*
X798542Y-4349751D01*
X779219Y-4365599D01*
X774773Y-4370839D01*
X760964Y-4394150D01*
X467794Y-4731738D01*
X447641Y-4749480D01*
X-184439Y-5170867D01*
X-231926Y-5187419D01*
X-1606063Y-5301403D01*
X-1666580Y-5287144D01*
X-1707158Y-5240037D01*
X-1712298Y-5178075D01*
X-1680036Y-5124927D01*
X-1675620Y-5121336D01*
X-1603623Y-5066090D01*
X-1589978Y-5055620D01*
X-1561765Y-5027405D01*
X-1561761Y-5027403D01*
X-1538632Y-5004274D01*
X-1538577Y-5004245D01*
X-1509141Y-4974808D01*
X-1509140Y-4974809D01*
X-1434364Y-4900032D01*
X-1305613Y-4732237D01*
X-1199866Y-4549072D01*
X-1118932Y-4353671D01*
X-1064197Y-4149378D01*
X-1036597Y-3939687D01*
X-1036600Y-3833938D01*
X-1036600Y-3808771D01*
X-1036600Y-3798044D01*
X-1036445Y-3794095D01*
X-1032068Y-3738500D01*
X-1025809Y-3658993D01*
X-1023342Y-3643419D01*
X-993091Y-3517425D01*
X-988213Y-3502416D01*
X-969372Y-3456931D01*
X-938624Y-3382701D01*
X-931467Y-3368656D01*
X-863755Y-3258162D01*
X-854482Y-3245402D01*
X-845549Y-3234944D01*
X-766320Y-3142179D01*
X-763657Y-3139297D01*
X-726747Y-3102388D01*
X-717149Y-3092789D01*
X-683268Y-3070474D01*
X-650888Y-3057565D01*
X-646421Y-3056026D01*
X-563734Y-3031834D01*
X-559015Y-3030309D01*
X-447710Y-2990544D01*
X-445432Y-2989669D01*
X-445425Y-2989664D01*
X-440757Y-2987289D01*
X-440417Y-2987957D01*
X-422150Y-2979568D01*
X-413940Y-2977158D01*
X-321582Y-2917803D01*
X-292288Y-2898977D01*
X-292286Y-2898975D01*
X-292287Y-2898975D01*
X-292284Y-2898974D01*
X-262886Y-2865045D01*
X-258123Y-2860245D01*
X-243974Y-2847794D01*
X-215223Y-2810183D01*
X-213290Y-2807809D01*
X-197583Y-2789684D01*
X-197581Y-2789678D01*
X-193693Y-2783630D01*
X-193472Y-2783772D01*
X-187786Y-2774292D01*
X-157514Y-2734697D01*
X-152250Y-2726887D01*
X-147929Y-2719569D01*
X-146035Y-2716362D01*
X-146031Y-2716356D01*
X-141730Y-2707962D01*
X-141730Y-2707961D01*
X-91804Y-2594320D01*
X-79905Y-2565056D01*
X-66967Y-2533237D01*
X-51768Y-2507590D01*
X-46034Y-2500552D01*
X-13115Y-2474161D01*
X55888Y-2439589D01*
X55899Y-2439580D01*
X59315Y-2437517D01*
X59438Y-2437721D01*
X75443Y-2428808D01*
X92409Y-2421781D01*
X107405Y-2416911D01*
X233398Y-2386663D01*
X248982Y-2384194D01*
X384195Y-2373554D01*
X388135Y-2373400D01*
X440436Y-2373401D01*
X440439Y-2373400D01*
X454466Y-2373400D01*
X513597Y-2392613D01*
X550142Y-2442913D01*
X550142Y-2505087D01*
X520656Y-2549758D01*
X431131Y-2627974D01*
X364491Y-2735816D01*
X363325Y-2737703D01*
X351474Y-2783292D01*
X330872Y-2862542D01*
X336659Y-2991410D01*
X372988Y-3092790D01*
X380171Y-3112836D01*
X457542Y-3216046D01*
X1021071Y-3625475D01*
X1106779Y-3669957D01*
X1233697Y-3692989D01*
X1233700Y-3692988D01*
X1233704Y-3692989D01*
X1361766Y-3677589D01*
X1361768Y-3677588D01*
X1479606Y-3625123D01*
X1545031Y-3567963D01*
X1576743Y-3540257D01*
X1576743Y-3540256D01*
X1576745Y-3540255D01*
X1625450Y-3461438D01*
X1644551Y-3430529D01*
X1644551Y-3430527D01*
X1644553Y-3430525D01*
X1677006Y-3305684D01*
X1671219Y-3176822D01*
X1671218Y-3176819D01*
X1671218Y-3176817D01*
X1641108Y-3092790D01*
X1627707Y-3055392D01*
X1550336Y-2952182D01*
X1527589Y-2935655D01*
X1021751Y-2568141D01*
X985206Y-2517841D01*
X985206Y-2455667D01*
X1021751Y-2405367D01*
X1080882Y-2386154D01*
X1089673Y-2386539D01*
X1117541Y-2388983D01*
X1242133Y-2404746D01*
X1366824Y-2425365D01*
X1491635Y-2450849D01*
X1582555Y-2472943D01*
X1617926Y-2489309D01*
X1767558Y-2598023D01*
X1853266Y-2642505D01*
X1980184Y-2665537D01*
X1980187Y-2665536D01*
X1980191Y-2665537D01*
X2108253Y-2650137D01*
X2108255Y-2650136D01*
X2226093Y-2597671D01*
X2263424Y-2565056D01*
X2323230Y-2512805D01*
X2323230Y-2512804D01*
X2323232Y-2512803D01*
X2387755Y-2408389D01*
X2391038Y-2403077D01*
X2391038Y-2403075D01*
X2391040Y-2403073D01*
X2423493Y-2278232D01*
X2417706Y-2149370D01*
X2417705Y-2149367D01*
X2417705Y-2149365D01*
X2393672Y-2082299D01*
X2374194Y-2027940D01*
X2296823Y-1924730D01*
X2260977Y-1898686D01*
X1733300Y-1515304D01*
X1733294Y-1515301D01*
X1647585Y-1470819D01*
X1647582Y-1470818D01*
X1520668Y-1447787D01*
X1520659Y-1447786D01*
X1392602Y-1463186D01*
X1392597Y-1463187D01*
X1274757Y-1515652D01*
X1177617Y-1600523D01*
X1168685Y-1614978D01*
X1121256Y-1655178D01*
X1119398Y-1655918D01*
X1113894Y-1658046D01*
X1111615Y-1658927D01*
X1107470Y-1660326D01*
X1073300Y-1670214D01*
X1068803Y-1671294D01*
X1035844Y-1677624D01*
X1031101Y-1678303D01*
X999480Y-1681299D01*
X993165Y-1683029D01*
X966599Y-1686600D01*
X354107Y-1686600D01*
X353905Y-1686608D01*
X280307Y-1686608D01*
X184995Y-1699154D01*
X70615Y-1714211D01*
X-133665Y-1768946D01*
X-133668Y-1768947D01*
X-157507Y-1778821D01*
X-182570Y-1785576D01*
X-186006Y-1786038D01*
X-337172Y-1837838D01*
X-340719Y-1839133D01*
X-456625Y-1884907D01*
X-460143Y-1886398D01*
X-557511Y-1930081D01*
X-666502Y-1980008D01*
X-777961Y-2027940D01*
X-810756Y-2042043D01*
X-814352Y-2044018D01*
X-834424Y-2052361D01*
X-836055Y-2052839D01*
X-836064Y-2052844D01*
X-911417Y-2101270D01*
X-971549Y-2117076D01*
X-1029487Y-2094518D01*
X-1063100Y-2042214D01*
X-1065543Y-2003503D01*
X-1065100Y-2000141D01*
X-1065100Y-1898686D01*
X-1065100Y-1849685D01*
X-1065100Y-1511042D01*
X-1064945Y-1507093D01*
X-1062152Y-1471611D01*
X-1053502Y-1361745D01*
X-1051035Y-1346171D01*
X-1018384Y-1210182D01*
X-1013506Y-1195173D01*
X-990555Y-1139766D01*
X-959981Y-1065958D01*
X-952830Y-1051922D01*
X-879744Y-932660D01*
X-870475Y-919903D01*
X-775642Y-808870D01*
X-774505Y-807640D01*
X1823846Y-807640D01*
X1823982Y-810670D01*
X1829633Y-936506D01*
X1870984Y-1051902D01*
X1873145Y-1057932D01*
X1950516Y-1161142D01*
X2514045Y-1570571D01*
X2599753Y-1615053D01*
X2726671Y-1638085D01*
X2726674Y-1638084D01*
X2726678Y-1638085D01*
X2854740Y-1622685D01*
X2854742Y-1622684D01*
X2972580Y-1570219D01*
X3035439Y-1515301D01*
X3069717Y-1485353D01*
X3069717Y-1485352D01*
X3069719Y-1485351D01*
X3137527Y-1375621D01*
X3169980Y-1250780D01*
X3164193Y-1121918D01*
X3164192Y-1121915D01*
X3164192Y-1121913D01*
X3139104Y-1051902D01*
X3120681Y-1000488D01*
X3043310Y-897278D01*
X3043309Y-897277D01*
X2479787Y-487852D01*
X2479781Y-487849D01*
X2394072Y-443367D01*
X2394069Y-443366D01*
X2267155Y-420335D01*
X2267146Y-420334D01*
X2139089Y-435734D01*
X2139084Y-435735D01*
X2021244Y-488200D01*
X1924105Y-573070D01*
X1863451Y-671225D01*
X1856299Y-682799D01*
X1845483Y-724408D01*
X1823846Y-807638D01*
X1823846Y-807639D01*
X1823846Y-807640D01*
X-774505Y-807640D01*
X-772964Y-805974D01*
X-763198Y-796208D01*
X-739871Y-772882D01*
X-739871Y-772880D01*
X-730208Y-763218D01*
X-730203Y-763210D01*
X-436853Y-469862D01*
X-433975Y-467203D01*
X-323106Y-372512D01*
X-310351Y-363245D01*
X-191101Y-290170D01*
X-177041Y-283007D01*
X-135632Y-265855D01*
X-47835Y-229489D01*
X-32843Y-224617D01*
X103163Y-191966D01*
X118737Y-189500D01*
X264196Y-178054D01*
X268133Y-177900D01*
X315049Y-177901D01*
X315052Y-177900D01*
X2414821Y-177900D01*
X2436751Y-180319D01*
G37*
%TD.AperFunction*%
%TA.AperFunction,Conductor*%
G36*
X-1730961Y-3304012D02*
G01*
X-1686997Y-3347976D01*
X-1677271Y-3409384D01*
X-1679460Y-3419685D01*
X-1695786Y-3480612D01*
X-1723398Y-3690294D01*
X-1723400Y-3766005D01*
X-1723400Y-3776334D01*
X-1723402Y-3776366D01*
X-1723402Y-3779570D01*
X-1723402Y-3779571D01*
X-1723401Y-3796062D01*
X-1723401Y-3809942D01*
X-1723402Y-3832004D01*
X-1723557Y-3835948D01*
X-1734184Y-3971019D01*
X-1736653Y-3986610D01*
X-1766895Y-4112597D01*
X-1771773Y-4127610D01*
X-1811388Y-4223255D01*
X-1821354Y-4247317D01*
X-1828521Y-4261383D01*
X-1896216Y-4371853D01*
X-1905495Y-4384624D01*
X-1993322Y-4487457D01*
X-1995976Y-4490331D01*
X-1998457Y-4492814D01*
X-1999422Y-4493780D01*
X-2002334Y-4496475D01*
X-2105394Y-4584496D01*
X-2118164Y-4593774D01*
X-2228633Y-4661471D01*
X-2242698Y-4668638D01*
X-2362406Y-4718224D01*
X-2377420Y-4723102D01*
X-2503401Y-4753348D01*
X-2518992Y-4755818D01*
X-2653997Y-4766445D01*
X-2657946Y-4766600D01*
X-2735491Y-4766600D01*
X-2794622Y-4747387D01*
X-2831167Y-4697087D01*
X-2834853Y-4650263D01*
X-2817389Y-4540000D01*
X-2836115Y-4421767D01*
X-2890461Y-4315107D01*
X-2953645Y-4251923D01*
X-2981871Y-4196525D01*
X-2972145Y-4135117D01*
X-2966164Y-4124911D01*
X-2955972Y-4109658D01*
X-2944105Y-4050000D01*
X-2944105Y-3865329D01*
X-2924892Y-3806198D01*
X-2874592Y-3769653D01*
X-2823881Y-3766662D01*
X-2792520Y-3772900D01*
X-2792518Y-3772900D01*
X-2307481Y-3772900D01*
X-2307480Y-3772900D01*
X-2255587Y-3762578D01*
X-2196741Y-3723259D01*
X-2157422Y-3664413D01*
X-2155777Y-3656142D01*
X-2137394Y-3615147D01*
X-2130215Y-3605641D01*
X-2125652Y-3600397D01*
X-1993459Y-3468205D01*
X-1988706Y-3464018D01*
X-1985398Y-3461453D01*
X-1985381Y-3461441D01*
X-1980473Y-3457434D01*
X-1978444Y-3454704D01*
X-1968855Y-3443600D01*
X-1847764Y-3322510D01*
X-1792369Y-3294286D01*
X-1730961Y-3304012D01*
G37*
%TD.AperFunction*%
%TA.AperFunction,Conductor*%
G36*
X-1700316Y3144778D02*
G01*
X-1650415Y3107689D01*
X-1637736Y3083380D01*
X-1627707Y3055392D01*
X-1550335Y2952180D01*
X-1302625Y2772208D01*
X-1289912Y2761240D01*
X-1277068Y2748136D01*
X-1276766Y2747828D01*
X-1182128Y2683202D01*
X-1180014Y2681673D01*
X-1077738Y2603518D01*
X-1075839Y2601991D01*
X-972643Y2514746D01*
X-970945Y2513242D01*
X-866094Y2416077D01*
X-827083Y2376755D01*
X-799077Y2321246D01*
X-797900Y2305903D01*
X-797900Y1953162D01*
X-797902Y1953136D01*
X-797901Y1898017D01*
X-798056Y1894069D01*
X-809489Y1748737D01*
X-811958Y1733145D01*
X-844600Y1597163D01*
X-849478Y1582148D01*
X-902991Y1452951D01*
X-910158Y1438885D01*
X-983227Y1319645D01*
X-992506Y1306874D01*
X-1087017Y1196215D01*
X-1089699Y1193313D01*
X-1564252Y718759D01*
X-1564511Y718476D01*
X-1616252Y666734D01*
X-1739781Y505751D01*
X-1841230Y330041D01*
X-1841232Y330038D01*
X-1841234Y330033D01*
X-1892400Y206513D01*
X-1918888Y142569D01*
X-1971406Y-53412D01*
X-1971407Y-53416D01*
X-1997898Y-254589D01*
X-1997899Y-300206D01*
X-1997900Y-300228D01*
X-1997900Y-356042D01*
X-1997901Y-416751D01*
X-1997900Y-416760D01*
X-1997900Y-1676838D01*
X-1997902Y-1676864D01*
X-1997901Y-1731983D01*
X-1998056Y-1735931D01*
X-2009489Y-1881263D01*
X-2011958Y-1896855D01*
X-2044600Y-2032837D01*
X-2049478Y-2047849D01*
X-2066058Y-2087882D01*
X-2102991Y-2177049D01*
X-2110158Y-2191115D01*
X-2183227Y-2310355D01*
X-2192506Y-2323126D01*
X-2287017Y-2433785D01*
X-2289699Y-2436687D01*
X-2291344Y-2438332D01*
X-2345691Y-2466386D01*
X-2398328Y-2475295D01*
X-2401530Y-2475732D01*
X-2456880Y-2481476D01*
X-2460148Y-2481708D01*
X-2515274Y-2483819D01*
X-2518563Y-2483838D01*
X-2554416Y-2482865D01*
X-2570134Y-2482439D01*
X-2570139Y-2482439D01*
X-2570142Y-2482439D01*
X-2570143Y-2482439D01*
X-2577872Y-2482608D01*
X-2577873Y-2482608D01*
X-2583992Y-2483042D01*
X-2590044Y-2484228D01*
X-2590176Y-2483557D01*
X-2612430Y-2487100D01*
X-2792522Y-2487100D01*
X-2826877Y-2493933D01*
X-2888620Y-2486624D01*
X-2934275Y-2444420D01*
X-2947101Y-2395266D01*
X-2947101Y-2234943D01*
X-2954537Y-2197559D01*
X-2955972Y-2190342D01*
X-2955973Y-2190340D01*
X-2956737Y-2188494D01*
X-2956998Y-2185187D01*
X-2957905Y-2180623D01*
X-2957365Y-2180515D01*
X-2961614Y-2126512D01*
X-2956734Y-2111495D01*
X-2955978Y-2109666D01*
X-2955972Y-2109658D01*
X-2944105Y-2050000D01*
X-2944105Y-1750000D01*
X-2955972Y-1690342D01*
X-2989766Y-1639766D01*
X-2992281Y-1638085D01*
X-3040343Y-1605971D01*
X-3088134Y-1596465D01*
X-3100000Y-1594105D01*
X-3100001Y-1594105D01*
X-3343505Y-1594105D01*
X-3402636Y-1574892D01*
X-3439181Y-1524592D01*
X-3444105Y-1493505D01*
X-3444105Y-1250000D01*
X-3455972Y-1190342D01*
X-3489766Y-1139766D01*
X-3489767Y-1139765D01*
X-3540343Y-1105971D01*
X-3588134Y-1096465D01*
X-3600000Y-1094105D01*
X-3900000Y-1094105D01*
X-3909898Y-1096073D01*
X-3959658Y-1105971D01*
X-4010234Y-1139765D01*
X-4010235Y-1139766D01*
X-4044029Y-1190342D01*
X-4055895Y-1250000D01*
X-4055895Y-1749999D01*
X-4044029Y-1809657D01*
X-4024333Y-1839133D01*
X-4010234Y-1860234D01*
X-3959658Y-1894028D01*
X-3900000Y-1905895D01*
X-3875210Y-1905895D01*
X-3816079Y-1925108D01*
X-3779534Y-1975408D01*
X-3779534Y-2037582D01*
X-3816079Y-2087882D01*
X-3855585Y-2105162D01*
X-3859659Y-2105972D01*
X-3859662Y-2105973D01*
X-3910233Y-2139764D01*
X-3910235Y-2139766D01*
X-3944029Y-2190342D01*
X-3952900Y-2234943D01*
X-3952900Y-2357124D01*
X-3972113Y-2416255D01*
X-4022413Y-2452800D01*
X-4084587Y-2452800D01*
X-4129528Y-2423003D01*
X-4130583Y-2421786D01*
X-4154888Y-2393736D01*
X-4211857Y-2357124D01*
X-4265610Y-2322579D01*
X-4372442Y-2291211D01*
X-4423765Y-2256117D01*
X-4444659Y-2197559D01*
X-4444700Y-2194686D01*
X-4444700Y-1571714D01*
X-4444700Y-1571711D01*
X-4445390Y-1568023D01*
X-4447101Y-1549545D01*
X-4447101Y-1293719D01*
X-4444600Y-1274364D01*
X-4445125Y-1274267D01*
X-4444451Y-1270634D01*
X-4444449Y-1270628D01*
X-4443704Y-1263900D01*
X-4445384Y-1217776D01*
X-4445384Y-1217774D01*
X-4445384Y-1217773D01*
X-4449604Y-1194984D01*
X-4454359Y-1167874D01*
X-4459149Y-1139141D01*
X-4459536Y-1136702D01*
X-4463966Y-1108798D01*
X-4467374Y-1086299D01*
X-4467377Y-1086290D01*
X-4468284Y-1082406D01*
X-4467972Y-1082332D01*
X-4472100Y-1055826D01*
X-4472100Y-817629D01*
X-4471617Y-810670D01*
X-4469999Y-799064D01*
X-4469997Y-799059D01*
X-4471207Y-772878D01*
X-4472046Y-754721D01*
X-4472100Y-752399D01*
X-4472100Y-734247D01*
X-4472644Y-731338D01*
X-4473448Y-724417D01*
X-4474795Y-695273D01*
X-4478041Y-687921D01*
X-4484901Y-665769D01*
X-4486377Y-657872D01*
X-4487503Y-656054D01*
X-4501732Y-633073D01*
X-4504981Y-626910D01*
X-4508533Y-618865D01*
X-4517100Y-578240D01*
X-4517100Y-475594D01*
X-4516248Y-466079D01*
X-4516513Y-466058D01*
X-4516116Y-461134D01*
X-4517100Y-405633D01*
X-4517100Y-394776D01*
X-4517100Y-394774D01*
X-4520038Y-369450D01*
X-4523238Y-362203D01*
X-4529515Y-342925D01*
X-4530242Y-339577D01*
X-4537667Y-300228D01*
X-4540901Y-283089D01*
X-4534499Y-224784D01*
X-4529629Y-213431D01*
X-4527760Y-207894D01*
X-4521587Y-189598D01*
X-4521588Y-189599D01*
X-4521587Y-189597D01*
X-4520683Y-185992D01*
X-4519646Y-181593D01*
X-4519696Y-180488D01*
X-4517863Y-156353D01*
X-4517100Y-152520D01*
X-4517100Y322776D01*
X-4497887Y381907D01*
X-4447587Y418452D01*
X-4416500Y423376D01*
X-4034803Y423376D01*
X-4031010Y423233D01*
X-4028539Y423047D01*
X-4007967Y421491D01*
X-4005135Y423526D01*
X-3980867Y436342D01*
X-3977586Y437535D01*
X-3977585Y437537D01*
X-3965386Y447773D01*
X-3954288Y460032D01*
X-3623686Y697387D01*
X-3602519Y707045D01*
X-3595140Y711908D01*
X-3595138Y711908D01*
X-3588861Y720355D01*
X-3584459Y725512D01*
X-3584343Y725633D01*
X-3584336Y725637D01*
X-3580129Y731799D01*
X-3577583Y735527D01*
X-3152934Y1306874D01*
X-2565247Y2097582D01*
X-2514556Y2133578D01*
X-2452385Y2132904D01*
X-2402485Y2095815D01*
X-2389806Y2071507D01*
X-2374194Y2027940D01*
X-2296823Y1924730D01*
X-1733294Y1515301D01*
X-1647586Y1470819D01*
X-1520668Y1447787D01*
X-1520665Y1447788D01*
X-1520661Y1447787D01*
X-1392599Y1463187D01*
X-1392597Y1463188D01*
X-1274759Y1515653D01*
X-1242380Y1543943D01*
X-1177622Y1600519D01*
X-1177622Y1600520D01*
X-1177620Y1600521D01*
X-1109812Y1710251D01*
X-1077359Y1835092D01*
X-1083146Y1963954D01*
X-1083147Y1963957D01*
X-1083147Y1963959D01*
X-1107180Y2031025D01*
X-1126658Y2085384D01*
X-1204029Y2188594D01*
X-1204030Y2188595D01*
X-1767552Y2598020D01*
X-1767558Y2598023D01*
X-1853267Y2642505D01*
X-1853270Y2642506D01*
X-1964311Y2662657D01*
X-2019061Y2692119D01*
X-2046038Y2748136D01*
X-2034936Y2809311D01*
X-2027095Y2821642D01*
X-1813180Y3109455D01*
X-1762487Y3145452D01*
X-1700316Y3144778D01*
G37*
%TD.AperFunction*%
%TA.AperFunction,Conductor*%
G36*
X-175306Y3041354D02*
G01*
X2936968Y773399D01*
X2973441Y723048D01*
X2973353Y660874D01*
X2936737Y610626D01*
X2889739Y592217D01*
X2885576Y591717D01*
X2885572Y591716D01*
X2767737Y539254D01*
X2677916Y460780D01*
X2666204Y451966D01*
X2639924Y435039D01*
X2635189Y432340D01*
X2594056Y411760D01*
X2588429Y409360D01*
X2550886Y395981D01*
X2544450Y394159D01*
X2509819Y386799D01*
X2502798Y385817D01*
X2465814Y383279D01*
X2465803Y383277D01*
X2456704Y380974D01*
X2432026Y377900D01*
X238264Y377900D01*
X238073Y377892D01*
X164600Y377892D01*
X54868Y363447D01*
X-36579Y351409D01*
X-232566Y298895D01*
X-232568Y298895D01*
X-232569Y298894D01*
X-301811Y270215D01*
X-420035Y221246D01*
X-595753Y119797D01*
X-595756Y119795D01*
X-595759Y119793D01*
X-638454Y87032D01*
X-756742Y-3733D01*
X-791744Y-38734D01*
X-1187252Y-434241D01*
X-1187511Y-434524D01*
X-1239253Y-486267D01*
X-1261690Y-515507D01*
X-1312930Y-550722D01*
X-1375083Y-549093D01*
X-1424408Y-511243D01*
X-1442100Y-454264D01*
X-1442100Y-358042D01*
X-1441945Y-354093D01*
X-1436355Y-283093D01*
X-1430502Y-208745D01*
X-1428035Y-193171D01*
X-1395384Y-57182D01*
X-1390506Y-42173D01*
X-1359337Y33073D01*
X-1336981Y87042D01*
X-1329830Y101078D01*
X-1256744Y220340D01*
X-1247475Y233097D01*
X-1152642Y344130D01*
X-1149964Y347026D01*
X-1145581Y351409D01*
X-1116871Y380118D01*
X-1116871Y380120D01*
X-1107208Y389782D01*
X-1107203Y389790D01*
X-724947Y772043D01*
X-724888Y772074D01*
X-695455Y801509D01*
X-695454Y801508D01*
X-623715Y873249D01*
X-500191Y1034231D01*
X-398737Y1209960D01*
X-321090Y1397428D01*
X-268577Y1593427D01*
X-242097Y1794604D01*
X-242100Y1896060D01*
X-242100Y2331161D01*
X-242096Y2331212D01*
X-242097Y2340778D01*
X-242096Y2340779D01*
X-242097Y2348065D01*
X-242055Y2348196D01*
X-242061Y2416077D01*
X-242065Y2467187D01*
X-272282Y2619024D01*
X-296370Y2677159D01*
X-301940Y2695263D01*
X-319072Y2777996D01*
X-324993Y2809311D01*
X-329625Y2833809D01*
X-330495Y2855013D01*
X-330534Y2855011D01*
X-330872Y2862544D01*
X-335049Y2955538D01*
X-318508Y3015469D01*
X-269899Y3054234D01*
X-207787Y3057024D01*
X-175306Y3041354D01*
G37*
%TD.AperFunction*%
%TA.AperFunction,Conductor*%
G36*
X-12568304Y14822044D02*
G01*
X-12548765Y14818947D01*
X-12522849Y14814839D01*
X-12492922Y14805112D01*
X-12459046Y14787846D01*
X-12433590Y14769348D01*
X-12406707Y14742462D01*
X-12388210Y14717000D01*
X-12388202Y14716985D01*
X-12370953Y14683127D01*
X-12361230Y14653199D01*
X-12353983Y14607446D01*
X-12352744Y14591708D01*
X-12352744Y13311730D01*
X-12353982Y13295994D01*
X-12361185Y13250512D01*
X-12370909Y13220582D01*
X-12388173Y13186694D01*
X-12406669Y13161232D01*
X-12433557Y13134339D01*
X-12459018Y13115837D01*
X-12492903Y13098567D01*
X-12522832Y13088838D01*
X-12567975Y13081681D01*
X-12583727Y13080440D01*
X-12717209Y13080440D01*
X-12717265Y13080458D01*
X-12808473Y13080453D01*
X-12808477Y13080452D01*
X-12904262Y13054780D01*
X-12990141Y13005193D01*
X-12990142Y13005193D01*
X-12990142Y13005192D01*
X-13060260Y12935072D01*
X-13109843Y12849190D01*
X-13135511Y12753399D01*
X-13135511Y9422334D01*
X-13136749Y9406597D01*
X-13143951Y9361124D01*
X-13153678Y9331191D01*
X-13156461Y9325727D01*
X-13170935Y9297321D01*
X-13189439Y9271854D01*
X-13216324Y9244972D01*
X-13241786Y9226475D01*
X-13275657Y9209218D01*
X-13305595Y9199492D01*
X-13327937Y9195955D01*
X-13351170Y9192276D01*
X-13366906Y9191039D01*
X-13398658Y9191041D01*
X-13398678Y9191038D01*
X-14662808Y9191038D01*
X-14662997Y9191023D01*
X-14684761Y9191023D01*
X-14768098Y9163951D01*
X-14768101Y9163950D01*
X-14838987Y9112452D01*
X-14838990Y9112449D01*
X-14890495Y9041564D01*
X-14890496Y9041563D01*
X-14917576Y8958230D01*
X-14917577Y8942798D01*
X-14917577Y8423815D01*
X-14917580Y8423795D01*
X-14917578Y8393928D01*
X-14919511Y8374296D01*
X-14923059Y8356458D01*
X-14938085Y8320185D01*
X-14942580Y8313459D01*
X-14970358Y8285693D01*
X-14977081Y8281204D01*
X-15013349Y8266195D01*
X-15026905Y8263503D01*
X-15088646Y8270830D01*
X-15134289Y8313048D01*
X-15147100Y8362176D01*
X-15147100Y9145224D01*
X-15147100Y9145226D01*
X-15150038Y9170550D01*
X-15165585Y9205760D01*
X-15167294Y9210186D01*
X-15177844Y9241935D01*
X-15182044Y9249318D01*
X-15193181Y9268899D01*
X-15195479Y9273462D01*
X-15195780Y9274144D01*
X-15195780Y9274145D01*
X-15195781Y9274146D01*
X-15196868Y9275733D01*
X-15199082Y9279272D01*
X-15203346Y9286770D01*
X-15204932Y9289796D01*
X-15224842Y9331189D01*
X-15232151Y9346384D01*
X-15233253Y9348843D01*
X-15262520Y9419088D01*
X-15293134Y9502387D01*
X-15317068Y9575191D01*
X-15322100Y9606609D01*
X-15322100Y9662351D01*
X-15322118Y9662720D01*
X-15322118Y9667392D01*
X-15322115Y9716197D01*
X-15347714Y9877868D01*
X-15398290Y10033544D01*
X-15398291Y10033546D01*
X-15398291Y10033547D01*
X-15472596Y10179386D01*
X-15472598Y10179390D01*
X-15568807Y10311815D01*
X-15584214Y10327223D01*
X-15584219Y10327229D01*
X-15790938Y10533948D01*
X-15791349Y10534323D01*
X-15829186Y10572163D01*
X-15829187Y10572164D01*
X-15829189Y10572166D01*
X-15961606Y10668381D01*
X-15961611Y10668384D01*
X-15961617Y10668388D01*
X-16107440Y10742696D01*
X-16107444Y10742698D01*
X-16149561Y10756385D01*
X-16176513Y10769894D01*
X-16183185Y10774607D01*
X-16183188Y10774609D01*
X-16361478Y10853957D01*
X-16364254Y10855295D01*
X-16490505Y10921022D01*
X-16604653Y10985345D01*
X-16743243Y11057491D01*
X-16747904Y11059736D01*
X-16934404Y11142725D01*
X-16935561Y11143224D01*
X-16940428Y11144758D01*
X-16940270Y11145262D01*
X-16959565Y11152171D01*
X-16966774Y11155955D01*
X-17120722Y11193900D01*
X-17120724Y11193900D01*
X-17279276Y11193900D01*
X-17279279Y11193900D01*
X-17433223Y11155956D01*
X-17573610Y11082274D01*
X-17573612Y11082273D01*
X-17573613Y11082272D01*
X-17623282Y11038269D01*
X-17691165Y10978130D01*
X-17692292Y10977132D01*
X-17721472Y10934858D01*
X-17782361Y10846645D01*
X-17822869Y10739834D01*
X-17838584Y10698397D01*
X-17857695Y10541000D01*
X-17839703Y10392815D01*
X-17838584Y10383604D01*
X-17784580Y10241206D01*
X-17782360Y10235354D01*
X-17692292Y10104868D01*
X-17573613Y9999728D01*
X-17433222Y9926044D01*
X-17279276Y9888100D01*
X-17279272Y9888100D01*
X-17120728Y9888100D01*
X-17120724Y9888100D01*
X-16966778Y9926044D01*
X-16932284Y9944150D01*
X-16925808Y9946985D01*
X-16916031Y9950469D01*
X-16886885Y9967893D01*
X-16884524Y9969216D01*
X-16826387Y9999728D01*
X-16824910Y10001038D01*
X-16818401Y10006803D01*
X-16803306Y10017853D01*
X-16788198Y10026884D01*
X-16755428Y10046471D01*
X-16748139Y10051399D01*
X-16748135Y10051402D01*
X-16748132Y10051404D01*
X-16739054Y10058309D01*
X-16739053Y10058310D01*
X-16732361Y10064014D01*
X-16732362Y10064013D01*
X-16612919Y10177924D01*
X-16593450Y10195968D01*
X-16552824Y10233617D01*
X-16496397Y10259715D01*
X-16474589Y10259942D01*
X-16447771Y10257300D01*
X-16447596Y10257282D01*
X-16442163Y10256445D01*
X-16374945Y10242293D01*
X-16370710Y10241206D01*
X-16330871Y10229118D01*
X-16312658Y10221575D01*
X-16246431Y10186171D01*
X-16230046Y10175222D01*
X-16166037Y10122686D01*
X-16162390Y10119380D01*
X-16123954Y10080942D01*
X-16123940Y10080930D01*
X-16021440Y9978430D01*
X-16018123Y9974770D01*
X-15965777Y9910983D01*
X-15954821Y9894586D01*
X-15919430Y9828371D01*
X-15911883Y9810149D01*
X-15890092Y9738305D01*
X-15886245Y9718962D01*
X-15878143Y9636664D01*
X-15877901Y9631731D01*
X-15877902Y9606601D01*
X-15882934Y9575188D01*
X-15890892Y9550981D01*
X-15903557Y9512452D01*
X-15906866Y9502387D01*
X-15937482Y9419088D01*
X-15966757Y9348828D01*
X-15967859Y9346372D01*
X-15995050Y9289838D01*
X-15996658Y9286770D01*
X-16000929Y9279262D01*
X-16003145Y9275716D01*
X-16004222Y9274144D01*
X-16004523Y9273461D01*
X-16006810Y9268919D01*
X-16022158Y9241933D01*
X-16022159Y9241932D01*
X-16033578Y9217059D01*
X-16033576Y9217063D01*
X-16034935Y9213265D01*
X-16037065Y9206890D01*
X-16037156Y9206392D01*
X-16044082Y9183869D01*
X-16049962Y9170551D01*
X-16052900Y9145229D01*
X-16052900Y8361248D01*
X-16072113Y8302117D01*
X-16122413Y8265572D01*
X-16153500Y8260648D01*
X-18046500Y8260648D01*
X-18105631Y8279861D01*
X-18142176Y8330161D01*
X-18147100Y8361248D01*
X-18147100Y9145224D01*
X-18147100Y9145226D01*
X-18150038Y9170550D01*
X-18153523Y9178444D01*
X-18155044Y9181889D01*
X-18161879Y9206913D01*
X-18161981Y9206890D01*
X-18162423Y9208907D01*
X-18162924Y9210742D01*
X-18163039Y9211720D01*
X-18180143Y9264424D01*
X-18198582Y9327416D01*
X-18217292Y9397603D01*
X-18236199Y9474856D01*
X-18253419Y9550981D01*
X-18253420Y9550984D01*
X-18254086Y9553928D01*
X-18256565Y9576118D01*
X-18256565Y9628209D01*
X-18284178Y9837898D01*
X-18338926Y10042188D01*
X-18394035Y10175220D01*
X-18419869Y10237584D01*
X-18484777Y10349998D01*
X-18525626Y10420744D01*
X-18654386Y10588533D01*
X-18654388Y10588535D01*
X-18654391Y10588539D01*
X-18718493Y10652634D01*
X-19360803Y11294944D01*
X-19389029Y11350342D01*
X-19379303Y11411750D01*
X-19350910Y11445890D01*
X-19211478Y11552880D01*
X-19136704Y11627655D01*
X-19098244Y11666114D01*
X-19098244Y11666116D01*
X-19089967Y11674392D01*
X-19089963Y11674397D01*
X-18345896Y12418464D01*
X-18345891Y12418468D01*
X-18337615Y12426745D01*
X-18337613Y12426745D01*
X-18300547Y12463813D01*
X-18297677Y12466467D01*
X-18194611Y12554492D01*
X-18181844Y12563769D01*
X-18071365Y12631469D01*
X-18057315Y12638628D01*
X-18055710Y12639294D01*
X-18050827Y12641317D01*
X-18030573Y12646879D01*
X-18030576Y12646895D01*
X-18029968Y12647045D01*
X-18026695Y12647944D01*
X-18025779Y12648076D01*
X-17920290Y12685366D01*
X-17879750Y12690872D01*
X-17857227Y12689297D01*
X-17820111Y12679342D01*
X-17761698Y12650822D01*
X-17756822Y12648096D01*
X-17636111Y12571497D01*
X-17633953Y12570199D01*
X-17632885Y12569556D01*
X-17630699Y12568312D01*
X-17629217Y12567467D01*
X-17626056Y12565760D01*
X-17461710Y12481805D01*
X-17458091Y12480131D01*
X-17458086Y12480130D01*
X-17452936Y12478392D01*
X-17453092Y12477932D01*
X-17435606Y12471544D01*
X-17423222Y12465044D01*
X-17269276Y12427100D01*
X-17269272Y12427100D01*
X-17110728Y12427100D01*
X-17110724Y12427100D01*
X-16956778Y12465044D01*
X-16816387Y12538728D01*
X-16697708Y12643868D01*
X-16607640Y12774354D01*
X-16551416Y12922603D01*
X-16532305Y13080000D01*
X-16551416Y13237397D01*
X-16607640Y13385646D01*
X-16697708Y13516132D01*
X-16816387Y13621272D01*
X-16956778Y13694956D01*
X-16956782Y13694957D01*
X-17110722Y13732900D01*
X-17110724Y13732900D01*
X-17269276Y13732900D01*
X-17269279Y13732900D01*
X-17423223Y13694957D01*
X-17428436Y13692220D01*
X-17448391Y13685136D01*
X-17448227Y13684603D01*
X-17452957Y13683155D01*
X-17665277Y13594558D01*
X-17825074Y13525165D01*
X-17962525Y13460767D01*
X-18117735Y13383251D01*
X-18322310Y13279002D01*
X-18326475Y13276335D01*
X-18326688Y13276667D01*
X-18344941Y13265969D01*
X-18359064Y13260119D01*
X-18359072Y13260115D01*
X-18542227Y13154372D01*
X-18710019Y13025622D01*
X-18763549Y12972092D01*
X-18763552Y12972089D01*
X-18784793Y12950848D01*
X-18823253Y12912389D01*
X-18823255Y12912387D01*
X-18823259Y12912384D01*
X-19253837Y12481805D01*
X-19583886Y12151756D01*
X-19583888Y12151754D01*
X-19602761Y12132881D01*
X-19620946Y12114696D01*
X-19623846Y12112015D01*
X-19726893Y12024004D01*
X-19739664Y12014726D01*
X-19850133Y11947029D01*
X-19864198Y11939862D01*
X-19983906Y11890276D01*
X-19998920Y11885398D01*
X-20124901Y11855152D01*
X-20140492Y11852682D01*
X-20275497Y11842055D01*
X-20279446Y11841900D01*
X-20576047Y11841900D01*
X-20630437Y11841901D01*
X-20630438Y11841901D01*
X-20638539Y11841901D01*
X-20638551Y11841900D01*
X-21055699Y11841900D01*
X-21081411Y11846386D01*
X-21081649Y11845439D01*
X-21086445Y11846649D01*
X-21126327Y11852631D01*
X-21131638Y11853724D01*
X-21171447Y11864174D01*
X-21176329Y11865725D01*
X-21218098Y11881388D01*
X-21222463Y11883266D01*
X-21266402Y11904685D01*
X-21270238Y11906765D01*
X-21317372Y11935045D01*
X-21317371Y11935044D01*
X-21338955Y11945843D01*
X-21338956Y11945844D01*
X-21338961Y11945846D01*
X-21342260Y11947192D01*
X-21342262Y11947193D01*
X-21345440Y11948450D01*
X-21345449Y11948452D01*
X-21354159Y11949361D01*
X-21358752Y11950056D01*
X-21389642Y11956200D01*
X-21389643Y11956200D01*
X-21417143Y11956200D01*
X-21422365Y11956472D01*
X-21426736Y11956928D01*
X-21426738Y11956928D01*
X-21426739Y11956928D01*
X-21431800Y11956792D01*
X-21439271Y11956200D01*
X-21799431Y11956200D01*
X-21858562Y11975413D01*
X-21895107Y12025713D01*
X-21895107Y12087887D01*
X-21886553Y12107100D01*
X-21879513Y12119294D01*
X-21859107Y12154638D01*
X-21833441Y12250425D01*
X-21833441Y12254028D01*
X-21833376Y12254394D01*
X-21833376Y14591991D01*
X-21832137Y14607730D01*
X-21824937Y14653184D01*
X-21815209Y14683120D01*
X-21797952Y14716985D01*
X-21779450Y14742448D01*
X-21752565Y14769327D01*
X-21727106Y14787819D01*
X-21693232Y14805072D01*
X-21663298Y14814792D01*
X-21617424Y14822049D01*
X-21601696Y14823284D01*
X-21585120Y14823280D01*
X-21585119Y14823281D01*
X-21569437Y14823278D01*
X-21569385Y14823285D01*
X-12584054Y14823285D01*
X-12568304Y14822044D01*
G37*
%TD.AperFunction*%
%TD*%
M02*
