%TF.GenerationSoftware,KiCad,Pcbnew,7.0.8*%
%TF.CreationDate,2024-02-20T09:55:18-08:00*%
%TF.ProjectId,adapter-encoder-pcb,61646170-7465-4722-9d65-6e636f646572,rev?*%
%TF.SameCoordinates,PX8db6561PY6e74585*%
%TF.FileFunction,Copper,L2,Bot*%
%TF.FilePolarity,Positive*%
%FSLAX46Y46*%
G04 Gerber Fmt 4.6, Leading zero omitted, Abs format (unit mm)*
G04 Created by KiCad (PCBNEW 7.0.8) date 2024-02-20 09:55:18*
%MOMM*%
%LPD*%
G01*
G04 APERTURE LIST*
G04 Aperture macros list*
%AMRoundRect*
0 Rectangle with rounded corners*
0 $1 Rounding radius*
0 $2 $3 $4 $5 $6 $7 $8 $9 X,Y pos of 4 corners*
0 Add a 4 corners polygon primitive as box body*
4,1,4,$2,$3,$4,$5,$6,$7,$8,$9,$2,$3,0*
0 Add four circle primitives for the rounded corners*
1,1,$1+$1,$2,$3*
1,1,$1+$1,$4,$5*
1,1,$1+$1,$6,$7*
1,1,$1+$1,$8,$9*
0 Add four rect primitives between the rounded corners*
20,1,$1+$1,$2,$3,$4,$5,0*
20,1,$1+$1,$4,$5,$6,$7,0*
20,1,$1+$1,$6,$7,$8,$9,0*
20,1,$1+$1,$8,$9,$2,$3,0*%
G04 Aperture macros list end*
%TA.AperFunction,ComponentPad*%
%ADD10C,0.400000*%
%TD*%
%TA.AperFunction,SMDPad,CuDef*%
%ADD11C,0.250000*%
%TD*%
%TA.AperFunction,SMDPad,CuDef*%
%ADD12RoundRect,0.160000X-0.255000X0.160000X-0.255000X-0.160000X0.255000X-0.160000X0.255000X0.160000X0*%
%TD*%
%TA.AperFunction,SMDPad,CuDef*%
%ADD13RoundRect,0.057500X-0.357500X0.057500X-0.357500X-0.057500X0.357500X-0.057500X0.357500X0.057500X0*%
%TD*%
%TA.AperFunction,SMDPad,CuDef*%
%ADD14RoundRect,0.095000X-0.155000X0.095000X-0.155000X-0.095000X0.155000X-0.095000X0.155000X0.095000X0*%
%TD*%
%TA.AperFunction,ViaPad*%
%ADD15C,0.450000*%
%TD*%
%TA.AperFunction,ViaPad*%
%ADD16C,0.700000*%
%TD*%
%TA.AperFunction,ViaPad*%
%ADD17C,0.609600*%
%TD*%
%TA.AperFunction,Conductor*%
%ADD18C,0.381000*%
%TD*%
%TA.AperFunction,Conductor*%
%ADD19C,0.304800*%
%TD*%
%TA.AperFunction,Conductor*%
%ADD20C,0.203200*%
%TD*%
%TA.AperFunction,Conductor*%
%ADD21C,0.250000*%
%TD*%
%TA.AperFunction,Conductor*%
%ADD22C,0.177800*%
%TD*%
%TA.AperFunction,Conductor*%
%ADD23C,0.254000*%
%TD*%
G04 APERTURE END LIST*
D10*
%TO.P,M1,1,1*%
%TO.N,/RX*%
X-17425167Y10411000D03*
X-17200000Y10801000D03*
X-16974833Y10411000D03*
%TD*%
%TO.P,M3,1,1*%
%TO.N,GND*%
X-16964833Y11940000D03*
X-17190000Y11550000D03*
X-17415167Y11940000D03*
%TD*%
%TO.P,M6,1,1*%
%TO.N,GND*%
X-505167Y-4270000D03*
X-280000Y-3880000D03*
X-54833Y-4270000D03*
%TD*%
%TO.P,M2,1,1*%
%TO.N,/3v3_FUSED*%
X-16964833Y13210000D03*
X-17190000Y12820000D03*
X-17415167Y13210000D03*
%TD*%
D11*
%TO.P,IC1,A1,GS*%
%TO.N,GND*%
X-23850000Y-7460500D03*
%TO.P,IC1,A2,GND*%
X-24250000Y-7460500D03*
%TO.P,IC1,B1,VOUT*%
%TO.N,/V_TEMP*%
X-23850000Y-7860500D03*
%TO.P,IC1,B2,VDD*%
%TO.N,/3v3*%
X-24250000Y-7860500D03*
%TD*%
D12*
%TO.P,U3,1,1*%
%TO.N,GND*%
X-51327000Y-13334100D03*
D13*
%TO.P,U3,2,2*%
%TO.N,/TX*%
X-51327000Y-12684100D03*
%TO.P,U3,3,3*%
X-51327000Y-12284100D03*
D12*
%TO.P,U3,4,4*%
%TO.N,GND*%
X-51327000Y-11634100D03*
%TO.P,U3,5,5*%
%TO.N,/3v3*%
X-49257000Y-11634100D03*
D13*
%TO.P,U3,6,6*%
%TO.N,/SWDIO*%
X-49257000Y-12284100D03*
%TO.P,U3,7,7*%
%TO.N,/SWCLK*%
X-49257000Y-12684100D03*
D12*
%TO.P,U3,8,8*%
%TO.N,GND*%
X-49257000Y-13334100D03*
D14*
%TO.P,U3,9,MNT*%
X-50292000Y-10749100D03*
X-50292000Y-14219100D03*
%TD*%
D15*
%TO.N,/3v3*%
X-24434800Y-5118100D03*
X-20840700Y10350000D03*
D16*
X-625000Y-2515000D03*
D15*
X-20550000Y10850000D03*
X-6934200Y-3810000D03*
D17*
X-4457700Y-2743200D03*
D15*
%TO.N,GND*%
X-19500000Y9800000D03*
X-2810000Y440000D03*
X-19590000Y14010000D03*
X-2540000Y-1570000D03*
X-47550000Y-11850000D03*
X-29410000Y-2920000D03*
X-14721696Y12100996D03*
X-16470000Y9250000D03*
X-2280000Y200000D03*
X-2050000Y-4100000D03*
X-14220000Y10370000D03*
X-45140000Y-11860000D03*
X-14480000Y13870000D03*
X-28470000Y-2960000D03*
X-51280000Y-14300000D03*
X-51140000Y-10620000D03*
X-30240000Y-2920000D03*
X-7962900Y-1155700D03*
X-49310000Y-10650000D03*
X-49370000Y-14380000D03*
X-19830000Y12820000D03*
X-7632700Y-596900D03*
X952500Y965200D03*
X-1680000Y1140000D03*
X-45950000Y-11860000D03*
X-6410000Y-4521200D03*
X-46670000Y-11850000D03*
%TO.N,/V_TEMP*%
X-6770000Y-5090000D03*
X-3200000Y-4540000D03*
X-23650000Y-6160000D03*
%TO.N,/TX*%
X-50580000Y-12170000D03*
X-50590000Y-12790000D03*
X-6756400Y-3238500D03*
X-5020000Y-3190000D03*
%TO.N,/RX*%
X-7137400Y-1828800D03*
%TO.N,/SWDIO*%
X-50010000Y-12040000D03*
%TO.N,/SWCLK*%
X-50060000Y-13050000D03*
%TD*%
D18*
%TO.N,/3v3*%
X-853200Y-2743200D02*
X-625000Y-2515000D01*
D19*
X-48263326Y-12256674D02*
X-48885900Y-11634100D01*
X-8400000Y-3441700D02*
X-20096880Y-3441700D01*
X-20840700Y10350000D02*
X-20840700Y-2697880D01*
D20*
X-24622200Y-7620000D02*
X-24381700Y-7860500D01*
D19*
X-20691910Y-3057090D02*
X-20497800Y-3251200D01*
X-4457700Y-2743200D02*
X-4553400Y-2647500D01*
X-4553400Y-2647500D02*
X-6496659Y-2647500D01*
X-32969200Y-3543300D02*
X-21038420Y-3543300D01*
X-20840700Y10559300D02*
X-20550000Y10850000D01*
X-47630000Y-12479859D02*
X-47724510Y-12479859D01*
D20*
X-24622200Y-5305500D02*
X-24622200Y-7620000D01*
X-24434800Y-5118100D02*
X-24622200Y-5305500D01*
D19*
X-20535900Y-3251200D02*
X-20497800Y-3251200D01*
X-8400000Y-3441700D02*
X-7512920Y-3441700D01*
X-7153710Y-3590490D02*
X-6934200Y-3810000D01*
X-36432059Y-7006159D02*
X-36436300Y-7010400D01*
X-48885900Y-11634100D02*
X-49165000Y-11634100D01*
X-36436300Y-7010400D02*
X-36436300Y-9017000D01*
D18*
X-4457700Y-2743200D02*
X-853200Y-2743200D01*
D19*
X-39899159Y-12479859D02*
X-47630000Y-12479859D01*
X-20679210Y-3394510D02*
X-20535900Y-3251200D01*
X-20840700Y10350000D02*
X-20840700Y10559300D01*
X-6970000Y-3770000D02*
X-7075116Y-3664884D01*
X-7922120Y-3441700D02*
X-8400000Y-3441700D01*
X-20456090Y-3292910D02*
X-20497800Y-3251200D01*
X-7215079Y-2945079D02*
X-7562910Y-3292910D01*
D20*
X-24381700Y-7860500D02*
X-24250000Y-7860500D01*
D19*
X-48263297Y-12256645D02*
G75*
G03*
X-47724510Y-12479859I538832J538754D01*
G01*
X-32969200Y-3543273D02*
G75*
G03*
X-35411829Y-4555070I35J-3454418D01*
G01*
X-37448083Y-11459618D02*
G75*
G03*
X-36436300Y-9017000I-2442582J2442627D01*
G01*
X-39899159Y-12479901D02*
G75*
G03*
X-37456530Y-11468089I-6J3454310D01*
G01*
X-7153734Y-3590514D02*
G75*
G03*
X-7512920Y-3441700I-359231J-359177D01*
G01*
X-20456085Y-3292905D02*
G75*
G03*
X-20096880Y-3441700I359220J359214D01*
G01*
X-20840681Y-2697880D02*
G75*
G03*
X-20691910Y-3057090I508016J-11D01*
G01*
X-7922120Y-3441728D02*
G75*
G03*
X-7562911Y-3292909I-45J508037D01*
G01*
X-35420271Y-4563546D02*
G75*
G03*
X-36432059Y-7006159I2442606J-2442645D01*
G01*
X-6496659Y-2647502D02*
G75*
G03*
X-7215079Y-2945079I-6J-1015989D01*
G01*
X-21038420Y-3543328D02*
G75*
G03*
X-20679211Y-3394509I-45J508037D01*
G01*
D20*
%TO.N,GND*%
X-24250000Y-7460500D02*
X-24250000Y-6985000D01*
X-23850000Y-7460500D02*
X-23849428Y-7459928D01*
X-23849428Y-7459928D02*
X-23849428Y-6985000D01*
D21*
%TO.N,/V_TEMP*%
X-3503025Y-4843025D02*
X-3200000Y-4540000D01*
D22*
X-23488900Y-7638900D02*
X-23710500Y-7860500D01*
D21*
X-6770000Y-5090000D02*
X-6645000Y-5215000D01*
X-6645000Y-5215000D02*
X-4401051Y-5215000D01*
D22*
X-23488900Y-6321100D02*
X-23488900Y-7638900D01*
X-23650000Y-6160000D02*
X-23488900Y-6321100D01*
X-23710500Y-7860500D02*
X-23850000Y-7860500D01*
D21*
X-4401051Y-5215007D02*
G75*
G03*
X-3503025Y-4843025I-14J1270016D01*
G01*
D23*
%TO.N,/TX*%
X-5110000Y-3100000D02*
X-5020000Y-3190000D01*
X-6756400Y-3238500D02*
X-6617900Y-3100000D01*
D22*
X-50694100Y-12284100D02*
X-50580000Y-12170000D01*
X-51327000Y-12284100D02*
X-50694100Y-12284100D01*
D23*
X-6617900Y-3100000D02*
X-5110000Y-3100000D01*
D22*
X-50695900Y-12684100D02*
X-50590000Y-12790000D01*
X-51327000Y-12684100D02*
X-50695900Y-12684100D01*
D23*
%TO.N,/RX*%
X-8300877Y-3035300D02*
X-19880980Y-3035300D01*
X-19153949Y10670000D02*
X-17415167Y10670000D01*
X-7265299Y-2420563D02*
X-7582457Y-2737721D01*
X-20240190Y-2886510D02*
X-20285510Y-2841190D01*
X-7116509Y-1836991D02*
X-7116509Y-2061353D01*
X-20434300Y-2481980D02*
X-20434300Y9389649D01*
X-20062325Y10287675D02*
X-20051974Y10298026D01*
X-20062312Y10287662D02*
G75*
G03*
X-20434300Y9389649I898047J-898053D01*
G01*
X-20434281Y-2481980D02*
G75*
G03*
X-20285510Y-2841190I508016J-11D01*
G01*
X-7265289Y-2420573D02*
G75*
G03*
X-7116509Y-2061353I-359176J359182D01*
G01*
X-19153949Y10669991D02*
G75*
G03*
X-20051974Y10298026I-16J-1269982D01*
G01*
X-8300877Y-3035288D02*
G75*
G03*
X-7582458Y-2737720I12J1015997D01*
G01*
X-20240185Y-2886505D02*
G75*
G03*
X-19880980Y-3035300I359220J359214D01*
G01*
%TO.N,/SWDIO*%
X-49765900Y-12284100D02*
X-49257000Y-12284100D01*
X-50010000Y-12040000D02*
X-49765900Y-12284100D01*
D21*
%TO.N,/SWCLK*%
X-50060000Y-13050000D02*
X-49694100Y-12684100D01*
X-49694100Y-12684100D02*
X-49257000Y-12684100D01*
%TD*%
%TA.AperFunction,Conductor*%
%TO.N,GND*%
G36*
X-12568304Y14822044D02*
G01*
X-12548765Y14818947D01*
X-12522849Y14814839D01*
X-12492922Y14805112D01*
X-12459046Y14787846D01*
X-12433590Y14769348D01*
X-12406707Y14742462D01*
X-12388210Y14717000D01*
X-12388202Y14716985D01*
X-12370953Y14683127D01*
X-12361230Y14653199D01*
X-12353983Y14607446D01*
X-12352744Y14591708D01*
X-12352744Y13311730D01*
X-12353982Y13295994D01*
X-12361185Y13250512D01*
X-12370909Y13220582D01*
X-12388173Y13186694D01*
X-12406669Y13161232D01*
X-12433557Y13134339D01*
X-12459018Y13115837D01*
X-12492903Y13098567D01*
X-12522832Y13088838D01*
X-12567975Y13081681D01*
X-12583727Y13080440D01*
X-12717209Y13080440D01*
X-12717265Y13080458D01*
X-12808473Y13080453D01*
X-12808477Y13080452D01*
X-12903135Y13055082D01*
X-12904262Y13054780D01*
X-12990141Y13005193D01*
X-12990142Y13005193D01*
X-12990142Y13005192D01*
X-13060260Y12935072D01*
X-13109843Y12849190D01*
X-13135511Y12753399D01*
X-13135511Y9422334D01*
X-13136749Y9406597D01*
X-13143951Y9361124D01*
X-13153678Y9331189D01*
X-13170935Y9297321D01*
X-13189439Y9271854D01*
X-13216324Y9244972D01*
X-13241786Y9226475D01*
X-13275657Y9209218D01*
X-13305595Y9199492D01*
X-13327937Y9195955D01*
X-13351170Y9192276D01*
X-13366906Y9191039D01*
X-13398658Y9191041D01*
X-13398678Y9191038D01*
X-14662808Y9191038D01*
X-14662997Y9191023D01*
X-14684761Y9191023D01*
X-14768098Y9163951D01*
X-14768101Y9163950D01*
X-14838987Y9112452D01*
X-14838990Y9112449D01*
X-14890495Y9041564D01*
X-14890496Y9041563D01*
X-14917576Y8958230D01*
X-14917577Y8942798D01*
X-14917577Y8423815D01*
X-14917580Y8423795D01*
X-14917578Y8393928D01*
X-14919511Y8374296D01*
X-14923059Y8356458D01*
X-14938085Y8320185D01*
X-14942580Y8313459D01*
X-14970358Y8285693D01*
X-14977081Y8281204D01*
X-15013353Y8266194D01*
X-15031561Y8262579D01*
X-15051195Y8260653D01*
X-15081774Y8260666D01*
X-15081886Y8260648D01*
X-18945519Y8260648D01*
X-18965202Y8262593D01*
X-18983057Y8266156D01*
X-19019280Y8281178D01*
X-19026053Y8285706D01*
X-19053791Y8313453D01*
X-19058316Y8320226D01*
X-19073329Y8356460D01*
X-19076950Y8374640D01*
X-19078888Y8394291D01*
X-19078888Y8982114D01*
X-19078940Y8982697D01*
X-19078929Y9003776D01*
X-19105978Y9087131D01*
X-19157471Y9158041D01*
X-19165603Y9163950D01*
X-19202858Y9191022D01*
X-19228365Y9209557D01*
X-19228367Y9209558D01*
X-19257567Y9219043D01*
X-19311713Y9236631D01*
X-19311715Y9236631D01*
X-19355530Y9236624D01*
X-19531984Y9236624D01*
X-19532557Y9236575D01*
X-19553785Y9236581D01*
X-19553792Y9236580D01*
X-19637130Y9209525D01*
X-19662584Y9191038D01*
X-19708031Y9158031D01*
X-19708032Y9158030D01*
X-19708033Y9158029D01*
X-19759540Y9087153D01*
X-19759546Y9087141D01*
X-19786624Y9003815D01*
X-19786624Y-1972214D01*
X-19786598Y-1972509D01*
X-19786598Y-2014969D01*
X-19757684Y-2141646D01*
X-19757683Y-2141648D01*
X-19757682Y-2141651D01*
X-19701308Y-2258714D01*
X-19670745Y-2297039D01*
X-19620297Y-2360302D01*
X-19570771Y-2399800D01*
X-19527457Y-2434345D01*
X-19518713Y-2441318D01*
X-19401648Y-2497700D01*
X-19274973Y-2526620D01*
X-19252789Y-2526621D01*
X-19252772Y-2526624D01*
X-19210005Y-2526624D01*
X-19185109Y-2526626D01*
X-19185108Y-2526625D01*
X-19170230Y-2526626D01*
X-19170209Y-2526624D01*
X-8403825Y-2526624D01*
X-8386355Y-2528152D01*
X-8374163Y-2530301D01*
X-8374160Y-2530303D01*
X-8364851Y-2528661D01*
X-8361960Y-2528152D01*
X-8348449Y-2526970D01*
X-8344520Y-2526277D01*
X-8331425Y-2522767D01*
X-8319229Y-2520617D01*
X-8319228Y-2520615D01*
X-8313047Y-2517046D01*
X-8307588Y-2512466D01*
X-8307588Y-2512465D01*
X-8307586Y-2512465D01*
X-8301392Y-2501735D01*
X-8291343Y-2487381D01*
X-8283376Y-2477889D01*
X-8283376Y-2477882D01*
X-8280934Y-2471174D01*
X-8279697Y-2464161D01*
X-8281848Y-2451960D01*
X-8283376Y-2434492D01*
X-8283376Y-730403D01*
X-8264163Y-671272D01*
X-8255956Y-661373D01*
X-7919909Y-305164D01*
X-7856726Y-238190D01*
X-7802173Y-208363D01*
X-7783550Y-206624D01*
X-6053106Y-206624D01*
X-6050647Y-206684D01*
X-6049777Y-206726D01*
X-6025888Y-207895D01*
X-6025027Y-207241D01*
X-5998603Y-192834D01*
X-5997586Y-192465D01*
X-5997585Y-192462D01*
X-5989643Y-185800D01*
X-5975209Y-169427D01*
X-5221181Y402907D01*
X-5162465Y423354D01*
X-5160359Y423376D01*
X-4034803Y423376D01*
X-4031010Y423233D01*
X-4028539Y423047D01*
X-4007967Y421491D01*
X-4005135Y423526D01*
X-3980867Y436342D01*
X-3977586Y437535D01*
X-3977585Y437537D01*
X-3965386Y447773D01*
X-3954288Y460032D01*
X-3623686Y697387D01*
X-3602519Y707045D01*
X-3595140Y711908D01*
X-3595138Y711908D01*
X-3588861Y720355D01*
X-3584459Y725512D01*
X-3584343Y725633D01*
X-3584336Y725637D01*
X-3580129Y731799D01*
X-3577583Y735527D01*
X-2765076Y1828721D01*
X-1399450Y3666111D01*
X-1370472Y3692361D01*
X-1339280Y3711075D01*
X-1291715Y3725322D01*
X-1158590Y3730869D01*
X-1098710Y3714134D01*
X-1095155Y3711659D01*
X3406006Y431605D01*
X3874202Y90425D01*
X3902300Y59033D01*
X3954765Y-32781D01*
X3962855Y-50873D01*
X3982332Y-109302D01*
X3984596Y-116093D01*
X3988981Y-160384D01*
X3975604Y-267401D01*
X3972655Y-282048D01*
X3843712Y-742558D01*
X3830750Y-770923D01*
X3830705Y-770990D01*
X3833706Y-797255D01*
X3836484Y-833707D01*
X3838851Y-842280D01*
X3870700Y-1120952D01*
X3869373Y-1152182D01*
X3869377Y-1152208D01*
X3882062Y-1175464D01*
X3898506Y-1208417D01*
X3903768Y-1215257D01*
X4112358Y-1597673D01*
X4121360Y-1620357D01*
X4220589Y-1999231D01*
X4223847Y-2022533D01*
X4232799Y-2434345D01*
X4228787Y-2464741D01*
X3985411Y-3297835D01*
X3969471Y-3329792D01*
X3500266Y-3958526D01*
X3485237Y-3974632D01*
X3017946Y-4376502D01*
X2995683Y-4391018D01*
X2613206Y-4573565D01*
X2569874Y-4583376D01*
X2076795Y-4583376D01*
X2036747Y-4575061D01*
X2032972Y-4573423D01*
X1894503Y-4513332D01*
X1579076Y-4376448D01*
X1559662Y-4365112D01*
X1559189Y-4364966D01*
X1539269Y-4358836D01*
X1534040Y-4356904D01*
X1531220Y-4355680D01*
X1528109Y-4354330D01*
X1519555Y-4352283D01*
X1519653Y-4351870D01*
X1512274Y-4350530D01*
X1292148Y-4282799D01*
X1270960Y-4273495D01*
X1264597Y-4269775D01*
X1264596Y-4269775D01*
X1256713Y-4271120D01*
X1244531Y-4273200D01*
X1238606Y-4273853D01*
X1236700Y-4273950D01*
X1218273Y-4274882D01*
X1217870Y-4275053D01*
X1195662Y-4281544D01*
X827522Y-4344397D01*
X800432Y-4348702D01*
X798542Y-4349751D01*
X779219Y-4365599D01*
X774773Y-4370839D01*
X760964Y-4394150D01*
X467794Y-4731738D01*
X447641Y-4749480D01*
X-184439Y-5170867D01*
X-231926Y-5187419D01*
X-2351102Y-5363204D01*
X-2355262Y-5363376D01*
X-3410452Y-5363376D01*
X-3469583Y-5344163D01*
X-3506128Y-5293863D01*
X-3506128Y-5231689D01*
X-3471694Y-5182965D01*
X-3455928Y-5170867D01*
X-3378259Y-5111269D01*
X-3328247Y-5061255D01*
X-3309829Y-5046710D01*
X-3300422Y-5040924D01*
X-3250617Y-4994723D01*
X-3247384Y-4991969D01*
X-3219137Y-4969905D01*
X-3207324Y-4961960D01*
X-3185528Y-4949447D01*
X-3180667Y-4946998D01*
X-3134507Y-4926808D01*
X-3065096Y-4898497D01*
X-3047001Y-4886529D01*
X-3042101Y-4883673D01*
X-2975107Y-4849539D01*
X-2890461Y-4764893D01*
X-2836115Y-4658233D01*
X-2817389Y-4540000D01*
X-2819613Y-4525960D01*
X-2829468Y-4463736D01*
X-2836115Y-4421767D01*
X-2890461Y-4315107D01*
X-2975107Y-4230461D01*
X-2975108Y-4230460D01*
X-3081767Y-4176115D01*
X-3081770Y-4176114D01*
X-3199997Y-4157389D01*
X-3200003Y-4157389D01*
X-3318231Y-4176114D01*
X-3318234Y-4176115D01*
X-3424893Y-4230460D01*
X-3509539Y-4315106D01*
X-3544327Y-4383380D01*
X-3546967Y-4387952D01*
X-3558893Y-4406304D01*
X-3586757Y-4476100D01*
X-3606260Y-4523423D01*
X-3608617Y-4528363D01*
X-3619067Y-4547506D01*
X-3628127Y-4561282D01*
X-3646283Y-4584494D01*
X-3649931Y-4588663D01*
X-3694820Y-4634596D01*
X-3694828Y-4634606D01*
X-3699059Y-4640998D01*
X-3717605Y-4661957D01*
X-3811889Y-4742484D01*
X-3824661Y-4751764D01*
X-3943897Y-4824832D01*
X-3957961Y-4831998D01*
X-4087165Y-4885518D01*
X-4102179Y-4890396D01*
X-4238154Y-4923042D01*
X-4253745Y-4925512D01*
X-4398997Y-4936945D01*
X-4402945Y-4937100D01*
X-6317333Y-4937100D01*
X-6343129Y-4933736D01*
X-6347606Y-4932548D01*
X-6359079Y-4930683D01*
X-6414361Y-4902230D01*
X-6420587Y-4895344D01*
X-6429269Y-4884803D01*
X-6430727Y-4883138D01*
X-6432689Y-4880897D01*
X-6483552Y-4826339D01*
X-6488224Y-4821327D01*
X-6491869Y-4817928D01*
X-6496305Y-4813791D01*
X-6507428Y-4804786D01*
X-6507425Y-4804788D01*
X-6507430Y-4804784D01*
X-6507433Y-4804782D01*
X-6516495Y-4798440D01*
X-6516503Y-4798435D01*
X-6516506Y-4798433D01*
X-6516507Y-4798432D01*
X-6536824Y-4786239D01*
X-6540508Y-4783802D01*
X-6545109Y-4780459D01*
X-6552473Y-4776707D01*
X-6555521Y-4775018D01*
X-6593487Y-4752233D01*
X-6598452Y-4749491D01*
X-6602480Y-4747451D01*
X-6605010Y-4746842D01*
X-6627113Y-4738677D01*
X-6651768Y-4726114D01*
X-6769997Y-4707389D01*
X-6770003Y-4707389D01*
X-6888231Y-4726114D01*
X-6888234Y-4726115D01*
X-6994893Y-4780460D01*
X-7079540Y-4865107D01*
X-7133885Y-4971766D01*
X-7133886Y-4971769D01*
X-7152611Y-5089997D01*
X-7152611Y-5090000D01*
X-7150973Y-5100340D01*
X-7139551Y-5172461D01*
X-7149278Y-5233869D01*
X-7193242Y-5277833D01*
X-7254651Y-5287558D01*
X-7266309Y-5284995D01*
X-7464720Y-5228841D01*
X-7508459Y-5203178D01*
X-8085885Y-4625752D01*
X-8097082Y-4611159D01*
X-8116503Y-4594863D01*
X-8119740Y-4591897D01*
X-8125375Y-4586262D01*
X-8131912Y-4581684D01*
X-8135379Y-4579025D01*
X-8142111Y-4573376D01*
X-8142112Y-4573375D01*
X-8152203Y-4569703D01*
X-8162893Y-4568768D01*
X-8162894Y-4568768D01*
X-8167297Y-4569948D01*
X-8193335Y-4573376D01*
X-22758292Y-4573376D01*
X-22758437Y-4573329D01*
X-22864972Y-4573335D01*
X-22864984Y-4573336D01*
X-22991662Y-4602258D01*
X-23108732Y-4658644D01*
X-23210324Y-4739669D01*
X-23291338Y-4841266D01*
X-23347715Y-4958343D01*
X-23376625Y-5085024D01*
X-23376626Y-5085034D01*
X-23376624Y-5136488D01*
X-23376624Y-5710999D01*
X-23395837Y-5770130D01*
X-23446137Y-5806675D01*
X-23508311Y-5806675D01*
X-23522892Y-5800636D01*
X-23531765Y-5796115D01*
X-23531770Y-5796114D01*
X-23649997Y-5777389D01*
X-23650003Y-5777389D01*
X-23768231Y-5796114D01*
X-23768234Y-5796115D01*
X-23874893Y-5850460D01*
X-23959540Y-5935107D01*
X-24013885Y-6041766D01*
X-24013886Y-6041769D01*
X-24032611Y-6159997D01*
X-24032611Y-6160002D01*
X-24013886Y-6278230D01*
X-24013885Y-6278233D01*
X-23959540Y-6384892D01*
X-23914274Y-6430158D01*
X-23912157Y-6432409D01*
X-23894095Y-6452838D01*
X-23894092Y-6452841D01*
X-23886339Y-6458741D01*
X-23881225Y-6463207D01*
X-23874893Y-6469539D01*
X-23874637Y-6469669D01*
X-23859401Y-6479240D01*
X-23834685Y-6498048D01*
X-23830489Y-6500916D01*
X-23828053Y-6502582D01*
X-23828052Y-6502582D01*
X-23828051Y-6502583D01*
X-23825669Y-6504039D01*
X-23819186Y-6508004D01*
X-23819189Y-6508002D01*
X-23815763Y-6509864D01*
X-23812142Y-6511833D01*
X-23787789Y-6523514D01*
X-23742785Y-6566411D01*
X-23730700Y-6614218D01*
X-23730700Y-7129400D01*
X-23749913Y-7188531D01*
X-23800213Y-7225076D01*
X-23831300Y-7230000D01*
X-24267100Y-7230000D01*
X-24326231Y-7210787D01*
X-24362776Y-7160487D01*
X-24367700Y-7129400D01*
X-24367700Y-5575236D01*
X-24348487Y-5516105D01*
X-24305347Y-5482190D01*
X-24289177Y-5475544D01*
X-24282159Y-5472660D01*
X-24282160Y-5472660D01*
X-24273648Y-5468551D01*
X-24273649Y-5468551D01*
X-24273647Y-5468550D01*
X-24262944Y-5462567D01*
X-24262943Y-5462566D01*
X-24262937Y-5462563D01*
X-24262936Y-5462563D01*
X-24254970Y-5457459D01*
X-24254971Y-5457460D01*
X-24230117Y-5439351D01*
X-24216543Y-5431020D01*
X-24216395Y-5430944D01*
X-24209907Y-5427639D01*
X-24204362Y-5422093D01*
X-24192458Y-5411913D01*
X-24191304Y-5411073D01*
X-24186571Y-5407340D01*
X-24182920Y-5404227D01*
X-24177879Y-5397317D01*
X-24167745Y-5385476D01*
X-24125262Y-5342994D01*
X-24125261Y-5342993D01*
X-24070915Y-5236333D01*
X-24052189Y-5118100D01*
X-24053271Y-5111269D01*
X-24064493Y-5040415D01*
X-24070915Y-4999867D01*
X-24125261Y-4893207D01*
X-24209907Y-4808561D01*
X-24209908Y-4808560D01*
X-24316567Y-4754215D01*
X-24316570Y-4754214D01*
X-24434797Y-4735489D01*
X-24434803Y-4735489D01*
X-24553031Y-4754214D01*
X-24553034Y-4754215D01*
X-24659696Y-4808561D01*
X-24677473Y-4826339D01*
X-24732871Y-4854565D01*
X-24794279Y-4844837D01*
X-24827257Y-4817928D01*
X-24878070Y-4754214D01*
X-24889667Y-4739672D01*
X-24889669Y-4739671D01*
X-24889669Y-4739670D01*
X-24889672Y-4739667D01*
X-24991263Y-4658657D01*
X-24991262Y-4658657D01*
X-25108346Y-4602279D01*
X-25235032Y-4573371D01*
X-25235033Y-4573371D01*
X-25300005Y-4573376D01*
X-32980074Y-4573376D01*
X-32980634Y-4573423D01*
X-33106350Y-4573423D01*
X-33271330Y-4593453D01*
X-33400424Y-4609126D01*
X-33400426Y-4609126D01*
X-33400431Y-4609127D01*
X-33400436Y-4609128D01*
X-33688043Y-4680013D01*
X-33688060Y-4680018D01*
X-33965035Y-4785057D01*
X-34227346Y-4922723D01*
X-34471150Y-5091007D01*
X-34692878Y-5287437D01*
X-34692885Y-5287444D01*
X-34889322Y-5509170D01*
X-35057604Y-5752965D01*
X-35057608Y-5752971D01*
X-35108775Y-5850461D01*
X-35195276Y-6015271D01*
X-35195278Y-6015275D01*
X-35195278Y-6015276D01*
X-35300321Y-6292243D01*
X-35300325Y-6292255D01*
X-35371222Y-6579886D01*
X-35371223Y-6579893D01*
X-35406929Y-6873943D01*
X-35406931Y-6873964D01*
X-35406931Y-9039807D01*
X-35406992Y-9042271D01*
X-35420011Y-9305391D01*
X-35426129Y-9429051D01*
X-35426535Y-9433405D01*
X-35479054Y-9816131D01*
X-35479837Y-9820434D01*
X-35565388Y-10197153D01*
X-35566541Y-10201370D01*
X-35680995Y-10558377D01*
X-35684475Y-10569231D01*
X-35685990Y-10573333D01*
X-35835422Y-10929573D01*
X-35837287Y-10933529D01*
X-36017089Y-11275452D01*
X-36019291Y-11279231D01*
X-36228097Y-11604247D01*
X-36230618Y-11607820D01*
X-36466851Y-11913473D01*
X-36469665Y-11916804D01*
X-36651037Y-12113488D01*
X-36731554Y-12200802D01*
X-36734656Y-12203885D01*
X-37020218Y-12464075D01*
X-37023576Y-12466878D01*
X-37330635Y-12701279D01*
X-37334223Y-12703779D01*
X-37660485Y-12910641D01*
X-37664277Y-12912820D01*
X-38007259Y-13090568D01*
X-38011226Y-13092410D01*
X-38368357Y-13239712D01*
X-38372469Y-13241202D01*
X-38741022Y-13356933D01*
X-38745248Y-13358061D01*
X-39122481Y-13441361D01*
X-39126788Y-13442118D01*
X-39509815Y-13492347D01*
X-39514172Y-13492727D01*
X-39903130Y-13509642D01*
X-48403960Y-13509642D01*
X-48404190Y-13509662D01*
X-48431357Y-13509662D01*
X-48527129Y-13535324D01*
X-48527134Y-13535326D01*
X-48613013Y-13584907D01*
X-48683135Y-13655023D01*
X-48732719Y-13740896D01*
X-48732719Y-13740897D01*
X-48758390Y-13836679D01*
X-48758390Y-13836681D01*
X-48758391Y-13843484D01*
X-48758394Y-13843508D01*
X-48758394Y-13886260D01*
X-48758398Y-13931151D01*
X-48758394Y-13931170D01*
X-48758394Y-14377944D01*
X-48758824Y-14384506D01*
X-48765830Y-14437751D01*
X-48771727Y-14482563D01*
X-48778520Y-14507924D01*
X-48810604Y-14585410D01*
X-48823736Y-14608160D01*
X-48874777Y-14674687D01*
X-48893352Y-14693264D01*
X-48959882Y-14744312D01*
X-48982633Y-14757445D01*
X-49008434Y-14768129D01*
X-49060106Y-14789526D01*
X-49085479Y-14796320D01*
X-49183521Y-14809212D01*
X-49190086Y-14809642D01*
X-51373465Y-14809642D01*
X-51380019Y-14809213D01*
X-51432888Y-14802264D01*
X-51478045Y-14796329D01*
X-51503435Y-14789528D01*
X-51580899Y-14757439D01*
X-51603643Y-14744307D01*
X-51670159Y-14693264D01*
X-51670177Y-14693250D01*
X-51688744Y-14674682D01*
X-51739798Y-14608143D01*
X-51752928Y-14585399D01*
X-51785018Y-14507920D01*
X-51791814Y-14482555D01*
X-51804717Y-14384508D01*
X-51805146Y-14377944D01*
X-51805146Y-13052600D01*
X-51785933Y-12993469D01*
X-51735633Y-12956924D01*
X-51704546Y-12952000D01*
X-51009343Y-12952000D01*
X-50991987Y-12953509D01*
X-50984799Y-12954768D01*
X-50929869Y-12983894D01*
X-50925516Y-12988691D01*
X-50922667Y-12992042D01*
X-50873571Y-13046803D01*
X-50871802Y-13048679D01*
X-50859630Y-13057102D01*
X-50845741Y-13068691D01*
X-50814893Y-13099539D01*
X-50708233Y-13153885D01*
X-50660940Y-13161375D01*
X-50590003Y-13172611D01*
X-50590000Y-13172611D01*
X-50589997Y-13172611D01*
X-50506416Y-13159373D01*
X-50445008Y-13169099D01*
X-50401044Y-13213062D01*
X-50369540Y-13274892D01*
X-50369539Y-13274893D01*
X-50284893Y-13359539D01*
X-50178233Y-13413885D01*
X-50130940Y-13421375D01*
X-50060003Y-13432611D01*
X-50060000Y-13432611D01*
X-50059997Y-13432611D01*
X-50000884Y-13423248D01*
X-49941767Y-13413885D01*
X-49835107Y-13359539D01*
X-49750461Y-13274893D01*
X-49716542Y-13208319D01*
X-49713657Y-13203377D01*
X-49701594Y-13185183D01*
X-49671537Y-13111875D01*
X-49650098Y-13063874D01*
X-49647413Y-13058694D01*
X-49633720Y-13035659D01*
X-49625341Y-13023653D01*
X-49605444Y-12999162D01*
X-49553245Y-12965386D01*
X-49527366Y-12962000D01*
X-49231246Y-12962000D01*
X-49197316Y-12955657D01*
X-49186916Y-12953712D01*
X-49168430Y-12952000D01*
X-48878779Y-12952000D01*
X-48878778Y-12952000D01*
X-48817406Y-12939792D01*
X-48747810Y-12893290D01*
X-48701308Y-12823694D01*
X-48689100Y-12762322D01*
X-48689100Y-12605878D01*
X-48701308Y-12544506D01*
X-48704327Y-12539987D01*
X-48721202Y-12480151D01*
X-48704329Y-12428214D01*
X-48701308Y-12423694D01*
X-48701308Y-12423692D01*
X-48700022Y-12421768D01*
X-48651198Y-12383274D01*
X-48589071Y-12380831D01*
X-48545239Y-12406520D01*
X-48457849Y-12493910D01*
X-48457223Y-12494481D01*
X-48419801Y-12531908D01*
X-48283898Y-12630662D01*
X-48134219Y-12706940D01*
X-48134215Y-12706941D01*
X-48134213Y-12706942D01*
X-47974452Y-12758863D01*
X-47974447Y-12758864D01*
X-47808527Y-12785154D01*
X-47808525Y-12785154D01*
X-47792153Y-12785154D01*
X-47792115Y-12785159D01*
X-47724528Y-12785159D01*
X-47676173Y-12785162D01*
X-47676172Y-12785161D01*
X-47668094Y-12785162D01*
X-47668043Y-12785159D01*
X-39947513Y-12785159D01*
X-39940870Y-12785159D01*
X-39940741Y-12785201D01*
X-39899158Y-12785201D01*
X-39735010Y-12785201D01*
X-39735005Y-12785201D01*
X-39433994Y-12758864D01*
X-39407946Y-12756585D01*
X-39319874Y-12741054D01*
X-39084628Y-12699573D01*
X-38980859Y-12671767D01*
X-38767516Y-12614600D01*
X-38767516Y-12614599D01*
X-38767508Y-12614597D01*
X-38540324Y-12531906D01*
X-38459001Y-12502306D01*
X-38228665Y-12394893D01*
X-38161457Y-12363552D01*
X-38161456Y-12363550D01*
X-38161451Y-12363549D01*
X-38161450Y-12363549D01*
X-37877142Y-12199396D01*
X-37608202Y-12011074D01*
X-37608203Y-12011074D01*
X-37385239Y-11823975D01*
X-37356716Y-11800040D01*
X-37266381Y-11709700D01*
X-37232193Y-11675512D01*
X-37232194Y-11675511D01*
X-37202740Y-11646058D01*
X-37202728Y-11646045D01*
X-37200787Y-11644103D01*
X-37200669Y-11643963D01*
X-37135930Y-11579227D01*
X-37116132Y-11559430D01*
X-37116133Y-11559430D01*
X-37116131Y-11559428D01*
X-37010615Y-11433681D01*
X-36905097Y-11307933D01*
X-36716787Y-11039002D01*
X-36716788Y-11039002D01*
X-36552636Y-10754687D01*
X-36482326Y-10603910D01*
X-36413887Y-10457145D01*
X-36301598Y-10148642D01*
X-36243940Y-9933458D01*
X-36216626Y-9831523D01*
X-36159615Y-9508207D01*
X-36131000Y-9181153D01*
X-36131000Y-9017001D01*
X-36130999Y-8968646D01*
X-36131000Y-8968642D01*
X-36131000Y-7083502D01*
X-36127656Y-7062390D01*
X-36127998Y-7062336D01*
X-36126759Y-7054515D01*
X-36126759Y-7053249D01*
X-36124087Y-7030216D01*
X-36123595Y-7028125D01*
X-36121802Y-7020502D01*
X-36124682Y-6999861D01*
X-36125525Y-6981037D01*
X-36111713Y-6699946D01*
X-36111229Y-6695048D01*
X-36066606Y-6394233D01*
X-36065645Y-6389409D01*
X-35991750Y-6094417D01*
X-35990323Y-6089714D01*
X-35887868Y-5803377D01*
X-35885987Y-5798836D01*
X-35755955Y-5523913D01*
X-35753647Y-5519596D01*
X-35597292Y-5258736D01*
X-35594554Y-5254641D01*
X-35413390Y-5010373D01*
X-35410291Y-5006597D01*
X-35204869Y-4779952D01*
X-35203203Y-4778202D01*
X-35196810Y-4771811D01*
X-35195053Y-4770137D01*
X-34968776Y-4565048D01*
X-34965000Y-4561949D01*
X-34720719Y-4380774D01*
X-34716635Y-4378045D01*
X-34455774Y-4221689D01*
X-34451457Y-4219381D01*
X-34176532Y-4089348D01*
X-34171991Y-4087467D01*
X-33885652Y-3985011D01*
X-33880949Y-3983584D01*
X-33585947Y-3909686D01*
X-33581131Y-3908727D01*
X-33280308Y-3864102D01*
X-33275415Y-3863619D01*
X-33093980Y-3854704D01*
X-32970976Y-3848661D01*
X-32968507Y-3848600D01*
X-32920842Y-3848600D01*
X-21094887Y-3848600D01*
X-21094813Y-3848605D01*
X-21086750Y-3848604D01*
X-21086748Y-3848605D01*
X-21080098Y-3848604D01*
X-21080015Y-3848630D01*
X-21038393Y-3848627D01*
X-21038393Y-3848628D01*
X-20974385Y-3848623D01*
X-20847947Y-3828586D01*
X-20726200Y-3789018D01*
X-20726197Y-3789015D01*
X-20726193Y-3789015D01*
X-20612150Y-3730898D01*
X-20612147Y-3730895D01*
X-20612141Y-3730893D01*
X-20543140Y-3680754D01*
X-20484011Y-3661538D01*
X-20438332Y-3672504D01*
X-20425413Y-3679086D01*
X-20409082Y-3687408D01*
X-20287334Y-3726969D01*
X-20287331Y-3726969D01*
X-20287329Y-3726970D01*
X-20160897Y-3746998D01*
X-20160876Y-3747000D01*
X-20096889Y-3747000D01*
X-20048534Y-3747002D01*
X-20048531Y-3747000D01*
X-20040441Y-3747001D01*
X-20040416Y-3747000D01*
X-8457070Y-3747000D01*
X-7978587Y-3747000D01*
X-7978513Y-3747005D01*
X-7970450Y-3747004D01*
X-7970448Y-3747005D01*
X-7963798Y-3747004D01*
X-7963715Y-3747030D01*
X-7922093Y-3747027D01*
X-7922093Y-3747028D01*
X-7866628Y-3747023D01*
X-7856397Y-3747023D01*
X-7855806Y-3747000D01*
X-7516249Y-3747000D01*
X-7509677Y-3747430D01*
X-7473614Y-3752181D01*
X-7448255Y-3758979D01*
X-7425159Y-3768549D01*
X-7423838Y-3769096D01*
X-7401102Y-3782225D01*
X-7372035Y-3804532D01*
X-7367089Y-3808871D01*
X-7341697Y-3834267D01*
X-7316646Y-3875945D01*
X-7314954Y-3881470D01*
X-7313693Y-3885266D01*
X-7294203Y-3939646D01*
X-7293349Y-3941862D01*
X-7284425Y-3955637D01*
X-7281820Y-3960154D01*
X-7243742Y-4034889D01*
X-7243741Y-4034890D01*
X-7243739Y-4034893D01*
X-7159093Y-4119539D01*
X-7052433Y-4173885D01*
X-7005140Y-4181375D01*
X-6934203Y-4192611D01*
X-6934200Y-4192611D01*
X-6934197Y-4192611D01*
X-6875084Y-4183248D01*
X-6815967Y-4173885D01*
X-6709307Y-4119539D01*
X-6624661Y-4034893D01*
X-6570315Y-3928233D01*
X-6557703Y-3848604D01*
X-6551589Y-3810002D01*
X-6551589Y-3809997D01*
X-6564118Y-3730893D01*
X-6570315Y-3691767D01*
X-6574785Y-3682995D01*
X-6584511Y-3621588D01*
X-6556285Y-3566190D01*
X-6537843Y-3552791D01*
X-6537913Y-3552694D01*
X-6531511Y-3548042D01*
X-6531510Y-3548040D01*
X-6531507Y-3548039D01*
X-6496168Y-3512698D01*
X-6491201Y-3508345D01*
X-6470462Y-3492461D01*
X-6426340Y-3442235D01*
X-6422597Y-3437650D01*
X-6411133Y-3422600D01*
X-6360020Y-3387204D01*
X-6353662Y-3385631D01*
X-6351817Y-3385104D01*
X-6351812Y-3385104D01*
X-6347113Y-3383762D01*
X-6319503Y-3379900D01*
X-5489865Y-3379900D01*
X-5462927Y-3384131D01*
X-5462899Y-3384004D01*
X-5460697Y-3384481D01*
X-5459025Y-3384744D01*
X-5458078Y-3385049D01*
X-5458076Y-3385049D01*
X-5458074Y-3385050D01*
X-5458073Y-3385050D01*
X-5458069Y-3385051D01*
X-5439465Y-3387204D01*
X-5421128Y-3389326D01*
X-5368809Y-3411547D01*
X-5348265Y-3428436D01*
X-5288665Y-3476448D01*
X-5288666Y-3476447D01*
X-5282783Y-3480753D01*
X-5282782Y-3480754D01*
X-5282780Y-3480755D01*
X-5274912Y-3485974D01*
X-5271150Y-3488227D01*
X-5268682Y-3489705D01*
X-5268685Y-3489704D01*
X-5234056Y-3508335D01*
X-5190610Y-3531710D01*
X-5187249Y-3533416D01*
X-5184528Y-3534717D01*
X-5180923Y-3535542D01*
X-5157687Y-3543973D01*
X-5138238Y-3553883D01*
X-5138236Y-3553883D01*
X-5138233Y-3553885D01*
X-5138228Y-3553885D01*
X-5138227Y-3553886D01*
X-5020003Y-3572611D01*
X-5020000Y-3572611D01*
X-5019997Y-3572611D01*
X-4960884Y-3563248D01*
X-4901767Y-3553885D01*
X-4795107Y-3499539D01*
X-4710461Y-3414893D01*
X-4656115Y-3308233D01*
X-4651880Y-3281491D01*
X-4623656Y-3226095D01*
X-4568259Y-3197867D01*
X-4530688Y-3200284D01*
X-4530629Y-3199876D01*
X-4525436Y-3200622D01*
X-4524176Y-3200703D01*
X-4523507Y-3200900D01*
X-4465595Y-3200900D01*
X-4459640Y-3201253D01*
X-4432880Y-3204445D01*
X-4335249Y-3196845D01*
X-4290225Y-3193341D01*
X-4290227Y-3193341D01*
X-4283065Y-3192454D01*
X-4283066Y-3192454D01*
X-4277062Y-3191430D01*
X-4273881Y-3190888D01*
X-4273875Y-3190886D01*
X-4273871Y-3190886D01*
X-4273870Y-3190886D01*
X-4266836Y-3189354D01*
X-4211573Y-3174647D01*
X-4156312Y-3159942D01*
X-4152709Y-3158891D01*
X-4148589Y-3157583D01*
X-4147513Y-3157212D01*
X-4145010Y-3156350D01*
X-4061712Y-3125423D01*
X-4057155Y-3123974D01*
X-3983055Y-3104256D01*
X-3964995Y-3101176D01*
X-3846638Y-3091964D01*
X-3846634Y-3091963D01*
X-3838492Y-3089844D01*
X-3813151Y-3086600D01*
X-1251472Y-3086600D01*
X-1236506Y-3087719D01*
X-1215707Y-3090849D01*
X-1156417Y-3088060D01*
X-1126540Y-3086656D01*
X-1124177Y-3086600D01*
X-870380Y-3086600D01*
X-865994Y-3086792D01*
X-832391Y-3089731D01*
X-822809Y-3090570D01*
X-822809Y-3090569D01*
X-822808Y-3090570D01*
X-805033Y-3085806D01*
X-780918Y-3079344D01*
X-776653Y-3078398D01*
X-739656Y-3071875D01*
X-733944Y-3070869D01*
X-733944Y-3070868D01*
X-733939Y-3070868D01*
X-732126Y-3069820D01*
X-707860Y-3059769D01*
X-705834Y-3059227D01*
X-680177Y-3041260D01*
X-633105Y-3025197D01*
X-633287Y-3023889D01*
X-628705Y-3023248D01*
X-628703Y-3023248D01*
X-622117Y-3021699D01*
X-617306Y-3020569D01*
X-594286Y-3017900D01*
X-552694Y-3017900D01*
X-413940Y-2977158D01*
X-292284Y-2898974D01*
X-197583Y-2789684D01*
X-137509Y-2658140D01*
X-116929Y-2515000D01*
X-119417Y-2497698D01*
X-128525Y-2434345D01*
X-137509Y-2371860D01*
X-197583Y-2240316D01*
X-292284Y-2131026D01*
X-402204Y-2060384D01*
X-413941Y-2052841D01*
X-552694Y-2012100D01*
X-697306Y-2012100D01*
X-836059Y-2052841D01*
X-836064Y-2052843D01*
X-957715Y-2131023D01*
X-978200Y-2154663D01*
X-991642Y-2167544D01*
X-1001139Y-2175089D01*
X-1001141Y-2175091D01*
X-1058828Y-2243153D01*
X-1072368Y-2259128D01*
X-1075009Y-2262418D01*
X-1077871Y-2266186D01*
X-1080251Y-2269493D01*
X-1099018Y-2297040D01*
X-1129120Y-2341222D01*
X-1132024Y-2345073D01*
X-1139575Y-2354148D01*
X-1192164Y-2387315D01*
X-1204288Y-2389611D01*
X-1244945Y-2394751D01*
X-1247177Y-2395419D01*
X-1247704Y-2395577D01*
X-1276545Y-2399800D01*
X-3813684Y-2399800D01*
X-3840912Y-2396045D01*
X-3846631Y-2394437D01*
X-3846633Y-2394436D01*
X-3846635Y-2394436D01*
X-3846637Y-2394435D01*
X-3846646Y-2394434D01*
X-3964996Y-2385220D01*
X-3983055Y-2382141D01*
X-4048194Y-2364809D01*
X-4057123Y-2362433D01*
X-4061687Y-2360982D01*
X-4145047Y-2330034D01*
X-4148661Y-2328791D01*
X-4152764Y-2327490D01*
X-4154547Y-2326971D01*
X-4156328Y-2326452D01*
X-4266851Y-2297040D01*
X-4266855Y-2297039D01*
X-4268771Y-2296622D01*
X-4273912Y-2295503D01*
X-4281698Y-2294178D01*
X-4283108Y-2293938D01*
X-4283107Y-2293938D01*
X-4290219Y-2293059D01*
X-4411629Y-2283608D01*
X-4435909Y-2281718D01*
X-4436885Y-2281679D01*
X-4439809Y-2281565D01*
X-4439810Y-2281565D01*
X-4439812Y-2281565D01*
X-4445193Y-2281931D01*
X-4445224Y-2281484D01*
X-4472199Y-2281737D01*
X-4476159Y-2281113D01*
X-4476163Y-2281113D01*
X-4612409Y-2286584D01*
X-4614201Y-2286697D01*
X-4615995Y-2286810D01*
X-4620251Y-2287175D01*
X-4621791Y-2287345D01*
X-4624103Y-2287601D01*
X-4731476Y-2302155D01*
X-4735713Y-2302846D01*
X-4767339Y-2308784D01*
X-4821616Y-2318976D01*
X-4824140Y-2319384D01*
X-4837151Y-2321147D01*
X-4912851Y-2331408D01*
X-4917590Y-2331823D01*
X-5043370Y-2336875D01*
X-5053551Y-2339221D01*
X-5055328Y-2339631D01*
X-5077916Y-2342200D01*
X-6527172Y-2342200D01*
X-6527216Y-2342202D01*
X-6583260Y-2342202D01*
X-6692905Y-2356636D01*
X-6727776Y-2361227D01*
X-6788909Y-2349895D01*
X-6831707Y-2304795D01*
X-6839821Y-2243153D01*
X-6838578Y-2237393D01*
X-6827368Y-2191990D01*
X-6826235Y-2186604D01*
X-6825165Y-2180457D01*
X-6824424Y-2175132D01*
X-6824420Y-2175090D01*
X-6817831Y-2112123D01*
X-6817487Y-2109502D01*
X-6816269Y-2101794D01*
X-6809681Y-2060121D01*
X-6805886Y-2044423D01*
X-6782894Y-1974468D01*
X-6782893Y-1974462D01*
X-6781885Y-1970145D01*
X-6780886Y-1970378D01*
X-6775896Y-1954581D01*
X-6775961Y-1954560D01*
X-6773516Y-1947036D01*
X-6773516Y-1947034D01*
X-6773515Y-1947033D01*
X-6754789Y-1828800D01*
X-6773515Y-1710567D01*
X-6827861Y-1603907D01*
X-6912507Y-1519261D01*
X-6912508Y-1519260D01*
X-7019167Y-1464915D01*
X-7019170Y-1464914D01*
X-7137397Y-1446189D01*
X-7137403Y-1446189D01*
X-7255631Y-1464914D01*
X-7255634Y-1464915D01*
X-7362293Y-1519260D01*
X-7446940Y-1603907D01*
X-7501285Y-1710566D01*
X-7501286Y-1710569D01*
X-7520011Y-1828797D01*
X-7520011Y-1828802D01*
X-7501286Y-1947030D01*
X-7501284Y-1947036D01*
X-7489037Y-1971073D01*
X-7482445Y-1987405D01*
X-7478335Y-2000887D01*
X-7478333Y-2000892D01*
X-7446428Y-2060384D01*
X-7443919Y-2064724D01*
X-7440900Y-2069588D01*
X-7438136Y-2073741D01*
X-7438314Y-2073490D01*
X-7419700Y-2132813D01*
X-7439510Y-2191746D01*
X-7440483Y-2193036D01*
X-7461133Y-2219947D01*
X-7465475Y-2224899D01*
X-7498114Y-2257539D01*
X-7778615Y-2538039D01*
X-7782275Y-2541357D01*
X-7884263Y-2625054D01*
X-7900661Y-2636010D01*
X-8010443Y-2694688D01*
X-8028662Y-2702234D01*
X-8147787Y-2738369D01*
X-8167131Y-2742217D01*
X-8298541Y-2755157D01*
X-8303473Y-2755399D01*
X-8358330Y-2755399D01*
X-8358342Y-2755400D01*
X-19877671Y-2755400D01*
X-19884245Y-2754969D01*
X-19893537Y-2753745D01*
X-19926883Y-2749354D01*
X-19952245Y-2742557D01*
X-19964573Y-2737451D01*
X-19982789Y-2729905D01*
X-20005528Y-2716776D01*
X-20024479Y-2702234D01*
X-20039689Y-2690562D01*
X-20044641Y-2686220D01*
X-20082898Y-2647963D01*
X-20082905Y-2647957D01*
X-20085244Y-2645617D01*
X-20089584Y-2640668D01*
X-20115764Y-2606546D01*
X-20128893Y-2583802D01*
X-20141543Y-2553258D01*
X-20148338Y-2527897D01*
X-20152313Y-2497698D01*
X-20153969Y-2485113D01*
X-20154400Y-2478541D01*
X-20154400Y-2464160D01*
X-20154399Y-2432632D01*
X-20154400Y-2432629D01*
X-20154400Y9387658D01*
X-20154245Y9391607D01*
X-20150012Y9445380D01*
X-20142827Y9536643D01*
X-20140361Y9552215D01*
X-20107781Y9687904D01*
X-20102904Y9702909D01*
X-20089130Y9736160D01*
X-20049502Y9831829D01*
X-20042342Y9845879D01*
X-19969431Y9964856D01*
X-19960163Y9977614D01*
X-19865525Y10088420D01*
X-19862864Y10091298D01*
X-19855443Y10098720D01*
X-19852542Y10101400D01*
X-19838130Y10113709D01*
X-19741931Y10195869D01*
X-19729167Y10205142D01*
X-19720222Y10210623D01*
X-19610197Y10278045D01*
X-19596132Y10285211D01*
X-19467223Y10338606D01*
X-19452222Y10343482D01*
X-19316521Y10376059D01*
X-19300954Y10378524D01*
X-19155806Y10389946D01*
X-19151865Y10390100D01*
X-19104599Y10390099D01*
X-19104596Y10390100D01*
X-17865077Y10390100D01*
X-17805946Y10370887D01*
X-17769401Y10320587D01*
X-17765716Y10305239D01*
X-17764980Y10300591D01*
X-17764980Y10300590D01*
X-17757752Y10286404D01*
X-17753005Y10273778D01*
X-17750584Y10268260D01*
X-17742628Y10256082D01*
X-17739918Y10251403D01*
X-17714229Y10200986D01*
X-17699693Y10186450D01*
X-17686610Y10170339D01*
X-17686608Y10170335D01*
X-17686605Y10170332D01*
X-17675405Y10161615D01*
X-17670727Y10157484D01*
X-17635182Y10121939D01*
X-17612594Y10110429D01*
X-17596483Y10100187D01*
X-17594294Y10098483D01*
X-17589491Y10096835D01*
X-17581868Y10094218D01*
X-17575378Y10091467D01*
X-17535578Y10071188D01*
X-17505628Y10066446D01*
X-17488700Y10062233D01*
X-17483655Y10060500D01*
X-17476010Y10060500D01*
X-17460273Y10059262D01*
X-17425167Y10053701D01*
X-17314756Y10071188D01*
X-17247327Y10105546D01*
X-17185920Y10115272D01*
X-17152249Y10100671D01*
X-17151286Y10102448D01*
X-17143961Y10098485D01*
X-17143959Y10098483D01*
X-17131534Y10094218D01*
X-17125044Y10091467D01*
X-17085244Y10071188D01*
X-17055294Y10066446D01*
X-17038366Y10062233D01*
X-17033321Y10060500D01*
X-17025676Y10060500D01*
X-17009939Y10059262D01*
X-16974833Y10053701D01*
X-16864422Y10071188D01*
X-16764818Y10121939D01*
X-16685772Y10200985D01*
X-16680597Y10211144D01*
X-16677871Y10215847D01*
X-16677356Y10216637D01*
X-16677349Y10216644D01*
X-16675180Y10221590D01*
X-16673937Y10224213D01*
X-16660083Y10251403D01*
X-16635021Y10300589D01*
X-16633361Y10311072D01*
X-16632439Y10315561D01*
X-16630362Y10323766D01*
X-16630360Y10323768D01*
X-16629429Y10335024D01*
X-16628981Y10338731D01*
X-16623069Y10376056D01*
X-16617534Y10411000D01*
X-16619315Y10422240D01*
X-16619678Y10432060D01*
X-16620012Y10432032D01*
X-16620701Y10440340D01*
X-16620702Y10440341D01*
X-16620701Y10440344D01*
X-16624094Y10453739D01*
X-16625011Y10458206D01*
X-16635021Y10521411D01*
X-16642246Y10535591D01*
X-16646988Y10548203D01*
X-16649417Y10553740D01*
X-16649417Y10553741D01*
X-16657378Y10565926D01*
X-16660081Y10570593D01*
X-16685772Y10621015D01*
X-16700310Y10635553D01*
X-16713391Y10651662D01*
X-16713393Y10651665D01*
X-16713395Y10651667D01*
X-16713396Y10651669D01*
X-16715788Y10653531D01*
X-16724602Y10660392D01*
X-16729278Y10664521D01*
X-16764819Y10700062D01*
X-16787408Y10711572D01*
X-16803677Y10721937D01*
X-16804043Y10722223D01*
X-16838806Y10773771D01*
X-16842086Y10797111D01*
X-16842702Y10800997D01*
X-16842701Y10801000D01*
X-16844482Y10812240D01*
X-16844845Y10822060D01*
X-16845179Y10822032D01*
X-16845868Y10830340D01*
X-16845869Y10830341D01*
X-16845868Y10830344D01*
X-16849261Y10843739D01*
X-16850178Y10848206D01*
X-16850462Y10850000D01*
X-16860188Y10911411D01*
X-16866284Y10923375D01*
X-16867413Y10925591D01*
X-16872155Y10938203D01*
X-16874584Y10943740D01*
X-16874584Y10943741D01*
X-16882545Y10955926D01*
X-16885248Y10960593D01*
X-16910939Y11011015D01*
X-16925477Y11025553D01*
X-16938558Y11041662D01*
X-16938560Y11041665D01*
X-16938562Y11041667D01*
X-16938563Y11041669D01*
X-16939680Y11042538D01*
X-16949769Y11050392D01*
X-16954445Y11054521D01*
X-16989986Y11090062D01*
X-17012575Y11101572D01*
X-17028686Y11111814D01*
X-17030874Y11113517D01*
X-17030876Y11113518D01*
X-17030880Y11113520D01*
X-17043297Y11117784D01*
X-17049804Y11120542D01*
X-17075623Y11133696D01*
X-17089589Y11140812D01*
X-17089591Y11140813D01*
X-17089592Y11140813D01*
X-17119542Y11145557D01*
X-17136467Y11149768D01*
X-17141512Y11151500D01*
X-17149157Y11151500D01*
X-17164895Y11152739D01*
X-17199998Y11158299D01*
X-17200000Y11158299D01*
X-17235105Y11152739D01*
X-17310414Y11140812D01*
X-17410015Y11090062D01*
X-17489063Y11011014D01*
X-17492215Y11004827D01*
X-17536180Y10960864D01*
X-17581849Y10949900D01*
X-19182234Y10949900D01*
X-19182420Y10949893D01*
X-19255525Y10949893D01*
X-19255526Y10949893D01*
X-19255531Y10949893D01*
X-19456965Y10923376D01*
X-19456966Y10923376D01*
X-19456972Y10923375D01*
X-19653211Y10870795D01*
X-19653217Y10870793D01*
X-19840917Y10793046D01*
X-20016880Y10691456D01*
X-20019617Y10689627D01*
X-20020111Y10690366D01*
X-20075358Y10670802D01*
X-20134972Y10688462D01*
X-20172820Y10737790D01*
X-20177350Y10787105D01*
X-20167389Y10849998D01*
X-20167389Y10850003D01*
X-20179010Y10923376D01*
X-20186115Y10968233D01*
X-20240461Y11074893D01*
X-20325107Y11159539D01*
X-20325108Y11159540D01*
X-20431767Y11213885D01*
X-20431770Y11213886D01*
X-20549997Y11232611D01*
X-20550003Y11232611D01*
X-20668231Y11213886D01*
X-20668234Y11213885D01*
X-20774893Y11159540D01*
X-20859539Y11074894D01*
X-20882159Y11030502D01*
X-20895639Y11010443D01*
X-20900301Y11005043D01*
X-20900304Y11005039D01*
X-20940029Y10934986D01*
X-20953675Y10916313D01*
X-20994187Y10872500D01*
X-21051300Y10814967D01*
X-21058237Y10806973D01*
X-21066486Y10796073D01*
X-21066485Y10796074D01*
X-21072276Y10787256D01*
X-21072276Y10787255D01*
X-21113784Y10713793D01*
X-21125922Y10686611D01*
X-21127318Y10682473D01*
X-21127322Y10682460D01*
X-21134136Y10653529D01*
X-21134570Y10651196D01*
X-21134898Y10651258D01*
X-21139778Y10632433D01*
X-21146000Y10616372D01*
X-21146000Y10607367D01*
X-21156964Y10561697D01*
X-21204586Y10468232D01*
X-21223311Y10350003D01*
X-21223311Y10345612D01*
X-21222968Y10331956D01*
X-21222257Y10331933D01*
X-21222411Y10326997D01*
X-21215548Y10224793D01*
X-21214886Y10218597D01*
X-21213714Y10210623D01*
X-21213713Y10210620D01*
X-21212567Y10204511D01*
X-21204755Y10170331D01*
X-21193371Y10120518D01*
X-21191504Y10113711D01*
X-21184379Y10091309D01*
X-21171753Y10051611D01*
X-21170658Y10047597D01*
X-21159132Y9997165D01*
X-21156829Y9981493D01*
X-21151378Y9900337D01*
X-21149045Y9891072D01*
X-21146000Y9866506D01*
X-21146000Y-2728419D01*
X-21145983Y-2728805D01*
X-21145983Y-2761878D01*
X-21125962Y-2888316D01*
X-21125961Y-2888318D01*
X-21086410Y-3010060D01*
X-21086403Y-3010075D01*
X-21044801Y-3091732D01*
X-21035077Y-3153141D01*
X-21063306Y-3208538D01*
X-21118705Y-3236762D01*
X-21134438Y-3238000D01*
X-32912734Y-3238000D01*
X-32912746Y-3237999D01*
X-32927508Y-3237999D01*
X-32927589Y-3237973D01*
X-32969203Y-3237973D01*
X-33133356Y-3237974D01*
X-33460411Y-3266591D01*
X-33783728Y-3323604D01*
X-33818181Y-3332836D01*
X-34100849Y-3408579D01*
X-34409351Y-3520869D01*
X-34706888Y-3659615D01*
X-34706887Y-3659615D01*
X-34706890Y-3659616D01*
X-34706895Y-3659619D01*
X-34991210Y-3823772D01*
X-35260142Y-4012083D01*
X-35353341Y-4090288D01*
X-35511638Y-4223118D01*
X-35553906Y-4265386D01*
X-35667221Y-4378701D01*
X-35667420Y-4378933D01*
X-35752227Y-4463740D01*
X-35963255Y-4715230D01*
X-35963254Y-4715229D01*
X-36151566Y-4984162D01*
X-36151565Y-4984162D01*
X-36315717Y-5268475D01*
X-36315718Y-5268478D01*
X-36315719Y-5268479D01*
X-36454466Y-5566017D01*
X-36566755Y-5874519D01*
X-36604472Y-6015276D01*
X-36651729Y-6191636D01*
X-36708741Y-6514951D01*
X-36728904Y-6745393D01*
X-36737358Y-6842010D01*
X-36737359Y-6923578D01*
X-36741161Y-6943930D01*
X-36739888Y-6944168D01*
X-36741600Y-6953327D01*
X-36741600Y-6963308D01*
X-36744272Y-6986339D01*
X-36746557Y-6996052D01*
X-36746557Y-6996056D01*
X-36743147Y-7020503D01*
X-36742083Y-7028125D01*
X-36741600Y-7035084D01*
X-36741600Y-9015759D01*
X-36741661Y-9018227D01*
X-36756644Y-9323198D01*
X-36757129Y-9328114D01*
X-36801748Y-9628909D01*
X-36802712Y-9633754D01*
X-36876601Y-9928732D01*
X-36878035Y-9933458D01*
X-36980482Y-10219773D01*
X-36982372Y-10224336D01*
X-37112393Y-10499237D01*
X-37114721Y-10503593D01*
X-37271055Y-10764416D01*
X-37273799Y-10768523D01*
X-37454951Y-11012773D01*
X-37458082Y-11016587D01*
X-37519668Y-11084537D01*
X-37663326Y-11243037D01*
X-37665028Y-11244825D01*
X-37671547Y-11251343D01*
X-37673334Y-11253045D01*
X-37899567Y-11458101D01*
X-37903385Y-11461235D01*
X-38147629Y-11642388D01*
X-38151730Y-11645128D01*
X-38294091Y-11730461D01*
X-38412554Y-11801468D01*
X-38416910Y-11803797D01*
X-38691814Y-11933822D01*
X-38696377Y-11935712D01*
X-38982692Y-12038161D01*
X-38987418Y-12039595D01*
X-39282402Y-12113488D01*
X-39287246Y-12114452D01*
X-39588044Y-12159072D01*
X-39592960Y-12159557D01*
X-39897076Y-12174498D01*
X-39899544Y-12174559D01*
X-47722018Y-12174559D01*
X-47726955Y-12174316D01*
X-47803726Y-12166750D01*
X-47823068Y-12162901D01*
X-47889769Y-12142663D01*
X-47907989Y-12135115D01*
X-47969465Y-12102250D01*
X-47985862Y-12091292D01*
X-48045814Y-12042083D01*
X-48049467Y-12038772D01*
X-48052683Y-12035557D01*
X-48055902Y-12032338D01*
X-48081620Y-12006615D01*
X-48081621Y-12006614D01*
X-48086689Y-12001545D01*
X-48086734Y-12001506D01*
X-48264265Y-11823975D01*
X-48453617Y-11634624D01*
X-48481842Y-11579227D01*
X-48472116Y-11517819D01*
X-48428153Y-11473855D01*
X-48382481Y-11462890D01*
X-39880115Y-11462890D01*
X-39879713Y-11462854D01*
X-39754188Y-11462857D01*
X-39460117Y-11427155D01*
X-39172493Y-11356268D01*
X-38895511Y-11251229D01*
X-38633209Y-11113569D01*
X-38389413Y-10945297D01*
X-38167677Y-10748865D01*
X-37971234Y-10527138D01*
X-37802949Y-10283350D01*
X-37665277Y-10021055D01*
X-37560224Y-9744078D01*
X-37489323Y-9456458D01*
X-37473138Y-9323198D01*
X-37453608Y-9162401D01*
X-37453607Y-9162384D01*
X-37453602Y-9014274D01*
X-37453601Y-8969369D01*
X-37453602Y-8969366D01*
X-37453537Y-7115412D01*
X-37453534Y-7115403D01*
X-37453534Y-7031055D01*
X-37453534Y-7028125D01*
X-37453532Y-6996839D01*
X-37453533Y-6996838D01*
X-37453532Y-6986748D01*
X-37453466Y-6984183D01*
X-37433546Y-6598054D01*
X-37433134Y-6593730D01*
X-37431205Y-6579882D01*
X-37379926Y-6211626D01*
X-37379142Y-6207356D01*
X-37293001Y-5831288D01*
X-37291848Y-5827100D01*
X-37284200Y-5803389D01*
X-37192663Y-5519570D01*
X-37173430Y-5459938D01*
X-37171915Y-5455854D01*
X-37022103Y-5100328D01*
X-37020246Y-5096407D01*
X-36840166Y-4755200D01*
X-36837987Y-4751471D01*
X-36628989Y-4427146D01*
X-36626503Y-4423632D01*
X-36390172Y-4118652D01*
X-36387378Y-4115352D01*
X-36125515Y-3832033D01*
X-36122426Y-3828970D01*
X-36116709Y-3823772D01*
X-35836989Y-3569427D01*
X-35833638Y-3566637D01*
X-35816902Y-3553885D01*
X-35526788Y-3332832D01*
X-35523215Y-3330347D01*
X-35197223Y-3124013D01*
X-35193455Y-3121851D01*
X-34850805Y-2944562D01*
X-34846877Y-2942741D01*
X-34490132Y-2795824D01*
X-34486065Y-2794352D01*
X-34148768Y-2688592D01*
X-34117931Y-2678923D01*
X-34113724Y-2677801D01*
X-33736980Y-2594727D01*
X-33732707Y-2593977D01*
X-33350159Y-2543881D01*
X-33345856Y-2543506D01*
X-33041674Y-2530296D01*
X-32957096Y-2526624D01*
X-22387724Y-2526624D01*
X-22387248Y-2526580D01*
X-22345037Y-2526584D01*
X-22218357Y-2497678D01*
X-22101286Y-2441308D01*
X-21999694Y-2360299D01*
X-21918676Y-2258714D01*
X-21918111Y-2257541D01*
X-21862295Y-2141648D01*
X-21854957Y-2109502D01*
X-21833378Y-2014969D01*
X-21833378Y-1997898D01*
X-21833377Y-1997895D01*
X-21833377Y-1977890D01*
X-21833376Y-1977889D01*
X-21833441Y9313521D01*
X-21833441Y9349593D01*
X-21836531Y9361124D01*
X-21859106Y9445377D01*
X-21859108Y9445382D01*
X-21904138Y9523376D01*
X-21908691Y9531262D01*
X-21978812Y9601383D01*
X-21978811Y9601383D01*
X-22064693Y9650967D01*
X-22064698Y9650969D01*
X-22160477Y9676633D01*
X-22160481Y9676633D01*
X-22162169Y9676633D01*
X-22162184Y9676636D01*
X-22182181Y9676635D01*
X-22210730Y9676634D01*
X-22210738Y9676633D01*
X-22240549Y9676633D01*
X-22240569Y9676632D01*
X-22330067Y9676625D01*
X-22349715Y9678561D01*
X-22367574Y9682116D01*
X-22403837Y9697143D01*
X-22410586Y9701654D01*
X-22438332Y9729405D01*
X-22442845Y9736160D01*
X-22457862Y9772415D01*
X-22461444Y9790421D01*
X-22463376Y9810042D01*
X-22463376Y11755095D01*
X-22463375Y11755104D01*
X-22463376Y11775107D01*
X-22463375Y11775107D01*
X-22463376Y11790095D01*
X-22461443Y11809722D01*
X-22457892Y11827574D01*
X-22442871Y11863838D01*
X-22438367Y11870577D01*
X-22410605Y11898331D01*
X-22403867Y11902832D01*
X-22367597Y11917844D01*
X-22349465Y11921446D01*
X-22329837Y11923373D01*
X-22315128Y11923368D01*
X-22315128Y11923369D01*
X-22299248Y11923364D01*
X-22299166Y11923376D01*
X-22187894Y11923376D01*
X-22187789Y11923385D01*
X-22160483Y11923385D01*
X-22160481Y11923385D01*
X-22064694Y11949051D01*
X-21978812Y11998635D01*
X-21908691Y12068756D01*
X-21859107Y12154638D01*
X-21833441Y12250425D01*
X-21833441Y12254028D01*
X-21833376Y12254394D01*
X-21833376Y13209998D01*
X-17772466Y13209998D01*
X-17770686Y13198755D01*
X-17770320Y13188934D01*
X-17769988Y13188961D01*
X-17769300Y13180659D01*
X-17765909Y13167267D01*
X-17764989Y13162787D01*
X-17754980Y13099591D01*
X-17754980Y13099590D01*
X-17747752Y13085404D01*
X-17743005Y13072778D01*
X-17740584Y13067260D01*
X-17732628Y13055082D01*
X-17729918Y13050403D01*
X-17704229Y12999986D01*
X-17689693Y12985450D01*
X-17676610Y12969339D01*
X-17676608Y12969335D01*
X-17676605Y12969332D01*
X-17665405Y12960615D01*
X-17660727Y12956484D01*
X-17625182Y12920939D01*
X-17602594Y12909429D01*
X-17586534Y12899227D01*
X-17586166Y12898941D01*
X-17551267Y12847485D01*
X-17547964Y12824194D01*
X-17545519Y12808755D01*
X-17545153Y12798934D01*
X-17544821Y12798961D01*
X-17544133Y12790659D01*
X-17540742Y12777267D01*
X-17539822Y12772787D01*
X-17529813Y12709591D01*
X-17529813Y12709590D01*
X-17522585Y12695404D01*
X-17517838Y12682778D01*
X-17515417Y12677260D01*
X-17507461Y12665082D01*
X-17504751Y12660403D01*
X-17479062Y12609986D01*
X-17464526Y12595450D01*
X-17451443Y12579339D01*
X-17451441Y12579335D01*
X-17451438Y12579332D01*
X-17440238Y12570615D01*
X-17435560Y12566484D01*
X-17400015Y12530939D01*
X-17377427Y12519429D01*
X-17361316Y12509187D01*
X-17359127Y12507483D01*
X-17354324Y12505835D01*
X-17346701Y12503218D01*
X-17340211Y12500467D01*
X-17300411Y12480188D01*
X-17270461Y12475446D01*
X-17253533Y12471233D01*
X-17248488Y12469500D01*
X-17240843Y12469500D01*
X-17225106Y12468262D01*
X-17190000Y12462701D01*
X-17079589Y12480188D01*
X-16979985Y12530939D01*
X-16900939Y12609985D01*
X-16895764Y12620144D01*
X-16893038Y12624847D01*
X-16892523Y12625637D01*
X-16892516Y12625644D01*
X-16890347Y12630590D01*
X-16889104Y12633213D01*
X-16875250Y12660403D01*
X-16850188Y12709589D01*
X-16848528Y12720072D01*
X-16847606Y12724561D01*
X-16845529Y12732766D01*
X-16845527Y12732768D01*
X-16844596Y12744024D01*
X-16844148Y12747731D01*
X-16831462Y12827821D01*
X-16830103Y12827606D01*
X-16813488Y12878740D01*
X-16777772Y12909245D01*
X-16754818Y12920939D01*
X-16675772Y12999985D01*
X-16670597Y13010144D01*
X-16667871Y13014847D01*
X-16667356Y13015637D01*
X-16667349Y13015644D01*
X-16665180Y13020590D01*
X-16663937Y13023213D01*
X-16650083Y13050403D01*
X-16625021Y13099589D01*
X-16623361Y13110072D01*
X-16622439Y13114561D01*
X-16620362Y13122766D01*
X-16620360Y13122768D01*
X-16619429Y13134024D01*
X-16618981Y13137731D01*
X-16615259Y13161232D01*
X-16607534Y13210000D01*
X-16609315Y13221240D01*
X-16609678Y13231060D01*
X-16610012Y13231032D01*
X-16610701Y13239340D01*
X-16610702Y13239341D01*
X-16610701Y13239344D01*
X-16614094Y13252739D01*
X-16615011Y13257206D01*
X-16625021Y13320411D01*
X-16632246Y13334591D01*
X-16636988Y13347203D01*
X-16639417Y13352740D01*
X-16639417Y13352741D01*
X-16647378Y13364926D01*
X-16650081Y13369593D01*
X-16675772Y13420015D01*
X-16690310Y13434553D01*
X-16703391Y13450662D01*
X-16703393Y13450665D01*
X-16703395Y13450667D01*
X-16703396Y13450669D01*
X-16704513Y13451538D01*
X-16714602Y13459392D01*
X-16719278Y13463521D01*
X-16754819Y13499062D01*
X-16777408Y13510572D01*
X-16793519Y13520814D01*
X-16795707Y13522517D01*
X-16795709Y13522518D01*
X-16795713Y13522520D01*
X-16808130Y13526784D01*
X-16814637Y13529542D01*
X-16840456Y13542696D01*
X-16854422Y13549812D01*
X-16854424Y13549813D01*
X-16854425Y13549813D01*
X-16884375Y13554557D01*
X-16901300Y13558768D01*
X-16906345Y13560500D01*
X-16913990Y13560500D01*
X-16929728Y13561739D01*
X-16964831Y13567299D01*
X-16964833Y13567299D01*
X-17075244Y13549812D01*
X-17075246Y13549812D01*
X-17075248Y13549811D01*
X-17142674Y13515456D01*
X-17204083Y13505730D01*
X-17237754Y13520330D01*
X-17238715Y13518552D01*
X-17246047Y13522520D01*
X-17258464Y13526784D01*
X-17264971Y13529542D01*
X-17290790Y13542696D01*
X-17304756Y13549812D01*
X-17304758Y13549813D01*
X-17304759Y13549813D01*
X-17334709Y13554557D01*
X-17351634Y13558768D01*
X-17356679Y13560500D01*
X-17364324Y13560500D01*
X-17380062Y13561739D01*
X-17415165Y13567299D01*
X-17415167Y13567299D01*
X-17450272Y13561739D01*
X-17525581Y13549812D01*
X-17625182Y13499062D01*
X-17704230Y13420014D01*
X-17709405Y13409857D01*
X-17712112Y13405183D01*
X-17712650Y13404360D01*
X-17714814Y13399428D01*
X-17716056Y13396806D01*
X-17754980Y13320412D01*
X-17756639Y13309932D01*
X-17757558Y13305456D01*
X-17759640Y13297233D01*
X-17760570Y13286003D01*
X-17761018Y13282288D01*
X-17772466Y13209999D01*
X-17772466Y13209998D01*
X-21833376Y13209998D01*
X-21833376Y14591991D01*
X-21832137Y14607730D01*
X-21824937Y14653184D01*
X-21815209Y14683120D01*
X-21797952Y14716985D01*
X-21779450Y14742448D01*
X-21752565Y14769327D01*
X-21727106Y14787819D01*
X-21693232Y14805072D01*
X-21663298Y14814792D01*
X-21617424Y14822049D01*
X-21601696Y14823284D01*
X-21585120Y14823280D01*
X-21585119Y14823281D01*
X-21569437Y14823278D01*
X-21569385Y14823285D01*
X-12584054Y14823285D01*
X-12568304Y14822044D01*
G37*
%TD.AperFunction*%
%TA.AperFunction,Conductor*%
G36*
X-49183528Y-10163322D02*
G01*
X-49126691Y-10170816D01*
X-49085491Y-10176249D01*
X-49060151Y-10183042D01*
X-49020269Y-10199561D01*
X-48982656Y-10215140D01*
X-48959916Y-10228267D01*
X-48897501Y-10276158D01*
X-48893381Y-10279319D01*
X-48874812Y-10297888D01*
X-48823761Y-10364414D01*
X-48810630Y-10387156D01*
X-48778535Y-10464630D01*
X-48771736Y-10489995D01*
X-48758825Y-10588021D01*
X-48758394Y-10594596D01*
X-48758394Y-11084537D01*
X-48777607Y-11143668D01*
X-48827907Y-11180213D01*
X-48890081Y-11180213D01*
X-48901507Y-11175713D01*
X-48909436Y-11172016D01*
X-48919766Y-11167199D01*
X-48919768Y-11167198D01*
X-48919769Y-11167198D01*
X-48965332Y-11161200D01*
X-48965334Y-11161200D01*
X-49548666Y-11161200D01*
X-49548668Y-11161200D01*
X-49594231Y-11167198D01*
X-49594233Y-11167198D01*
X-49594234Y-11167199D01*
X-49612492Y-11175713D01*
X-49694239Y-11213831D01*
X-49772269Y-11291861D01*
X-49818902Y-11391869D01*
X-49824900Y-11437431D01*
X-49824900Y-11568918D01*
X-49844113Y-11628049D01*
X-49894413Y-11664594D01*
X-49941237Y-11668279D01*
X-50010000Y-11657389D01*
X-50010002Y-11657389D01*
X-50010003Y-11657389D01*
X-50128231Y-11676114D01*
X-50128234Y-11676115D01*
X-50234893Y-11730460D01*
X-50309908Y-11805475D01*
X-50365306Y-11833702D01*
X-50426715Y-11823975D01*
X-50461768Y-11806114D01*
X-50579997Y-11787389D01*
X-50580003Y-11787389D01*
X-50698231Y-11806114D01*
X-50698234Y-11806115D01*
X-50804893Y-11860460D01*
X-50840440Y-11896007D01*
X-50845345Y-11900313D01*
X-50866148Y-11916313D01*
X-50913754Y-11970729D01*
X-50918859Y-11976989D01*
X-50971121Y-12010669D01*
X-50979458Y-12012497D01*
X-50988943Y-12014158D01*
X-50991984Y-12014691D01*
X-51009341Y-12016200D01*
X-51704546Y-12016200D01*
X-51763677Y-11996987D01*
X-51800222Y-11946687D01*
X-51805146Y-11915600D01*
X-51805146Y-10594593D01*
X-51804715Y-10588018D01*
X-51791807Y-10490009D01*
X-51785005Y-10464634D01*
X-51785003Y-10464630D01*
X-51752902Y-10387160D01*
X-51739779Y-10364436D01*
X-51688708Y-10297888D01*
X-51670156Y-10279335D01*
X-51603605Y-10228267D01*
X-51580884Y-10215147D01*
X-51503387Y-10183038D01*
X-51478035Y-10176242D01*
X-51380016Y-10163321D01*
X-51373436Y-10162890D01*
X-49190110Y-10162890D01*
X-49183528Y-10163322D01*
G37*
%TD.AperFunction*%
%TD*%
%TA.AperFunction,Conductor*%
%TO.N,/TX*%
G36*
X-50730799Y-12019182D02*
G01*
X-50730256Y-12019689D01*
X-50582475Y-12166547D01*
X-50579022Y-12174808D01*
X-50579022Y-12174897D01*
X-50579948Y-12383089D01*
X-50583412Y-12391347D01*
X-50591700Y-12394737D01*
X-50591908Y-12394734D01*
X-50682649Y-12392715D01*
X-50682956Y-12392700D01*
X-50755649Y-12387256D01*
X-50818519Y-12380744D01*
X-50891370Y-12375288D01*
X-50897444Y-12375152D01*
X-50982727Y-12373254D01*
X-50990922Y-12369644D01*
X-50994167Y-12361557D01*
X-50994167Y-12205670D01*
X-50990740Y-12197397D01*
X-50983761Y-12194042D01*
X-50981629Y-12193804D01*
X-50917902Y-12186713D01*
X-50868455Y-12162368D01*
X-50831633Y-12123837D01*
X-50793370Y-12072955D01*
X-50793105Y-12072630D01*
X-50792235Y-12071635D01*
X-50747308Y-12020283D01*
X-50739282Y-12016314D01*
X-50730799Y-12019182D01*
G37*
%TD.AperFunction*%
%TD*%
%TA.AperFunction,Conductor*%
%TO.N,/TX*%
G36*
X-50593627Y-12568537D02*
G01*
X-50589952Y-12576704D01*
X-50589947Y-12577004D01*
X-50589022Y-12785102D01*
X-50592412Y-12793390D01*
X-50592475Y-12793453D01*
X-50740363Y-12940416D01*
X-50748647Y-12943817D01*
X-50756909Y-12940364D01*
X-50757321Y-12939927D01*
X-50803706Y-12888191D01*
X-50803893Y-12887971D01*
X-50843555Y-12839085D01*
X-50843559Y-12839080D01*
X-50843565Y-12839075D01*
X-50843568Y-12839071D01*
X-50857789Y-12825721D01*
X-50882028Y-12802965D01*
X-50911539Y-12790000D01*
X-50932843Y-12780640D01*
X-50999104Y-12774048D01*
X-51006998Y-12769818D01*
X-51009646Y-12762405D01*
X-51009646Y-12606552D01*
X-51006219Y-12598279D01*
X-50998301Y-12594858D01*
X-50905418Y-12592059D01*
X-50831639Y-12584569D01*
X-50768009Y-12575630D01*
X-50694424Y-12568159D01*
X-50694028Y-12568134D01*
X-50684546Y-12567848D01*
X-50601998Y-12565361D01*
X-50593627Y-12568537D01*
G37*
%TD.AperFunction*%
%TD*%
%TA.AperFunction,Conductor*%
%TO.N,/V_TEMP*%
G36*
X-23687979Y-7726751D02*
G01*
X-23578107Y-7836623D01*
X-23574680Y-7844896D01*
X-23578107Y-7853169D01*
X-23578437Y-7853487D01*
X-23617817Y-7889895D01*
X-23618421Y-7890384D01*
X-23655835Y-7916729D01*
X-23657565Y-7917738D01*
X-23693945Y-7934958D01*
X-23694426Y-7935160D01*
X-23739685Y-7951834D01*
X-23791589Y-7971896D01*
X-23800541Y-7971683D01*
X-23806582Y-7965541D01*
X-23849771Y-7863422D01*
X-23850694Y-7858802D01*
X-23850072Y-7748211D01*
X-23846598Y-7739959D01*
X-23838306Y-7736579D01*
X-23837355Y-7736624D01*
X-23809642Y-7739087D01*
X-23808983Y-7739185D01*
X-23777755Y-7745712D01*
X-23751067Y-7748898D01*
X-23724980Y-7742290D01*
X-23703364Y-7725734D01*
X-23694714Y-7723425D01*
X-23687979Y-7726751D01*
G37*
%TD.AperFunction*%
%TD*%
%TA.AperFunction,Conductor*%
%TO.N,/TX*%
G36*
X-50935000Y-12577452D02*
G01*
X-50900501Y-12584238D01*
X-50866000Y-12589458D01*
X-50831500Y-12593112D01*
X-50807992Y-12594534D01*
X-50799942Y-12598455D01*
X-50797000Y-12606213D01*
X-50797000Y-12761986D01*
X-50800427Y-12770259D01*
X-50807993Y-12773665D01*
X-50831497Y-12775087D01*
X-50831500Y-12775088D01*
X-50866001Y-12778742D01*
X-50900500Y-12783962D01*
X-50935000Y-12790748D01*
X-50966305Y-12798326D01*
X-50972632Y-12798095D01*
X-51143589Y-12743255D01*
X-51293271Y-12695240D01*
X-51300101Y-12689451D01*
X-51300837Y-12680526D01*
X-51295047Y-12673695D01*
X-51293273Y-12672960D01*
X-50972630Y-12570103D01*
X-50966307Y-12569873D01*
X-50935000Y-12577452D01*
G37*
%TD.AperFunction*%
%TD*%
%TA.AperFunction,Conductor*%
%TO.N,/3v3*%
G36*
X-20748345Y10932204D02*
G01*
X-20554521Y10852851D01*
X-20548164Y10846546D01*
X-20548138Y10846483D01*
X-20468919Y10654311D01*
X-20468934Y10645356D01*
X-20475277Y10639035D01*
X-20476590Y10638583D01*
X-20531720Y10623190D01*
X-20533348Y10622858D01*
X-20580817Y10616647D01*
X-20593832Y10614943D01*
X-20599776Y10613668D01*
X-20643272Y10604332D01*
X-20643275Y10604330D01*
X-20676285Y10577396D01*
X-20686342Y10529697D01*
X-20691402Y10522309D01*
X-20697790Y10520411D01*
X-20979676Y10520411D01*
X-20987949Y10523838D01*
X-20991376Y10532111D01*
X-20991266Y10533709D01*
X-20985241Y10577396D01*
X-20977716Y10631959D01*
X-20976315Y10636109D01*
X-20937394Y10704993D01*
X-20935518Y10707472D01*
X-20880155Y10763244D01*
X-20817432Y10831074D01*
X-20762952Y10927148D01*
X-20755892Y10932653D01*
X-20748345Y10932204D01*
G37*
%TD.AperFunction*%
%TD*%
%TA.AperFunction,Conductor*%
%TO.N,/3v3*%
G36*
X-24385439Y-7710799D02*
G01*
X-24355739Y-7732116D01*
X-24322306Y-7738174D01*
X-24288774Y-7734693D01*
X-24288462Y-7734671D01*
X-24251771Y-7733192D01*
X-24248486Y-7733526D01*
X-24215264Y-7741766D01*
X-24208059Y-7747084D01*
X-24206724Y-7755938D01*
X-24207238Y-7757520D01*
X-24249293Y-7861207D01*
X-24293460Y-7965639D01*
X-24299839Y-7971924D01*
X-24308350Y-7972035D01*
X-24361616Y-7952028D01*
X-24408383Y-7936439D01*
X-24408783Y-7936288D01*
X-24436328Y-7924706D01*
X-24446609Y-7920382D01*
X-24448495Y-7919377D01*
X-24486753Y-7894257D01*
X-24488192Y-7893143D01*
X-24528096Y-7856943D01*
X-24531920Y-7848848D01*
X-24528900Y-7840418D01*
X-24528528Y-7840027D01*
X-24400532Y-7712031D01*
X-24392260Y-7708605D01*
X-24385439Y-7710799D01*
G37*
%TD.AperFunction*%
%TD*%
%TA.AperFunction,Conductor*%
%TO.N,/3v3*%
G36*
X-4445138Y-2439377D02*
G01*
X-4306051Y-2450204D01*
X-4303965Y-2450559D01*
X-4243312Y-2466699D01*
X-4198727Y-2478564D01*
X-4198213Y-2478727D01*
X-4107336Y-2512466D01*
X-4000811Y-2540812D01*
X-3858890Y-2551860D01*
X-3850910Y-2555918D01*
X-3848100Y-2563524D01*
X-3848100Y-2922875D01*
X-3851527Y-2931148D01*
X-3858892Y-2934540D01*
X-4000812Y-2945587D01*
X-4000814Y-2945587D01*
X-4107336Y-2973933D01*
X-4107347Y-2973936D01*
X-4107348Y-2973936D01*
X-4198195Y-3007665D01*
X-4198727Y-3007834D01*
X-4303958Y-3035837D01*
X-4306059Y-3036195D01*
X-4445134Y-3047021D01*
X-4453648Y-3044246D01*
X-4457707Y-3036264D01*
X-4457742Y-3035411D01*
X-4458700Y-2743200D01*
X-4457742Y-2451003D01*
X-4454288Y-2442743D01*
X-4446004Y-2439343D01*
X-4445138Y-2439377D01*
G37*
%TD.AperFunction*%
%TD*%
%TA.AperFunction,Conductor*%
%TO.N,/V_TEMP*%
G36*
X-6673807Y-4888323D02*
G01*
X-6672308Y-4889082D01*
X-6602492Y-4930983D01*
X-6599955Y-4933037D01*
X-6549867Y-4986764D01*
X-6549642Y-4987021D01*
X-6525879Y-5015873D01*
X-6507746Y-5037889D01*
X-6507745Y-5037889D01*
X-6507743Y-5037892D01*
X-6452918Y-5075402D01*
X-6452916Y-5075402D01*
X-6452914Y-5075403D01*
X-6399979Y-5084007D01*
X-6372940Y-5088403D01*
X-6365324Y-5093112D01*
X-6363117Y-5099951D01*
X-6363117Y-5327995D01*
X-6366544Y-5336268D01*
X-6374817Y-5339695D01*
X-6375118Y-5339691D01*
X-6390921Y-5339284D01*
X-6463980Y-5337403D01*
X-6464294Y-5337386D01*
X-6535691Y-5331200D01*
X-6597427Y-5323800D01*
X-6668985Y-5317599D01*
X-6704753Y-5316679D01*
X-6758652Y-5315292D01*
X-6766834Y-5311654D01*
X-6770051Y-5303649D01*
X-6770990Y-5092376D01*
X-6770082Y-5087808D01*
X-6689119Y-4894590D01*
X-6682762Y-4888286D01*
X-6673807Y-4888323D01*
G37*
%TD.AperFunction*%
%TD*%
%TA.AperFunction,Conductor*%
%TO.N,/3v3*%
G36*
X-20628156Y10350056D02*
G01*
X-20619899Y10346592D01*
X-20616509Y10338304D01*
X-20616535Y10337572D01*
X-20623190Y10238484D01*
X-20623458Y10236661D01*
X-20641202Y10159022D01*
X-20641330Y10158552D01*
X-20651939Y10125197D01*
X-20662745Y10091219D01*
X-20662747Y10091210D01*
X-20680750Y10012440D01*
X-20687567Y9910916D01*
X-20691541Y9902891D01*
X-20699241Y9900000D01*
X-20982159Y9900000D01*
X-20990432Y9903427D01*
X-20993833Y9910916D01*
X-20994449Y9920084D01*
X-21000651Y10012438D01*
X-21018656Y10091219D01*
X-21029463Y10125197D01*
X-21040071Y10158552D01*
X-21040200Y10159022D01*
X-21057944Y10236661D01*
X-21058212Y10238484D01*
X-21064866Y10337574D01*
X-21062001Y10346056D01*
X-21053976Y10350030D01*
X-21053265Y10350056D01*
X-20840700Y10351000D01*
X-20628156Y10350056D01*
G37*
%TD.AperFunction*%
%TD*%
%TA.AperFunction,Conductor*%
%TO.N,/V_TEMP*%
G36*
X-23436334Y-6159949D02*
G01*
X-23428077Y-6163413D01*
X-23424691Y-6171329D01*
X-23423824Y-6203076D01*
X-23422400Y-6255168D01*
X-23422399Y-6255174D01*
X-23416201Y-6322565D01*
X-23408800Y-6380705D01*
X-23402618Y-6447911D01*
X-23402596Y-6448287D01*
X-23400328Y-6531251D01*
X-23403528Y-6539615D01*
X-23411704Y-6543267D01*
X-23412024Y-6543271D01*
X-23567987Y-6543271D01*
X-23576260Y-6539844D01*
X-23579508Y-6533608D01*
X-23590923Y-6469045D01*
X-23590925Y-6469041D01*
X-23626417Y-6427588D01*
X-23626420Y-6427585D01*
X-23678486Y-6400820D01*
X-23740237Y-6371198D01*
X-23742262Y-6369960D01*
X-23798473Y-6327185D01*
X-23802982Y-6319448D01*
X-23800699Y-6310789D01*
X-23799693Y-6309633D01*
X-23653452Y-6162472D01*
X-23645193Y-6159021D01*
X-23436334Y-6159949D01*
G37*
%TD.AperFunction*%
%TD*%
%TA.AperFunction,Conductor*%
%TO.N,/SWCLK*%
G36*
X-49822074Y-12651531D02*
G01*
X-49661532Y-12812073D01*
X-49658105Y-12820346D01*
X-49661376Y-12828460D01*
X-49717894Y-12887164D01*
X-49717898Y-12887168D01*
X-49717902Y-12887173D01*
X-49759801Y-12938746D01*
X-49789332Y-12988423D01*
X-49816707Y-13049713D01*
X-49847691Y-13125283D01*
X-49854000Y-13131638D01*
X-49862949Y-13131673D01*
X-50056170Y-13052564D01*
X-50062528Y-13046258D01*
X-50062565Y-13046169D01*
X-50086206Y-12988426D01*
X-50141674Y-12852947D01*
X-50141637Y-12843993D01*
X-50135287Y-12837691D01*
X-50059715Y-12806705D01*
X-49998428Y-12779331D01*
X-49948744Y-12749796D01*
X-49920829Y-12727117D01*
X-49897174Y-12707901D01*
X-49897170Y-12707896D01*
X-49897165Y-12707893D01*
X-49838459Y-12651373D01*
X-49830125Y-12648106D01*
X-49822074Y-12651531D01*
G37*
%TD.AperFunction*%
%TD*%
%TA.AperFunction,Conductor*%
%TO.N,/3v3*%
G36*
X-864195Y-2275825D02*
G01*
X-863504Y-2276460D01*
X-627458Y-2511556D01*
X-624014Y-2519821D01*
X-624014Y-2519878D01*
X-624969Y-2853868D01*
X-628420Y-2862132D01*
X-636119Y-2865522D01*
X-776928Y-2872143D01*
X-884071Y-2889181D01*
X-884077Y-2889182D01*
X-915706Y-2896156D01*
X-976133Y-2909480D01*
X-976474Y-2909545D01*
X-1083129Y-2926504D01*
X-1083773Y-2926570D01*
X-1223124Y-2933123D01*
X-1231549Y-2930089D01*
X-1235361Y-2921986D01*
X-1235374Y-2921436D01*
X-1235374Y-2563014D01*
X-1231947Y-2554741D01*
X-1225143Y-2551406D01*
X-1124684Y-2538705D01*
X-1054942Y-2499309D01*
X-1004256Y-2438391D01*
X-950904Y-2360079D01*
X-950550Y-2359613D01*
X-880685Y-2277184D01*
X-872722Y-2273090D01*
X-864195Y-2275825D01*
G37*
%TD.AperFunction*%
%TD*%
%TA.AperFunction,Conductor*%
%TO.N,/V_TEMP*%
G36*
X-3203818Y-4537448D02*
G01*
X-3197462Y-4543753D01*
X-3197425Y-4543841D01*
X-3118335Y-4737030D01*
X-3118372Y-4745985D01*
X-3124730Y-4752291D01*
X-3124744Y-4752296D01*
X-3181161Y-4775307D01*
X-3195974Y-4781350D01*
X-3211670Y-4788215D01*
X-3254314Y-4806868D01*
X-3254320Y-4806871D01*
X-3254325Y-4806874D01*
X-3301868Y-4834168D01*
X-3351524Y-4872955D01*
X-3375741Y-4895418D01*
X-3407804Y-4925160D01*
X-3416200Y-4928274D01*
X-3424179Y-4924708D01*
X-3581945Y-4761265D01*
X-3585225Y-4752932D01*
X-3581896Y-4744963D01*
X-3528971Y-4690807D01*
X-3490662Y-4641828D01*
X-3464590Y-4594072D01*
X-3440434Y-4535454D01*
X-3412249Y-4464855D01*
X-3406000Y-4458444D01*
X-3397047Y-4458329D01*
X-3203818Y-4537448D01*
G37*
%TD.AperFunction*%
%TD*%
%TA.AperFunction,Conductor*%
%TO.N,/TX*%
G36*
X-50935000Y-12177452D02*
G01*
X-50900501Y-12184238D01*
X-50866000Y-12189458D01*
X-50831500Y-12193112D01*
X-50807992Y-12194534D01*
X-50799942Y-12198455D01*
X-50797000Y-12206213D01*
X-50797000Y-12361986D01*
X-50800427Y-12370259D01*
X-50807993Y-12373665D01*
X-50831497Y-12375087D01*
X-50831500Y-12375088D01*
X-50866001Y-12378742D01*
X-50900500Y-12383962D01*
X-50935000Y-12390748D01*
X-50966305Y-12398326D01*
X-50972632Y-12398095D01*
X-51143589Y-12343255D01*
X-51293271Y-12295240D01*
X-51300101Y-12289451D01*
X-51300837Y-12280526D01*
X-51295047Y-12273695D01*
X-51293273Y-12272960D01*
X-50972630Y-12170103D01*
X-50966307Y-12169873D01*
X-50935000Y-12177452D01*
G37*
%TD.AperFunction*%
%TD*%
%TA.AperFunction,Conductor*%
%TO.N,/3v3*%
G36*
X-4461426Y-2441979D02*
G01*
X-4457670Y-2450108D01*
X-4457661Y-2450539D01*
X-4456708Y-2740834D01*
X-4457612Y-2745382D01*
X-4569404Y-3012977D01*
X-4575755Y-3019290D01*
X-4584710Y-3019263D01*
X-4585668Y-3018811D01*
X-4690628Y-2963326D01*
X-4692292Y-2962257D01*
X-4770308Y-2902272D01*
X-4837921Y-2850158D01*
X-4837928Y-2850154D01*
X-4921520Y-2813653D01*
X-4921522Y-2813652D01*
X-5037826Y-2801032D01*
X-5045681Y-2796732D01*
X-5048264Y-2789400D01*
X-5048264Y-2506339D01*
X-5044837Y-2498066D01*
X-5037036Y-2494649D01*
X-4901414Y-2489203D01*
X-4797670Y-2475141D01*
X-4708439Y-2458384D01*
X-4708169Y-2458340D01*
X-4604816Y-2444331D01*
X-4604280Y-2444285D01*
X-4469828Y-2438886D01*
X-4461426Y-2441979D01*
G37*
%TD.AperFunction*%
%TD*%
%TA.AperFunction,Conductor*%
%TO.N,/RX*%
G36*
X-7132430Y-1829809D02*
G01*
X-6939491Y-1910725D01*
X-6933187Y-1917085D01*
X-6932901Y-1925168D01*
X-6962390Y-2014897D01*
X-6962391Y-2014899D01*
X-6969588Y-2060419D01*
X-6974305Y-2090256D01*
X-6981187Y-2156026D01*
X-6981324Y-2156813D01*
X-6998824Y-2227693D01*
X-6999619Y-2229917D01*
X-7038456Y-2311515D01*
X-7045105Y-2317513D01*
X-7054048Y-2317051D01*
X-7054870Y-2316620D01*
X-7255207Y-2200960D01*
X-7260658Y-2193855D01*
X-7260276Y-2186624D01*
X-7238872Y-2131050D01*
X-7244800Y-2081219D01*
X-7271366Y-2035736D01*
X-7308071Y-1984175D01*
X-7308461Y-1983547D01*
X-7339182Y-1926263D01*
X-7340071Y-1917354D01*
X-7334400Y-1910424D01*
X-7333392Y-1909945D01*
X-7141418Y-1829818D01*
X-7132465Y-1829795D01*
X-7132430Y-1829809D01*
G37*
%TD.AperFunction*%
%TD*%
%TA.AperFunction,Conductor*%
%TO.N,/SWDIO*%
G36*
X-49844478Y-11891012D02*
G01*
X-49843022Y-11892799D01*
X-49802776Y-11953577D01*
X-49801257Y-11956909D01*
X-49781168Y-12029307D01*
X-49766180Y-12094001D01*
X-49733817Y-12139749D01*
X-49670093Y-12154956D01*
X-49662842Y-12160209D01*
X-49661109Y-12166336D01*
X-49661109Y-12398500D01*
X-49664536Y-12406773D01*
X-49672809Y-12410200D01*
X-49673674Y-12410168D01*
X-49773674Y-12402752D01*
X-49776179Y-12402288D01*
X-49851583Y-12379605D01*
X-49853863Y-12378646D01*
X-49917174Y-12343732D01*
X-49990747Y-12298987D01*
X-50086222Y-12252667D01*
X-50092170Y-12245972D01*
X-50091944Y-12237709D01*
X-50011896Y-12042188D01*
X-50009321Y-12038331D01*
X-49861023Y-11890959D01*
X-49852740Y-11887559D01*
X-49844478Y-11891012D01*
G37*
%TD.AperFunction*%
%TD*%
%TA.AperFunction,Conductor*%
%TO.N,/3v3*%
G36*
X-20767995Y10830930D02*
G01*
X-20767310Y10830297D01*
X-20567744Y10630731D01*
X-20564317Y10622458D01*
X-20566489Y10615668D01*
X-20611323Y10552759D01*
X-20611324Y10552759D01*
X-20621946Y10489840D01*
X-20614510Y10426616D01*
X-20614478Y10426228D01*
X-20610910Y10355670D01*
X-20611229Y10352302D01*
X-20629603Y10277096D01*
X-20634896Y10269873D01*
X-20643746Y10268507D01*
X-20645402Y10269045D01*
X-20839206Y10348392D01*
X-20843083Y10350984D01*
X-20992229Y10501462D01*
X-20995619Y10509750D01*
X-20992826Y10517284D01*
X-20935955Y10584034D01*
X-20900819Y10645614D01*
X-20875357Y10702510D01*
X-20875125Y10702968D01*
X-20840660Y10763373D01*
X-20839409Y10765154D01*
X-20784488Y10829613D01*
X-20776515Y10833687D01*
X-20767995Y10830930D01*
G37*
%TD.AperFunction*%
%TD*%
%TA.AperFunction,Conductor*%
%TO.N,/TX*%
G36*
X-6362323Y-2976591D02*
G01*
X-6358548Y-2984711D01*
X-6358537Y-2985208D01*
X-6358537Y-3216508D01*
X-6361964Y-3224781D01*
X-6368966Y-3228139D01*
X-6429751Y-3234782D01*
X-6476088Y-3257170D01*
X-6476089Y-3257170D01*
X-6510689Y-3292721D01*
X-6510695Y-3292728D01*
X-6546591Y-3339850D01*
X-6546849Y-3340166D01*
X-6589090Y-3388251D01*
X-6597125Y-3392205D01*
X-6605602Y-3389319D01*
X-6606127Y-3388828D01*
X-6655413Y-3339850D01*
X-6753927Y-3241951D01*
X-6757379Y-3233691D01*
X-6756450Y-3024661D01*
X-6752986Y-3016404D01*
X-6745248Y-3013025D01*
X-6657435Y-3009288D01*
X-6630810Y-3005460D01*
X-6587575Y-2999247D01*
X-6587563Y-2999244D01*
X-6587559Y-2999244D01*
X-6575135Y-2996769D01*
X-6527527Y-2987286D01*
X-6527236Y-2987235D01*
X-6457769Y-2977249D01*
X-6457233Y-2977200D01*
X-6370734Y-2973519D01*
X-6362323Y-2976591D01*
G37*
%TD.AperFunction*%
%TD*%
%TA.AperFunction,Conductor*%
%TO.N,/3v3*%
G36*
X-24431411Y-5120510D02*
G01*
X-24341256Y-5211232D01*
X-24285314Y-5267526D01*
X-24281913Y-5275810D01*
X-24285366Y-5284072D01*
X-24286723Y-5285229D01*
X-24344121Y-5327049D01*
X-24346563Y-5328414D01*
X-24411507Y-5355109D01*
X-24467463Y-5378323D01*
X-24506153Y-5416965D01*
X-24506154Y-5416967D01*
X-24518744Y-5481033D01*
X-24523701Y-5488490D01*
X-24530224Y-5490477D01*
X-24711234Y-5490477D01*
X-24719507Y-5487050D01*
X-24722934Y-5478777D01*
X-24722904Y-5477943D01*
X-24718547Y-5416966D01*
X-24717214Y-5398307D01*
X-24716915Y-5396397D01*
X-24701329Y-5332428D01*
X-24701197Y-5331974D01*
X-24682328Y-5276380D01*
X-24666456Y-5211235D01*
X-24660573Y-5128914D01*
X-24656566Y-5120909D01*
X-24648959Y-5118051D01*
X-24439697Y-5117121D01*
X-24431411Y-5120510D01*
G37*
%TD.AperFunction*%
%TD*%
%TA.AperFunction,Conductor*%
%TO.N,/3v3*%
G36*
X-7115677Y-3417982D02*
G01*
X-7033148Y-3463555D01*
X-7027708Y-3466433D01*
X-7024909Y-3468501D01*
X-6966177Y-3527233D01*
X-6866686Y-3577926D01*
X-6853025Y-3580089D01*
X-6846821Y-3583140D01*
X-6783814Y-3642669D01*
X-6780154Y-3650842D01*
X-6783344Y-3659209D01*
X-6783540Y-3659412D01*
X-6931665Y-3808814D01*
X-6935535Y-3811401D01*
X-7130750Y-3891460D01*
X-7139704Y-3891429D01*
X-7146014Y-3885074D01*
X-7146194Y-3884607D01*
X-7164424Y-3833743D01*
X-7164511Y-3833481D01*
X-7179107Y-3785795D01*
X-7179107Y-3785794D01*
X-7196148Y-3747260D01*
X-7196150Y-3747256D01*
X-7225765Y-3712594D01*
X-7225773Y-3712587D01*
X-7269270Y-3682520D01*
X-7274127Y-3674997D01*
X-7272750Y-3667046D01*
X-7131462Y-3422373D01*
X-7124358Y-3416923D01*
X-7115677Y-3417982D01*
G37*
%TD.AperFunction*%
%TD*%
%TA.AperFunction,Conductor*%
%TO.N,/TX*%
G36*
X-5023440Y-2968454D02*
G01*
X-5019948Y-2976700D01*
X-5019948Y-2976739D01*
X-5019011Y-3187620D01*
X-5019920Y-3192194D01*
X-5101123Y-3385984D01*
X-5107481Y-3392290D01*
X-5116436Y-3392253D01*
X-5117457Y-3391765D01*
X-5190659Y-3352381D01*
X-5192456Y-3351189D01*
X-5248599Y-3305963D01*
X-5297247Y-3265971D01*
X-5357742Y-3237711D01*
X-5439916Y-3228198D01*
X-5447740Y-3223843D01*
X-5450270Y-3216576D01*
X-5450270Y-2984609D01*
X-5446843Y-2976336D01*
X-5438663Y-2972909D01*
X-5343553Y-2972168D01*
X-5267831Y-2970184D01*
X-5202440Y-2967816D01*
X-5126718Y-2965832D01*
X-5031738Y-2965091D01*
X-5023440Y-2968454D01*
G37*
%TD.AperFunction*%
%TD*%
M02*
