%TF.GenerationSoftware,KiCad,Pcbnew,7.0.8*%
%TF.CreationDate,2024-02-20T09:55:18-08:00*%
%TF.ProjectId,adapter-encoder-pcb,61646170-7465-4722-9d65-6e636f646572,rev?*%
%TF.SameCoordinates,PX8db6561PY6e74585*%
%TF.FileFunction,Legend,Top*%
%TF.FilePolarity,Positive*%
%FSLAX46Y46*%
G04 Gerber Fmt 4.6, Leading zero omitted, Abs format (unit mm)*
G04 Created by KiCad (PCBNEW 7.0.8) date 2024-02-20 09:55:18*
%MOMM*%
%LPD*%
G01*
G04 APERTURE LIST*
%ADD10C,0.100000*%
%ADD11C,0.150000*%
%ADD12C,0.120000*%
%ADD13C,0.600000*%
%ADD14C,0.050000*%
G04 APERTURE END LIST*
D10*
X-16103259Y11992581D02*
X-16150878Y12016391D01*
X-16150878Y12016391D02*
X-16222307Y12016391D01*
X-16222307Y12016391D02*
X-16293735Y11992581D01*
X-16293735Y11992581D02*
X-16341354Y11944962D01*
X-16341354Y11944962D02*
X-16365164Y11897343D01*
X-16365164Y11897343D02*
X-16388973Y11802105D01*
X-16388973Y11802105D02*
X-16388973Y11730677D01*
X-16388973Y11730677D02*
X-16365164Y11635439D01*
X-16365164Y11635439D02*
X-16341354Y11587820D01*
X-16341354Y11587820D02*
X-16293735Y11540200D01*
X-16293735Y11540200D02*
X-16222307Y11516391D01*
X-16222307Y11516391D02*
X-16174688Y11516391D01*
X-16174688Y11516391D02*
X-16103259Y11540200D01*
X-16103259Y11540200D02*
X-16079450Y11564010D01*
X-16079450Y11564010D02*
X-16079450Y11730677D01*
X-16079450Y11730677D02*
X-16174688Y11730677D01*
X-15865164Y11516391D02*
X-15865164Y12016391D01*
X-15865164Y12016391D02*
X-15579450Y11516391D01*
X-15579450Y11516391D02*
X-15579450Y12016391D01*
X-15341354Y11516391D02*
X-15341354Y12016391D01*
X-15341354Y12016391D02*
X-15222306Y12016391D01*
X-15222306Y12016391D02*
X-15150878Y11992581D01*
X-15150878Y11992581D02*
X-15103259Y11944962D01*
X-15103259Y11944962D02*
X-15079449Y11897343D01*
X-15079449Y11897343D02*
X-15055640Y11802105D01*
X-15055640Y11802105D02*
X-15055640Y11730677D01*
X-15055640Y11730677D02*
X-15079449Y11635439D01*
X-15079449Y11635439D02*
X-15103259Y11587820D01*
X-15103259Y11587820D02*
X-15150878Y11540200D01*
X-15150878Y11540200D02*
X-15222306Y11516391D01*
X-15222306Y11516391D02*
X-15341354Y11516391D01*
X-16029450Y10266391D02*
X-16196116Y10504486D01*
X-16315164Y10266391D02*
X-16315164Y10766391D01*
X-16315164Y10766391D02*
X-16124688Y10766391D01*
X-16124688Y10766391D02*
X-16077069Y10742581D01*
X-16077069Y10742581D02*
X-16053259Y10718772D01*
X-16053259Y10718772D02*
X-16029450Y10671153D01*
X-16029450Y10671153D02*
X-16029450Y10599724D01*
X-16029450Y10599724D02*
X-16053259Y10552105D01*
X-16053259Y10552105D02*
X-16077069Y10528296D01*
X-16077069Y10528296D02*
X-16124688Y10504486D01*
X-16124688Y10504486D02*
X-16315164Y10504486D01*
X-15862783Y10766391D02*
X-15529450Y10266391D01*
X-15529450Y10766391D02*
X-15862783Y10266391D01*
X-16462783Y13416391D02*
X-16153259Y13416391D01*
X-16153259Y13416391D02*
X-16319926Y13225915D01*
X-16319926Y13225915D02*
X-16248497Y13225915D01*
X-16248497Y13225915D02*
X-16200878Y13202105D01*
X-16200878Y13202105D02*
X-16177069Y13178296D01*
X-16177069Y13178296D02*
X-16153259Y13130677D01*
X-16153259Y13130677D02*
X-16153259Y13011629D01*
X-16153259Y13011629D02*
X-16177069Y12964010D01*
X-16177069Y12964010D02*
X-16200878Y12940200D01*
X-16200878Y12940200D02*
X-16248497Y12916391D01*
X-16248497Y12916391D02*
X-16391354Y12916391D01*
X-16391354Y12916391D02*
X-16438973Y12940200D01*
X-16438973Y12940200D02*
X-16462783Y12964010D01*
X-16010402Y13416391D02*
X-15843736Y12916391D01*
X-15843736Y12916391D02*
X-15677069Y13416391D01*
X-15558022Y13416391D02*
X-15248498Y13416391D01*
X-15248498Y13416391D02*
X-15415165Y13225915D01*
X-15415165Y13225915D02*
X-15343736Y13225915D01*
X-15343736Y13225915D02*
X-15296117Y13202105D01*
X-15296117Y13202105D02*
X-15272308Y13178296D01*
X-15272308Y13178296D02*
X-15248498Y13130677D01*
X-15248498Y13130677D02*
X-15248498Y13011629D01*
X-15248498Y13011629D02*
X-15272308Y12964010D01*
X-15272308Y12964010D02*
X-15296117Y12940200D01*
X-15296117Y12940200D02*
X-15343736Y12916391D01*
X-15343736Y12916391D02*
X-15486593Y12916391D01*
X-15486593Y12916391D02*
X-15534212Y12940200D01*
X-15534212Y12940200D02*
X-15558022Y12964010D01*
D11*
X-19291010Y11133334D02*
X-19291010Y11466667D01*
X-19814820Y11466667D02*
X-18814820Y11466667D01*
X-18814820Y11466667D02*
X-18814820Y10990477D01*
X-19814820Y10085715D02*
X-19814820Y10657143D01*
X-19814820Y10371429D02*
X-18814820Y10371429D01*
X-18814820Y10371429D02*
X-18957677Y10466667D01*
X-18957677Y10466667D02*
X-19052915Y10561905D01*
X-19052915Y10561905D02*
X-19100534Y10657143D01*
D10*
X-19511905Y10592581D02*
X-19511905Y9783058D01*
X-19511905Y9783058D02*
X-19464286Y9687820D01*
X-19464286Y9687820D02*
X-19416667Y9640200D01*
X-19416667Y9640200D02*
X-19321429Y9592581D01*
X-19321429Y9592581D02*
X-19130953Y9592581D01*
X-19130953Y9592581D02*
X-19035715Y9640200D01*
X-19035715Y9640200D02*
X-18988096Y9687820D01*
X-18988096Y9687820D02*
X-18940477Y9783058D01*
X-18940477Y9783058D02*
X-18940477Y10592581D01*
X-18035715Y10259248D02*
X-18035715Y9592581D01*
X-18273810Y10640200D02*
X-18511905Y9925915D01*
X-18511905Y9925915D02*
X-17892858Y9925915D01*
D12*
%TO.C,C4*%
X-2190000Y-3712164D02*
X-2190000Y-3927836D01*
X-2910000Y-3712164D02*
X-2910000Y-3927836D01*
%TO.C,C3*%
X-4577836Y450000D02*
X-4362164Y450000D01*
X-4577836Y-270000D02*
X-4362164Y-270000D01*
%TO.C,C1*%
X-4460580Y-180000D02*
X-4179420Y-180000D01*
X-4460580Y-1200000D02*
X-4179420Y-1200000D01*
%TO.C,C5*%
X-5042164Y-5380000D02*
X-5257836Y-5380000D01*
X-5042164Y-4660000D02*
X-5257836Y-4660000D01*
%TO.C,U2*%
X-6370000Y-4520000D02*
X-6370000Y-4220000D01*
X-3130000Y-4520000D02*
X-3430000Y-4520000D01*
X-3130000Y-4520000D02*
X-3130000Y-4220000D01*
X-6370000Y-1280000D02*
X-6370000Y-1580000D01*
X-6370000Y-1280000D02*
X-6070000Y-1280000D01*
X-3130000Y-1280000D02*
X-3130000Y-1580000D01*
X-3130000Y-1280000D02*
X-3430000Y-1280000D01*
%TO.C,C2*%
X-2910000Y-2547836D02*
X-2910000Y-2332164D01*
X-2190000Y-2547836D02*
X-2190000Y-2332164D01*
%TO.C,U1*%
X175036Y2962999D02*
X-2763890Y-1082086D01*
X175036Y2962999D02*
X2763890Y1082086D01*
X-2763890Y-1082086D02*
X-175036Y-2962999D01*
X2763890Y1082086D02*
X-175036Y-2962999D01*
D13*
X652021Y1845557D02*
G75*
G03*
X652021Y1845557I-300000J0D01*
G01*
D14*
%TO.C,U4*%
X-21900000Y14950000D02*
X-21900000Y12950000D01*
X-21900000Y14950000D02*
X-17100000Y14950000D01*
X-21900000Y12950000D02*
X-21300000Y12950000D01*
X-21300000Y12950000D02*
X-21300000Y8650000D01*
X-21300000Y8650000D02*
X-19000000Y8650000D01*
X-19000000Y8650000D02*
X-19000000Y8150000D01*
X-19000000Y8150000D02*
X-17100000Y8150000D01*
X-15200000Y8650000D02*
X-15200000Y8150000D01*
X-15200000Y8150000D02*
X-17100000Y8150000D01*
X-12900000Y12950000D02*
X-12900000Y8650000D01*
X-12900000Y8650000D02*
X-15200000Y8650000D01*
X-12300000Y14950000D02*
X-17100000Y14950000D01*
X-12300000Y14950000D02*
X-12300000Y12950000D01*
X-12300000Y12950000D02*
X-12900000Y12950000D01*
%TD*%
M02*
