  0
SECTION
  2
HEADER
  9
$ANGBASE
  50
0.0
  9
$ANGDIR
  70
1
  9
$MEASUREMENT
  70
1
  0
ENDSEC
  0
SECTION
  2
TABLES
  0
TABLE
  2
LTYPE
  70
4
  0
LTYPE
  5
40F
  2
CONTINUOUS
  70
0
  3
Solid line
  72
65
  73
0
  40
0.0
  0
LTYPE
  5
410
  2
DASHDOT
 70
0
  3
Dash Dot ____ _ ____ _
 72
65
 73
4
 40
2.0
 49
1.25
 49
-0.25
 49
0.25
 49
-0.25
  0
LTYPE
  5
411
  2
DASHED
 70
0
  3
Dashed __ __ __ __ __
 72
65
 73
2
 40
0.75
 49
0.5
 49
-0.25
  0
LTYPE
  5
43B
  2
DOTTED
 70
0
  3
Dotted .  .  .  .
 72
65
 73
2
 40
0.2
 49
0.0
 49
-0.2
  0
ENDTAB
  0
TABLE
  2
STYLE
  70
4
  0
STYLE
  2
KICAD
  70
0
  40
0
  41
1
  42
1
  50
0
  71
0
  3
isocp.shx
  0
STYLE
  2
KICADB
  70
0
  40
0
  41
1
  42
1
  50
0
  71
0
  3
isocp.shx
  0
STYLE
  2
KICADI
  70
0
  40
0
  41
1
  42
1
  50
15
  71
0
  3
isocp.shx
  0
STYLE
  2
KICADBI
  70
0
  40
0
  41
1
  42
1
  50
15
  71
0
  3
isocp.shx
  0
ENDTAB
  0
TABLE
  2
LAYER
  70
1
  0
LAYER
  2
BLACK
  70
0
  62
7
  6
CONTINUOUS
  0
ENDTAB
  0
ENDSEC
  0
SECTION
  2
ENTITIES
0
LINE
8
BLACK
6
CONTINUOUS
10
-4.99974
20
-5.33757
11
-4.98216
21
-5.38
0
LINE
8
BLACK
6
CONTINUOUS
10
-4.98216
20
-5.38
11
-4.99974
21
-5.42243
0
LINE
8
BLACK
6
CONTINUOUS
10
-4.99974
20
-5.42243
11
-5.04216
21
-5.44
0
LINE
8
BLACK
6
CONTINUOUS
10
-5.04216
20
-5.44
11
-5.25784
21
-5.44
0
LINE
8
BLACK
6
CONTINUOUS
10
-5.25784
20
-5.44
11
-5.30026
21
-5.42243
0
LINE
8
BLACK
6
CONTINUOUS
10
-5.30026
20
-5.42243
11
-5.31784
21
-5.38
0
LINE
8
BLACK
6
CONTINUOUS
10
-5.31784
20
-5.38
11
-5.30026
21
-5.33757
0
LINE
8
BLACK
6
CONTINUOUS
10
-5.30026
20
-5.33757
11
-5.25784
21
-5.32
0
LINE
8
BLACK
6
CONTINUOUS
10
-5.25784
20
-5.32
11
-5.04216
21
-5.32
0
LINE
8
BLACK
6
CONTINUOUS
10
-5.04216
20
-5.32
11
-4.99974
21
-5.33757
0
LINE
8
BLACK
6
CONTINUOUS
10
-4.99974
20
-4.61757
11
-4.98216
21
-4.66
0
LINE
8
BLACK
6
CONTINUOUS
10
-4.98216
20
-4.66
11
-4.99974
21
-4.70243
0
LINE
8
BLACK
6
CONTINUOUS
10
-4.99974
20
-4.70243
11
-5.04216
21
-4.72
0
LINE
8
BLACK
6
CONTINUOUS
10
-5.04216
20
-4.72
11
-5.25784
21
-4.72
0
LINE
8
BLACK
6
CONTINUOUS
10
-5.25784
20
-4.72
11
-5.30026
21
-4.70243
0
LINE
8
BLACK
6
CONTINUOUS
10
-5.30026
20
-4.70243
11
-5.31784
21
-4.66
0
LINE
8
BLACK
6
CONTINUOUS
10
-5.31784
20
-4.66
11
-5.30026
21
-4.61757
0
LINE
8
BLACK
6
CONTINUOUS
10
-5.30026
20
-4.61757
11
-5.25784
21
-4.6
0
LINE
8
BLACK
6
CONTINUOUS
10
-5.25784
20
-4.6
11
-5.04216
21
-4.6
0
LINE
8
BLACK
6
CONTINUOUS
10
-5.04216
20
-4.6
11
-4.99974
21
-4.61757
0
LINE
8
BLACK
6
CONTINUOUS
10
-6.32757
20
-4.17757
11
-6.31
21
-4.22
0
LINE
8
BLACK
6
CONTINUOUS
10
-6.31
20
-4.22
11
-6.31
21
-4.52
0
LINE
8
BLACK
6
CONTINUOUS
10
-6.31
20
-4.52
11
-6.32757
21
-4.56243
0
LINE
8
BLACK
6
CONTINUOUS
10
-6.32757
20
-4.56243
11
-6.37
21
-4.58
0
LINE
8
BLACK
6
CONTINUOUS
10
-6.37
20
-4.58
11
-6.41243
21
-4.56243
0
LINE
8
BLACK
6
CONTINUOUS
10
-6.41243
20
-4.56243
11
-6.43
21
-4.52
0
LINE
8
BLACK
6
CONTINUOUS
10
-6.43
20
-4.52
11
-6.43
21
-4.22
0
LINE
8
BLACK
6
CONTINUOUS
10
-6.43
20
-4.22
11
-6.41243
21
-4.17757
0
LINE
8
BLACK
6
CONTINUOUS
10
-6.41243
20
-4.17757
11
-6.37
21
-4.16
0
LINE
8
BLACK
6
CONTINUOUS
10
-6.37
20
-4.16
11
-6.32757
21
-4.17757
0
LINE
8
BLACK
6
CONTINUOUS
10
-3.08757
20
-4.17757
11
-3.07
21
-4.22
0
LINE
8
BLACK
6
CONTINUOUS
10
-3.07
20
-4.22
11
-3.07
21
-4.52
0
LINE
8
BLACK
6
CONTINUOUS
10
-3.07
20
-4.52
11
-3.08757
21
-4.56243
0
LINE
8
BLACK
6
CONTINUOUS
10
-3.08757
20
-4.56243
11
-3.13
21
-4.58
0
LINE
8
BLACK
6
CONTINUOUS
10
-3.13
20
-4.58
11
-3.43
21
-4.58
0
LINE
8
BLACK
6
CONTINUOUS
10
-3.43
20
-4.58
11
-3.47243
21
-4.56243
0
LINE
8
BLACK
6
CONTINUOUS
10
-3.47243
20
-4.56243
11
-3.49
21
-4.52
0
LINE
8
BLACK
6
CONTINUOUS
10
-3.49
20
-4.52
11
-3.47243
21
-4.47757
0
LINE
8
BLACK
6
CONTINUOUS
10
-3.47243
20
-4.47757
11
-3.43
21
-4.46
0
LINE
8
BLACK
6
CONTINUOUS
10
-3.43
20
-4.46
11
-3.19
21
-4.46
0
LINE
8
BLACK
6
CONTINUOUS
10
-3.19
20
-4.46
11
-3.19
21
-4.22
0
LINE
8
BLACK
6
CONTINUOUS
10
-3.19
20
-4.22
11
-3.17243
21
-4.17757
0
LINE
8
BLACK
6
CONTINUOUS
10
-3.17243
20
-4.17757
11
-3.13
21
-4.16
0
LINE
8
BLACK
6
CONTINUOUS
10
-3.13
20
-4.16
11
-3.08757
21
-4.17757
0
LINE
8
BLACK
6
CONTINUOUS
10
-2.86757
20
-3.66974
11
-2.85
21
-3.71216
0
LINE
8
BLACK
6
CONTINUOUS
10
-2.85
20
-3.71216
11
-2.85
21
-3.92784
0
LINE
8
BLACK
6
CONTINUOUS
10
-2.85
20
-3.92784
11
-2.86757
21
-3.97026
0
LINE
8
BLACK
6
CONTINUOUS
10
-2.86757
20
-3.97026
11
-2.91
21
-3.98784
0
LINE
8
BLACK
6
CONTINUOUS
10
-2.91
20
-3.98784
11
-2.95243
21
-3.97026
0
LINE
8
BLACK
6
CONTINUOUS
10
-2.95243
20
-3.97026
11
-2.97
21
-3.92784
0
LINE
8
BLACK
6
CONTINUOUS
10
-2.97
20
-3.92784
11
-2.97
21
-3.71216
0
LINE
8
BLACK
6
CONTINUOUS
10
-2.97
20
-3.71216
11
-2.95243
21
-3.66974
0
LINE
8
BLACK
6
CONTINUOUS
10
-2.95243
20
-3.66974
11
-2.91
21
-3.65216
0
LINE
8
BLACK
6
CONTINUOUS
10
-2.91
20
-3.65216
11
-2.86757
21
-3.66974
0
LINE
8
BLACK
6
CONTINUOUS
10
-2.14757
20
-3.66974
11
-2.13
21
-3.71216
0
LINE
8
BLACK
6
CONTINUOUS
10
-2.13
20
-3.71216
11
-2.13
21
-3.92784
0
LINE
8
BLACK
6
CONTINUOUS
10
-2.13
20
-3.92784
11
-2.14757
21
-3.97026
0
LINE
8
BLACK
6
CONTINUOUS
10
-2.14757
20
-3.97026
11
-2.19
21
-3.98784
0
LINE
8
BLACK
6
CONTINUOUS
10
-2.19
20
-3.98784
11
-2.23243
21
-3.97026
0
LINE
8
BLACK
6
CONTINUOUS
10
-2.23243
20
-3.97026
11
-2.25
21
-3.92784
0
LINE
8
BLACK
6
CONTINUOUS
10
-2.25
20
-3.92784
11
-2.25
21
-3.71216
0
LINE
8
BLACK
6
CONTINUOUS
10
-2.25
20
-3.71216
11
-2.23243
21
-3.66974
0
LINE
8
BLACK
6
CONTINUOUS
10
-2.23243
20
-3.66974
11
-2.19
21
-3.65216
0
LINE
8
BLACK
6
CONTINUOUS
10
-2.19
20
-3.65216
11
-2.14757
21
-3.66974
0
LINE
8
BLACK
6
CONTINUOUS
10
0.507312
20
2.42511
11
0.652021
21
2.36517
0
LINE
8
BLACK
6
CONTINUOUS
10
0.652021
20
2.36517
11
0.776285
21
2.26982
0
LINE
8
BLACK
6
CONTINUOUS
10
0.776285
20
2.26982
11
0.871636
21
2.14556
0
LINE
8
BLACK
6
CONTINUOUS
10
0.871636
20
2.14556
11
0.931576
21
2.00085
0
LINE
8
BLACK
6
CONTINUOUS
10
0.931576
20
2.00085
11
0.952021
21
1.84556
0
LINE
8
BLACK
6
CONTINUOUS
10
0.952021
20
1.84556
11
0.931576
21
1.69027
0
LINE
8
BLACK
6
CONTINUOUS
10
0.931576
20
1.69027
11
0.871636
21
1.54556
0
LINE
8
BLACK
6
CONTINUOUS
10
0.871636
20
1.54556
11
0.776285
21
1.42129
0
LINE
8
BLACK
6
CONTINUOUS
10
0.776285
20
1.42129
11
0.652021
21
1.32594
0
LINE
8
BLACK
6
CONTINUOUS
10
0.652021
20
1.32594
11
0.507312
21
1.266
0
LINE
8
BLACK
6
CONTINUOUS
10
0.507312
20
1.266
11
0.352021
21
1.24556
0
LINE
8
BLACK
6
CONTINUOUS
10
0.352021
20
1.24556
11
0.19673
21
1.266
0
LINE
8
BLACK
6
CONTINUOUS
10
0.19673
20
1.266
11
0.052021
21
1.32594
0
LINE
8
BLACK
6
CONTINUOUS
10
0.052021
20
1.32594
11
-0.072243
21
1.42129
0
LINE
8
BLACK
6
CONTINUOUS
10
-0.072243
20
1.42129
11
-0.167594
21
1.54556
0
LINE
8
BLACK
6
CONTINUOUS
10
-0.167594
20
1.54556
11
-0.227534
21
1.69027
0
LINE
8
BLACK
6
CONTINUOUS
10
-0.227534
20
1.69027
11
-0.247979
21
1.84556
0
LINE
8
BLACK
6
CONTINUOUS
10
-0.247979
20
1.84556
11
-0.227534
21
2.00085
0
LINE
8
BLACK
6
CONTINUOUS
10
-0.227534
20
2.00085
11
-0.167594
21
2.14556
0
LINE
8
BLACK
6
CONTINUOUS
10
-0.167594
20
2.14556
11
-0.072243
21
2.26982
0
LINE
8
BLACK
6
CONTINUOUS
10
-0.072243
20
2.26982
11
0.052021
21
2.36517
0
LINE
8
BLACK
6
CONTINUOUS
10
0.052021
20
2.36517
11
0.19673
21
2.42511
0
LINE
8
BLACK
6
CONTINUOUS
10
0.19673
20
2.42511
11
0.352021
21
2.44556
0
LINE
8
BLACK
6
CONTINUOUS
10
0.352021
20
2.44556
11
0.507312
21
2.42511
0
LINE
8
BLACK
6
CONTINUOUS
10
0.210303
20
3.01154
11
2.79916
21
1.13063
0
LINE
8
BLACK
6
CONTINUOUS
10
2.79916
20
1.13063
11
2.82315
21
1.09147
0
LINE
8
BLACK
6
CONTINUOUS
10
2.82315
20
1.09147
11
2.81243
21
1.04682
0
LINE
8
BLACK
6
CONTINUOUS
10
2.81243
20
1.04682
11
-0.126495
21
-2.99827
0
LINE
8
BLACK
6
CONTINUOUS
10
-0.126495
20
-2.99827
11
-0.16565
21
-3.02226
0
LINE
8
BLACK
6
CONTINUOUS
10
-0.16565
20
-3.02226
11
-0.210303
21
-3.01154
0
LINE
8
BLACK
6
CONTINUOUS
10
-0.210303
20
-3.01154
11
-2.79916
21
-1.13063
0
LINE
8
BLACK
6
CONTINUOUS
10
-2.79916
20
-1.13063
11
-2.82315
21
-1.09147
0
LINE
8
BLACK
6
CONTINUOUS
10
-2.82315
20
-1.09147
11
-2.81243
21
-1.04682
0
LINE
8
BLACK
6
CONTINUOUS
10
-2.81243
20
-1.04682
11
0.126495
21
2.99827
0
LINE
8
BLACK
6
CONTINUOUS
10
0.126495
20
2.99827
11
0.16565
21
3.02226
0
LINE
8
BLACK
6
CONTINUOUS
10
0.16565
20
3.02226
11
0.210303
21
3.01154
0
LINE
8
BLACK
6
CONTINUOUS
10
-2.68008
20
-1.06881
11
-0.18831
21
-2.87919
0
LINE
8
BLACK
6
CONTINUOUS
10
-0.18831
20
-2.87919
11
2.68008
21
1.06881
0
LINE
8
BLACK
6
CONTINUOUS
10
2.68008
20
1.06881
11
0.188309
21
2.87919
0
LINE
8
BLACK
6
CONTINUOUS
10
0.188309
20
2.87919
11
-2.68008
21
-1.06881
0
LINE
8
BLACK
6
CONTINUOUS
10
-2.86757
20
-2.28974
11
-2.85
21
-2.33216
0
LINE
8
BLACK
6
CONTINUOUS
10
-2.85
20
-2.33216
11
-2.85
21
-2.54784
0
LINE
8
BLACK
6
CONTINUOUS
10
-2.85
20
-2.54784
11
-2.86757
21
-2.59026
0
LINE
8
BLACK
6
CONTINUOUS
10
-2.86757
20
-2.59026
11
-2.91
21
-2.60784
0
LINE
8
BLACK
6
CONTINUOUS
10
-2.91
20
-2.60784
11
-2.95243
21
-2.59026
0
LINE
8
BLACK
6
CONTINUOUS
10
-2.95243
20
-2.59026
11
-2.97
21
-2.54784
0
LINE
8
BLACK
6
CONTINUOUS
10
-2.97
20
-2.54784
11
-2.97
21
-2.33216
0
LINE
8
BLACK
6
CONTINUOUS
10
-2.97
20
-2.33216
11
-2.95243
21
-2.28974
0
LINE
8
BLACK
6
CONTINUOUS
10
-2.95243
20
-2.28974
11
-2.91
21
-2.27216
0
LINE
8
BLACK
6
CONTINUOUS
10
-2.91
20
-2.27216
11
-2.86757
21
-2.28974
0
LINE
8
BLACK
6
CONTINUOUS
10
-2.14757
20
-2.28974
11
-2.13
21
-2.33216
0
LINE
8
BLACK
6
CONTINUOUS
10
-2.13
20
-2.33216
11
-2.13
21
-2.54784
0
LINE
8
BLACK
6
CONTINUOUS
10
-2.13
20
-2.54784
11
-2.14757
21
-2.59026
0
LINE
8
BLACK
6
CONTINUOUS
10
-2.14757
20
-2.59026
11
-2.19
21
-2.60784
0
LINE
8
BLACK
6
CONTINUOUS
10
-2.19
20
-2.60784
11
-2.23243
21
-2.59026
0
LINE
8
BLACK
6
CONTINUOUS
10
-2.23243
20
-2.59026
11
-2.25
21
-2.54784
0
LINE
8
BLACK
6
CONTINUOUS
10
-2.25
20
-2.54784
11
-2.25
21
-2.33216
0
LINE
8
BLACK
6
CONTINUOUS
10
-2.25
20
-2.33216
11
-2.23243
21
-2.28974
0
LINE
8
BLACK
6
CONTINUOUS
10
-2.23243
20
-2.28974
11
-2.19
21
-2.27216
0
LINE
8
BLACK
6
CONTINUOUS
10
-2.19
20
-2.27216
11
-2.14757
21
-2.28974
0
LINE
8
BLACK
6
CONTINUOUS
10
-6.02757
20
-1.23757
11
-6.01
21
-1.28
0
LINE
8
BLACK
6
CONTINUOUS
10
-6.01
20
-1.28
11
-6.02757
21
-1.32243
0
LINE
8
BLACK
6
CONTINUOUS
10
-6.02757
20
-1.32243
11
-6.07
21
-1.34
0
LINE
8
BLACK
6
CONTINUOUS
10
-6.07
20
-1.34
11
-6.31
21
-1.34
0
LINE
8
BLACK
6
CONTINUOUS
10
-6.31
20
-1.34
11
-6.31
21
-1.58
0
LINE
8
BLACK
6
CONTINUOUS
10
-6.31
20
-1.58
11
-6.32757
21
-1.62243
0
LINE
8
BLACK
6
CONTINUOUS
10
-6.32757
20
-1.62243
11
-6.37
21
-1.64
0
LINE
8
BLACK
6
CONTINUOUS
10
-6.37
20
-1.64
11
-6.41243
21
-1.62243
0
LINE
8
BLACK
6
CONTINUOUS
10
-6.41243
20
-1.62243
11
-6.43
21
-1.58
0
LINE
8
BLACK
6
CONTINUOUS
10
-6.43
20
-1.58
11
-6.43
21
-1.28
0
LINE
8
BLACK
6
CONTINUOUS
10
-6.43
20
-1.28
11
-6.41243
21
-1.23757
0
LINE
8
BLACK
6
CONTINUOUS
10
-6.41243
20
-1.23757
11
-6.37
21
-1.22
0
LINE
8
BLACK
6
CONTINUOUS
10
-6.37
20
-1.22
11
-6.07
21
-1.22
0
LINE
8
BLACK
6
CONTINUOUS
10
-6.07
20
-1.22
11
-6.02757
21
-1.23757
0
LINE
8
BLACK
6
CONTINUOUS
10
-3.13
20
-1.22
11
-3.08757
21
-1.23757
0
LINE
8
BLACK
6
CONTINUOUS
10
-3.08757
20
-1.23757
11
-3.07
21
-1.28
0
LINE
8
BLACK
6
CONTINUOUS
10
-3.07
20
-1.28
11
-3.07
21
-1.58
0
LINE
8
BLACK
6
CONTINUOUS
10
-3.07
20
-1.58
11
-3.08757
21
-1.62243
0
LINE
8
BLACK
6
CONTINUOUS
10
-3.08757
20
-1.62243
11
-3.13
21
-1.64
0
LINE
8
BLACK
6
CONTINUOUS
10
-3.13
20
-1.64
11
-3.17243
21
-1.62243
0
LINE
8
BLACK
6
CONTINUOUS
10
-3.17243
20
-1.62243
11
-3.19
21
-1.58
0
LINE
8
BLACK
6
CONTINUOUS
10
-3.19
20
-1.58
11
-3.19
21
-1.34
0
LINE
8
BLACK
6
CONTINUOUS
10
-3.19
20
-1.34
11
-3.43
21
-1.34
0
LINE
8
BLACK
6
CONTINUOUS
10
-3.43
20
-1.34
11
-3.47243
21
-1.32243
0
LINE
8
BLACK
6
CONTINUOUS
10
-3.47243
20
-1.32243
11
-3.49
21
-1.28
0
LINE
8
BLACK
6
CONTINUOUS
10
-3.49
20
-1.28
11
-3.47243
21
-1.23757
0
LINE
8
BLACK
6
CONTINUOUS
10
-3.47243
20
-1.23757
11
-3.43
21
-1.22
0
LINE
8
BLACK
6
CONTINUOUS
10
-3.43
20
-1.22
11
-3.13
21
-1.22
0
LINE
8
BLACK
6
CONTINUOUS
10
-4.13699
20
-1.15757
11
-4.11942
21
-1.2
0
LINE
8
BLACK
6
CONTINUOUS
10
-4.11942
20
-1.2
11
-4.13699
21
-1.24243
0
LINE
8
BLACK
6
CONTINUOUS
10
-4.13699
20
-1.24243
11
-4.17942
21
-1.26
0
LINE
8
BLACK
6
CONTINUOUS
10
-4.17942
20
-1.26
11
-4.46058
21
-1.26
0
LINE
8
BLACK
6
CONTINUOUS
10
-4.46058
20
-1.26
11
-4.50301
21
-1.24243
0
LINE
8
BLACK
6
CONTINUOUS
10
-4.50301
20
-1.24243
11
-4.52058
21
-1.2
0
LINE
8
BLACK
6
CONTINUOUS
10
-4.52058
20
-1.2
11
-4.50301
21
-1.15757
0
LINE
8
BLACK
6
CONTINUOUS
10
-4.50301
20
-1.15757
11
-4.46058
21
-1.14
0
LINE
8
BLACK
6
CONTINUOUS
10
-4.46058
20
-1.14
11
-4.17942
21
-1.14
0
LINE
8
BLACK
6
CONTINUOUS
10
-4.17942
20
-1.14
11
-4.13699
21
-1.15757
0
LINE
8
BLACK
6
CONTINUOUS
10
-4.13699
20
-0.137574
11
-4.11942
21
-0.18
0
LINE
8
BLACK
6
CONTINUOUS
10
-4.11942
20
-0.18
11
-4.13699
21
-0.222426
0
LINE
8
BLACK
6
CONTINUOUS
10
-4.13699
20
-0.222426
11
-4.17942
21
-0.24
0
LINE
8
BLACK
6
CONTINUOUS
10
-4.17942
20
-0.24
11
-4.31459
21
-0.24
0
LINE
8
BLACK
6
CONTINUOUS
10
-4.31459
20
-0.24
11
-4.30216
21
-0.27
0
LINE
8
BLACK
6
CONTINUOUS
10
-4.30216
20
-0.27
11
-4.31974
21
-0.312426
0
LINE
8
BLACK
6
CONTINUOUS
10
-4.31974
20
-0.312426
11
-4.36216
21
-0.33
0
LINE
8
BLACK
6
CONTINUOUS
10
-4.36216
20
-0.33
11
-4.57784
21
-0.33
0
LINE
8
BLACK
6
CONTINUOUS
10
-4.57784
20
-0.33
11
-4.62026
21
-0.312426
0
LINE
8
BLACK
6
CONTINUOUS
10
-4.62026
20
-0.312426
11
-4.63784
21
-0.27
0
LINE
8
BLACK
6
CONTINUOUS
10
-4.63784
20
-0.27
11
-4.62026
21
-0.227574
0
LINE
8
BLACK
6
CONTINUOUS
10
-4.62026
20
-0.227574
11
-4.57784
21
-0.21
0
LINE
8
BLACK
6
CONTINUOUS
10
-4.57784
20
-0.21
11
-4.50815
21
-0.21
0
LINE
8
BLACK
6
CONTINUOUS
10
-4.50815
20
-0.21
11
-4.52058
21
-0.18
0
LINE
8
BLACK
6
CONTINUOUS
10
-4.52058
20
-0.18
11
-4.50301
21
-0.137574
0
LINE
8
BLACK
6
CONTINUOUS
10
-4.50301
20
-0.137574
11
-4.46058
21
-0.12
0
LINE
8
BLACK
6
CONTINUOUS
10
-4.46058
20
-0.12
11
-4.17942
21
-0.12
0
LINE
8
BLACK
6
CONTINUOUS
10
-4.17942
20
-0.12
11
-4.13699
21
-0.137574
0
LINE
8
BLACK
6
CONTINUOUS
10
-4.31974
20
0.492426
11
-4.30216
21
0.45
0
LINE
8
BLACK
6
CONTINUOUS
10
-4.30216
20
0.45
11
-4.31974
21
0.407574
0
LINE
8
BLACK
6
CONTINUOUS
10
-4.31974
20
0.407574
11
-4.36216
21
0.39
0
LINE
8
BLACK
6
CONTINUOUS
10
-4.36216
20
0.39
11
-4.57784
21
0.39
0
LINE
8
BLACK
6
CONTINUOUS
10
-4.57784
20
0.39
11
-4.62026
21
0.407574
0
LINE
8
BLACK
6
CONTINUOUS
10
-4.62026
20
0.407574
11
-4.63784
21
0.45
0
LINE
8
BLACK
6
CONTINUOUS
10
-4.63784
20
0.45
11
-4.62026
21
0.492426
0
LINE
8
BLACK
6
CONTINUOUS
10
-4.62026
20
0.492426
11
-4.57784
21
0.51
0
LINE
8
BLACK
6
CONTINUOUS
10
-4.57784
20
0.51
11
-4.36216
21
0.51
0
LINE
8
BLACK
6
CONTINUOUS
10
-4.36216
20
0.51
11
-4.31974
21
0.492426
0
LINE
8
BLACK
6
CONTINUOUS
10
-19.7574
20
10.7054
11
-19.7398
21
10.6571
0
LINE
8
BLACK
6
CONTINUOUS
10
-19.7398
20
10.6571
11
-19.7398
21
10.4464
0
LINE
8
BLACK
6
CONTINUOUS
10
-19.7398
20
10.4464
11
-19.5619
21
10.4464
0
LINE
8
BLACK
6
CONTINUOUS
10
-19.5619
20
10.4464
11
-19.5619
21
10.5926
0
LINE
8
BLACK
6
CONTINUOUS
10
-19.5619
20
10.5926
11
-19.5473
21
10.6279
0
LINE
8
BLACK
6
CONTINUOUS
10
-19.5473
20
10.6279
11
-19.5119
21
10.6426
0
LINE
8
BLACK
6
CONTINUOUS
10
-19.5119
20
10.6426
11
-19.4765
21
10.6279
0
LINE
8
BLACK
6
CONTINUOUS
10
-19.4765
20
10.6279
11
-19.4619
21
10.5926
0
LINE
8
BLACK
6
CONTINUOUS
10
-19.4619
20
10.5926
11
-19.4619
21
10.4464
0
LINE
8
BLACK
6
CONTINUOUS
10
-19.4619
20
10.4464
11
-19.0435
21
10.4464
0
LINE
8
BLACK
6
CONTINUOUS
10
-19.0435
20
10.4464
11
-19.1059
21
10.5089
0
LINE
8
BLACK
6
CONTINUOUS
10
-19.1059
20
10.5089
11
-19.1188
21
10.5272
0
LINE
8
BLACK
6
CONTINUOUS
10
-19.1188
20
10.5272
11
-19.12
21
10.5284
0
LINE
8
BLACK
6
CONTINUOUS
10
-19.12
20
10.5284
11
-19.1676
21
10.6236
0
LINE
8
BLACK
6
CONTINUOUS
10
-19.1676
20
10.6236
11
-19.175
21
10.6486
0
LINE
8
BLACK
6
CONTINUOUS
10
-19.175
20
10.6486
11
-19.1631
21
10.6985
0
LINE
8
BLACK
6
CONTINUOUS
10
-19.1631
20
10.6985
11
-19.1219
21
10.729
0
LINE
8
BLACK
6
CONTINUOUS
10
-19.1219
20
10.729
11
-19.0707
21
10.726
0
LINE
8
BLACK
6
CONTINUOUS
10
-19.0707
20
10.726
11
-19.0335
21
10.6907
0
LINE
8
BLACK
6
CONTINUOUS
10
-19.0335
20
10.6907
11
-18.9913
21
10.6063
0
LINE
8
BLACK
6
CONTINUOUS
10
-18.9913
20
10.6063
11
-18.9867
21
10.6017
0
LINE
8
BLACK
6
CONTINUOUS
10
-18.9867
20
10.6017
11
-18.9758
21
10.6279
0
LINE
8
BLACK
6
CONTINUOUS
10
-18.9758
20
10.6279
11
-18.9405
21
10.6426
0
LINE
8
BLACK
6
CONTINUOUS
10
-18.9405
20
10.6426
11
-18.9051
21
10.6279
0
LINE
8
BLACK
6
CONTINUOUS
10
-18.9051
20
10.6279
11
-18.8905
21
10.5926
0
LINE
8
BLACK
6
CONTINUOUS
10
-18.8905
20
10.5926
11
-18.8905
21
10.512
0
LINE
8
BLACK
6
CONTINUOUS
10
-18.8905
20
10.512
11
-18.7732
21
10.4338
0
LINE
8
BLACK
6
CONTINUOUS
10
-18.7732
20
10.4338
11
-18.7544
21
10.4158
0
LINE
8
BLACK
6
CONTINUOUS
10
-18.7544
20
10.4158
11
-18.7532
21
10.4117
0
LINE
8
BLACK
6
CONTINUOUS
10
-18.7532
20
10.4117
11
-18.7499
21
10.4089
0
LINE
8
BLACK
6
CONTINUOUS
10
-18.7499
20
10.4089
11
-18.7461
21
10.3875
0
LINE
8
BLACK
6
CONTINUOUS
10
-18.7461
20
10.3875
11
-18.74
21
10.3666
0
LINE
8
BLACK
6
CONTINUOUS
10
-18.74
20
10.3666
11
-18.7417
21
10.3627
0
LINE
8
BLACK
6
CONTINUOUS
10
-18.7417
20
10.3627
11
-18.741
21
10.3584
0
LINE
8
BLACK
6
CONTINUOUS
10
-18.741
20
10.3584
11
-18.7518
21
10.3396
0
LINE
8
BLACK
6
CONTINUOUS
10
-18.7518
20
10.3396
11
-18.7606
21
10.3196
0
LINE
8
BLACK
6
CONTINUOUS
10
-18.7606
20
10.3196
11
-18.7645
21
10.3177
0
LINE
8
BLACK
6
CONTINUOUS
10
-18.7645
20
10.3177
11
-18.7666
21
10.314
0
LINE
8
BLACK
6
CONTINUOUS
10
-18.7666
20
10.314
11
-18.7871
21
10.3065
0
LINE
8
BLACK
6
CONTINUOUS
10
-18.7871
20
10.3065
11
-18.8066
21
10.2969
0
LINE
8
BLACK
6
CONTINUOUS
10
-18.8066
20
10.2969
11
-18.8108
21
10.2979
0
LINE
8
BLACK
6
CONTINUOUS
10
-18.8108
20
10.2979
11
-18.8148
21
10.2964
0
LINE
8
BLACK
6
CONTINUOUS
10
-18.8148
20
10.2964
11
-18.8905
21
10.2964
0
LINE
8
BLACK
6
CONTINUOUS
10
-18.8905
20
10.2964
11
-18.8905
21
9.78306
0
LINE
8
BLACK
6
CONTINUOUS
10
-18.8905
20
9.78306
11
-18.8949
21
9.77231
0
LINE
8
BLACK
6
CONTINUOUS
10
-18.8949
20
9.77231
11
-18.8958
21
9.7607
0
LINE
8
BLACK
6
CONTINUOUS
10
-18.8958
20
9.7607
11
-18.9434
21
9.66546
0
LINE
8
BLACK
6
CONTINUOUS
10
-18.9434
20
9.66546
11
-18.9496
21
9.66007
0
LINE
8
BLACK
6
CONTINUOUS
10
-18.9496
20
9.66007
11
-18.9527
21
9.65246
0
LINE
8
BLACK
6
CONTINUOUS
10
-18.9527
20
9.65246
11
-19.0004
21
9.60484
0
LINE
8
BLACK
6
CONTINUOUS
10
-19.0004
20
9.60484
11
-19.008
21
9.6017
0
LINE
8
BLACK
6
CONTINUOUS
10
-19.008
20
9.6017
11
-19.0134
21
9.59548
0
LINE
8
BLACK
6
CONTINUOUS
10
-19.0134
20
9.59548
11
-19.1086
21
9.54786
0
LINE
8
BLACK
6
CONTINUOUS
10
-19.1086
20
9.54786
11
-19.1202
21
9.54703
0
LINE
8
BLACK
6
CONTINUOUS
10
-19.1202
20
9.54703
11
-19.131
21
9.54258
0
LINE
8
BLACK
6
CONTINUOUS
10
-19.131
20
9.54258
11
-19.3214
21
9.54258
0
LINE
8
BLACK
6
CONTINUOUS
10
-19.3214
20
9.54258
11
-19.3322
21
9.54703
0
LINE
8
BLACK
6
CONTINUOUS
10
-19.3322
20
9.54703
11
-19.3438
21
9.54786
0
LINE
8
BLACK
6
CONTINUOUS
10
-19.3438
20
9.54786
11
-19.439
21
9.59548
0
LINE
8
BLACK
6
CONTINUOUS
10
-19.439
20
9.59548
11
-19.4444
21
9.6017
0
LINE
8
BLACK
6
CONTINUOUS
10
-19.4444
20
9.6017
11
-19.452
21
9.60484
0
LINE
8
BLACK
6
CONTINUOUS
10
-19.452
20
9.60484
11
-19.4996
21
9.65246
0
LINE
8
BLACK
6
CONTINUOUS
10
-19.4996
20
9.65246
11
-19.5028
21
9.66007
0
LINE
8
BLACK
6
CONTINUOUS
10
-19.5028
20
9.66007
11
-19.509
21
9.66546
0
LINE
8
BLACK
6
CONTINUOUS
10
-19.509
20
9.66546
11
-19.5566
21
9.7607
0
LINE
8
BLACK
6
CONTINUOUS
10
-19.5566
20
9.7607
11
-19.5575
21
9.77231
0
LINE
8
BLACK
6
CONTINUOUS
10
-19.5575
20
9.77231
11
-19.5619
21
9.78306
0
LINE
8
BLACK
6
CONTINUOUS
10
-19.5619
20
9.78306
11
-19.5619
21
10.2964
0
LINE
8
BLACK
6
CONTINUOUS
10
-19.5619
20
10.2964
11
-19.7398
21
10.2964
0
LINE
8
BLACK
6
CONTINUOUS
10
-19.7398
20
10.2964
11
-19.7398
21
10.0857
0
LINE
8
BLACK
6
CONTINUOUS
10
-19.7398
20
10.0857
11
-19.7443
21
10.0601
0
LINE
8
BLACK
6
CONTINUOUS
10
-19.7443
20
10.0601
11
-19.7773
21
10.0208
0
LINE
8
BLACK
6
CONTINUOUS
10
-19.7773
20
10.0208
11
-19.8278
21
10.0119
0
LINE
8
BLACK
6
CONTINUOUS
10
-19.8278
20
10.0119
11
-19.8723
21
10.0375
0
LINE
8
BLACK
6
CONTINUOUS
10
-19.8723
20
10.0375
11
-19.8898
21
10.0857
0
LINE
8
BLACK
6
CONTINUOUS
10
-19.8898
20
10.0857
11
-19.8898
21
10.6571
0
LINE
8
BLACK
6
CONTINUOUS
10
-19.8898
20
10.6571
11
-19.8853
21
10.6828
0
LINE
8
BLACK
6
CONTINUOUS
10
-19.8853
20
10.6828
11
-19.8523
21
10.7221
0
LINE
8
BLACK
6
CONTINUOUS
10
-19.8523
20
10.7221
11
-19.8018
21
10.731
0
LINE
8
BLACK
6
CONTINUOUS
10
-19.8018
20
10.731
11
-19.7574
21
10.7054
0
LINE
8
BLACK
6
CONTINUOUS
10
-19.4619
20
10.2964
11
-19.4619
21
9.79486
0
LINE
8
BLACK
6
CONTINUOUS
10
-19.4619
20
9.79486
11
-19.4232
21
9.71744
0
LINE
8
BLACK
6
CONTINUOUS
10
-19.4232
20
9.71744
11
-19.387
21
9.68129
0
LINE
8
BLACK
6
CONTINUOUS
10
-19.387
20
9.68129
11
-19.3096
21
9.64258
0
LINE
8
BLACK
6
CONTINUOUS
10
-19.3096
20
9.64258
11
-19.1428
21
9.64258
0
LINE
8
BLACK
6
CONTINUOUS
10
-19.1428
20
9.64258
11
-19.0653
21
9.68129
0
LINE
8
BLACK
6
CONTINUOUS
10
-19.0653
20
9.68129
11
-19.0292
21
9.71744
0
LINE
8
BLACK
6
CONTINUOUS
10
-19.0292
20
9.71744
11
-18.9905
21
9.79486
0
LINE
8
BLACK
6
CONTINUOUS
10
-18.9905
20
9.79486
11
-18.9905
21
10.2964
0
LINE
8
BLACK
6
CONTINUOUS
10
-18.9905
20
10.2964
11
-19.4619
21
10.2964
0
LINE
8
BLACK
6
CONTINUOUS
10
-18.2291
20
10.6626
11
-18.2264
21
10.6244
0
LINE
8
BLACK
6
CONTINUOUS
10
-18.2264
20
10.6244
11
-18.4425
21
9.97591
0
LINE
8
BLACK
6
CONTINUOUS
10
-18.4425
20
9.97591
11
-18.0857
21
9.97591
0
LINE
8
BLACK
6
CONTINUOUS
10
-18.0857
20
9.97591
11
-18.0857
21
10.2592
0
LINE
8
BLACK
6
CONTINUOUS
10
-18.0857
20
10.2592
11
-18.0711
21
10.2946
0
LINE
8
BLACK
6
CONTINUOUS
10
-18.0711
20
10.2946
11
-18.0357
21
10.3092
0
LINE
8
BLACK
6
CONTINUOUS
10
-18.0357
20
10.3092
11
-18.0004
21
10.2946
0
LINE
8
BLACK
6
CONTINUOUS
10
-18.0004
20
10.2946
11
-17.9857
21
10.2592
0
LINE
8
BLACK
6
CONTINUOUS
10
-17.9857
20
10.2592
11
-17.9857
21
9.97591
0
LINE
8
BLACK
6
CONTINUOUS
10
-17.9857
20
9.97591
11
-17.8929
21
9.97591
0
LINE
8
BLACK
6
CONTINUOUS
10
-17.8929
20
9.97591
11
-17.8575
21
9.96127
0
LINE
8
BLACK
6
CONTINUOUS
10
-17.8575
20
9.96127
11
-17.8429
21
9.92591
0
LINE
8
BLACK
6
CONTINUOUS
10
-17.8429
20
9.92591
11
-17.8575
21
9.89056
0
LINE
8
BLACK
6
CONTINUOUS
10
-17.8575
20
9.89056
11
-17.8929
21
9.87591
0
LINE
8
BLACK
6
CONTINUOUS
10
-17.8929
20
9.87591
11
-17.9857
21
9.87591
0
LINE
8
BLACK
6
CONTINUOUS
10
-17.9857
20
9.87591
11
-17.9857
21
9.59258
0
LINE
8
BLACK
6
CONTINUOUS
10
-17.9857
20
9.59258
11
-18.0004
21
9.55723
0
LINE
8
BLACK
6
CONTINUOUS
10
-18.0004
20
9.55723
11
-18.0357
21
9.54258
0
LINE
8
BLACK
6
CONTINUOUS
10
-18.0357
20
9.54258
11
-18.0711
21
9.55723
0
LINE
8
BLACK
6
CONTINUOUS
10
-18.0711
20
9.55723
11
-18.0857
21
9.59258
0
LINE
8
BLACK
6
CONTINUOUS
10
-18.0857
20
9.59258
11
-18.0857
21
9.87591
0
LINE
8
BLACK
6
CONTINUOUS
10
-18.0857
20
9.87591
11
-18.5119
21
9.87591
0
LINE
8
BLACK
6
CONTINUOUS
10
-18.5119
20
9.87591
11
-18.5195
21
9.87906
0
LINE
8
BLACK
6
CONTINUOUS
10
-18.5195
20
9.87906
11
-18.5277
21
9.87848
0
LINE
8
BLACK
6
CONTINUOUS
10
-18.5277
20
9.87848
11
-18.5365
21
9.88611
0
LINE
8
BLACK
6
CONTINUOUS
10
-18.5365
20
9.88611
11
-18.5473
21
9.89056
0
LINE
8
BLACK
6
CONTINUOUS
10
-18.5473
20
9.89056
11
-18.5504
21
9.89816
0
LINE
8
BLACK
6
CONTINUOUS
10
-18.5504
20
9.89816
11
-18.5566
21
9.90355
0
LINE
8
BLACK
6
CONTINUOUS
10
-18.5566
20
9.90355
11
-18.5575
21
9.91516
0
LINE
8
BLACK
6
CONTINUOUS
10
-18.5575
20
9.91516
11
-18.5619
21
9.92591
0
LINE
8
BLACK
6
CONTINUOUS
10
-18.5619
20
9.92591
11
-18.5588
21
9.93352
0
LINE
8
BLACK
6
CONTINUOUS
10
-18.5588
20
9.93352
11
-18.5593
21
9.94173
0
LINE
8
BLACK
6
CONTINUOUS
10
-18.5593
20
9.94173
11
-18.3212
21
10.656
0
LINE
8
BLACK
6
CONTINUOUS
10
-18.3212
20
10.656
11
-18.2962
21
10.6849
0
LINE
8
BLACK
6
CONTINUOUS
10
-18.2962
20
10.6849
11
-18.258
21
10.6876
0
LINE
8
BLACK
6
CONTINUOUS
10
-18.258
20
10.6876
11
-18.2291
21
10.6626
0
LINE
8
BLACK
6
CONTINUOUS
10
-16.1139
20
10.8119
11
-16.1023
21
10.8111
0
LINE
8
BLACK
6
CONTINUOUS
10
-16.1023
20
10.8111
11
-16.0547
21
10.7873
0
LINE
8
BLACK
6
CONTINUOUS
10
-16.0547
20
10.7873
11
-16.0493
21
10.7811
0
LINE
8
BLACK
6
CONTINUOUS
10
-16.0493
20
10.7811
11
-16.0417
21
10.7779
0
LINE
8
BLACK
6
CONTINUOUS
10
-16.0417
20
10.7779
11
-16.0179
21
10.7541
0
LINE
8
BLACK
6
CONTINUOUS
10
-16.0179
20
10.7541
11
-16.0148
21
10.7465
0
LINE
8
BLACK
6
CONTINUOUS
10
-16.0148
20
10.7465
11
-16.0085
21
10.7411
0
LINE
8
BLACK
6
CONTINUOUS
10
-16.0085
20
10.7411
11
-15.9847
21
10.6935
0
LINE
8
BLACK
6
CONTINUOUS
10
-15.9847
20
10.6935
11
-15.9839
21
10.6819
0
LINE
8
BLACK
6
CONTINUOUS
10
-15.9839
20
10.6819
11
-15.9794
21
10.6712
0
LINE
8
BLACK
6
CONTINUOUS
10
-15.9794
20
10.6712
11
-15.9794
21
10.5997
0
LINE
8
BLACK
6
CONTINUOUS
10
-15.9794
20
10.5997
11
-15.9839
21
10.589
0
LINE
8
BLACK
6
CONTINUOUS
10
-15.9839
20
10.589
11
-15.9847
21
10.5774
0
LINE
8
BLACK
6
CONTINUOUS
10
-15.9847
20
10.5774
11
-16.0085
21
10.5297
0
LINE
8
BLACK
6
CONTINUOUS
10
-16.0085
20
10.5297
11
-16.0148
21
10.5244
0
LINE
8
BLACK
6
CONTINUOUS
10
-16.0148
20
10.5244
11
-16.0179
21
10.5167
0
LINE
8
BLACK
6
CONTINUOUS
10
-16.0179
20
10.5167
11
-16.0417
21
10.4929
0
LINE
8
BLACK
6
CONTINUOUS
10
-16.0417
20
10.4929
11
-16.0493
21
10.4898
0
LINE
8
BLACK
6
CONTINUOUS
10
-16.0493
20
10.4898
11
-16.0547
21
10.4836
0
LINE
8
BLACK
6
CONTINUOUS
10
-16.0547
20
10.4836
11
-16.1023
21
10.4598
0
LINE
8
BLACK
6
CONTINUOUS
10
-16.1023
20
10.4598
11
-16.1037
21
10.4597
0
LINE
8
BLACK
6
CONTINUOUS
10
-16.1037
20
10.4597
11
-15.9885
21
10.2951
0
LINE
8
BLACK
6
CONTINUOUS
10
-15.9885
20
10.2951
11
-15.9802
21
10.2577
0
LINE
8
BLACK
6
CONTINUOUS
10
-15.9802
20
10.2577
11
-16.0008
21
10.2254
0
LINE
8
BLACK
6
CONTINUOUS
10
-16.0008
20
10.2254
11
-16.0381
21
10.2172
0
LINE
8
BLACK
6
CONTINUOUS
10
-16.0381
20
10.2172
11
-16.0704
21
10.2377
0
LINE
8
BLACK
6
CONTINUOUS
10
-16.0704
20
10.2377
11
-16.2221
21
10.4545
0
LINE
8
BLACK
6
CONTINUOUS
10
-16.2221
20
10.4545
11
-16.2652
21
10.4545
0
LINE
8
BLACK
6
CONTINUOUS
10
-16.2652
20
10.4545
11
-16.2652
21
10.2664
0
LINE
8
BLACK
6
CONTINUOUS
10
-16.2652
20
10.2664
11
-16.2798
21
10.231
0
LINE
8
BLACK
6
CONTINUOUS
10
-16.2798
20
10.231
11
-16.3152
21
10.2164
0
LINE
8
BLACK
6
CONTINUOUS
10
-16.3152
20
10.2164
11
-16.3505
21
10.231
0
LINE
8
BLACK
6
CONTINUOUS
10
-16.3505
20
10.231
11
-16.3652
21
10.2664
0
LINE
8
BLACK
6
CONTINUOUS
10
-16.3652
20
10.2664
11
-16.3652
21
10.7664
0
LINE
8
BLACK
6
CONTINUOUS
10
-16.3652
20
10.7664
11
-16.3505
21
10.8017
0
LINE
8
BLACK
6
CONTINUOUS
10
-16.3505
20
10.8017
11
-16.3152
21
10.8164
0
LINE
8
BLACK
6
CONTINUOUS
10
-16.3152
20
10.8164
11
-16.1247
21
10.8164
0
LINE
8
BLACK
6
CONTINUOUS
10
-16.1247
20
10.8164
11
-16.1139
21
10.8119
0
LINE
8
BLACK
6
CONTINUOUS
10
-16.2652
20
10.5545
11
-16.1365
21
10.5545
0
LINE
8
BLACK
6
CONTINUOUS
10
-16.1365
20
10.5545
11
-16.1067
21
10.5694
0
LINE
8
BLACK
6
CONTINUOUS
10
-16.1067
20
10.5694
11
-16.0944
21
10.5817
0
LINE
8
BLACK
6
CONTINUOUS
10
-16.0944
20
10.5817
11
-16.0794
21
10.6115
0
LINE
8
BLACK
6
CONTINUOUS
10
-16.0794
20
10.6115
11
-16.0794
21
10.6593
0
LINE
8
BLACK
6
CONTINUOUS
10
-16.0794
20
10.6593
11
-16.0944
21
10.6892
0
LINE
8
BLACK
6
CONTINUOUS
10
-16.0944
20
10.6892
11
-16.1067
21
10.7015
0
LINE
8
BLACK
6
CONTINUOUS
10
-16.1067
20
10.7015
11
-16.1365
21
10.7164
0
LINE
8
BLACK
6
CONTINUOUS
10
-16.1365
20
10.7164
11
-16.2652
21
10.7164
0
LINE
8
BLACK
6
CONTINUOUS
10
-16.2652
20
10.7164
11
-16.2652
21
10.5545
0
LINE
8
BLACK
6
CONTINUOUS
10
-15.5017
20
10.808
11
-15.4804
21
10.7762
0
LINE
8
BLACK
6
CONTINUOUS
10
-15.4804
20
10.7762
11
-15.4878
21
10.7387
0
LINE
8
BLACK
6
CONTINUOUS
10
-15.4878
20
10.7387
11
-15.636
21
10.5164
0
LINE
8
BLACK
6
CONTINUOUS
10
-15.636
20
10.5164
11
-15.4878
21
10.2941
0
LINE
8
BLACK
6
CONTINUOUS
10
-15.4878
20
10.2941
11
-15.4804
21
10.2566
0
LINE
8
BLACK
6
CONTINUOUS
10
-15.4804
20
10.2566
11
-15.5017
21
10.2248
0
LINE
8
BLACK
6
CONTINUOUS
10
-15.5017
20
10.2248
11
-15.5393
21
10.2174
0
LINE
8
BLACK
6
CONTINUOUS
10
-15.5393
20
10.2174
11
-15.5711
21
10.2387
0
LINE
8
BLACK
6
CONTINUOUS
10
-15.5711
20
10.2387
11
-15.6961
21
10.4263
0
LINE
8
BLACK
6
CONTINUOUS
10
-15.6961
20
10.4263
11
-15.8212
21
10.2387
0
LINE
8
BLACK
6
CONTINUOUS
10
-15.8212
20
10.2387
11
-15.853
21
10.2174
0
LINE
8
BLACK
6
CONTINUOUS
10
-15.853
20
10.2174
11
-15.8905
21
10.2248
0
LINE
8
BLACK
6
CONTINUOUS
10
-15.8905
20
10.2248
11
-15.9118
21
10.2566
0
LINE
8
BLACK
6
CONTINUOUS
10
-15.9118
20
10.2566
11
-15.9044
21
10.2941
0
LINE
8
BLACK
6
CONTINUOUS
10
-15.9044
20
10.2941
11
-15.7562
21
10.5164
0
LINE
8
BLACK
6
CONTINUOUS
10
-15.7562
20
10.5164
11
-15.9044
21
10.7387
0
LINE
8
BLACK
6
CONTINUOUS
10
-15.9044
20
10.7387
11
-15.9118
21
10.7762
0
LINE
8
BLACK
6
CONTINUOUS
10
-15.9118
20
10.7762
11
-15.8905
21
10.808
0
LINE
8
BLACK
6
CONTINUOUS
10
-15.8905
20
10.808
11
-15.853
21
10.8154
0
LINE
8
BLACK
6
CONTINUOUS
10
-15.853
20
10.8154
11
-15.8212
21
10.7941
0
LINE
8
BLACK
6
CONTINUOUS
10
-15.8212
20
10.7941
11
-15.6961
21
10.6065
0
LINE
8
BLACK
6
CONTINUOUS
10
-15.6961
20
10.6065
11
-15.5711
21
10.7941
0
LINE
8
BLACK
6
CONTINUOUS
10
-15.5711
20
10.7941
11
-15.5393
21
10.8154
0
LINE
8
BLACK
6
CONTINUOUS
10
-15.5393
20
10.8154
11
-15.5017
21
10.808
0
LINE
8
BLACK
6
CONTINUOUS
10
-18.8051
20
11.5399
11
-18.8018
21
11.5405
0
LINE
8
BLACK
6
CONTINUOUS
10
-18.8018
20
11.5405
11
-18.7989
21
11.5389
0
LINE
8
BLACK
6
CONTINUOUS
10
-18.7989
20
11.5389
11
-18.7892
21
11.5371
0
LINE
8
BLACK
6
CONTINUOUS
10
-18.7892
20
11.5371
11
-18.7742
21
11.5246
0
LINE
8
BLACK
6
CONTINUOUS
10
-18.7742
20
11.5246
11
-18.7574
21
11.5149
0
LINE
8
BLACK
6
CONTINUOUS
10
-18.7574
20
11.5149
11
-18.7551
21
11.5085
0
LINE
8
BLACK
6
CONTINUOUS
10
-18.7551
20
11.5085
11
-18.7499
21
11.5042
0
LINE
8
BLACK
6
CONTINUOUS
10
-18.7499
20
11.5042
11
-18.7465
21
11.485
0
LINE
8
BLACK
6
CONTINUOUS
10
-18.7465
20
11.485
11
-18.7398
21
11.4667
0
LINE
8
BLACK
6
CONTINUOUS
10
-18.7398
20
11.4667
11
-18.7398
21
10.9905
0
LINE
8
BLACK
6
CONTINUOUS
10
-18.7398
20
10.9905
11
-18.7443
21
10.9648
0
LINE
8
BLACK
6
CONTINUOUS
10
-18.7443
20
10.9648
11
-18.7773
21
10.9255
0
LINE
8
BLACK
6
CONTINUOUS
10
-18.7773
20
10.9255
11
-18.8278
21
10.9166
0
LINE
8
BLACK
6
CONTINUOUS
10
-18.8278
20
10.9166
11
-18.8723
21
10.9423
0
LINE
8
BLACK
6
CONTINUOUS
10
-18.8723
20
10.9423
11
-18.8898
21
10.9905
0
LINE
8
BLACK
6
CONTINUOUS
10
-18.8898
20
10.9905
11
-18.8898
21
11.3917
0
LINE
8
BLACK
6
CONTINUOUS
10
-18.8898
20
11.3917
11
-19.216
21
11.3917
0
LINE
8
BLACK
6
CONTINUOUS
10
-19.216
20
11.3917
11
-19.216
21
11.1333
0
LINE
8
BLACK
6
CONTINUOUS
10
-19.216
20
11.1333
11
-19.2205
21
11.1077
0
LINE
8
BLACK
6
CONTINUOUS
10
-19.2205
20
11.1077
11
-19.2535
21
11.0684
0
LINE
8
BLACK
6
CONTINUOUS
10
-19.2535
20
11.0684
11
-19.304
21
11.0595
0
LINE
8
BLACK
6
CONTINUOUS
10
-19.304
20
11.0595
11
-19.3485
21
11.0851
0
LINE
8
BLACK
6
CONTINUOUS
10
-19.3485
20
11.0851
11
-19.366
21
11.1333
0
LINE
8
BLACK
6
CONTINUOUS
10
-19.366
20
11.1333
11
-19.366
21
11.3917
0
LINE
8
BLACK
6
CONTINUOUS
10
-19.366
20
11.3917
11
-19.8148
21
11.3917
0
LINE
8
BLACK
6
CONTINUOUS
10
-19.8148
20
11.3917
11
-19.8405
21
11.3962
0
LINE
8
BLACK
6
CONTINUOUS
10
-19.8405
20
11.3962
11
-19.8798
21
11.4292
0
LINE
8
BLACK
6
CONTINUOUS
10
-19.8798
20
11.4292
11
-19.8887
21
11.4797
0
LINE
8
BLACK
6
CONTINUOUS
10
-19.8887
20
11.4797
11
-19.863
21
11.5241
0
LINE
8
BLACK
6
CONTINUOUS
10
-19.863
20
11.5241
11
-19.8148
21
11.5417
0
LINE
8
BLACK
6
CONTINUOUS
10
-19.8148
20
11.5417
11
-18.8148
21
11.5417
0
LINE
8
BLACK
6
CONTINUOUS
10
-18.8148
20
11.5417
11
-18.8051
21
11.5399
0
LINE
8
BLACK
6
CONTINUOUS
10
-16.1401
20
12.0619
11
-16.1285
21
12.0611
0
LINE
8
BLACK
6
CONTINUOUS
10
-16.1285
20
12.0611
11
-16.0809
21
12.0373
0
LINE
8
BLACK
6
CONTINUOUS
10
-16.0809
20
12.0373
11
-16.0558
21
12.0084
0
LINE
8
BLACK
6
CONTINUOUS
10
-16.0558
20
12.0084
11
-16.0585
21
11.9702
0
LINE
8
BLACK
6
CONTINUOUS
10
-16.0585
20
11.9702
11
-16.0874
21
11.9451
0
LINE
8
BLACK
6
CONTINUOUS
10
-16.0874
20
11.9451
11
-16.1256
21
11.9479
0
LINE
8
BLACK
6
CONTINUOUS
10
-16.1256
20
11.9479
11
-16.1627
21
11.9664
0
LINE
8
BLACK
6
CONTINUOUS
10
-16.1627
20
11.9664
11
-16.2142
21
11.9664
0
LINE
8
BLACK
6
CONTINUOUS
10
-16.2142
20
11.9664
11
-16.2667
21
11.9489
0
LINE
8
BLACK
6
CONTINUOUS
10
-16.2667
20
11.9489
11
-16.3003
21
11.9153
0
LINE
8
BLACK
6
CONTINUOUS
10
-16.3003
20
11.9153
11
-16.318
21
11.8799
0
LINE
8
BLACK
6
CONTINUOUS
10
-16.318
20
11.8799
11
-16.339
21
11.796
0
LINE
8
BLACK
6
CONTINUOUS
10
-16.339
20
11.796
11
-16.339
21
11.7368
0
LINE
8
BLACK
6
CONTINUOUS
10
-16.339
20
11.7368
11
-16.318
21
11.6529
0
LINE
8
BLACK
6
CONTINUOUS
10
-16.318
20
11.6529
11
-16.3003
21
11.6174
0
LINE
8
BLACK
6
CONTINUOUS
10
-16.3003
20
11.6174
11
-16.2667
21
11.5839
0
LINE
8
BLACK
6
CONTINUOUS
10
-16.2667
20
11.5839
11
-16.2142
21
11.5664
0
LINE
8
BLACK
6
CONTINUOUS
10
-16.2142
20
11.5664
11
-16.1828
21
11.5664
0
LINE
8
BLACK
6
CONTINUOUS
10
-16.1828
20
11.5664
11
-16.1303
21
11.5839
0
LINE
8
BLACK
6
CONTINUOUS
10
-16.1303
20
11.5839
11
-16.1294
21
11.5847
0
LINE
8
BLACK
6
CONTINUOUS
10
-16.1294
20
11.5847
11
-16.1294
21
11.6807
0
LINE
8
BLACK
6
CONTINUOUS
10
-16.1294
20
11.6807
11
-16.1747
21
11.6807
0
LINE
8
BLACK
6
CONTINUOUS
10
-16.1747
20
11.6807
11
-16.21
21
11.6953
0
LINE
8
BLACK
6
CONTINUOUS
10
-16.21
20
11.6953
11
-16.2247
21
11.7307
0
LINE
8
BLACK
6
CONTINUOUS
10
-16.2247
20
11.7307
11
-16.21
21
11.766
0
LINE
8
BLACK
6
CONTINUOUS
10
-16.21
20
11.766
11
-16.1747
21
11.7807
0
LINE
8
BLACK
6
CONTINUOUS
10
-16.1747
20
11.7807
11
-16.0794
21
11.7807
0
LINE
8
BLACK
6
CONTINUOUS
10
-16.0794
20
11.7807
11
-16.0441
21
11.766
0
LINE
8
BLACK
6
CONTINUOUS
10
-16.0441
20
11.766
11
-16.0295
21
11.7307
0
LINE
8
BLACK
6
CONTINUOUS
10
-16.0295
20
11.7307
11
-16.0295
21
11.564
0
LINE
8
BLACK
6
CONTINUOUS
10
-16.0295
20
11.564
11
-16.0342
21
11.5525
0
LINE
8
BLACK
6
CONTINUOUS
10
-16.0342
20
11.5525
11
-16.0441
21
11.5287
0
LINE
8
BLACK
6
CONTINUOUS
10
-16.0441
20
11.5287
11
-16.0679
21
11.5048
0
LINE
8
BLACK
6
CONTINUOUS
10
-16.0679
20
11.5048
11
-16.0787
21
11.5004
0
LINE
8
BLACK
6
CONTINUOUS
10
-16.0787
20
11.5004
11
-16.0874
21
11.4928
0
LINE
8
BLACK
6
CONTINUOUS
10
-16.0874
20
11.4928
11
-16.1589
21
11.469
0
LINE
8
BLACK
6
CONTINUOUS
10
-16.1589
20
11.469
11
-16.1671
21
11.4695
0
LINE
8
BLACK
6
CONTINUOUS
10
-16.1671
20
11.4695
11
-16.1747
21
11.4664
0
LINE
8
BLACK
6
CONTINUOUS
10
-16.1747
20
11.4664
11
-16.2223
21
11.4664
0
LINE
8
BLACK
6
CONTINUOUS
10
-16.2223
20
11.4664
11
-16.2299
21
11.4695
0
LINE
8
BLACK
6
CONTINUOUS
10
-16.2299
20
11.4695
11
-16.2381
21
11.469
0
LINE
8
BLACK
6
CONTINUOUS
10
-16.2381
20
11.469
11
-16.3095
21
11.4928
0
LINE
8
BLACK
6
CONTINUOUS
10
-16.3095
20
11.4928
11
-16.3183
21
11.5004
0
LINE
8
BLACK
6
CONTINUOUS
10
-16.3183
20
11.5004
11
-16.3291
21
11.5048
0
LINE
8
BLACK
6
CONTINUOUS
10
-16.3291
20
11.5048
11
-16.3767
21
11.5525
0
LINE
8
BLACK
6
CONTINUOUS
10
-16.3767
20
11.5525
11
-16.3799
21
11.5601
0
LINE
8
BLACK
6
CONTINUOUS
10
-16.3799
20
11.5601
11
-16.3861
21
11.5655
0
LINE
8
BLACK
6
CONTINUOUS
10
-16.3861
20
11.5655
11
-16.4099
21
11.6131
0
LINE
8
BLACK
6
CONTINUOUS
10
-16.4099
20
11.6131
11
-16.4103
21
11.6187
0
LINE
8
BLACK
6
CONTINUOUS
10
-16.4103
20
11.6187
11
-16.4137
21
11.6233
0
LINE
8
BLACK
6
CONTINUOUS
10
-16.4137
20
11.6233
11
-16.4375
21
11.7185
0
LINE
8
BLACK
6
CONTINUOUS
10
-16.4375
20
11.7185
11
-16.4365
21
11.7248
0
LINE
8
BLACK
6
CONTINUOUS
10
-16.4365
20
11.7248
11
-16.439
21
11.7307
0
LINE
8
BLACK
6
CONTINUOUS
10
-16.439
20
11.7307
11
-16.439
21
11.8021
0
LINE
8
BLACK
6
CONTINUOUS
10
-16.439
20
11.8021
11
-16.4365
21
11.808
0
LINE
8
BLACK
6
CONTINUOUS
10
-16.4365
20
11.808
11
-16.4375
21
11.8142
0
LINE
8
BLACK
6
CONTINUOUS
10
-16.4375
20
11.8142
11
-16.4137
21
11.9095
0
LINE
8
BLACK
6
CONTINUOUS
10
-16.4137
20
11.9095
11
-16.4103
21
11.914
0
LINE
8
BLACK
6
CONTINUOUS
10
-16.4103
20
11.914
11
-16.4099
21
11.9197
0
LINE
8
BLACK
6
CONTINUOUS
10
-16.4099
20
11.9197
11
-16.3861
21
11.9673
0
LINE
8
BLACK
6
CONTINUOUS
10
-16.3861
20
11.9673
11
-16.3799
21
11.9727
0
LINE
8
BLACK
6
CONTINUOUS
10
-16.3799
20
11.9727
11
-16.3767
21
11.9803
0
LINE
8
BLACK
6
CONTINUOUS
10
-16.3767
20
11.9803
11
-16.3291
21
12.0279
0
LINE
8
BLACK
6
CONTINUOUS
10
-16.3291
20
12.0279
11
-16.3183
21
12.0324
0
LINE
8
BLACK
6
CONTINUOUS
10
-16.3183
20
12.0324
11
-16.3095
21
12.04
0
LINE
8
BLACK
6
CONTINUOUS
10
-16.3095
20
12.04
11
-16.2381
21
12.0638
0
LINE
8
BLACK
6
CONTINUOUS
10
-16.2381
20
12.0638
11
-16.2299
21
12.0632
0
LINE
8
BLACK
6
CONTINUOUS
10
-16.2299
20
12.0632
11
-16.2223
21
12.0664
0
LINE
8
BLACK
6
CONTINUOUS
10
-16.2223
20
12.0664
11
-16.1509
21
12.0664
0
LINE
8
BLACK
6
CONTINUOUS
10
-16.1509
20
12.0664
11
-16.1401
21
12.0619
0
LINE
8
BLACK
6
CONTINUOUS
10
-15.5441
20
12.0517
11
-15.5294
21
12.0164
0
LINE
8
BLACK
6
CONTINUOUS
10
-15.5294
20
12.0164
11
-15.5294
21
11.5164
0
LINE
8
BLACK
6
CONTINUOUS
10
-15.5294
20
11.5164
11
-15.5321
21
11.51
0
LINE
8
BLACK
6
CONTINUOUS
10
-15.5321
20
11.51
11
-15.5312
21
11.5032
0
LINE
8
BLACK
6
CONTINUOUS
10
-15.5312
20
11.5032
11
-15.5391
21
11.493
0
LINE
8
BLACK
6
CONTINUOUS
10
-15.5391
20
11.493
11
-15.5441
21
11.481
0
LINE
8
BLACK
6
CONTINUOUS
10
-15.5441
20
11.481
11
-15.5504
21
11.4784
0
LINE
8
BLACK
6
CONTINUOUS
10
-15.5504
20
11.4784
11
-15.5546
21
11.473
0
LINE
8
BLACK
6
CONTINUOUS
10
-15.5546
20
11.473
11
-15.5675
21
11.4713
0
LINE
8
BLACK
6
CONTINUOUS
10
-15.5675
20
11.4713
11
-15.5794
21
11.4664
0
LINE
8
BLACK
6
CONTINUOUS
10
-15.5794
20
11.4664
11
-15.5858
21
11.469
0
LINE
8
BLACK
6
CONTINUOUS
10
-15.5858
20
11.469
11
-15.5926
21
11.4682
0
LINE
8
BLACK
6
CONTINUOUS
10
-15.5926
20
11.4682
11
-15.6028
21
11.4761
0
LINE
8
BLACK
6
CONTINUOUS
10
-15.6028
20
11.4761
11
-15.6148
21
11.481
0
LINE
8
BLACK
6
CONTINUOUS
10
-15.6148
20
11.481
11
-15.6174
21
11.4874
0
LINE
8
BLACK
6
CONTINUOUS
10
-15.6174
20
11.4874
11
-15.6229
21
11.4916
0
LINE
8
BLACK
6
CONTINUOUS
10
-15.6229
20
11.4916
11
-15.8152
21
11.8281
0
LINE
8
BLACK
6
CONTINUOUS
10
-15.8152
20
11.8281
11
-15.8152
21
11.5164
0
LINE
8
BLACK
6
CONTINUOUS
10
-15.8152
20
11.5164
11
-15.8298
21
11.481
0
LINE
8
BLACK
6
CONTINUOUS
10
-15.8298
20
11.481
11
-15.8652
21
11.4664
0
LINE
8
BLACK
6
CONTINUOUS
10
-15.8652
20
11.4664
11
-15.9005
21
11.481
0
LINE
8
BLACK
6
CONTINUOUS
10
-15.9005
20
11.481
11
-15.9152
21
11.5164
0
LINE
8
BLACK
6
CONTINUOUS
10
-15.9152
20
11.5164
11
-15.9152
21
12.0164
0
LINE
8
BLACK
6
CONTINUOUS
10
-15.9152
20
12.0164
11
-15.9125
21
12.0227
0
LINE
8
BLACK
6
CONTINUOUS
10
-15.9125
20
12.0227
11
-15.9134
21
12.0295
0
LINE
8
BLACK
6
CONTINUOUS
10
-15.9134
20
12.0295
11
-15.9055
21
12.0398
0
LINE
8
BLACK
6
CONTINUOUS
10
-15.9055
20
12.0398
11
-15.9005
21
12.0517
0
LINE
8
BLACK
6
CONTINUOUS
10
-15.9005
20
12.0517
11
-15.8942
21
12.0544
0
LINE
8
BLACK
6
CONTINUOUS
10
-15.8942
20
12.0544
11
-15.89
21
12.0598
0
LINE
8
BLACK
6
CONTINUOUS
10
-15.89
20
12.0598
11
-15.8771
21
12.0614
0
LINE
8
BLACK
6
CONTINUOUS
10
-15.8771
20
12.0614
11
-15.8652
21
12.0664
0
LINE
8
BLACK
6
CONTINUOUS
10
-15.8652
20
12.0664
11
-15.8588
21
12.0638
0
LINE
8
BLACK
6
CONTINUOUS
10
-15.8588
20
12.0638
11
-15.852
21
12.0646
0
LINE
8
BLACK
6
CONTINUOUS
10
-15.852
20
12.0646
11
-15.8418
21
12.0567
0
LINE
8
BLACK
6
CONTINUOUS
10
-15.8418
20
12.0567
11
-15.8298
21
12.0517
0
LINE
8
BLACK
6
CONTINUOUS
10
-15.8298
20
12.0517
11
-15.8272
21
12.0454
0
LINE
8
BLACK
6
CONTINUOUS
10
-15.8272
20
12.0454
11
-15.8218
21
12.0412
0
LINE
8
BLACK
6
CONTINUOUS
10
-15.8218
20
12.0412
11
-15.6294
21
11.7047
0
LINE
8
BLACK
6
CONTINUOUS
10
-15.6294
20
11.7047
11
-15.6294
21
12.0164
0
LINE
8
BLACK
6
CONTINUOUS
10
-15.6294
20
12.0164
11
-15.6148
21
12.0517
0
LINE
8
BLACK
6
CONTINUOUS
10
-15.6148
20
12.0517
11
-15.5794
21
12.0664
0
LINE
8
BLACK
6
CONTINUOUS
10
-15.5794
20
12.0664
11
-15.5441
21
12.0517
0
LINE
8
BLACK
6
CONTINUOUS
10
-15.2147
20
12.0632
11
-15.2065
21
12.0638
0
LINE
8
BLACK
6
CONTINUOUS
10
-15.2065
20
12.0638
11
-15.1351
21
12.04
0
LINE
8
BLACK
6
CONTINUOUS
10
-15.1351
20
12.04
11
-15.1263
21
12.0324
0
LINE
8
BLACK
6
CONTINUOUS
10
-15.1263
20
12.0324
11
-15.1155
21
12.0279
0
LINE
8
BLACK
6
CONTINUOUS
10
-15.1155
20
12.0279
11
-15.0679
21
11.9803
0
LINE
8
BLACK
6
CONTINUOUS
10
-15.0679
20
11.9803
11
-15.0648
21
11.9727
0
LINE
8
BLACK
6
CONTINUOUS
10
-15.0648
20
11.9727
11
-15.0585
21
11.9673
0
LINE
8
BLACK
6
CONTINUOUS
10
-15.0585
20
11.9673
11
-15.0347
21
11.9197
0
LINE
8
BLACK
6
CONTINUOUS
10
-15.0347
20
11.9197
11
-15.0343
21
11.914
0
LINE
8
BLACK
6
CONTINUOUS
10
-15.0343
20
11.914
11
-15.0309
21
11.9095
0
LINE
8
BLACK
6
CONTINUOUS
10
-15.0309
20
11.9095
11
-15.0071
21
11.8142
0
LINE
8
BLACK
6
CONTINUOUS
10
-15.0071
20
11.8142
11
-15.0081
21
11.808
0
LINE
8
BLACK
6
CONTINUOUS
10
-15.0081
20
11.808
11
-15.0056
21
11.8021
0
LINE
8
BLACK
6
CONTINUOUS
10
-15.0056
20
11.8021
11
-15.0056
21
11.7307
0
LINE
8
BLACK
6
CONTINUOUS
10
-15.0056
20
11.7307
11
-15.0081
21
11.7248
0
LINE
8
BLACK
6
CONTINUOUS
10
-15.0081
20
11.7248
11
-15.0071
21
11.7185
0
LINE
8
BLACK
6
CONTINUOUS
10
-15.0071
20
11.7185
11
-15.0309
21
11.6233
0
LINE
8
BLACK
6
CONTINUOUS
10
-15.0309
20
11.6233
11
-15.0343
21
11.6187
0
LINE
8
BLACK
6
CONTINUOUS
10
-15.0343
20
11.6187
11
-15.0347
21
11.6131
0
LINE
8
BLACK
6
CONTINUOUS
10
-15.0347
20
11.6131
11
-15.0585
21
11.5655
0
LINE
8
BLACK
6
CONTINUOUS
10
-15.0585
20
11.5655
11
-15.0648
21
11.5601
0
LINE
8
BLACK
6
CONTINUOUS
10
-15.0648
20
11.5601
11
-15.0679
21
11.5525
0
LINE
8
BLACK
6
CONTINUOUS
10
-15.0679
20
11.5525
11
-15.1155
21
11.5048
0
LINE
8
BLACK
6
CONTINUOUS
10
-15.1155
20
11.5048
11
-15.1263
21
11.5004
0
LINE
8
BLACK
6
CONTINUOUS
10
-15.1263
20
11.5004
11
-15.1351
21
11.4928
0
LINE
8
BLACK
6
CONTINUOUS
10
-15.1351
20
11.4928
11
-15.2065
21
11.469
0
LINE
8
BLACK
6
CONTINUOUS
10
-15.2065
20
11.469
11
-15.2147
21
11.4695
0
LINE
8
BLACK
6
CONTINUOUS
10
-15.2147
20
11.4695
11
-15.2223
21
11.4664
0
LINE
8
BLACK
6
CONTINUOUS
10
-15.2223
20
11.4664
11
-15.3414
21
11.4664
0
LINE
8
BLACK
6
CONTINUOUS
10
-15.3414
20
11.4664
11
-15.3767
21
11.481
0
LINE
8
BLACK
6
CONTINUOUS
10
-15.3767
20
11.481
11
-15.3914
21
11.5164
0
LINE
8
BLACK
6
CONTINUOUS
10
-15.3914
20
11.5164
11
-15.3914
21
12.0164
0
LINE
8
BLACK
6
CONTINUOUS
10
-15.3914
20
12.0164
11
-15.3767
21
12.0517
0
LINE
8
BLACK
6
CONTINUOUS
10
-15.3767
20
12.0517
11
-15.3414
21
12.0664
0
LINE
8
BLACK
6
CONTINUOUS
10
-15.3414
20
12.0664
11
-15.2223
21
12.0664
0
LINE
8
BLACK
6
CONTINUOUS
10
-15.2223
20
12.0664
11
-15.2147
21
12.0632
0
LINE
8
BLACK
6
CONTINUOUS
10
-15.2914
20
11.5664
11
-15.2304
21
11.5664
0
LINE
8
BLACK
6
CONTINUOUS
10
-15.2304
20
11.5664
11
-15.1779
21
11.5839
0
LINE
8
BLACK
6
CONTINUOUS
10
-15.1779
20
11.5839
11
-15.1444
21
11.6174
0
LINE
8
BLACK
6
CONTINUOUS
10
-15.1444
20
11.6174
11
-15.1266
21
11.6529
0
LINE
8
BLACK
6
CONTINUOUS
10
-15.1266
20
11.6529
11
-15.1056
21
11.7368
0
LINE
8
BLACK
6
CONTINUOUS
10
-15.1056
20
11.7368
11
-15.1056
21
11.796
0
LINE
8
BLACK
6
CONTINUOUS
10
-15.1056
20
11.796
11
-15.1266
21
11.8799
0
LINE
8
BLACK
6
CONTINUOUS
10
-15.1266
20
11.8799
11
-15.1444
21
11.9153
0
LINE
8
BLACK
6
CONTINUOUS
10
-15.1444
20
11.9153
11
-15.1779
21
11.9489
0
LINE
8
BLACK
6
CONTINUOUS
10
-15.1779
20
11.9489
11
-15.2304
21
11.9664
0
LINE
8
BLACK
6
CONTINUOUS
10
-15.2304
20
11.9664
11
-15.2914
21
11.9664
0
LINE
8
BLACK
6
CONTINUOUS
10
-15.2914
20
11.9664
11
-15.2914
21
11.5664
0
LINE
8
BLACK
6
CONTINUOUS
10
-16.137
20
13.4597
11
-16.1203
21
13.454
0
LINE
8
BLACK
6
CONTINUOUS
10
-16.1203
20
13.454
11
-16.1195
21
13.4524
0
LINE
8
BLACK
6
CONTINUOUS
10
-16.1195
20
13.4524
11
-16.1179
21
13.4517
0
LINE
8
BLACK
6
CONTINUOUS
10
-16.1179
20
13.4517
11
-16.1112
21
13.4355
0
LINE
8
BLACK
6
CONTINUOUS
10
-16.1112
20
13.4355
11
-16.1034
21
13.4197
0
LINE
8
BLACK
6
CONTINUOUS
10
-16.1034
20
13.4197
11
-16.1039
21
13.418
0
LINE
8
BLACK
6
CONTINUOUS
10
-16.1039
20
13.418
11
-16.1033
21
13.4164
0
LINE
8
BLACK
6
CONTINUOUS
10
-16.1033
20
13.4164
11
-16.11
21
13.4001
0
LINE
8
BLACK
6
CONTINUOUS
10
-16.11
20
13.4001
11
-16.1156
21
13.3835
0
LINE
8
BLACK
6
CONTINUOUS
10
-16.1156
20
13.3835
11
-16.2179
21
13.2665
0
LINE
8
BLACK
6
CONTINUOUS
10
-16.2179
20
13.2665
11
-16.1785
21
13.2468
0
LINE
8
BLACK
6
CONTINUOUS
10
-16.1785
20
13.2468
11
-16.1731
21
13.2406
0
LINE
8
BLACK
6
CONTINUOUS
10
-16.1731
20
13.2406
11
-16.1655
21
13.2375
0
LINE
8
BLACK
6
CONTINUOUS
10
-16.1655
20
13.2375
11
-16.1417
21
13.2137
0
LINE
8
BLACK
6
CONTINUOUS
10
-16.1417
20
13.2137
11
-16.1386
21
13.206
0
LINE
8
BLACK
6
CONTINUOUS
10
-16.1386
20
13.206
11
-16.1323
21
13.2007
0
LINE
8
BLACK
6
CONTINUOUS
10
-16.1323
20
13.2007
11
-16.1085
21
13.153
0
LINE
8
BLACK
6
CONTINUOUS
10
-16.1085
20
13.153
11
-16.1077
21
13.1414
0
LINE
8
BLACK
6
CONTINUOUS
10
-16.1077
20
13.1414
11
-16.1033
21
13.1307
0
LINE
8
BLACK
6
CONTINUOUS
10
-16.1033
20
13.1307
11
-16.1033
21
13.0116
0
LINE
8
BLACK
6
CONTINUOUS
10
-16.1033
20
13.0116
11
-16.1077
21
13.0009
0
LINE
8
BLACK
6
CONTINUOUS
10
-16.1077
20
13.0009
11
-16.1085
21
12.9893
0
LINE
8
BLACK
6
CONTINUOUS
10
-16.1085
20
12.9893
11
-16.1323
21
12.9416
0
LINE
8
BLACK
6
CONTINUOUS
10
-16.1323
20
12.9416
11
-16.1386
21
12.9363
0
LINE
8
BLACK
6
CONTINUOUS
10
-16.1386
20
12.9363
11
-16.1417
21
12.9287
0
LINE
8
BLACK
6
CONTINUOUS
10
-16.1417
20
12.9287
11
-16.1655
21
12.9048
0
LINE
8
BLACK
6
CONTINUOUS
10
-16.1655
20
12.9048
11
-16.1731
21
12.9017
0
LINE
8
BLACK
6
CONTINUOUS
10
-16.1731
20
12.9017
11
-16.1785
21
12.8955
0
LINE
8
BLACK
6
CONTINUOUS
10
-16.1785
20
12.8955
11
-16.2261
21
12.8717
0
LINE
8
BLACK
6
CONTINUOUS
10
-16.2261
20
12.8717
11
-16.2377
21
12.8708
0
LINE
8
BLACK
6
CONTINUOUS
10
-16.2377
20
12.8708
11
-16.2485
21
12.8664
0
LINE
8
BLACK
6
CONTINUOUS
10
-16.2485
20
12.8664
11
-16.3914
21
12.8664
0
LINE
8
BLACK
6
CONTINUOUS
10
-16.3914
20
12.8664
11
-16.4021
21
12.8708
0
LINE
8
BLACK
6
CONTINUOUS
10
-16.4021
20
12.8708
11
-16.4137
21
12.8717
0
LINE
8
BLACK
6
CONTINUOUS
10
-16.4137
20
12.8717
11
-16.4613
21
12.8955
0
LINE
8
BLACK
6
CONTINUOUS
10
-16.4613
20
12.8955
11
-16.4667
21
12.9017
0
LINE
8
BLACK
6
CONTINUOUS
10
-16.4667
20
12.9017
11
-16.4743
21
12.9048
0
LINE
8
BLACK
6
CONTINUOUS
10
-16.4743
20
12.9048
11
-16.4981
21
12.9287
0
LINE
8
BLACK
6
CONTINUOUS
10
-16.4981
20
12.9287
11
-16.5128
21
12.964
0
LINE
8
BLACK
6
CONTINUOUS
10
-16.5128
20
12.964
11
-16.4981
21
12.9994
0
LINE
8
BLACK
6
CONTINUOUS
10
-16.4981
20
12.9994
11
-16.4628
21
13.014
0
LINE
8
BLACK
6
CONTINUOUS
10
-16.4628
20
13.014
11
-16.4274
21
12.9994
0
LINE
8
BLACK
6
CONTINUOUS
10
-16.4274
20
12.9994
11
-16.4094
21
12.9813
0
LINE
8
BLACK
6
CONTINUOUS
10
-16.4094
20
12.9813
11
-16.3795
21
12.9664
0
LINE
8
BLACK
6
CONTINUOUS
10
-16.3795
20
12.9664
11
-16.2603
21
12.9664
0
LINE
8
BLACK
6
CONTINUOUS
10
-16.2603
20
12.9664
11
-16.2305
21
12.9813
0
LINE
8
BLACK
6
CONTINUOUS
10
-16.2305
20
12.9813
11
-16.2182
21
12.9936
0
LINE
8
BLACK
6
CONTINUOUS
10
-16.2182
20
12.9936
11
-16.2033
21
13.0234
0
LINE
8
BLACK
6
CONTINUOUS
10
-16.2033
20
13.0234
11
-16.2033
21
13.1189
0
LINE
8
BLACK
6
CONTINUOUS
10
-16.2033
20
13.1189
11
-16.2182
21
13.1487
0
LINE
8
BLACK
6
CONTINUOUS
10
-16.2182
20
13.1487
11
-16.2305
21
13.161
0
LINE
8
BLACK
6
CONTINUOUS
10
-16.2305
20
13.161
11
-16.2603
21
13.1759
0
LINE
8
BLACK
6
CONTINUOUS
10
-16.2603
20
13.1759
11
-16.3199
21
13.1759
0
LINE
8
BLACK
6
CONTINUOUS
10
-16.3199
20
13.1759
11
-16.3362
21
13.1826
0
LINE
8
BLACK
6
CONTINUOUS
10
-16.3362
20
13.1826
11
-16.3529
21
13.1883
0
LINE
8
BLACK
6
CONTINUOUS
10
-16.3529
20
13.1883
11
-16.3536
21
13.1899
0
LINE
8
BLACK
6
CONTINUOUS
10
-16.3536
20
13.1899
11
-16.3553
21
13.1906
0
LINE
8
BLACK
6
CONTINUOUS
10
-16.3553
20
13.1906
11
-16.362
21
13.2068
0
LINE
8
BLACK
6
CONTINUOUS
10
-16.362
20
13.2068
11
-16.3698
21
13.2226
0
LINE
8
BLACK
6
CONTINUOUS
10
-16.3698
20
13.2226
11
-16.3692
21
13.2243
0
LINE
8
BLACK
6
CONTINUOUS
10
-16.3692
20
13.2243
11
-16.3699
21
13.2259
0
LINE
8
BLACK
6
CONTINUOUS
10
-16.3699
20
13.2259
11
-16.3632
21
13.2422
0
LINE
8
BLACK
6
CONTINUOUS
10
-16.3632
20
13.2422
11
-16.3576
21
13.2588
0
LINE
8
BLACK
6
CONTINUOUS
10
-16.3576
20
13.2588
11
-16.2634
21
13.3664
0
LINE
8
BLACK
6
CONTINUOUS
10
-16.2634
20
13.3664
11
-16.4628
21
13.3664
0
LINE
8
BLACK
6
CONTINUOUS
10
-16.4628
20
13.3664
11
-16.4981
21
13.381
0
LINE
8
BLACK
6
CONTINUOUS
10
-16.4981
20
13.381
11
-16.5128
21
13.4164
0
LINE
8
BLACK
6
CONTINUOUS
10
-16.5128
20
13.4164
11
-16.4981
21
13.4517
0
LINE
8
BLACK
6
CONTINUOUS
10
-16.4981
20
13.4517
11
-16.4628
21
13.4664
0
LINE
8
BLACK
6
CONTINUOUS
10
-16.4628
20
13.4664
11
-16.1533
21
13.4664
0
LINE
8
BLACK
6
CONTINUOUS
10
-16.1533
20
13.4664
11
-16.137
21
13.4597
0
LINE
8
BLACK
6
CONTINUOUS
10
-15.2322
20
13.4597
11
-15.2156
21
13.454
0
LINE
8
BLACK
6
CONTINUOUS
10
-15.2156
20
13.454
11
-15.2148
21
13.4524
0
LINE
8
BLACK
6
CONTINUOUS
10
-15.2148
20
13.4524
11
-15.2131
21
13.4517
0
LINE
8
BLACK
6
CONTINUOUS
10
-15.2131
20
13.4517
11
-15.2064
21
13.4355
0
LINE
8
BLACK
6
CONTINUOUS
10
-15.2064
20
13.4355
11
-15.1986
21
13.4197
0
LINE
8
BLACK
6
CONTINUOUS
10
-15.1986
20
13.4197
11
-15.1992
21
13.418
0
LINE
8
BLACK
6
CONTINUOUS
10
-15.1992
20
13.418
11
-15.1985
21
13.4164
0
LINE
8
BLACK
6
CONTINUOUS
10
-15.1985
20
13.4164
11
-15.2052
21
13.4001
0
LINE
8
BLACK
6
CONTINUOUS
10
-15.2052
20
13.4001
11
-15.2109
21
13.3835
0
LINE
8
BLACK
6
CONTINUOUS
10
-15.2109
20
13.3835
11
-15.3132
21
13.2665
0
LINE
8
BLACK
6
CONTINUOUS
10
-15.3132
20
13.2665
11
-15.2738
21
13.2468
0
LINE
8
BLACK
6
CONTINUOUS
10
-15.2738
20
13.2468
11
-15.2684
21
13.2406
0
LINE
8
BLACK
6
CONTINUOUS
10
-15.2684
20
13.2406
11
-15.2608
21
13.2375
0
LINE
8
BLACK
6
CONTINUOUS
10
-15.2608
20
13.2375
11
-15.237
21
13.2137
0
LINE
8
BLACK
6
CONTINUOUS
10
-15.237
20
13.2137
11
-15.2338
21
13.206
0
LINE
8
BLACK
6
CONTINUOUS
10
-15.2338
20
13.206
11
-15.2276
21
13.2007
0
LINE
8
BLACK
6
CONTINUOUS
10
-15.2276
20
13.2007
11
-15.2038
21
13.153
0
LINE
8
BLACK
6
CONTINUOUS
10
-15.2038
20
13.153
11
-15.203
21
13.1414
0
LINE
8
BLACK
6
CONTINUOUS
10
-15.203
20
13.1414
11
-15.1985
21
13.1307
0
LINE
8
BLACK
6
CONTINUOUS
10
-15.1985
20
13.1307
11
-15.1985
21
13.0116
0
LINE
8
BLACK
6
CONTINUOUS
10
-15.1985
20
13.0116
11
-15.203
21
13.0009
0
LINE
8
BLACK
6
CONTINUOUS
10
-15.203
20
13.0009
11
-15.2038
21
12.9893
0
LINE
8
BLACK
6
CONTINUOUS
10
-15.2038
20
12.9893
11
-15.2276
21
12.9416
0
LINE
8
BLACK
6
CONTINUOUS
10
-15.2276
20
12.9416
11
-15.2338
21
12.9363
0
LINE
8
BLACK
6
CONTINUOUS
10
-15.2338
20
12.9363
11
-15.237
21
12.9287
0
LINE
8
BLACK
6
CONTINUOUS
10
-15.237
20
12.9287
11
-15.2608
21
12.9048
0
LINE
8
BLACK
6
CONTINUOUS
10
-15.2608
20
12.9048
11
-15.2684
21
12.9017
0
LINE
8
BLACK
6
CONTINUOUS
10
-15.2684
20
12.9017
11
-15.2738
21
12.8955
0
LINE
8
BLACK
6
CONTINUOUS
10
-15.2738
20
12.8955
11
-15.3214
21
12.8717
0
LINE
8
BLACK
6
CONTINUOUS
10
-15.3214
20
12.8717
11
-15.333
21
12.8708
0
LINE
8
BLACK
6
CONTINUOUS
10
-15.333
20
12.8708
11
-15.3437
21
12.8664
0
LINE
8
BLACK
6
CONTINUOUS
10
-15.3437
20
12.8664
11
-15.4866
21
12.8664
0
LINE
8
BLACK
6
CONTINUOUS
10
-15.4866
20
12.8664
11
-15.4973
21
12.8708
0
LINE
8
BLACK
6
CONTINUOUS
10
-15.4973
20
12.8708
11
-15.509
21
12.8717
0
LINE
8
BLACK
6
CONTINUOUS
10
-15.509
20
12.8717
11
-15.5566
21
12.8955
0
LINE
8
BLACK
6
CONTINUOUS
10
-15.5566
20
12.8955
11
-15.562
21
12.9017
0
LINE
8
BLACK
6
CONTINUOUS
10
-15.562
20
12.9017
11
-15.5696
21
12.9048
0
LINE
8
BLACK
6
CONTINUOUS
10
-15.5696
20
12.9048
11
-15.5934
21
12.9287
0
LINE
8
BLACK
6
CONTINUOUS
10
-15.5934
20
12.9287
11
-15.608
21
12.964
0
LINE
8
BLACK
6
CONTINUOUS
10
-15.608
20
12.964
11
-15.5934
21
12.9994
0
LINE
8
BLACK
6
CONTINUOUS
10
-15.5934
20
12.9994
11
-15.558
21
13.014
0
LINE
8
BLACK
6
CONTINUOUS
10
-15.558
20
13.014
11
-15.5227
21
12.9994
0
LINE
8
BLACK
6
CONTINUOUS
10
-15.5227
20
12.9994
11
-15.5046
21
12.9813
0
LINE
8
BLACK
6
CONTINUOUS
10
-15.5046
20
12.9813
11
-15.4748
21
12.9664
0
LINE
8
BLACK
6
CONTINUOUS
10
-15.4748
20
12.9664
11
-15.3555
21
12.9664
0
LINE
8
BLACK
6
CONTINUOUS
10
-15.3555
20
12.9664
11
-15.3257
21
12.9813
0
LINE
8
BLACK
6
CONTINUOUS
10
-15.3257
20
12.9813
11
-15.3134
21
12.9936
0
LINE
8
BLACK
6
CONTINUOUS
10
-15.3134
20
12.9936
11
-15.2985
21
13.0234
0
LINE
8
BLACK
6
CONTINUOUS
10
-15.2985
20
13.0234
11
-15.2985
21
13.1189
0
LINE
8
BLACK
6
CONTINUOUS
10
-15.2985
20
13.1189
11
-15.3134
21
13.1487
0
LINE
8
BLACK
6
CONTINUOUS
10
-15.3134
20
13.1487
11
-15.3257
21
13.161
0
LINE
8
BLACK
6
CONTINUOUS
10
-15.3257
20
13.161
11
-15.3555
21
13.1759
0
LINE
8
BLACK
6
CONTINUOUS
10
-15.3555
20
13.1759
11
-15.4152
21
13.1759
0
LINE
8
BLACK
6
CONTINUOUS
10
-15.4152
20
13.1759
11
-15.4314
21
13.1826
0
LINE
8
BLACK
6
CONTINUOUS
10
-15.4314
20
13.1826
11
-15.4481
21
13.1883
0
LINE
8
BLACK
6
CONTINUOUS
10
-15.4481
20
13.1883
11
-15.4489
21
13.1899
0
LINE
8
BLACK
6
CONTINUOUS
10
-15.4489
20
13.1899
11
-15.4505
21
13.1906
0
LINE
8
BLACK
6
CONTINUOUS
10
-15.4505
20
13.1906
11
-15.4573
21
13.2068
0
LINE
8
BLACK
6
CONTINUOUS
10
-15.4573
20
13.2068
11
-15.4651
21
13.2226
0
LINE
8
BLACK
6
CONTINUOUS
10
-15.4651
20
13.2226
11
-15.4645
21
13.2243
0
LINE
8
BLACK
6
CONTINUOUS
10
-15.4645
20
13.2243
11
-15.4652
21
13.2259
0
LINE
8
BLACK
6
CONTINUOUS
10
-15.4652
20
13.2259
11
-15.4584
21
13.2422
0
LINE
8
BLACK
6
CONTINUOUS
10
-15.4584
20
13.2422
11
-15.4528
21
13.2588
0
LINE
8
BLACK
6
CONTINUOUS
10
-15.4528
20
13.2588
11
-15.3587
21
13.3664
0
LINE
8
BLACK
6
CONTINUOUS
10
-15.3587
20
13.3664
11
-15.558
21
13.3664
0
LINE
8
BLACK
6
CONTINUOUS
10
-15.558
20
13.3664
11
-15.5934
21
13.381
0
LINE
8
BLACK
6
CONTINUOUS
10
-15.5934
20
13.381
11
-15.608
21
13.4164
0
LINE
8
BLACK
6
CONTINUOUS
10
-15.608
20
13.4164
11
-15.5934
21
13.4517
0
LINE
8
BLACK
6
CONTINUOUS
10
-15.5934
20
13.4517
11
-15.558
21
13.4664
0
LINE
8
BLACK
6
CONTINUOUS
10
-15.558
20
13.4664
11
-15.2485
21
13.4664
0
LINE
8
BLACK
6
CONTINUOUS
10
-15.2485
20
13.4664
11
-15.2322
21
13.4597
0
LINE
8
BLACK
6
CONTINUOUS
10
-15.6323
20
13.4388
11
-15.6296
21
13.4006
0
LINE
8
BLACK
6
CONTINUOUS
10
-15.6296
20
13.4006
11
-15.7963
21
12.9006
0
LINE
8
BLACK
6
CONTINUOUS
10
-15.7963
20
12.9006
11
-15.7988
21
12.8978
0
LINE
8
BLACK
6
CONTINUOUS
10
-15.7988
20
12.8978
11
-15.799
21
12.894
0
LINE
8
BLACK
6
CONTINUOUS
10
-15.799
20
12.894
11
-15.811
21
12.8836
0
LINE
8
BLACK
6
CONTINUOUS
10
-15.811
20
12.8836
11
-15.8214
21
12.8717
0
LINE
8
BLACK
6
CONTINUOUS
10
-15.8214
20
12.8717
11
-15.8251
21
12.8714
0
LINE
8
BLACK
6
CONTINUOUS
10
-15.8251
20
12.8714
11
-15.8279
21
12.869
0
LINE
8
BLACK
6
CONTINUOUS
10
-15.8279
20
12.869
11
-15.8437
21
12.8701
0
LINE
8
BLACK
6
CONTINUOUS
10
-15.8437
20
12.8701
11
-15.8595
21
12.869
0
LINE
8
BLACK
6
CONTINUOUS
10
-15.8595
20
12.869
11
-15.8624
21
12.8714
0
LINE
8
BLACK
6
CONTINUOUS
10
-15.8624
20
12.8714
11
-15.8661
21
12.8717
0
LINE
8
BLACK
6
CONTINUOUS
10
-15.8661
20
12.8717
11
-15.8765
21
12.8836
0
LINE
8
BLACK
6
CONTINUOUS
10
-15.8765
20
12.8836
11
-15.8885
21
12.894
0
LINE
8
BLACK
6
CONTINUOUS
10
-15.8885
20
12.894
11
-15.8887
21
12.8978
0
LINE
8
BLACK
6
CONTINUOUS
10
-15.8887
20
12.8978
11
-15.8912
21
12.9006
0
LINE
8
BLACK
6
CONTINUOUS
10
-15.8912
20
12.9006
11
-16.0578
21
13.4006
0
LINE
8
BLACK
6
CONTINUOUS
10
-16.0578
20
13.4006
11
-16.0551
21
13.4388
0
LINE
8
BLACK
6
CONTINUOUS
10
-16.0551
20
13.4388
11
-16.0262
21
13.4638
0
LINE
8
BLACK
6
CONTINUOUS
10
-16.0262
20
13.4638
11
-15.988
21
13.4611
0
LINE
8
BLACK
6
CONTINUOUS
10
-15.988
20
13.4611
11
-15.963
21
13.4322
0
LINE
8
BLACK
6
CONTINUOUS
10
-15.963
20
13.4322
11
-15.8437
21
13.0745
0
LINE
8
BLACK
6
CONTINUOUS
10
-15.8437
20
13.0745
11
-15.7245
21
13.4322
0
LINE
8
BLACK
6
CONTINUOUS
10
-15.7245
20
13.4322
11
-15.6994
21
13.4611
0
LINE
8
BLACK
6
CONTINUOUS
10
-15.6994
20
13.4611
11
-15.6613
21
13.4638
0
LINE
8
BLACK
6
CONTINUOUS
10
-15.6613
20
13.4638
11
-15.6323
21
13.4388
0
LINE
8
BLACK
6
CONTINUOUS
10
-17.1
20
14.975
11
-12.3
21
14.975
0
LINE
8
BLACK
6
CONTINUOUS
10
-12.3
20
14.975
11
-12.2823
21
14.9677
0
LINE
8
BLACK
6
CONTINUOUS
10
-12.2823
20
14.9677
11
-12.275
21
14.95
0
LINE
8
BLACK
6
CONTINUOUS
10
-12.275
20
14.95
11
-12.275
21
12.95
0
LINE
8
BLACK
6
CONTINUOUS
10
-12.275
20
12.95
11
-12.2823
21
12.9323
0
LINE
8
BLACK
6
CONTINUOUS
10
-12.2823
20
12.9323
11
-12.3
21
12.925
0
LINE
8
BLACK
6
CONTINUOUS
10
-12.3
20
12.925
11
-12.875
21
12.925
0
LINE
8
BLACK
6
CONTINUOUS
10
-12.875
20
12.925
11
-12.875
21
8.65
0
LINE
8
BLACK
6
CONTINUOUS
10
-12.875
20
8.65
11
-12.8823
21
8.63232
0
LINE
8
BLACK
6
CONTINUOUS
10
-12.8823
20
8.63232
11
-12.9
21
8.625
0
LINE
8
BLACK
6
CONTINUOUS
10
-12.9
20
8.625
11
-15.175
21
8.625
0
LINE
8
BLACK
6
CONTINUOUS
10
-15.175
20
8.625
11
-15.175
21
8.15
0
LINE
8
BLACK
6
CONTINUOUS
10
-15.175
20
8.15
11
-15.1823
21
8.13232
0
LINE
8
BLACK
6
CONTINUOUS
10
-15.1823
20
8.13232
11
-15.2
21
8.125
0
LINE
8
BLACK
6
CONTINUOUS
10
-15.2
20
8.125
11
-17.1
21
8.125
0
LINE
8
BLACK
6
CONTINUOUS
10
-17.1
20
8.125
11
-19
21
8.125
0
LINE
8
BLACK
6
CONTINUOUS
10
-19
20
8.125
11
-19.0177
21
8.13232
0
LINE
8
BLACK
6
CONTINUOUS
10
-19.0177
20
8.13232
11
-19.025
21
8.15
0
LINE
8
BLACK
6
CONTINUOUS
10
-19.025
20
8.15
11
-19.025
21
8.625
0
LINE
8
BLACK
6
CONTINUOUS
10
-19.025
20
8.625
11
-21.3
21
8.625
0
LINE
8
BLACK
6
CONTINUOUS
10
-21.3
20
8.625
11
-21.3177
21
8.63232
0
LINE
8
BLACK
6
CONTINUOUS
10
-21.3177
20
8.63232
11
-21.325
21
8.65
0
LINE
8
BLACK
6
CONTINUOUS
10
-21.325
20
8.65
11
-21.325
21
12.925
0
LINE
8
BLACK
6
CONTINUOUS
10
-21.325
20
12.925
11
-21.9
21
12.925
0
LINE
8
BLACK
6
CONTINUOUS
10
-21.9
20
12.925
11
-21.9177
21
12.9323
0
LINE
8
BLACK
6
CONTINUOUS
10
-21.9177
20
12.9323
11
-21.925
21
12.95
0
LINE
8
BLACK
6
CONTINUOUS
10
-21.925
20
12.95
11
-21.925
21
14.95
0
LINE
8
BLACK
6
CONTINUOUS
10
-21.925
20
14.95
11
-21.9177
21
14.9677
0
LINE
8
BLACK
6
CONTINUOUS
10
-21.9177
20
14.9677
11
-21.9
21
14.975
0
LINE
8
BLACK
6
CONTINUOUS
10
-21.9
20
14.975
11
-17.1
21
14.975
0
LINE
8
BLACK
6
CONTINUOUS
10
-21.875
20
14.925
11
-21.875
21
12.975
0
LINE
8
BLACK
6
CONTINUOUS
10
-21.875
20
12.975
11
-21.3
21
12.975
0
LINE
8
BLACK
6
CONTINUOUS
10
-21.3
20
12.975
11
-21.2823
21
12.9677
0
LINE
8
BLACK
6
CONTINUOUS
10
-21.2823
20
12.9677
11
-21.275
21
12.95
0
LINE
8
BLACK
6
CONTINUOUS
10
-21.275
20
12.95
11
-21.275
21
8.675
0
LINE
8
BLACK
6
CONTINUOUS
10
-21.275
20
8.675
11
-19
21
8.675
0
LINE
8
BLACK
6
CONTINUOUS
10
-19
20
8.675
11
-18.9823
21
8.66768
0
LINE
8
BLACK
6
CONTINUOUS
10
-18.9823
20
8.66768
11
-18.975
21
8.65
0
LINE
8
BLACK
6
CONTINUOUS
10
-18.975
20
8.65
11
-18.975
21
8.175
0
LINE
8
BLACK
6
CONTINUOUS
10
-18.975
20
8.175
11
-17.1
21
8.175
0
LINE
8
BLACK
6
CONTINUOUS
10
-17.1
20
8.175
11
-15.225
21
8.175
0
LINE
8
BLACK
6
CONTINUOUS
10
-15.225
20
8.175
11
-15.225
21
8.65
0
LINE
8
BLACK
6
CONTINUOUS
10
-15.225
20
8.65
11
-15.2177
21
8.66768
0
LINE
8
BLACK
6
CONTINUOUS
10
-15.2177
20
8.66768
11
-15.2
21
8.675
0
LINE
8
BLACK
6
CONTINUOUS
10
-15.2
20
8.675
11
-12.925
21
8.675
0
LINE
8
BLACK
6
CONTINUOUS
10
-12.925
20
8.675
11
-12.925
21
12.95
0
LINE
8
BLACK
6
CONTINUOUS
10
-12.925
20
12.95
11
-12.9177
21
12.9677
0
LINE
8
BLACK
6
CONTINUOUS
10
-12.9177
20
12.9677
11
-12.9
21
12.975
0
LINE
8
BLACK
6
CONTINUOUS
10
-12.9
20
12.975
11
-12.325
21
12.975
0
LINE
8
BLACK
6
CONTINUOUS
10
-12.325
20
12.975
11
-12.325
21
14.925
0
LINE
8
BLACK
6
CONTINUOUS
10
-12.325
20
14.925
11
-17.1
21
14.925
0
LINE
8
BLACK
6
CONTINUOUS
10
-17.1
20
14.925
11
-21.875
21
14.925
  0
ENDSEC
  0
EOF
