  0
SECTION
  2
HEADER
  9
$ANGBASE
  50
0.0
  9
$ANGDIR
  70
1
  9
$MEASUREMENT
  70
1
  0
ENDSEC
  0
SECTION
  2
TABLES
  0
TABLE
  2
LTYPE
  70
4
  0
LTYPE
  5
40F
  2
CONTINUOUS
  70
0
  3
Solid line
  72
65
  73
0
  40
0.0
  0
LTYPE
  5
410
  2
DASHDOT
 70
0
  3
Dash Dot ____ _ ____ _
 72
65
 73
4
 40
2.0
 49
1.25
 49
-0.25
 49
0.25
 49
-0.25
  0
LTYPE
  5
411
  2
DASHED
 70
0
  3
Dashed __ __ __ __ __
 72
65
 73
2
 40
0.75
 49
0.5
 49
-0.25
  0
LTYPE
  5
43B
  2
DOTTED
 70
0
  3
Dotted .  .  .  .
 72
65
 73
2
 40
0.2
 49
0.0
 49
-0.2
  0
ENDTAB
  0
TABLE
  2
STYLE
  70
4
  0
STYLE
  2
KICAD
  70
0
  40
0
  41
1
  42
1
  50
0
  71
0
  3
isocp.shx
  0
STYLE
  2
KICADB
  70
0
  40
0
  41
1
  42
1
  50
0
  71
0
  3
isocp.shx
  0
STYLE
  2
KICADI
  70
0
  40
0
  41
1
  42
1
  50
15
  71
0
  3
isocp.shx
  0
STYLE
  2
KICADBI
  70
0
  40
0
  41
1
  42
1
  50
15
  71
0
  3
isocp.shx
  0
ENDTAB
  0
TABLE
  2
LAYER
  70
1
  0
LAYER
  2
BLACK
  70
0
  62
7
  6
CONTINUOUS
  0
ENDTAB
  0
ENDSEC
  0
SECTION
  2
ENTITIES
0
LINE
8
BLACK
6
CONTINUOUS
10
-4.95
20
-4.795
11
-4.93232
21
-4.80232
0
LINE
8
BLACK
6
CONTINUOUS
10
-4.93232
20
-4.80232
11
-4.925
21
-4.82
0
LINE
8
BLACK
6
CONTINUOUS
10
-4.925
20
-4.82
11
-4.925
21
-5.22
0
LINE
8
BLACK
6
CONTINUOUS
10
-4.925
20
-5.22
11
-4.93232
21
-5.23768
0
LINE
8
BLACK
6
CONTINUOUS
10
-4.93232
20
-5.23768
11
-4.95
21
-5.245
0
LINE
8
BLACK
6
CONTINUOUS
10
-4.95
20
-5.245
11
-5.35
21
-5.245
0
LINE
8
BLACK
6
CONTINUOUS
10
-5.35
20
-5.245
11
-5.36768
21
-5.23768
0
LINE
8
BLACK
6
CONTINUOUS
10
-5.36768
20
-5.23768
11
-5.375
21
-5.22
0
LINE
8
BLACK
6
CONTINUOUS
10
-5.375
20
-5.22
11
-5.375
21
-4.82
0
LINE
8
BLACK
6
CONTINUOUS
10
-5.375
20
-4.82
11
-5.36768
21
-4.80232
0
LINE
8
BLACK
6
CONTINUOUS
10
-5.36768
20
-4.80232
11
-5.35
21
-4.795
0
LINE
8
BLACK
6
CONTINUOUS
10
-5.35
20
-4.795
11
-4.95
21
-4.795
0
LINE
8
BLACK
6
CONTINUOUS
10
-5.325
20
-4.845
11
-5.325
21
-5.195
0
LINE
8
BLACK
6
CONTINUOUS
10
-5.325
20
-5.195
11
-4.975
21
-5.195
0
LINE
8
BLACK
6
CONTINUOUS
10
-4.975
20
-5.195
11
-4.975
21
-4.845
0
LINE
8
BLACK
6
CONTINUOUS
10
-4.975
20
-4.845
11
-5.325
21
-4.845
0
LINE
8
BLACK
6
CONTINUOUS
10
-3
20
-1.125
11
-2.98232
21
-1.13232
0
LINE
8
BLACK
6
CONTINUOUS
10
-2.98232
20
-1.13232
11
-2.975
21
-1.15
0
LINE
8
BLACK
6
CONTINUOUS
10
-2.975
20
-1.15
11
-2.975
21
-4.65
0
LINE
8
BLACK
6
CONTINUOUS
10
-2.975
20
-4.65
11
-2.98232
21
-4.66768
0
LINE
8
BLACK
6
CONTINUOUS
10
-2.98232
20
-4.66768
11
-3
21
-4.675
0
LINE
8
BLACK
6
CONTINUOUS
10
-3
20
-4.675
11
-6.5
21
-4.675
0
LINE
8
BLACK
6
CONTINUOUS
10
-6.5
20
-4.675
11
-6.51768
21
-4.66768
0
LINE
8
BLACK
6
CONTINUOUS
10
-6.51768
20
-4.66768
11
-6.525
21
-4.65
0
LINE
8
BLACK
6
CONTINUOUS
10
-6.525
20
-4.65
11
-6.525
21
-1.15
0
LINE
8
BLACK
6
CONTINUOUS
10
-6.525
20
-1.15
11
-6.51768
21
-1.13232
0
LINE
8
BLACK
6
CONTINUOUS
10
-6.51768
20
-1.13232
11
-6.5
21
-1.125
0
LINE
8
BLACK
6
CONTINUOUS
10
-6.5
20
-1.125
11
-3
21
-1.125
0
LINE
8
BLACK
6
CONTINUOUS
10
-6.475
20
-1.175
11
-6.475
21
-4.625
0
LINE
8
BLACK
6
CONTINUOUS
10
-6.475
20
-4.625
11
-3.025
21
-4.625
0
LINE
8
BLACK
6
CONTINUOUS
10
-3.025
20
-4.625
11
-3.025
21
-1.175
0
LINE
8
BLACK
6
CONTINUOUS
10
-3.025
20
-1.175
11
-6.475
21
-1.175
0
LINE
8
BLACK
6
CONTINUOUS
10
-0.14412
20
-3.63289
11
-0.0175
21
-3.68534
0
LINE
8
BLACK
6
CONTINUOUS
10
-0.0175
20
-3.68534
11
0.091231
21
-3.76877
0
LINE
8
BLACK
6
CONTINUOUS
10
0.091231
20
-3.76877
11
0.174663
21
-3.8775
0
LINE
8
BLACK
6
CONTINUOUS
10
0.174663
20
-3.8775
11
0.227111
21
-4.00412
0
LINE
8
BLACK
6
CONTINUOUS
10
0.227111
20
-4.00412
11
0.245
21
-4.14
0
LINE
8
BLACK
6
CONTINUOUS
10
0.245
20
-4.14
11
0.227111
21
-4.27588
0
LINE
8
BLACK
6
CONTINUOUS
10
0.227111
20
-4.27588
11
0.174663
21
-4.4025
0
LINE
8
BLACK
6
CONTINUOUS
10
0.174663
20
-4.4025
11
0.091231
21
-4.51123
0
LINE
8
BLACK
6
CONTINUOUS
10
0.091231
20
-4.51123
11
-0.0175
21
-4.59466
0
LINE
8
BLACK
6
CONTINUOUS
10
-0.0175
20
-4.59466
11
-0.14412
21
-4.64711
0
LINE
8
BLACK
6
CONTINUOUS
10
-0.14412
20
-4.64711
11
-0.28
21
-4.665
0
LINE
8
BLACK
6
CONTINUOUS
10
-0.28
20
-4.665
11
-0.41588
21
-4.64711
0
LINE
8
BLACK
6
CONTINUOUS
10
-0.41588
20
-4.64711
11
-0.5425
21
-4.59466
0
LINE
8
BLACK
6
CONTINUOUS
10
-0.5425
20
-4.59466
11
-0.651231
21
-4.51123
0
LINE
8
BLACK
6
CONTINUOUS
10
-0.651231
20
-4.51123
11
-0.734663
21
-4.4025
0
LINE
8
BLACK
6
CONTINUOUS
10
-0.734663
20
-4.4025
11
-0.787111
21
-4.27588
0
LINE
8
BLACK
6
CONTINUOUS
10
-0.787111
20
-4.27588
11
-0.805
21
-4.14
0
LINE
8
BLACK
6
CONTINUOUS
10
-0.805
20
-4.14
11
-0.787111
21
-4.00412
0
LINE
8
BLACK
6
CONTINUOUS
10
-0.787111
20
-4.00412
11
-0.734663
21
-3.8775
0
LINE
8
BLACK
6
CONTINUOUS
10
-0.734663
20
-3.8775
11
-0.651231
21
-3.76877
0
LINE
8
BLACK
6
CONTINUOUS
10
-0.651231
20
-3.76877
11
-0.5425
21
-3.68534
0
LINE
8
BLACK
6
CONTINUOUS
10
-0.5425
20
-3.68534
11
-0.41588
21
-3.63289
0
LINE
8
BLACK
6
CONTINUOUS
10
-0.41588
20
-3.63289
11
-0.28
21
-3.615
0
LINE
8
BLACK
6
CONTINUOUS
10
-0.28
20
-3.615
11
-0.14412
21
-3.63289
0
LINE
8
BLACK
6
CONTINUOUS
10
-0.740446
20
-4.2752
11
-0.683705
21
-4.39945
0
LINE
8
BLACK
6
CONTINUOUS
10
-0.683705
20
-4.39945
11
-0.594258
21
-4.50267
0
LINE
8
BLACK
6
CONTINUOUS
10
-0.594258
20
-4.50267
11
-0.479351
21
-4.57652
0
LINE
8
BLACK
6
CONTINUOUS
10
-0.479351
20
-4.57652
11
-0.348295
21
-4.615
0
LINE
8
BLACK
6
CONTINUOUS
10
-0.348295
20
-4.615
11
-0.211705
21
-4.615
0
LINE
8
BLACK
6
CONTINUOUS
10
-0.211705
20
-4.615
11
-0.080649
21
-4.57652
0
LINE
8
BLACK
6
CONTINUOUS
10
-0.080649
20
-4.57652
11
0.034258
21
-4.50267
0
LINE
8
BLACK
6
CONTINUOUS
10
0.034258
20
-4.50267
11
0.123705
21
-4.39945
0
LINE
8
BLACK
6
CONTINUOUS
10
0.123705
20
-4.39945
11
0.180446
21
-4.2752
0
LINE
8
BLACK
6
CONTINUOUS
10
0.180446
20
-4.2752
11
0.199885
21
-4.14
0
LINE
8
BLACK
6
CONTINUOUS
10
0.199885
20
-4.14
11
0.180446
21
-4.0048
0
LINE
8
BLACK
6
CONTINUOUS
10
0.180446
20
-4.0048
11
0.123705
21
-3.88055
0
LINE
8
BLACK
6
CONTINUOUS
10
0.123705
20
-3.88055
11
0.034258
21
-3.77733
0
LINE
8
BLACK
6
CONTINUOUS
10
0.034258
20
-3.77733
11
-0.080649
21
-3.70348
0
LINE
8
BLACK
6
CONTINUOUS
10
-0.080649
20
-3.70348
11
-0.211705
21
-3.665
0
LINE
8
BLACK
6
CONTINUOUS
10
-0.211705
20
-3.665
11
-0.348295
21
-3.665
0
LINE
8
BLACK
6
CONTINUOUS
10
-0.348295
20
-3.665
11
-0.479351
21
-3.70348
0
LINE
8
BLACK
6
CONTINUOUS
10
-0.479351
20
-3.70348
11
-0.594258
21
-3.77733
0
LINE
8
BLACK
6
CONTINUOUS
10
-0.594258
20
-3.77733
11
-0.683705
21
-3.88055
0
LINE
8
BLACK
6
CONTINUOUS
10
-0.683705
20
-3.88055
11
-0.740446
21
-4.0048
0
LINE
8
BLACK
6
CONTINUOUS
10
-0.740446
20
-4.0048
11
-0.759885
21
-4.14
0
LINE
8
BLACK
6
CONTINUOUS
10
-0.759885
20
-4.14
11
-0.740446
21
-4.2752
0
LINE
8
BLACK
6
CONTINUOUS
10
-2.35
20
-3.595
11
-2.33232
21
-3.60232
0
LINE
8
BLACK
6
CONTINUOUS
10
-2.33232
20
-3.60232
11
-2.325
21
-3.62
0
LINE
8
BLACK
6
CONTINUOUS
10
-2.325
20
-3.62
11
-2.325
21
-4.02
0
LINE
8
BLACK
6
CONTINUOUS
10
-2.325
20
-4.02
11
-2.33232
21
-4.03768
0
LINE
8
BLACK
6
CONTINUOUS
10
-2.33232
20
-4.03768
11
-2.35
21
-4.045
0
LINE
8
BLACK
6
CONTINUOUS
10
-2.35
20
-4.045
11
-2.75
21
-4.045
0
LINE
8
BLACK
6
CONTINUOUS
10
-2.75
20
-4.045
11
-2.76768
21
-4.03768
0
LINE
8
BLACK
6
CONTINUOUS
10
-2.76768
20
-4.03768
11
-2.775
21
-4.02
0
LINE
8
BLACK
6
CONTINUOUS
10
-2.775
20
-4.02
11
-2.775
21
-3.62
0
LINE
8
BLACK
6
CONTINUOUS
10
-2.775
20
-3.62
11
-2.76768
21
-3.60232
0
LINE
8
BLACK
6
CONTINUOUS
10
-2.76768
20
-3.60232
11
-2.75
21
-3.595
0
LINE
8
BLACK
6
CONTINUOUS
10
-2.75
20
-3.595
11
-2.35
21
-3.595
0
LINE
8
BLACK
6
CONTINUOUS
10
-2.725
20
-3.645
11
-2.725
21
-3.995
0
LINE
8
BLACK
6
CONTINUOUS
10
-2.725
20
-3.995
11
-2.375
21
-3.995
0
LINE
8
BLACK
6
CONTINUOUS
10
-2.375
20
-3.995
11
-2.375
21
-3.645
0
LINE
8
BLACK
6
CONTINUOUS
10
-2.375
20
-3.645
11
-2.725
21
-3.645
0
LINE
8
BLACK
6
CONTINUOUS
10
-1.1448
20
3.99608
11
4.13403
21
0.160781
0
LINE
8
BLACK
6
CONTINUOUS
10
4.13403
20
0.160781
11
4.15803
21
0.121626
0
LINE
8
BLACK
6
CONTINUOUS
10
4.15803
20
0.121626
11
4.14731
21
0.076973
0
LINE
8
BLACK
6
CONTINUOUS
10
4.14731
20
0.076973
11
1.17899
21
-4.00856
0
LINE
8
BLACK
6
CONTINUOUS
10
1.17899
20
-4.00856
11
1.13984
21
-4.03256
0
LINE
8
BLACK
6
CONTINUOUS
10
1.13984
20
-4.03256
11
1.09519
21
-4.02184
0
LINE
8
BLACK
6
CONTINUOUS
10
1.09519
20
-4.02184
11
-3.795
21
-0.468908
0
LINE
8
BLACK
6
CONTINUOUS
10
-3.795
20
-0.468908
11
-3.795
21
-0.99
0
LINE
8
BLACK
6
CONTINUOUS
10
-3.795
20
-0.99
11
-3.80232
21
-1.00768
0
LINE
8
BLACK
6
CONTINUOUS
10
-3.80232
20
-1.00768
11
-3.82
21
-1.015
0
LINE
8
BLACK
6
CONTINUOUS
10
-3.82
20
-1.015
11
-4.82
21
-1.015
0
LINE
8
BLACK
6
CONTINUOUS
10
-4.82
20
-1.015
11
-4.83768
21
-1.00768
0
LINE
8
BLACK
6
CONTINUOUS
10
-4.83768
20
-1.00768
11
-4.845
21
-0.99
0
LINE
8
BLACK
6
CONTINUOUS
10
-4.845
20
-0.99
11
-4.845
21
-0.39
0
LINE
8
BLACK
6
CONTINUOUS
10
-4.845
20
-0.39
11
-4.83768
21
-0.372322
0
LINE
8
BLACK
6
CONTINUOUS
10
-4.83768
20
-0.372322
11
-4.82
21
-0.365
0
LINE
8
BLACK
6
CONTINUOUS
10
-4.82
20
-0.365
11
-3.93802
21
-0.365
0
LINE
8
BLACK
6
CONTINUOUS
10
-3.93802
20
-0.365
11
-4.18365
21
-0.186538
0
LINE
8
BLACK
6
CONTINUOUS
10
-4.18365
20
-0.186538
11
-4.20764
21
-0.147383
0
LINE
8
BLACK
6
CONTINUOUS
10
-4.20764
20
-0.147383
11
-4.19692
21
-0.10273
0
LINE
8
BLACK
6
CONTINUOUS
10
-4.19692
20
-0.10273
11
-1.22861
21
3.98281
0
LINE
8
BLACK
6
CONTINUOUS
10
-1.22861
20
3.98281
11
-1.18945
21
4.0068
0
LINE
8
BLACK
6
CONTINUOUS
10
-1.18945
20
4.0068
11
-1.1448
21
3.99608
0
LINE
8
BLACK
6
CONTINUOUS
10
-4.06457
20
-0.124723
11
1.11718
21
-3.88949
0
LINE
8
BLACK
6
CONTINUOUS
10
1.11718
20
-3.88949
11
4.01496
21
0.098967
0
LINE
8
BLACK
6
CONTINUOUS
10
4.01496
20
0.098967
11
-1.1668
21
3.86373
0
LINE
8
BLACK
6
CONTINUOUS
10
-1.1668
20
3.86373
11
-4.06457
21
-0.124723
0
LINE
8
BLACK
6
CONTINUOUS
10
-4.795
20
-0.415
11
-4.795
21
-0.965
0
LINE
8
BLACK
6
CONTINUOUS
10
-4.795
20
-0.965
11
-3.845
21
-0.965
0
LINE
8
BLACK
6
CONTINUOUS
10
-3.845
20
-0.965
11
-3.845
21
-0.432581
0
LINE
8
BLACK
6
CONTINUOUS
10
-3.845
20
-0.432581
11
-3.8692
21
-0.415
0
LINE
8
BLACK
6
CONTINUOUS
10
-3.8692
20
-0.415
11
-4.795
21
-0.415
0
LINE
8
BLACK
6
CONTINUOUS
10
-2.35
20
-2.215
11
-2.33232
21
-2.22232
0
LINE
8
BLACK
6
CONTINUOUS
10
-2.33232
20
-2.22232
11
-2.325
21
-2.24
0
LINE
8
BLACK
6
CONTINUOUS
10
-2.325
20
-2.24
11
-2.325
21
-2.64
0
LINE
8
BLACK
6
CONTINUOUS
10
-2.325
20
-2.64
11
-2.33232
21
-2.65768
0
LINE
8
BLACK
6
CONTINUOUS
10
-2.33232
20
-2.65768
11
-2.35
21
-2.665
0
LINE
8
BLACK
6
CONTINUOUS
10
-2.35
20
-2.665
11
-2.75
21
-2.665
0
LINE
8
BLACK
6
CONTINUOUS
10
-2.75
20
-2.665
11
-2.76768
21
-2.65768
0
LINE
8
BLACK
6
CONTINUOUS
10
-2.76768
20
-2.65768
11
-2.775
21
-2.64
0
LINE
8
BLACK
6
CONTINUOUS
10
-2.775
20
-2.64
11
-2.775
21
-2.24
0
LINE
8
BLACK
6
CONTINUOUS
10
-2.775
20
-2.24
11
-2.76768
21
-2.22232
0
LINE
8
BLACK
6
CONTINUOUS
10
-2.76768
20
-2.22232
11
-2.75
21
-2.215
0
LINE
8
BLACK
6
CONTINUOUS
10
-2.75
20
-2.215
11
-2.35
21
-2.215
0
LINE
8
BLACK
6
CONTINUOUS
10
-2.725
20
-2.265
11
-2.725
21
-2.615
0
LINE
8
BLACK
6
CONTINUOUS
10
-2.725
20
-2.615
11
-2.375
21
-2.615
0
LINE
8
BLACK
6
CONTINUOUS
10
-2.375
20
-2.615
11
-2.375
21
-2.265
0
LINE
8
BLACK
6
CONTINUOUS
10
-2.375
20
-2.265
11
-2.725
21
-2.265
0
LINE
8
BLACK
6
CONTINUOUS
10
-4.27
20
0.315
11
-4.25232
21
0.307678
0
LINE
8
BLACK
6
CONTINUOUS
10
-4.25232
20
0.307678
11
-4.245
21
0.29
0
LINE
8
BLACK
6
CONTINUOUS
10
-4.245
20
0.29
11
-4.245
21
-0.11
0
LINE
8
BLACK
6
CONTINUOUS
10
-4.245
20
-0.11
11
-4.25232
21
-0.127678
0
LINE
8
BLACK
6
CONTINUOUS
10
-4.25232
20
-0.127678
11
-4.27
21
-0.135
0
LINE
8
BLACK
6
CONTINUOUS
10
-4.27
20
-0.135
11
-4.67
21
-0.135
0
LINE
8
BLACK
6
CONTINUOUS
10
-4.67
20
-0.135
11
-4.68768
21
-0.127678
0
LINE
8
BLACK
6
CONTINUOUS
10
-4.68768
20
-0.127678
11
-4.695
21
-0.11
0
LINE
8
BLACK
6
CONTINUOUS
10
-4.695
20
-0.11
11
-4.695
21
0.29
0
LINE
8
BLACK
6
CONTINUOUS
10
-4.695
20
0.29
11
-4.68768
21
0.307678
0
LINE
8
BLACK
6
CONTINUOUS
10
-4.68768
20
0.307678
11
-4.67
21
0.315
0
LINE
8
BLACK
6
CONTINUOUS
10
-4.67
20
0.315
11
-4.27
21
0.315
0
LINE
8
BLACK
6
CONTINUOUS
10
-4.645
20
0.265
11
-4.645
21
-0.085
0
LINE
8
BLACK
6
CONTINUOUS
10
-4.645
20
-0.085
11
-4.295
21
-0.085
0
LINE
8
BLACK
6
CONTINUOUS
10
-4.295
20
-0.085
11
-4.295
21
0.265
0
LINE
8
BLACK
6
CONTINUOUS
10
-4.295
20
0.265
11
-4.645
21
0.265
0
LINE
8
BLACK
6
CONTINUOUS
10
-17.0641
20
11.0481
11
-16.9375
21
10.9957
0
LINE
8
BLACK
6
CONTINUOUS
10
-16.9375
20
10.9957
11
-16.8288
21
10.9122
0
LINE
8
BLACK
6
CONTINUOUS
10
-16.8288
20
10.9122
11
-16.7453
21
10.8035
0
LINE
8
BLACK
6
CONTINUOUS
10
-16.7453
20
10.8035
11
-16.6929
21
10.6769
0
LINE
8
BLACK
6
CONTINUOUS
10
-16.6929
20
10.6769
11
-16.675
21
10.541
0
LINE
8
BLACK
6
CONTINUOUS
10
-16.675
20
10.541
11
-16.6929
21
10.4051
0
LINE
8
BLACK
6
CONTINUOUS
10
-16.6929
20
10.4051
11
-16.7453
21
10.2785
0
LINE
8
BLACK
6
CONTINUOUS
10
-16.7453
20
10.2785
11
-16.8288
21
10.1698
0
LINE
8
BLACK
6
CONTINUOUS
10
-16.8288
20
10.1698
11
-16.9375
21
10.0863
0
LINE
8
BLACK
6
CONTINUOUS
10
-16.9375
20
10.0863
11
-17.0641
21
10.0339
0
LINE
8
BLACK
6
CONTINUOUS
10
-17.0641
20
10.0339
11
-17.2
21
10.016
0
LINE
8
BLACK
6
CONTINUOUS
10
-17.2
20
10.016
11
-17.3359
21
10.0339
0
LINE
8
BLACK
6
CONTINUOUS
10
-17.3359
20
10.0339
11
-17.4625
21
10.0863
0
LINE
8
BLACK
6
CONTINUOUS
10
-17.4625
20
10.0863
11
-17.5712
21
10.1698
0
LINE
8
BLACK
6
CONTINUOUS
10
-17.5712
20
10.1698
11
-17.6547
21
10.2785
0
LINE
8
BLACK
6
CONTINUOUS
10
-17.6547
20
10.2785
11
-17.7071
21
10.4051
0
LINE
8
BLACK
6
CONTINUOUS
10
-17.7071
20
10.4051
11
-17.725
21
10.541
0
LINE
8
BLACK
6
CONTINUOUS
10
-17.725
20
10.541
11
-17.7071
21
10.6769
0
LINE
8
BLACK
6
CONTINUOUS
10
-17.7071
20
10.6769
11
-17.6547
21
10.8035
0
LINE
8
BLACK
6
CONTINUOUS
10
-17.6547
20
10.8035
11
-17.5712
21
10.9122
0
LINE
8
BLACK
6
CONTINUOUS
10
-17.5712
20
10.9122
11
-17.4625
21
10.9957
0
LINE
8
BLACK
6
CONTINUOUS
10
-17.4625
20
10.9957
11
-17.3359
21
11.0481
0
LINE
8
BLACK
6
CONTINUOUS
10
-17.3359
20
11.0481
11
-17.2
21
11.066
0
LINE
8
BLACK
6
CONTINUOUS
10
-17.2
20
11.066
11
-17.0641
21
11.0481
0
LINE
8
BLACK
6
CONTINUOUS
10
-17.6604
20
10.4058
11
-17.6037
21
10.2816
0
LINE
8
BLACK
6
CONTINUOUS
10
-17.6037
20
10.2816
11
-17.5143
21
10.1783
0
LINE
8
BLACK
6
CONTINUOUS
10
-17.5143
20
10.1783
11
-17.3994
21
10.1045
0
LINE
8
BLACK
6
CONTINUOUS
10
-17.3994
20
10.1045
11
-17.2683
21
10.066
0
LINE
8
BLACK
6
CONTINUOUS
10
-17.2683
20
10.066
11
-17.1317
21
10.066
0
LINE
8
BLACK
6
CONTINUOUS
10
-17.1317
20
10.066
11
-17.0006
21
10.1045
0
LINE
8
BLACK
6
CONTINUOUS
10
-17.0006
20
10.1045
11
-16.8857
21
10.1783
0
LINE
8
BLACK
6
CONTINUOUS
10
-16.8857
20
10.1783
11
-16.7963
21
10.2816
0
LINE
8
BLACK
6
CONTINUOUS
10
-16.7963
20
10.2816
11
-16.7396
21
10.4058
0
LINE
8
BLACK
6
CONTINUOUS
10
-16.7396
20
10.4058
11
-16.7201
21
10.541
0
LINE
8
BLACK
6
CONTINUOUS
10
-16.7201
20
10.541
11
-16.7396
21
10.6762
0
LINE
8
BLACK
6
CONTINUOUS
10
-16.7396
20
10.6762
11
-16.7963
21
10.8004
0
LINE
8
BLACK
6
CONTINUOUS
10
-16.7963
20
10.8004
11
-16.8857
21
10.9037
0
LINE
8
BLACK
6
CONTINUOUS
10
-16.8857
20
10.9037
11
-17.0006
21
10.9775
0
LINE
8
BLACK
6
CONTINUOUS
10
-17.0006
20
10.9775
11
-17.1317
21
11.016
0
LINE
8
BLACK
6
CONTINUOUS
10
-17.1317
20
11.016
11
-17.2683
21
11.016
0
LINE
8
BLACK
6
CONTINUOUS
10
-17.2683
20
11.016
11
-17.3994
21
10.9775
0
LINE
8
BLACK
6
CONTINUOUS
10
-17.3994
20
10.9775
11
-17.5143
21
10.9037
0
LINE
8
BLACK
6
CONTINUOUS
10
-17.5143
20
10.9037
11
-17.6037
21
10.8004
0
LINE
8
BLACK
6
CONTINUOUS
10
-17.6037
20
10.8004
11
-17.6604
21
10.6762
0
LINE
8
BLACK
6
CONTINUOUS
10
-17.6604
20
10.6762
11
-17.6799
21
10.541
0
LINE
8
BLACK
6
CONTINUOUS
10
-17.6799
20
10.541
11
-17.6604
21
10.4058
0
LINE
8
BLACK
6
CONTINUOUS
10
-17.0541
20
12.3171
11
-16.9275
21
12.2647
0
LINE
8
BLACK
6
CONTINUOUS
10
-16.9275
20
12.2647
11
-16.8188
21
12.1812
0
LINE
8
BLACK
6
CONTINUOUS
10
-16.8188
20
12.1812
11
-16.7353
21
12.0725
0
LINE
8
BLACK
6
CONTINUOUS
10
-16.7353
20
12.0725
11
-16.6829
21
11.9459
0
LINE
8
BLACK
6
CONTINUOUS
10
-16.6829
20
11.9459
11
-16.665
21
11.81
0
LINE
8
BLACK
6
CONTINUOUS
10
-16.665
20
11.81
11
-16.6829
21
11.6741
0
LINE
8
BLACK
6
CONTINUOUS
10
-16.6829
20
11.6741
11
-16.7353
21
11.5475
0
LINE
8
BLACK
6
CONTINUOUS
10
-16.7353
20
11.5475
11
-16.8188
21
11.4388
0
LINE
8
BLACK
6
CONTINUOUS
10
-16.8188
20
11.4388
11
-16.9275
21
11.3553
0
LINE
8
BLACK
6
CONTINUOUS
10
-16.9275
20
11.3553
11
-17.0541
21
11.3029
0
LINE
8
BLACK
6
CONTINUOUS
10
-17.0541
20
11.3029
11
-17.19
21
11.285
0
LINE
8
BLACK
6
CONTINUOUS
10
-17.19
20
11.285
11
-17.3259
21
11.3029
0
LINE
8
BLACK
6
CONTINUOUS
10
-17.3259
20
11.3029
11
-17.4525
21
11.3553
0
LINE
8
BLACK
6
CONTINUOUS
10
-17.4525
20
11.3553
11
-17.5612
21
11.4388
0
LINE
8
BLACK
6
CONTINUOUS
10
-17.5612
20
11.4388
11
-17.6447
21
11.5475
0
LINE
8
BLACK
6
CONTINUOUS
10
-17.6447
20
11.5475
11
-17.6971
21
11.6741
0
LINE
8
BLACK
6
CONTINUOUS
10
-17.6971
20
11.6741
11
-17.715
21
11.81
0
LINE
8
BLACK
6
CONTINUOUS
10
-17.715
20
11.81
11
-17.6971
21
11.9459
0
LINE
8
BLACK
6
CONTINUOUS
10
-17.6971
20
11.9459
11
-17.6447
21
12.0725
0
LINE
8
BLACK
6
CONTINUOUS
10
-17.6447
20
12.0725
11
-17.5612
21
12.1812
0
LINE
8
BLACK
6
CONTINUOUS
10
-17.5612
20
12.1812
11
-17.4525
21
12.2647
0
LINE
8
BLACK
6
CONTINUOUS
10
-17.4525
20
12.2647
11
-17.3259
21
12.3171
0
LINE
8
BLACK
6
CONTINUOUS
10
-17.3259
20
12.3171
11
-17.19
21
12.335
0
LINE
8
BLACK
6
CONTINUOUS
10
-17.19
20
12.335
11
-17.0541
21
12.3171
0
LINE
8
BLACK
6
CONTINUOUS
10
-17.6504
20
11.6748
11
-17.5937
21
11.5506
0
LINE
8
BLACK
6
CONTINUOUS
10
-17.5937
20
11.5506
11
-17.5043
21
11.4473
0
LINE
8
BLACK
6
CONTINUOUS
10
-17.5043
20
11.4473
11
-17.3894
21
11.3735
0
LINE
8
BLACK
6
CONTINUOUS
10
-17.3894
20
11.3735
11
-17.2583
21
11.335
0
LINE
8
BLACK
6
CONTINUOUS
10
-17.2583
20
11.335
11
-17.1217
21
11.335
0
LINE
8
BLACK
6
CONTINUOUS
10
-17.1217
20
11.335
11
-16.9906
21
11.3735
0
LINE
8
BLACK
6
CONTINUOUS
10
-16.9906
20
11.3735
11
-16.8757
21
11.4473
0
LINE
8
BLACK
6
CONTINUOUS
10
-16.8757
20
11.4473
11
-16.7863
21
11.5506
0
LINE
8
BLACK
6
CONTINUOUS
10
-16.7863
20
11.5506
11
-16.7296
21
11.6748
0
LINE
8
BLACK
6
CONTINUOUS
10
-16.7296
20
11.6748
11
-16.7101
21
11.81
0
LINE
8
BLACK
6
CONTINUOUS
10
-16.7101
20
11.81
11
-16.7296
21
11.9452
0
LINE
8
BLACK
6
CONTINUOUS
10
-16.7296
20
11.9452
11
-16.7863
21
12.0694
0
LINE
8
BLACK
6
CONTINUOUS
10
-16.7863
20
12.0694
11
-16.8757
21
12.1727
0
LINE
8
BLACK
6
CONTINUOUS
10
-16.8757
20
12.1727
11
-16.9906
21
12.2465
0
LINE
8
BLACK
6
CONTINUOUS
10
-16.9906
20
12.2465
11
-17.1217
21
12.285
0
LINE
8
BLACK
6
CONTINUOUS
10
-17.1217
20
12.285
11
-17.2583
21
12.285
0
LINE
8
BLACK
6
CONTINUOUS
10
-17.2583
20
12.285
11
-17.3894
21
12.2465
0
LINE
8
BLACK
6
CONTINUOUS
10
-17.3894
20
12.2465
11
-17.5043
21
12.1727
0
LINE
8
BLACK
6
CONTINUOUS
10
-17.5043
20
12.1727
11
-17.5937
21
12.0694
0
LINE
8
BLACK
6
CONTINUOUS
10
-17.5937
20
12.0694
11
-17.6504
21
11.9452
0
LINE
8
BLACK
6
CONTINUOUS
10
-17.6504
20
11.9452
11
-17.6699
21
11.81
0
LINE
8
BLACK
6
CONTINUOUS
10
-17.6699
20
11.81
11
-17.6504
21
11.6748
0
LINE
8
BLACK
6
CONTINUOUS
10
-17.0541
20
13.5871
11
-16.9275
21
13.5347
0
LINE
8
BLACK
6
CONTINUOUS
10
-16.9275
20
13.5347
11
-16.8188
21
13.4512
0
LINE
8
BLACK
6
CONTINUOUS
10
-16.8188
20
13.4512
11
-16.7353
21
13.3425
0
LINE
8
BLACK
6
CONTINUOUS
10
-16.7353
20
13.3425
11
-16.6829
21
13.2159
0
LINE
8
BLACK
6
CONTINUOUS
10
-16.6829
20
13.2159
11
-16.665
21
13.08
0
LINE
8
BLACK
6
CONTINUOUS
10
-16.665
20
13.08
11
-16.6829
21
12.9441
0
LINE
8
BLACK
6
CONTINUOUS
10
-16.6829
20
12.9441
11
-16.7353
21
12.8175
0
LINE
8
BLACK
6
CONTINUOUS
10
-16.7353
20
12.8175
11
-16.8188
21
12.7088
0
LINE
8
BLACK
6
CONTINUOUS
10
-16.8188
20
12.7088
11
-16.9275
21
12.6253
0
LINE
8
BLACK
6
CONTINUOUS
10
-16.9275
20
12.6253
11
-17.0541
21
12.5729
0
LINE
8
BLACK
6
CONTINUOUS
10
-17.0541
20
12.5729
11
-17.19
21
12.555
0
LINE
8
BLACK
6
CONTINUOUS
10
-17.19
20
12.555
11
-17.3259
21
12.5729
0
LINE
8
BLACK
6
CONTINUOUS
10
-17.3259
20
12.5729
11
-17.4525
21
12.6253
0
LINE
8
BLACK
6
CONTINUOUS
10
-17.4525
20
12.6253
11
-17.5612
21
12.7088
0
LINE
8
BLACK
6
CONTINUOUS
10
-17.5612
20
12.7088
11
-17.6447
21
12.8175
0
LINE
8
BLACK
6
CONTINUOUS
10
-17.6447
20
12.8175
11
-17.6971
21
12.9441
0
LINE
8
BLACK
6
CONTINUOUS
10
-17.6971
20
12.9441
11
-17.715
21
13.08
0
LINE
8
BLACK
6
CONTINUOUS
10
-17.715
20
13.08
11
-17.6971
21
13.2159
0
LINE
8
BLACK
6
CONTINUOUS
10
-17.6971
20
13.2159
11
-17.6447
21
13.3425
0
LINE
8
BLACK
6
CONTINUOUS
10
-17.6447
20
13.3425
11
-17.5612
21
13.4512
0
LINE
8
BLACK
6
CONTINUOUS
10
-17.5612
20
13.4512
11
-17.4525
21
13.5347
0
LINE
8
BLACK
6
CONTINUOUS
10
-17.4525
20
13.5347
11
-17.3259
21
13.5871
0
LINE
8
BLACK
6
CONTINUOUS
10
-17.3259
20
13.5871
11
-17.19
21
13.605
0
LINE
8
BLACK
6
CONTINUOUS
10
-17.19
20
13.605
11
-17.0541
21
13.5871
0
LINE
8
BLACK
6
CONTINUOUS
10
-17.6504
20
12.9448
11
-17.5937
21
12.8206
0
LINE
8
BLACK
6
CONTINUOUS
10
-17.5937
20
12.8206
11
-17.5043
21
12.7173
0
LINE
8
BLACK
6
CONTINUOUS
10
-17.5043
20
12.7173
11
-17.3894
21
12.6435
0
LINE
8
BLACK
6
CONTINUOUS
10
-17.3894
20
12.6435
11
-17.2583
21
12.605
0
LINE
8
BLACK
6
CONTINUOUS
10
-17.2583
20
12.605
11
-17.1217
21
12.605
0
LINE
8
BLACK
6
CONTINUOUS
10
-17.1217
20
12.605
11
-16.9906
21
12.6435
0
LINE
8
BLACK
6
CONTINUOUS
10
-16.9906
20
12.6435
11
-16.8757
21
12.7173
0
LINE
8
BLACK
6
CONTINUOUS
10
-16.8757
20
12.7173
11
-16.7863
21
12.8206
0
LINE
8
BLACK
6
CONTINUOUS
10
-16.7863
20
12.8206
11
-16.7296
21
12.9448
0
LINE
8
BLACK
6
CONTINUOUS
10
-16.7296
20
12.9448
11
-16.7101
21
13.08
0
LINE
8
BLACK
6
CONTINUOUS
10
-16.7101
20
13.08
11
-16.7296
21
13.2152
0
LINE
8
BLACK
6
CONTINUOUS
10
-16.7296
20
13.2152
11
-16.7863
21
13.3394
0
LINE
8
BLACK
6
CONTINUOUS
10
-16.7863
20
13.3394
11
-16.8757
21
13.4427
0
LINE
8
BLACK
6
CONTINUOUS
10
-16.8757
20
13.4427
11
-16.9906
21
13.5165
0
LINE
8
BLACK
6
CONTINUOUS
10
-16.9906
20
13.5165
11
-17.1217
21
13.555
0
LINE
8
BLACK
6
CONTINUOUS
10
-17.1217
20
13.555
11
-17.2583
21
13.555
0
LINE
8
BLACK
6
CONTINUOUS
10
-17.2583
20
13.555
11
-17.3894
21
13.5165
0
LINE
8
BLACK
6
CONTINUOUS
10
-17.3894
20
13.5165
11
-17.5043
21
13.4427
0
LINE
8
BLACK
6
CONTINUOUS
10
-17.5043
20
13.4427
11
-17.5937
21
13.3394
0
LINE
8
BLACK
6
CONTINUOUS
10
-17.5937
20
13.3394
11
-17.6504
21
13.2152
0
LINE
8
BLACK
6
CONTINUOUS
10
-17.6504
20
13.2152
11
-17.6699
21
13.08
0
LINE
8
BLACK
6
CONTINUOUS
10
-17.6699
20
13.08
11
-17.6504
21
12.9448
0
LINE
8
BLACK
6
CONTINUOUS
10
-12.3
20
14.975
11
-12.2823
21
14.9677
0
LINE
8
BLACK
6
CONTINUOUS
10
-12.2823
20
14.9677
11
-12.275
21
14.95
0
LINE
8
BLACK
6
CONTINUOUS
10
-12.275
20
14.95
11
-12.275
21
12.95
0
LINE
8
BLACK
6
CONTINUOUS
10
-12.275
20
12.95
11
-12.2823
21
12.9323
0
LINE
8
BLACK
6
CONTINUOUS
10
-12.2823
20
12.9323
11
-12.3
21
12.925
0
LINE
8
BLACK
6
CONTINUOUS
10
-12.3
20
12.925
11
-12.875
21
12.925
0
LINE
8
BLACK
6
CONTINUOUS
10
-12.875
20
12.925
11
-12.875
21
8.65
0
LINE
8
BLACK
6
CONTINUOUS
10
-12.875
20
8.65
11
-12.8823
21
8.63232
0
LINE
8
BLACK
6
CONTINUOUS
10
-12.8823
20
8.63232
11
-12.9
21
8.625
0
LINE
8
BLACK
6
CONTINUOUS
10
-12.9
20
8.625
11
-15.175
21
8.625
0
LINE
8
BLACK
6
CONTINUOUS
10
-15.175
20
8.625
11
-15.175
21
8.15
0
LINE
8
BLACK
6
CONTINUOUS
10
-15.175
20
8.15
11
-15.1823
21
8.13232
0
LINE
8
BLACK
6
CONTINUOUS
10
-15.1823
20
8.13232
11
-15.2
21
8.125
0
LINE
8
BLACK
6
CONTINUOUS
10
-15.2
20
8.125
11
-19
21
8.125
0
LINE
8
BLACK
6
CONTINUOUS
10
-19
20
8.125
11
-19.0177
21
8.13232
0
LINE
8
BLACK
6
CONTINUOUS
10
-19.0177
20
8.13232
11
-19.025
21
8.15
0
LINE
8
BLACK
6
CONTINUOUS
10
-19.025
20
8.15
11
-19.025
21
8.625
0
LINE
8
BLACK
6
CONTINUOUS
10
-19.025
20
8.625
11
-21.3
21
8.625
0
LINE
8
BLACK
6
CONTINUOUS
10
-21.3
20
8.625
11
-21.3177
21
8.63232
0
LINE
8
BLACK
6
CONTINUOUS
10
-21.3177
20
8.63232
11
-21.325
21
8.65
0
LINE
8
BLACK
6
CONTINUOUS
10
-21.325
20
8.65
11
-21.325
21
12.925
0
LINE
8
BLACK
6
CONTINUOUS
10
-21.325
20
12.925
11
-21.9
21
12.925
0
LINE
8
BLACK
6
CONTINUOUS
10
-21.9
20
12.925
11
-21.9177
21
12.9323
0
LINE
8
BLACK
6
CONTINUOUS
10
-21.9177
20
12.9323
11
-21.925
21
12.95
0
LINE
8
BLACK
6
CONTINUOUS
10
-21.925
20
12.95
11
-21.925
21
14.95
0
LINE
8
BLACK
6
CONTINUOUS
10
-21.925
20
14.95
11
-21.9177
21
14.9677
0
LINE
8
BLACK
6
CONTINUOUS
10
-21.9177
20
14.9677
11
-21.9
21
14.975
0
LINE
8
BLACK
6
CONTINUOUS
10
-21.9
20
14.975
11
-12.3
21
14.975
0
LINE
8
BLACK
6
CONTINUOUS
10
-21.875
20
14.925
11
-21.875
21
12.975
0
LINE
8
BLACK
6
CONTINUOUS
10
-21.875
20
12.975
11
-21.3
21
12.975
0
LINE
8
BLACK
6
CONTINUOUS
10
-21.3
20
12.975
11
-21.2823
21
12.9677
0
LINE
8
BLACK
6
CONTINUOUS
10
-21.2823
20
12.9677
11
-21.275
21
12.95
0
LINE
8
BLACK
6
CONTINUOUS
10
-21.275
20
12.95
11
-21.275
21
8.675
0
LINE
8
BLACK
6
CONTINUOUS
10
-21.275
20
8.675
11
-19
21
8.675
0
LINE
8
BLACK
6
CONTINUOUS
10
-19
20
8.675
11
-18.9823
21
8.66768
0
LINE
8
BLACK
6
CONTINUOUS
10
-18.9823
20
8.66768
11
-18.975
21
8.65
0
LINE
8
BLACK
6
CONTINUOUS
10
-18.975
20
8.65
11
-18.975
21
8.175
0
LINE
8
BLACK
6
CONTINUOUS
10
-18.975
20
8.175
11
-15.225
21
8.175
0
LINE
8
BLACK
6
CONTINUOUS
10
-15.225
20
8.175
11
-15.225
21
8.65
0
LINE
8
BLACK
6
CONTINUOUS
10
-15.225
20
8.65
11
-15.2177
21
8.66768
0
LINE
8
BLACK
6
CONTINUOUS
10
-15.2177
20
8.66768
11
-15.2
21
8.675
0
LINE
8
BLACK
6
CONTINUOUS
10
-15.2
20
8.675
11
-12.925
21
8.675
0
LINE
8
BLACK
6
CONTINUOUS
10
-12.925
20
8.675
11
-12.925
21
12.95
0
LINE
8
BLACK
6
CONTINUOUS
10
-12.925
20
12.95
11
-12.9177
21
12.9677
0
LINE
8
BLACK
6
CONTINUOUS
10
-12.9177
20
12.9677
11
-12.9
21
12.975
0
LINE
8
BLACK
6
CONTINUOUS
10
-12.9
20
12.975
11
-12.325
21
12.975
0
LINE
8
BLACK
6
CONTINUOUS
10
-12.325
20
12.975
11
-12.325
21
14.925
0
LINE
8
BLACK
6
CONTINUOUS
10
-12.325
20
14.925
11
-21.875
21
14.925
0
LINE
8
BLACK
6
CONTINUOUS
10
-21.4
20
11.825
11
-21.3823
21
11.8177
0
LINE
8
BLACK
6
CONTINUOUS
10
-21.3823
20
11.8177
11
-21.375
21
11.8
0
LINE
8
BLACK
6
CONTINUOUS
10
-21.375
20
11.8
11
-21.375
21
9.8
0
LINE
8
BLACK
6
CONTINUOUS
10
-21.375
20
9.8
11
-21.3823
21
9.78232
0
LINE
8
BLACK
6
CONTINUOUS
10
-21.3823
20
9.78232
11
-21.4
21
9.775
0
LINE
8
BLACK
6
CONTINUOUS
10
-21.4
20
9.775
11
-22.4
21
9.775
0
LINE
8
BLACK
6
CONTINUOUS
10
-22.4
20
9.775
11
-22.4177
21
9.78232
0
LINE
8
BLACK
6
CONTINUOUS
10
-22.4177
20
9.78232
11
-22.425
21
9.8
0
LINE
8
BLACK
6
CONTINUOUS
10
-22.425
20
9.8
11
-22.425
21
11.8
0
LINE
8
BLACK
6
CONTINUOUS
10
-22.425
20
11.8
11
-22.4177
21
11.8177
0
LINE
8
BLACK
6
CONTINUOUS
10
-22.4177
20
11.8177
11
-22.4
21
11.825
0
LINE
8
BLACK
6
CONTINUOUS
10
-22.4
20
11.825
11
-21.4
21
11.825
0
LINE
8
BLACK
6
CONTINUOUS
10
-22.375
20
11.775
11
-22.375
21
9.825
0
LINE
8
BLACK
6
CONTINUOUS
10
-22.375
20
9.825
11
-21.425
21
9.825
0
LINE
8
BLACK
6
CONTINUOUS
10
-21.425
20
9.825
11
-21.425
21
11.775
0
LINE
8
BLACK
6
CONTINUOUS
10
-21.425
20
11.775
11
-22.375
21
11.775
  0
ENDSEC
  0
EOF
