  0
SECTION
  2
HEADER
  9
$ANGBASE
  50
0.0
  9
$ANGDIR
  70
1
  9
$MEASUREMENT
  70
1
  0
ENDSEC
  0
SECTION
  2
TABLES
  0
TABLE
  2
LTYPE
  70
4
  0
LTYPE
  5
40F
  2
CONTINUOUS
  70
0
  3
Solid line
  72
65
  73
0
  40
0.0
  0
LTYPE
  5
410
  2
DASHDOT
 70
0
  3
Dash Dot ____ _ ____ _
 72
65
 73
4
 40
2.0
 49
1.25
 49
-0.25
 49
0.25
 49
-0.25
  0
LTYPE
  5
411
  2
DASHED
 70
0
  3
Dashed __ __ __ __ __
 72
65
 73
2
 40
0.75
 49
0.5
 49
-0.25
  0
LTYPE
  5
43B
  2
DOTTED
 70
0
  3
Dotted .  .  .  .
 72
65
 73
2
 40
0.2
 49
0.0
 49
-0.2
  0
ENDTAB
  0
TABLE
  2
STYLE
  70
4
  0
STYLE
  2
KICAD
  70
0
  40
0
  41
1
  42
1
  50
0
  71
0
  3
isocp.shx
  0
STYLE
  2
KICADB
  70
0
  40
0
  41
1
  42
1
  50
0
  71
0
  3
isocp.shx
  0
STYLE
  2
KICADI
  70
0
  40
0
  41
1
  42
1
  50
15
  71
0
  3
isocp.shx
  0
STYLE
  2
KICADBI
  70
0
  40
0
  41
1
  42
1
  50
15
  71
0
  3
isocp.shx
  0
ENDTAB
  0
TABLE
  2
LAYER
  70
1
  0
LAYER
  2
BLACK
  70
0
  62
7
  6
CONTINUOUS
  0
ENDTAB
  0
ENDSEC
  0
SECTION
  2
ENTITIES
0
LINE
8
BLACK
6
CONTINUOUS
10
-1.07542
20
3.79132
11
-1.06504
21
3.78452
0
LINE
8
BLACK
6
CONTINUOUS
10
-1.06504
20
3.78452
11
3.92854
21
0.145638
0
LINE
8
BLACK
6
CONTINUOUS
10
3.92854
20
0.145638
11
3.96317
21
0.106944
0
LINE
8
BLACK
6
CONTINUOUS
10
3.96317
20
0.106944
11
4.02391
21
0.000663
0
LINE
8
BLACK
6
CONTINUOUS
10
4.02391
20
0.000663
11
4.03388
21
-0.021646
0
LINE
8
BLACK
6
CONTINUOUS
10
4.03388
20
-0.021646
11
4.06111
21
-0.103318
0
LINE
8
BLACK
6
CONTINUOUS
10
4.06111
20
-0.103318
11
4.06651
21
-0.15791
0
LINE
8
BLACK
6
CONTINUOUS
10
4.06651
20
-0.15791
11
4.05115
21
-0.280831
0
LINE
8
BLACK
6
CONTINUOUS
10
4.05115
20
-0.280831
11
4.04751
21
-0.298885
0
LINE
8
BLACK
6
CONTINUOUS
10
4.04751
20
-0.298885
11
3.91
21
-0.790001
0
LINE
8
BLACK
6
CONTINUOUS
10
3.91
20
-0.790001
11
3.95
21
-1.14
0
LINE
8
BLACK
6
CONTINUOUS
10
3.95
20
-1.14
11
4.18274
21
-1.5667
0
LINE
8
BLACK
6
CONTINUOUS
10
4.18274
20
-1.5667
11
4.19384
21
-1.59466
0
LINE
8
BLACK
6
CONTINUOUS
10
4.19384
20
-1.59466
11
4.2963
21
-1.98587
0
LINE
8
BLACK
6
CONTINUOUS
10
4.2963
20
-1.98587
11
4.30032
21
-2.01459
0
LINE
8
BLACK
6
CONTINUOUS
10
4.30032
20
-2.01459
11
4.30958
21
-2.44089
0
LINE
8
BLACK
6
CONTINUOUS
10
4.30958
20
-2.44089
11
4.30464
21
-2.47835
0
LINE
8
BLACK
6
CONTINUOUS
10
4.30464
20
-2.47835
11
4.05627
21
-3.32853
0
LINE
8
BLACK
6
CONTINUOUS
10
4.05627
20
-3.32853
11
4.03662
21
-3.36792
0
LINE
8
BLACK
6
CONTINUOUS
10
4.03662
20
-3.36792
11
3.55817
21
-4.00905
0
LINE
8
BLACK
6
CONTINUOUS
10
3.55817
20
-4.00905
11
3.53964
21
-4.0289
0
LINE
8
BLACK
6
CONTINUOUS
10
3.53964
20
-4.0289
11
3.06253
21
-4.43922
0
LINE
8
BLACK
6
CONTINUOUS
10
3.06253
20
-4.43922
11
3.03509
21
-4.45712
0
LINE
8
BLACK
6
CONTINUOUS
10
3.03509
20
-4.45712
11
2.63534
21
-4.64791
0
LINE
8
BLACK
6
CONTINUOUS
10
2.63534
20
-4.64791
11
2.58193
21
-4.66
0
LINE
8
BLACK
6
CONTINUOUS
10
2.58193
20
-4.66
11
2.06575
21
-4.66
0
LINE
8
BLACK
6
CONTINUOUS
10
2.06575
20
-4.66
11
2.01638
21
-4.64975
0
LINE
8
BLACK
6
CONTINUOUS
10
2.01638
20
-4.64975
11
1.51
21
-4.43
0
LINE
8
BLACK
6
CONTINUOUS
10
1.51
20
-4.43
11
1.25
21
-4.35
0
LINE
8
BLACK
6
CONTINUOUS
10
1.25
20
-4.35
11
0.840002
21
-4.42
0
LINE
8
BLACK
6
CONTINUOUS
10
0.840002
20
-4.42
11
0.839998
21
-4.42
0
LINE
8
BLACK
6
CONTINUOUS
10
0.839998
20
-4.42
11
0.520948
21
-4.78739
0
LINE
8
BLACK
6
CONTINUOUS
10
0.520948
20
-4.78739
11
0.496107
21
-4.80926
0
LINE
8
BLACK
6
CONTINUOUS
10
0.496107
20
-4.80926
11
-0.153366
21
-5.24224
0
LINE
8
BLACK
6
CONTINUOUS
10
-0.153366
20
-5.24224
11
-0.211898
21
-5.26265
0
LINE
8
BLACK
6
CONTINUOUS
10
-0.211898
20
-5.26265
11
-2.34745
21
-5.43979
0
LINE
8
BLACK
6
CONTINUOUS
10
-2.34745
20
-5.43979
11
-2.35257
21
-5.44
0
LINE
8
BLACK
6
CONTINUOUS
10
-2.35257
20
-5.44
11
-6.98279
21
-5.44
0
LINE
8
BLACK
6
CONTINUOUS
10
-6.98279
20
-5.44
11
-7.01656
21
-5.43531
0
LINE
8
BLACK
6
CONTINUOUS
10
-7.01656
20
-5.43531
11
-7.49893
21
-5.29879
0
LINE
8
BLACK
6
CONTINUOUS
10
-7.49893
20
-5.29879
11
-7.55284
21
-5.26716
0
LINE
8
BLACK
6
CONTINUOUS
10
-7.55284
20
-5.26716
11
-8.17
21
-4.65
0
LINE
8
BLACK
6
CONTINUOUS
10
-8.17
20
-4.65
11
-8.3547
21
-4.65
0
LINE
8
BLACK
6
CONTINUOUS
10
-8.3547
20
-4.65
11
-8.36083
21
-4.6482
0
LINE
8
BLACK
6
CONTINUOUS
10
-8.36083
20
-4.6482
11
-25.1395
21
-4.6482
0
LINE
8
BLACK
6
CONTINUOUS
10
-25.1395
20
-4.6482
11
-25.2065
21
-4.62852
0
LINE
8
BLACK
6
CONTINUOUS
10
-25.2065
20
-4.62852
11
-25.2523
21
-4.57571
0
LINE
8
BLACK
6
CONTINUOUS
10
-25.2523
20
-4.57571
11
-25.2635
21
-4.5242
0
LINE
8
BLACK
6
CONTINUOUS
10
-25.2635
20
-4.5242
11
-25.2635
21
-2.57512
0
LINE
8
BLACK
6
CONTINUOUS
10
-25.2635
20
-2.57512
11
-25.2438
21
-2.50808
0
LINE
8
BLACK
6
CONTINUOUS
10
-25.2438
20
-2.50808
11
-25.191
21
-2.46232
0
LINE
8
BLACK
6
CONTINUOUS
10
-25.191
20
-2.46232
11
-25.1395
21
-2.45112
0
LINE
8
BLACK
6
CONTINUOUS
10
-25.1395
20
-2.45112
11
-8.3611
21
-2.4511
0
LINE
8
BLACK
6
CONTINUOUS
10
-8.3611
20
-2.4511
11
-8.36
21
-2.45
0
LINE
8
BLACK
6
CONTINUOUS
10
-8.36
20
-2.45
11
-8.36
21
-0.709259
0
LINE
8
BLACK
6
CONTINUOUS
10
-8.36
20
-0.709259
11
-8.34032
21
-0.64222
0
LINE
8
BLACK
6
CONTINUOUS
10
-8.34032
20
-0.64222
11
-8.3262
21
-0.624168
0
LINE
8
BLACK
6
CONTINUOUS
10
-8.3262
20
-0.624168
11
-7.89671
21
-0.168909
0
LINE
8
BLACK
6
CONTINUOUS
10
-7.89671
20
-0.168909
11
-7.83638
21
-0.133653
0
LINE
8
BLACK
6
CONTINUOUS
10
-7.83638
20
-0.133653
11
-7.80651
21
-0.13
0
LINE
8
BLACK
6
CONTINUOUS
10
-7.80651
20
-0.13
11
-6.05
21
-0.13
0
LINE
8
BLACK
6
CONTINUOUS
10
-6.05
20
-0.13
11
-6.05
21
-0.129999
0
LINE
8
BLACK
6
CONTINUOUS
10
-6.05
20
-0.129999
11
-5.25324
21
0.47477
0
LINE
8
BLACK
6
CONTINUOUS
10
-5.25324
20
0.47477
11
-5.18794
21
0.499622
0
LINE
8
BLACK
6
CONTINUOUS
10
-5.18794
20
0.499622
11
-5.17827
21
0.5
0
LINE
8
BLACK
6
CONTINUOUS
10
-5.17827
20
0.5
11
-4.03
21
0.5
0
LINE
8
BLACK
6
CONTINUOUS
10
-4.03
20
0.5
11
-3.64
21
0.78
0
LINE
8
BLACK
6
CONTINUOUS
10
-3.64
20
0.78
11
-3.64
21
0.780002
0
LINE
8
BLACK
6
CONTINUOUS
10
-3.64
20
0.780002
11
-1.45466
21
3.72028
0
LINE
8
BLACK
6
CONTINUOUS
10
-1.45466
20
3.72028
11
-1.41893
21
3.75264
0
LINE
8
BLACK
6
CONTINUOUS
10
-1.41893
20
3.75264
11
-1.36708
21
3.78375
0
LINE
8
BLACK
6
CONTINUOUS
10
-1.36708
20
3.78375
11
-1.30845
21
3.80131
0
LINE
8
BLACK
6
CONTINUOUS
10
-1.30845
20
3.80131
11
-1.14323
21
3.8082
0
LINE
8
BLACK
6
CONTINUOUS
10
-1.14323
20
3.8082
11
-1.07542
21
3.79132
0
LINE
8
BLACK
6
CONTINUOUS
10
-12.5642
20
14.8975
11
-12.4855
21
14.8819
0
LINE
8
BLACK
6
CONTINUOUS
10
-12.4855
20
14.8819
11
-12.4408
21
14.8634
0
LINE
8
BLACK
6
CONTINUOUS
10
-12.4408
20
14.8634
11
-12.3845
21
14.8258
0
LINE
8
BLACK
6
CONTINUOUS
10
-12.3845
20
14.8258
11
-12.3503
21
14.7915
0
LINE
8
BLACK
6
CONTINUOUS
10
-12.3503
20
14.7915
11
-12.3127
21
14.7352
0
LINE
8
BLACK
6
CONTINUOUS
10
-12.3127
20
14.7352
11
-12.2941
21
14.6905
0
LINE
8
BLACK
6
CONTINUOUS
10
-12.2941
20
14.6905
11
-12.2785
21
14.6119
0
LINE
8
BLACK
6
CONTINUOUS
10
-12.2785
20
14.6119
11
-12.2761
21
14.5877
0
LINE
8
BLACK
6
CONTINUOUS
10
-12.2761
20
14.5877
11
-12.2761
21
13.3161
0
LINE
8
BLACK
6
CONTINUOUS
10
-12.2761
20
13.3161
11
-12.2785
21
13.2918
0
LINE
8
BLACK
6
CONTINUOUS
10
-12.2785
20
13.2918
11
-12.2942
21
13.2132
0
LINE
8
BLACK
6
CONTINUOUS
10
-12.2942
20
13.2132
11
-12.3127
21
13.1685
0
LINE
8
BLACK
6
CONTINUOUS
10
-12.3127
20
13.1685
11
-12.3503
21
13.1122
0
LINE
8
BLACK
6
CONTINUOUS
10
-12.3503
20
13.1122
11
-12.3845
21
13.078
0
LINE
8
BLACK
6
CONTINUOUS
10
-12.3845
20
13.078
11
-12.4408
21
13.0404
0
LINE
8
BLACK
6
CONTINUOUS
10
-12.4408
20
13.0404
11
-12.4855
21
13.0219
0
LINE
8
BLACK
6
CONTINUOUS
10
-12.4855
20
13.0219
11
-12.5641
21
13.0062
0
LINE
8
BLACK
6
CONTINUOUS
10
-12.5641
20
13.0062
11
-12.5883
21
13.0038
0
LINE
8
BLACK
6
CONTINUOUS
10
-12.5883
20
13.0038
11
-12.7589
21
13.0038
0
LINE
8
BLACK
6
CONTINUOUS
10
-12.7589
20
13.0038
11
-12.8737
21
12.981
0
LINE
8
BLACK
6
CONTINUOUS
10
-12.8737
20
12.981
11
-12.8737
21
12.981
0
LINE
8
BLACK
6
CONTINUOUS
10
-12.8737
20
12.981
11
-12.971
21
12.916
0
LINE
8
BLACK
6
CONTINUOUS
10
-12.971
20
12.916
11
-12.971
21
12.9159
0
LINE
8
BLACK
6
CONTINUOUS
10
-12.971
20
12.9159
11
-13.036
21
12.8186
0
LINE
8
BLACK
6
CONTINUOUS
10
-13.036
20
12.8186
11
-13.0589
21
12.7038
0
LINE
8
BLACK
6
CONTINUOUS
10
-13.0589
20
12.7038
11
-13.0589
21
9.42662
0
LINE
8
BLACK
6
CONTINUOUS
10
-13.0589
20
9.42662
11
-13.0613
21
9.40244
0
LINE
8
BLACK
6
CONTINUOUS
10
-13.0613
20
9.40244
11
-13.0769
21
9.32381
0
LINE
8
BLACK
6
CONTINUOUS
10
-13.0769
20
9.32381
11
-13.0954
21
9.27909
0
LINE
8
BLACK
6
CONTINUOUS
10
-13.0954
20
9.27909
11
-13.133
21
9.22278
0
LINE
8
BLACK
6
CONTINUOUS
10
-13.133
20
9.22278
11
-13.1673
21
9.18857
0
LINE
8
BLACK
6
CONTINUOUS
10
-13.1673
20
9.18857
11
-13.2236
21
9.15095
0
LINE
8
BLACK
6
CONTINUOUS
10
-13.2236
20
9.15095
11
-13.2683
21
9.13243
0
LINE
8
BLACK
6
CONTINUOUS
10
-13.2683
20
9.13243
11
-13.3469
21
9.11679
0
LINE
8
BLACK
6
CONTINUOUS
10
-13.3469
20
9.11679
11
-13.3711
21
9.11441
0
LINE
8
BLACK
6
CONTINUOUS
10
-13.3711
20
9.11441
11
-14.641
21
9.11441
0
LINE
8
BLACK
6
CONTINUOUS
10
-14.641
20
9.11441
11
-14.7175
21
9.09918
0
LINE
8
BLACK
6
CONTINUOUS
10
-14.7175
20
9.09918
11
-14.7175
21
9.09918
0
LINE
8
BLACK
6
CONTINUOUS
10
-14.7175
20
9.09918
11
-14.7824
21
9.05583
0
LINE
8
BLACK
6
CONTINUOUS
10
-14.7824
20
9.05583
11
-14.7824
21
9.05583
0
LINE
8
BLACK
6
CONTINUOUS
10
-14.7824
20
9.05583
11
-14.8257
21
8.99095
0
LINE
8
BLACK
6
CONTINUOUS
10
-14.8257
20
8.99095
11
-14.841
21
8.91491
0
LINE
8
BLACK
6
CONTINUOUS
10
-14.841
20
8.91491
11
-14.841
21
8.39618
0
LINE
8
BLACK
6
CONTINUOUS
10
-14.841
20
8.39618
11
-14.8433
21
8.3721
0
LINE
8
BLACK
6
CONTINUOUS
10
-14.8433
20
8.3721
11
-14.8513
21
8.33173
0
LINE
8
BLACK
6
CONTINUOUS
10
-14.8513
20
8.33173
11
-14.8698
21
8.28691
0
LINE
8
BLACK
6
CONTINUOUS
10
-14.8698
20
8.28691
11
-14.8858
21
8.26309
0
LINE
8
BLACK
6
CONTINUOUS
10
-14.8858
20
8.26309
11
-14.92
21
8.22886
0
LINE
8
BLACK
6
CONTINUOUS
10
-14.92
20
8.22886
11
-14.9216
21
8.22779
0
LINE
8
BLACK
6
CONTINUOUS
10
-14.9216
20
8.22779
11
-14.9883
21
8.20693
0
LINE
8
BLACK
6
CONTINUOUS
10
-14.9883
20
8.20693
11
-14.9906
21
8.20691
0
LINE
8
BLACK
6
CONTINUOUS
10
-14.9906
20
8.20691
11
-19.0086
21
8.20953
0
LINE
8
BLACK
6
CONTINUOUS
10
-19.0086
20
8.20953
11
-19.0756
21
8.22926
0
LINE
8
BLACK
6
CONTINUOUS
10
-19.0756
20
8.22926
11
-19.1116
21
8.26464
0
LINE
8
BLACK
6
CONTINUOUS
10
-19.1116
20
8.26464
11
-19.1266
21
8.287
0
LINE
8
BLACK
6
CONTINUOUS
10
-19.1266
20
8.287
11
-19.1451
21
8.33167
0
LINE
8
BLACK
6
CONTINUOUS
10
-19.1451
20
8.33167
11
-19.1531
21
8.37203
0
LINE
8
BLACK
6
CONTINUOUS
10
-19.1531
20
8.37203
11
-19.1555
21
8.39625
0
LINE
8
BLACK
6
CONTINUOUS
10
-19.1555
20
8.39625
11
-19.1555
21
8.96
0
LINE
8
BLACK
6
CONTINUOUS
10
-19.1555
20
8.96
11
-19.1708
21
9.03654
0
LINE
8
BLACK
6
CONTINUOUS
10
-19.1708
20
9.03654
11
-19.1708
21
9.03654
0
LINE
8
BLACK
6
CONTINUOUS
10
-19.1708
20
9.03654
11
-19.2141
21
9.10143
0
LINE
8
BLACK
6
CONTINUOUS
10
-19.2141
20
9.10143
11
-19.2141
21
9.10143
0
LINE
8
BLACK
6
CONTINUOUS
10
-19.2141
20
9.10143
11
-19.279
21
9.14479
0
LINE
8
BLACK
6
CONTINUOUS
10
-19.279
20
9.14479
11
-19.279
21
9.14479
0
LINE
8
BLACK
6
CONTINUOUS
10
-19.279
20
9.14479
11
-19.3555
21
9.16
0
LINE
8
BLACK
6
CONTINUOUS
10
-19.3555
20
9.16
11
-19.51
21
9.16
0
LINE
8
BLACK
6
CONTINUOUS
10
-19.51
20
9.16
11
-19.5865
21
9.14474
0
LINE
8
BLACK
6
CONTINUOUS
10
-19.5865
20
9.14474
11
-19.5865
21
9.14474
0
LINE
8
BLACK
6
CONTINUOUS
10
-19.5865
20
9.14474
11
-19.5944
21
9.13948
0
LINE
8
BLACK
6
CONTINUOUS
10
-19.5944
20
9.13948
11
-19.6611
21
9.11862
0
LINE
8
BLACK
6
CONTINUOUS
10
-19.6611
20
9.11862
11
-19.6633
21
9.1186
0
LINE
8
BLACK
6
CONTINUOUS
10
-19.6633
20
9.1186
11
-21.7861
21
9.1186
0
LINE
8
BLACK
6
CONTINUOUS
10
-21.7861
20
9.1186
11
-21.8531
21
9.13828
0
LINE
8
BLACK
6
CONTINUOUS
10
-21.8531
20
9.13828
11
-21.8989
21
9.19109
0
LINE
8
BLACK
6
CONTINUOUS
10
-21.8989
20
9.19109
11
-21.9101
21
9.2426
0
LINE
8
BLACK
6
CONTINUOUS
10
-21.9101
20
9.2426
11
-21.9101
21
9.30001
0
LINE
8
BLACK
6
CONTINUOUS
10
-21.9101
20
9.30001
11
-21.9101
21
9.30001
0
LINE
8
BLACK
6
CONTINUOUS
10
-21.9101
20
9.30001
11
-21.9329
21
9.41481
0
LINE
8
BLACK
6
CONTINUOUS
10
-21.9329
20
9.41481
11
-21.9329
21
9.41481
0
LINE
8
BLACK
6
CONTINUOUS
10
-21.9329
20
9.41481
11
-21.9979
21
9.51214
0
LINE
8
BLACK
6
CONTINUOUS
10
-21.9979
20
9.51214
11
-22.0953
21
9.57717
0
LINE
8
BLACK
6
CONTINUOUS
10
-22.0953
20
9.57717
11
-22.0953
21
9.57718
0
LINE
8
BLACK
6
CONTINUOUS
10
-22.0953
20
9.57718
11
-22.2101
21
9.60001
0
LINE
8
BLACK
6
CONTINUOUS
10
-22.2101
20
9.60001
11
-22.2101
21
9.60001
0
LINE
8
BLACK
6
CONTINUOUS
10
-22.2101
20
9.60001
11
-22.3278
21
9.6
0
LINE
8
BLACK
6
CONTINUOUS
10
-22.3278
20
9.6
11
-22.352
21
9.60238
0
LINE
8
BLACK
6
CONTINUOUS
10
-22.352
20
9.60238
11
-22.3923
21
9.6104
0
LINE
8
BLACK
6
CONTINUOUS
10
-22.3923
20
9.6104
11
-22.4371
21
9.62893
0
LINE
8
BLACK
6
CONTINUOUS
10
-22.4371
20
9.62893
11
-22.4609
21
9.64487
0
LINE
8
BLACK
6
CONTINUOUS
10
-22.4609
20
9.64487
11
-22.4951
21
9.67908
0
LINE
8
BLACK
6
CONTINUOUS
10
-22.4951
20
9.67908
11
-22.5111
21
9.70296
0
LINE
8
BLACK
6
CONTINUOUS
10
-22.5111
20
9.70296
11
-22.5296
21
9.74765
0
LINE
8
BLACK
6
CONTINUOUS
10
-22.5296
20
9.74765
11
-22.5376
21
9.78802
0
LINE
8
BLACK
6
CONTINUOUS
10
-22.5376
20
9.78802
11
-22.54
21
9.81221
0
LINE
8
BLACK
6
CONTINUOUS
10
-22.54
20
9.81221
11
-22.54
21
11.7878
0
LINE
8
BLACK
6
CONTINUOUS
10
-22.54
20
11.7878
11
-22.5376
21
11.8119
0
LINE
8
BLACK
6
CONTINUOUS
10
-22.5376
20
11.8119
11
-22.5296
21
11.8523
0
LINE
8
BLACK
6
CONTINUOUS
10
-22.5296
20
11.8523
11
-22.5111
21
11.8971
0
LINE
8
BLACK
6
CONTINUOUS
10
-22.5111
20
11.8971
11
-22.4952
21
11.9209
0
LINE
8
BLACK
6
CONTINUOUS
10
-22.4952
20
11.9209
11
-22.4609
21
11.9551
0
LINE
8
BLACK
6
CONTINUOUS
10
-22.4609
20
11.9551
11
-22.4371
21
11.9711
0
LINE
8
BLACK
6
CONTINUOUS
10
-22.4371
20
11.9711
11
-22.3924
21
11.9896
0
LINE
8
BLACK
6
CONTINUOUS
10
-22.3924
20
11.9896
11
-22.352
21
11.9976
0
LINE
8
BLACK
6
CONTINUOUS
10
-22.352
20
11.9976
11
-22.3278
21
12
0
LINE
8
BLACK
6
CONTINUOUS
10
-22.3278
20
12
11
-22.2101
21
12
0
LINE
8
BLACK
6
CONTINUOUS
10
-22.2101
20
12
11
-22.2101
21
12
0
LINE
8
BLACK
6
CONTINUOUS
10
-22.2101
20
12
11
-22.0953
21
12.0228
0
LINE
8
BLACK
6
CONTINUOUS
10
-22.0953
20
12.0228
11
-22.0953
21
12.0228
0
LINE
8
BLACK
6
CONTINUOUS
10
-22.0953
20
12.0228
11
-21.9979
21
12.0879
0
LINE
8
BLACK
6
CONTINUOUS
10
-21.9979
20
12.0879
11
-21.9329
21
12.1852
0
LINE
8
BLACK
6
CONTINUOUS
10
-21.9329
20
12.1852
11
-21.91
21
12.2999
0
LINE
8
BLACK
6
CONTINUOUS
10
-21.91
20
12.2999
11
-21.91
21
14.5877
0
LINE
8
BLACK
6
CONTINUOUS
10
-21.91
20
14.5877
11
-21.9076
21
14.6119
0
LINE
8
BLACK
6
CONTINUOUS
10
-21.9076
20
14.6119
11
-21.892
21
14.6905
0
LINE
8
BLACK
6
CONTINUOUS
10
-21.892
20
14.6905
11
-21.8735
21
14.7353
0
LINE
8
BLACK
6
CONTINUOUS
10
-21.8735
20
14.7353
11
-21.8359
21
14.7916
0
LINE
8
BLACK
6
CONTINUOUS
10
-21.8359
20
14.7916
11
-21.8017
21
14.8258
0
LINE
8
BLACK
6
CONTINUOUS
10
-21.8017
20
14.8258
11
-21.7453
21
14.8634
0
LINE
8
BLACK
6
CONTINUOUS
10
-21.7453
20
14.8634
11
-21.7006
21
14.8819
0
LINE
8
BLACK
6
CONTINUOUS
10
-21.7006
20
14.8819
11
-21.622
21
14.8975
0
LINE
8
BLACK
6
CONTINUOUS
10
-21.622
20
14.8975
11
-21.5978
21
14.8999
0
LINE
8
BLACK
6
CONTINUOUS
10
-21.5978
20
14.8999
11
-12.5883
21
14.8999
0
LINE
8
BLACK
6
CONTINUOUS
10
-12.5883
20
14.8999
11
-12.5642
21
14.8975
  0
ENDSEC
  0
EOF
