  0
SECTION
  2
HEADER
  9
$ANGBASE
  50
0.0
  9
$ANGDIR
  70
1
  9
$MEASUREMENT
  70
1
  0
ENDSEC
  0
SECTION
  2
TABLES
  0
TABLE
  2
LTYPE
  70
4
  0
LTYPE
  5
40F
  2
CONTINUOUS
  70
0
  3
Solid line
  72
65
  73
0
  40
0.0
  0
LTYPE
  5
410
  2
DASHDOT
 70
0
  3
Dash Dot ____ _ ____ _
 72
65
 73
4
 40
2.0
 49
1.25
 49
-0.25
 49
0.25
 49
-0.25
  0
LTYPE
  5
411
  2
DASHED
 70
0
  3
Dashed __ __ __ __ __
 72
65
 73
2
 40
0.75
 49
0.5
 49
-0.25
  0
LTYPE
  5
43B
  2
DOTTED
 70
0
  3
Dotted .  .  .  .
 72
65
 73
2
 40
0.2
 49
0.0
 49
-0.2
  0
ENDTAB
  0
TABLE
  2
STYLE
  70
4
  0
STYLE
  2
KICAD
  70
0
  40
0
  41
1
  42
1
  50
0
  71
0
  3
isocp.shx
  0
STYLE
  2
KICADB
  70
0
  40
0
  41
1
  42
1
  50
0
  71
0
  3
isocp.shx
  0
STYLE
  2
KICADI
  70
0
  40
0
  41
1
  42
1
  50
15
  71
0
  3
isocp.shx
  0
STYLE
  2
KICADBI
  70
0
  40
0
  41
1
  42
1
  50
15
  71
0
  3
isocp.shx
  0
ENDTAB
  0
TABLE
  2
LAYER
  70
1
  0
LAYER
  2
BLACK
  70
0
  62
7
  6
CONTINUOUS
  0
ENDTAB
  0
ENDSEC
  0
SECTION
  2
ENTITIES
0
LINE
8
BLACK
6
CONTINUOUS
10
-50.1006
20
-14.0363
11
-50.0698
21
-14.0569
0
LINE
8
BLACK
6
CONTINUOUS
10
-50.0698
20
-14.0569
11
-50.0492
21
-14.0877
0
LINE
8
BLACK
6
CONTINUOUS
10
-50.0492
20
-14.0877
11
-50.042
21
-14.1241
0
LINE
8
BLACK
6
CONTINUOUS
10
-50.042
20
-14.1241
11
-50.042
21
-14.3141
0
LINE
8
BLACK
6
CONTINUOUS
10
-50.042
20
-14.3141
11
-50.0492
21
-14.3505
0
LINE
8
BLACK
6
CONTINUOUS
10
-50.0492
20
-14.3505
11
-50.0698
21
-14.3813
0
LINE
8
BLACK
6
CONTINUOUS
10
-50.0698
20
-14.3813
11
-50.1006
21
-14.4019
0
LINE
8
BLACK
6
CONTINUOUS
10
-50.1006
20
-14.4019
11
-50.137
21
-14.4091
0
LINE
8
BLACK
6
CONTINUOUS
10
-50.137
20
-14.4091
11
-50.447
21
-14.4091
0
LINE
8
BLACK
6
CONTINUOUS
10
-50.447
20
-14.4091
11
-50.4834
21
-14.4019
0
LINE
8
BLACK
6
CONTINUOUS
10
-50.4834
20
-14.4019
11
-50.5142
21
-14.3813
0
LINE
8
BLACK
6
CONTINUOUS
10
-50.5142
20
-14.3813
11
-50.5348
21
-14.3505
0
LINE
8
BLACK
6
CONTINUOUS
10
-50.5348
20
-14.3505
11
-50.542
21
-14.3141
0
LINE
8
BLACK
6
CONTINUOUS
10
-50.542
20
-14.3141
11
-50.542
21
-14.1241
0
LINE
8
BLACK
6
CONTINUOUS
10
-50.542
20
-14.1241
11
-50.5348
21
-14.0877
0
LINE
8
BLACK
6
CONTINUOUS
10
-50.5348
20
-14.0877
11
-50.5142
21
-14.0569
0
LINE
8
BLACK
6
CONTINUOUS
10
-50.5142
20
-14.0569
11
-50.4834
21
-14.0363
0
LINE
8
BLACK
6
CONTINUOUS
10
-50.4834
20
-14.0363
11
-50.447
21
-14.0291
0
LINE
8
BLACK
6
CONTINUOUS
10
-50.447
20
-14.0291
11
-50.137
21
-14.0291
0
LINE
8
BLACK
6
CONTINUOUS
10
-50.137
20
-14.0291
11
-50.1006
21
-14.0363
0
LINE
8
BLACK
6
CONTINUOUS
10
-51.0108
20
-13.0263
11
-50.9589
21
-13.061
0
LINE
8
BLACK
6
CONTINUOUS
10
-50.9589
20
-13.061
11
-50.9242
21
-13.1129
0
LINE
8
BLACK
6
CONTINUOUS
10
-50.9242
20
-13.1129
11
-50.912
21
-13.1741
0
LINE
8
BLACK
6
CONTINUOUS
10
-50.912
20
-13.1741
11
-50.912
21
-13.4941
0
LINE
8
BLACK
6
CONTINUOUS
10
-50.912
20
-13.4941
11
-50.9242
21
-13.5553
0
LINE
8
BLACK
6
CONTINUOUS
10
-50.9242
20
-13.5553
11
-50.9589
21
-13.6072
0
LINE
8
BLACK
6
CONTINUOUS
10
-50.9589
20
-13.6072
11
-51.0108
21
-13.6419
0
LINE
8
BLACK
6
CONTINUOUS
10
-51.0108
20
-13.6419
11
-51.072
21
-13.6541
0
LINE
8
BLACK
6
CONTINUOUS
10
-51.072
20
-13.6541
11
-51.582
21
-13.6541
0
LINE
8
BLACK
6
CONTINUOUS
10
-51.582
20
-13.6541
11
-51.6432
21
-13.6419
0
LINE
8
BLACK
6
CONTINUOUS
10
-51.6432
20
-13.6419
11
-51.6951
21
-13.6072
0
LINE
8
BLACK
6
CONTINUOUS
10
-51.6951
20
-13.6072
11
-51.7298
21
-13.5553
0
LINE
8
BLACK
6
CONTINUOUS
10
-51.7298
20
-13.5553
11
-51.742
21
-13.4941
0
LINE
8
BLACK
6
CONTINUOUS
10
-51.742
20
-13.4941
11
-51.742
21
-13.1741
0
LINE
8
BLACK
6
CONTINUOUS
10
-51.742
20
-13.1741
11
-51.7298
21
-13.1129
0
LINE
8
BLACK
6
CONTINUOUS
10
-51.7298
20
-13.1129
11
-51.6951
21
-13.061
0
LINE
8
BLACK
6
CONTINUOUS
10
-51.6951
20
-13.061
11
-51.6432
21
-13.0263
0
LINE
8
BLACK
6
CONTINUOUS
10
-51.6432
20
-13.0263
11
-51.582
21
-13.0141
0
LINE
8
BLACK
6
CONTINUOUS
10
-51.582
20
-13.0141
11
-51.072
21
-13.0141
0
LINE
8
BLACK
6
CONTINUOUS
10
-51.072
20
-13.0141
11
-51.0108
21
-13.0263
0
LINE
8
BLACK
6
CONTINUOUS
10
-48.9408
20
-13.0263
11
-48.8889
21
-13.061
0
LINE
8
BLACK
6
CONTINUOUS
10
-48.8889
20
-13.061
11
-48.8542
21
-13.1129
0
LINE
8
BLACK
6
CONTINUOUS
10
-48.8542
20
-13.1129
11
-48.842
21
-13.1741
0
LINE
8
BLACK
6
CONTINUOUS
10
-48.842
20
-13.1741
11
-48.842
21
-13.4941
0
LINE
8
BLACK
6
CONTINUOUS
10
-48.842
20
-13.4941
11
-48.8542
21
-13.5553
0
LINE
8
BLACK
6
CONTINUOUS
10
-48.8542
20
-13.5553
11
-48.8889
21
-13.6072
0
LINE
8
BLACK
6
CONTINUOUS
10
-48.8889
20
-13.6072
11
-48.9408
21
-13.6419
0
LINE
8
BLACK
6
CONTINUOUS
10
-48.9408
20
-13.6419
11
-49.002
21
-13.6541
0
LINE
8
BLACK
6
CONTINUOUS
10
-49.002
20
-13.6541
11
-49.512
21
-13.6541
0
LINE
8
BLACK
6
CONTINUOUS
10
-49.512
20
-13.6541
11
-49.5732
21
-13.6419
0
LINE
8
BLACK
6
CONTINUOUS
10
-49.5732
20
-13.6419
11
-49.6251
21
-13.6072
0
LINE
8
BLACK
6
CONTINUOUS
10
-49.6251
20
-13.6072
11
-49.6598
21
-13.5553
0
LINE
8
BLACK
6
CONTINUOUS
10
-49.6598
20
-13.5553
11
-49.672
21
-13.4941
0
LINE
8
BLACK
6
CONTINUOUS
10
-49.672
20
-13.4941
11
-49.672
21
-13.1741
0
LINE
8
BLACK
6
CONTINUOUS
10
-49.672
20
-13.1741
11
-49.6598
21
-13.1129
0
LINE
8
BLACK
6
CONTINUOUS
10
-49.6598
20
-13.1129
11
-49.6251
21
-13.061
0
LINE
8
BLACK
6
CONTINUOUS
10
-49.6251
20
-13.061
11
-49.5732
21
-13.0263
0
LINE
8
BLACK
6
CONTINUOUS
10
-49.5732
20
-13.0263
11
-49.512
21
-13.0141
0
LINE
8
BLACK
6
CONTINUOUS
10
-49.512
20
-13.0141
11
-49.002
21
-13.0141
0
LINE
8
BLACK
6
CONTINUOUS
10
-49.002
20
-13.0141
11
-48.9408
21
-13.0263
0
LINE
8
BLACK
6
CONTINUOUS
10
-50.9475
20
-12.5735
11
-50.9288
21
-12.5859
0
LINE
8
BLACK
6
CONTINUOUS
10
-50.9288
20
-12.5859
11
-50.9164
21
-12.6046
0
LINE
8
BLACK
6
CONTINUOUS
10
-50.9164
20
-12.6046
11
-50.912
21
-12.6266
0
LINE
8
BLACK
6
CONTINUOUS
10
-50.912
20
-12.6266
11
-50.912
21
-12.7416
0
LINE
8
BLACK
6
CONTINUOUS
10
-50.912
20
-12.7416
11
-50.9164
21
-12.7636
0
LINE
8
BLACK
6
CONTINUOUS
10
-50.9164
20
-12.7636
11
-50.9288
21
-12.7823
0
LINE
8
BLACK
6
CONTINUOUS
10
-50.9288
20
-12.7823
11
-50.9475
21
-12.7947
0
LINE
8
BLACK
6
CONTINUOUS
10
-50.9475
20
-12.7947
11
-50.9695
21
-12.7991
0
LINE
8
BLACK
6
CONTINUOUS
10
-50.9695
20
-12.7991
11
-51.6845
21
-12.7991
0
LINE
8
BLACK
6
CONTINUOUS
10
-51.6845
20
-12.7991
11
-51.7065
21
-12.7947
0
LINE
8
BLACK
6
CONTINUOUS
10
-51.7065
20
-12.7947
11
-51.7252
21
-12.7823
0
LINE
8
BLACK
6
CONTINUOUS
10
-51.7252
20
-12.7823
11
-51.7376
21
-12.7636
0
LINE
8
BLACK
6
CONTINUOUS
10
-51.7376
20
-12.7636
11
-51.742
21
-12.7416
0
LINE
8
BLACK
6
CONTINUOUS
10
-51.742
20
-12.7416
11
-51.742
21
-12.6266
0
LINE
8
BLACK
6
CONTINUOUS
10
-51.742
20
-12.6266
11
-51.7376
21
-12.6046
0
LINE
8
BLACK
6
CONTINUOUS
10
-51.7376
20
-12.6046
11
-51.7252
21
-12.5859
0
LINE
8
BLACK
6
CONTINUOUS
10
-51.7252
20
-12.5859
11
-51.7065
21
-12.5735
0
LINE
8
BLACK
6
CONTINUOUS
10
-51.7065
20
-12.5735
11
-51.6845
21
-12.5691
0
LINE
8
BLACK
6
CONTINUOUS
10
-51.6845
20
-12.5691
11
-50.9695
21
-12.5691
0
LINE
8
BLACK
6
CONTINUOUS
10
-50.9695
20
-12.5691
11
-50.9475
21
-12.5735
0
LINE
8
BLACK
6
CONTINUOUS
10
-48.8775
20
-12.5735
11
-48.8588
21
-12.5859
0
LINE
8
BLACK
6
CONTINUOUS
10
-48.8588
20
-12.5859
11
-48.8464
21
-12.6046
0
LINE
8
BLACK
6
CONTINUOUS
10
-48.8464
20
-12.6046
11
-48.842
21
-12.6266
0
LINE
8
BLACK
6
CONTINUOUS
10
-48.842
20
-12.6266
11
-48.842
21
-12.7416
0
LINE
8
BLACK
6
CONTINUOUS
10
-48.842
20
-12.7416
11
-48.8464
21
-12.7636
0
LINE
8
BLACK
6
CONTINUOUS
10
-48.8464
20
-12.7636
11
-48.8588
21
-12.7823
0
LINE
8
BLACK
6
CONTINUOUS
10
-48.8588
20
-12.7823
11
-48.8775
21
-12.7947
0
LINE
8
BLACK
6
CONTINUOUS
10
-48.8775
20
-12.7947
11
-48.8995
21
-12.7991
0
LINE
8
BLACK
6
CONTINUOUS
10
-48.8995
20
-12.7991
11
-49.6145
21
-12.7991
0
LINE
8
BLACK
6
CONTINUOUS
10
-49.6145
20
-12.7991
11
-49.6365
21
-12.7947
0
LINE
8
BLACK
6
CONTINUOUS
10
-49.6365
20
-12.7947
11
-49.6552
21
-12.7823
0
LINE
8
BLACK
6
CONTINUOUS
10
-49.6552
20
-12.7823
11
-49.6676
21
-12.7636
0
LINE
8
BLACK
6
CONTINUOUS
10
-49.6676
20
-12.7636
11
-49.672
21
-12.7416
0
LINE
8
BLACK
6
CONTINUOUS
10
-49.672
20
-12.7416
11
-49.672
21
-12.6266
0
LINE
8
BLACK
6
CONTINUOUS
10
-49.672
20
-12.6266
11
-49.6676
21
-12.6046
0
LINE
8
BLACK
6
CONTINUOUS
10
-49.6676
20
-12.6046
11
-49.6552
21
-12.5859
0
LINE
8
BLACK
6
CONTINUOUS
10
-49.6552
20
-12.5859
11
-49.6365
21
-12.5735
0
LINE
8
BLACK
6
CONTINUOUS
10
-49.6365
20
-12.5735
11
-49.6145
21
-12.5691
0
LINE
8
BLACK
6
CONTINUOUS
10
-49.6145
20
-12.5691
11
-48.8995
21
-12.5691
0
LINE
8
BLACK
6
CONTINUOUS
10
-48.8995
20
-12.5691
11
-48.8775
21
-12.5735
0
LINE
8
BLACK
6
CONTINUOUS
10
-50.9475
20
-12.1735
11
-50.9288
21
-12.1859
0
LINE
8
BLACK
6
CONTINUOUS
10
-50.9288
20
-12.1859
11
-50.9164
21
-12.2046
0
LINE
8
BLACK
6
CONTINUOUS
10
-50.9164
20
-12.2046
11
-50.912
21
-12.2266
0
LINE
8
BLACK
6
CONTINUOUS
10
-50.912
20
-12.2266
11
-50.912
21
-12.3416
0
LINE
8
BLACK
6
CONTINUOUS
10
-50.912
20
-12.3416
11
-50.9164
21
-12.3636
0
LINE
8
BLACK
6
CONTINUOUS
10
-50.9164
20
-12.3636
11
-50.9288
21
-12.3823
0
LINE
8
BLACK
6
CONTINUOUS
10
-50.9288
20
-12.3823
11
-50.9475
21
-12.3947
0
LINE
8
BLACK
6
CONTINUOUS
10
-50.9475
20
-12.3947
11
-50.9695
21
-12.3991
0
LINE
8
BLACK
6
CONTINUOUS
10
-50.9695
20
-12.3991
11
-51.6845
21
-12.3991
0
LINE
8
BLACK
6
CONTINUOUS
10
-51.6845
20
-12.3991
11
-51.7065
21
-12.3947
0
LINE
8
BLACK
6
CONTINUOUS
10
-51.7065
20
-12.3947
11
-51.7252
21
-12.3823
0
LINE
8
BLACK
6
CONTINUOUS
10
-51.7252
20
-12.3823
11
-51.7376
21
-12.3636
0
LINE
8
BLACK
6
CONTINUOUS
10
-51.7376
20
-12.3636
11
-51.742
21
-12.3416
0
LINE
8
BLACK
6
CONTINUOUS
10
-51.742
20
-12.3416
11
-51.742
21
-12.2266
0
LINE
8
BLACK
6
CONTINUOUS
10
-51.742
20
-12.2266
11
-51.7376
21
-12.2046
0
LINE
8
BLACK
6
CONTINUOUS
10
-51.7376
20
-12.2046
11
-51.7252
21
-12.1859
0
LINE
8
BLACK
6
CONTINUOUS
10
-51.7252
20
-12.1859
11
-51.7065
21
-12.1735
0
LINE
8
BLACK
6
CONTINUOUS
10
-51.7065
20
-12.1735
11
-51.6845
21
-12.1691
0
LINE
8
BLACK
6
CONTINUOUS
10
-51.6845
20
-12.1691
11
-50.9695
21
-12.1691
0
LINE
8
BLACK
6
CONTINUOUS
10
-50.9695
20
-12.1691
11
-50.9475
21
-12.1735
0
LINE
8
BLACK
6
CONTINUOUS
10
-48.8775
20
-12.1735
11
-48.8588
21
-12.1859
0
LINE
8
BLACK
6
CONTINUOUS
10
-48.8588
20
-12.1859
11
-48.8464
21
-12.2046
0
LINE
8
BLACK
6
CONTINUOUS
10
-48.8464
20
-12.2046
11
-48.842
21
-12.2266
0
LINE
8
BLACK
6
CONTINUOUS
10
-48.842
20
-12.2266
11
-48.842
21
-12.3416
0
LINE
8
BLACK
6
CONTINUOUS
10
-48.842
20
-12.3416
11
-48.8464
21
-12.3636
0
LINE
8
BLACK
6
CONTINUOUS
10
-48.8464
20
-12.3636
11
-48.8588
21
-12.3823
0
LINE
8
BLACK
6
CONTINUOUS
10
-48.8588
20
-12.3823
11
-48.8775
21
-12.3947
0
LINE
8
BLACK
6
CONTINUOUS
10
-48.8775
20
-12.3947
11
-48.8995
21
-12.3991
0
LINE
8
BLACK
6
CONTINUOUS
10
-48.8995
20
-12.3991
11
-49.6145
21
-12.3991
0
LINE
8
BLACK
6
CONTINUOUS
10
-49.6145
20
-12.3991
11
-49.6365
21
-12.3947
0
LINE
8
BLACK
6
CONTINUOUS
10
-49.6365
20
-12.3947
11
-49.6552
21
-12.3823
0
LINE
8
BLACK
6
CONTINUOUS
10
-49.6552
20
-12.3823
11
-49.6676
21
-12.3636
0
LINE
8
BLACK
6
CONTINUOUS
10
-49.6676
20
-12.3636
11
-49.672
21
-12.3416
0
LINE
8
BLACK
6
CONTINUOUS
10
-49.672
20
-12.3416
11
-49.672
21
-12.2266
0
LINE
8
BLACK
6
CONTINUOUS
10
-49.672
20
-12.2266
11
-49.6676
21
-12.2046
0
LINE
8
BLACK
6
CONTINUOUS
10
-49.6676
20
-12.2046
11
-49.6552
21
-12.1859
0
LINE
8
BLACK
6
CONTINUOUS
10
-49.6552
20
-12.1859
11
-49.6365
21
-12.1735
0
LINE
8
BLACK
6
CONTINUOUS
10
-49.6365
20
-12.1735
11
-49.6145
21
-12.1691
0
LINE
8
BLACK
6
CONTINUOUS
10
-49.6145
20
-12.1691
11
-48.8995
21
-12.1691
0
LINE
8
BLACK
6
CONTINUOUS
10
-48.8995
20
-12.1691
11
-48.8775
21
-12.1735
0
LINE
8
BLACK
6
CONTINUOUS
10
-51.0108
20
-11.3263
11
-50.9589
21
-11.361
0
LINE
8
BLACK
6
CONTINUOUS
10
-50.9589
20
-11.361
11
-50.9242
21
-11.4129
0
LINE
8
BLACK
6
CONTINUOUS
10
-50.9242
20
-11.4129
11
-50.912
21
-11.4741
0
LINE
8
BLACK
6
CONTINUOUS
10
-50.912
20
-11.4741
11
-50.912
21
-11.7941
0
LINE
8
BLACK
6
CONTINUOUS
10
-50.912
20
-11.7941
11
-50.9242
21
-11.8553
0
LINE
8
BLACK
6
CONTINUOUS
10
-50.9242
20
-11.8553
11
-50.9589
21
-11.9072
0
LINE
8
BLACK
6
CONTINUOUS
10
-50.9589
20
-11.9072
11
-51.0108
21
-11.9419
0
LINE
8
BLACK
6
CONTINUOUS
10
-51.0108
20
-11.9419
11
-51.072
21
-11.9541
0
LINE
8
BLACK
6
CONTINUOUS
10
-51.072
20
-11.9541
11
-51.582
21
-11.9541
0
LINE
8
BLACK
6
CONTINUOUS
10
-51.582
20
-11.9541
11
-51.6432
21
-11.9419
0
LINE
8
BLACK
6
CONTINUOUS
10
-51.6432
20
-11.9419
11
-51.6951
21
-11.9072
0
LINE
8
BLACK
6
CONTINUOUS
10
-51.6951
20
-11.9072
11
-51.7298
21
-11.8553
0
LINE
8
BLACK
6
CONTINUOUS
10
-51.7298
20
-11.8553
11
-51.742
21
-11.7941
0
LINE
8
BLACK
6
CONTINUOUS
10
-51.742
20
-11.7941
11
-51.742
21
-11.4741
0
LINE
8
BLACK
6
CONTINUOUS
10
-51.742
20
-11.4741
11
-51.7298
21
-11.4129
0
LINE
8
BLACK
6
CONTINUOUS
10
-51.7298
20
-11.4129
11
-51.6951
21
-11.361
0
LINE
8
BLACK
6
CONTINUOUS
10
-51.6951
20
-11.361
11
-51.6432
21
-11.3263
0
LINE
8
BLACK
6
CONTINUOUS
10
-51.6432
20
-11.3263
11
-51.582
21
-11.3141
0
LINE
8
BLACK
6
CONTINUOUS
10
-51.582
20
-11.3141
11
-51.072
21
-11.3141
0
LINE
8
BLACK
6
CONTINUOUS
10
-51.072
20
-11.3141
11
-51.0108
21
-11.3263
0
LINE
8
BLACK
6
CONTINUOUS
10
-48.9408
20
-11.3263
11
-48.8889
21
-11.361
0
LINE
8
BLACK
6
CONTINUOUS
10
-48.8889
20
-11.361
11
-48.8542
21
-11.4129
0
LINE
8
BLACK
6
CONTINUOUS
10
-48.8542
20
-11.4129
11
-48.842
21
-11.4741
0
LINE
8
BLACK
6
CONTINUOUS
10
-48.842
20
-11.4741
11
-48.842
21
-11.7941
0
LINE
8
BLACK
6
CONTINUOUS
10
-48.842
20
-11.7941
11
-48.8542
21
-11.8553
0
LINE
8
BLACK
6
CONTINUOUS
10
-48.8542
20
-11.8553
11
-48.8889
21
-11.9072
0
LINE
8
BLACK
6
CONTINUOUS
10
-48.8889
20
-11.9072
11
-48.9408
21
-11.9419
0
LINE
8
BLACK
6
CONTINUOUS
10
-48.9408
20
-11.9419
11
-49.002
21
-11.9541
0
LINE
8
BLACK
6
CONTINUOUS
10
-49.002
20
-11.9541
11
-49.512
21
-11.9541
0
LINE
8
BLACK
6
CONTINUOUS
10
-49.512
20
-11.9541
11
-49.5732
21
-11.9419
0
LINE
8
BLACK
6
CONTINUOUS
10
-49.5732
20
-11.9419
11
-49.6251
21
-11.9072
0
LINE
8
BLACK
6
CONTINUOUS
10
-49.6251
20
-11.9072
11
-49.6598
21
-11.8553
0
LINE
8
BLACK
6
CONTINUOUS
10
-49.6598
20
-11.8553
11
-49.672
21
-11.7941
0
LINE
8
BLACK
6
CONTINUOUS
10
-49.672
20
-11.7941
11
-49.672
21
-11.4741
0
LINE
8
BLACK
6
CONTINUOUS
10
-49.672
20
-11.4741
11
-49.6598
21
-11.4129
0
LINE
8
BLACK
6
CONTINUOUS
10
-49.6598
20
-11.4129
11
-49.6251
21
-11.361
0
LINE
8
BLACK
6
CONTINUOUS
10
-49.6251
20
-11.361
11
-49.5732
21
-11.3263
0
LINE
8
BLACK
6
CONTINUOUS
10
-49.5732
20
-11.3263
11
-49.512
21
-11.3141
0
LINE
8
BLACK
6
CONTINUOUS
10
-49.512
20
-11.3141
11
-49.002
21
-11.3141
0
LINE
8
BLACK
6
CONTINUOUS
10
-49.002
20
-11.3141
11
-48.9408
21
-11.3263
0
LINE
8
BLACK
6
CONTINUOUS
10
-50.1006
20
-10.5663
11
-50.0698
21
-10.5869
0
LINE
8
BLACK
6
CONTINUOUS
10
-50.0698
20
-10.5869
11
-50.0492
21
-10.6177
0
LINE
8
BLACK
6
CONTINUOUS
10
-50.0492
20
-10.6177
11
-50.042
21
-10.6541
0
LINE
8
BLACK
6
CONTINUOUS
10
-50.042
20
-10.6541
11
-50.042
21
-10.8441
0
LINE
8
BLACK
6
CONTINUOUS
10
-50.042
20
-10.8441
11
-50.0492
21
-10.8805
0
LINE
8
BLACK
6
CONTINUOUS
10
-50.0492
20
-10.8805
11
-50.0698
21
-10.9113
0
LINE
8
BLACK
6
CONTINUOUS
10
-50.0698
20
-10.9113
11
-50.1006
21
-10.9319
0
LINE
8
BLACK
6
CONTINUOUS
10
-50.1006
20
-10.9319
11
-50.137
21
-10.9391
0
LINE
8
BLACK
6
CONTINUOUS
10
-50.137
20
-10.9391
11
-50.447
21
-10.9391
0
LINE
8
BLACK
6
CONTINUOUS
10
-50.447
20
-10.9391
11
-50.4834
21
-10.9319
0
LINE
8
BLACK
6
CONTINUOUS
10
-50.4834
20
-10.9319
11
-50.5142
21
-10.9113
0
LINE
8
BLACK
6
CONTINUOUS
10
-50.5142
20
-10.9113
11
-50.5348
21
-10.8805
0
LINE
8
BLACK
6
CONTINUOUS
10
-50.5348
20
-10.8805
11
-50.542
21
-10.8441
0
LINE
8
BLACK
6
CONTINUOUS
10
-50.542
20
-10.8441
11
-50.542
21
-10.6541
0
LINE
8
BLACK
6
CONTINUOUS
10
-50.542
20
-10.6541
11
-50.5348
21
-10.6177
0
LINE
8
BLACK
6
CONTINUOUS
10
-50.5348
20
-10.6177
11
-50.5142
21
-10.5869
0
LINE
8
BLACK
6
CONTINUOUS
10
-50.5142
20
-10.5869
11
-50.4834
21
-10.5663
0
LINE
8
BLACK
6
CONTINUOUS
10
-50.4834
20
-10.5663
11
-50.447
21
-10.5591
0
LINE
8
BLACK
6
CONTINUOUS
10
-50.447
20
-10.5591
11
-50.137
21
-10.5591
0
LINE
8
BLACK
6
CONTINUOUS
10
-50.137
20
-10.5591
11
-50.1006
21
-10.5663
0
LINE
8
BLACK
6
CONTINUOUS
10
-24.2022
20
-7.74501
11
-24.1616
21
-7.77211
0
LINE
8
BLACK
6
CONTINUOUS
10
-24.1616
20
-7.77211
11
-24.1345
21
-7.81266
0
LINE
8
BLACK
6
CONTINUOUS
10
-24.1345
20
-7.81266
11
-24.125
21
-7.8605
0
LINE
8
BLACK
6
CONTINUOUS
10
-24.125
20
-7.8605
11
-24.1345
21
-7.90833
0
LINE
8
BLACK
6
CONTINUOUS
10
-24.1345
20
-7.90833
11
-24.1616
21
-7.94889
0
LINE
8
BLACK
6
CONTINUOUS
10
-24.1616
20
-7.94889
11
-24.2022
21
-7.97598
0
LINE
8
BLACK
6
CONTINUOUS
10
-24.2022
20
-7.97598
11
-24.25
21
-7.9855
0
LINE
8
BLACK
6
CONTINUOUS
10
-24.25
20
-7.9855
11
-24.2978
21
-7.97598
0
LINE
8
BLACK
6
CONTINUOUS
10
-24.2978
20
-7.97598
11
-24.3384
21
-7.94889
0
LINE
8
BLACK
6
CONTINUOUS
10
-24.3384
20
-7.94889
11
-24.3655
21
-7.90833
0
LINE
8
BLACK
6
CONTINUOUS
10
-24.3655
20
-7.90833
11
-24.375
21
-7.8605
0
LINE
8
BLACK
6
CONTINUOUS
10
-24.375
20
-7.8605
11
-24.3655
21
-7.81266
0
LINE
8
BLACK
6
CONTINUOUS
10
-24.3655
20
-7.81266
11
-24.3384
21
-7.77211
0
LINE
8
BLACK
6
CONTINUOUS
10
-24.3384
20
-7.77211
11
-24.2978
21
-7.74501
0
LINE
8
BLACK
6
CONTINUOUS
10
-24.2978
20
-7.74501
11
-24.25
21
-7.7355
0
LINE
8
BLACK
6
CONTINUOUS
10
-24.25
20
-7.7355
11
-24.2022
21
-7.74501
0
LINE
8
BLACK
6
CONTINUOUS
10
-23.8022
20
-7.74501
11
-23.7616
21
-7.77211
0
LINE
8
BLACK
6
CONTINUOUS
10
-23.7616
20
-7.77211
11
-23.7345
21
-7.81266
0
LINE
8
BLACK
6
CONTINUOUS
10
-23.7345
20
-7.81266
11
-23.725
21
-7.8605
0
LINE
8
BLACK
6
CONTINUOUS
10
-23.725
20
-7.8605
11
-23.7345
21
-7.90833
0
LINE
8
BLACK
6
CONTINUOUS
10
-23.7345
20
-7.90833
11
-23.7616
21
-7.94889
0
LINE
8
BLACK
6
CONTINUOUS
10
-23.7616
20
-7.94889
11
-23.8022
21
-7.97598
0
LINE
8
BLACK
6
CONTINUOUS
10
-23.8022
20
-7.97598
11
-23.85
21
-7.9855
0
LINE
8
BLACK
6
CONTINUOUS
10
-23.85
20
-7.9855
11
-23.8978
21
-7.97598
0
LINE
8
BLACK
6
CONTINUOUS
10
-23.8978
20
-7.97598
11
-23.9384
21
-7.94889
0
LINE
8
BLACK
6
CONTINUOUS
10
-23.9384
20
-7.94889
11
-23.9655
21
-7.90833
0
LINE
8
BLACK
6
CONTINUOUS
10
-23.9655
20
-7.90833
11
-23.975
21
-7.8605
0
LINE
8
BLACK
6
CONTINUOUS
10
-23.975
20
-7.8605
11
-23.9655
21
-7.81266
0
LINE
8
BLACK
6
CONTINUOUS
10
-23.9655
20
-7.81266
11
-23.9384
21
-7.77211
0
LINE
8
BLACK
6
CONTINUOUS
10
-23.9384
20
-7.77211
11
-23.8978
21
-7.74501
0
LINE
8
BLACK
6
CONTINUOUS
10
-23.8978
20
-7.74501
11
-23.85
21
-7.7355
0
LINE
8
BLACK
6
CONTINUOUS
10
-23.85
20
-7.7355
11
-23.8022
21
-7.74501
0
LINE
8
BLACK
6
CONTINUOUS
10
-24.2022
20
-7.34502
11
-24.1616
21
-7.37211
0
LINE
8
BLACK
6
CONTINUOUS
10
-24.1616
20
-7.37211
11
-24.1345
21
-7.41266
0
LINE
8
BLACK
6
CONTINUOUS
10
-24.1345
20
-7.41266
11
-24.125
21
-7.4605
0
LINE
8
BLACK
6
CONTINUOUS
10
-24.125
20
-7.4605
11
-24.1345
21
-7.50833
0
LINE
8
BLACK
6
CONTINUOUS
10
-24.1345
20
-7.50833
11
-24.1616
21
-7.54889
0
LINE
8
BLACK
6
CONTINUOUS
10
-24.1616
20
-7.54889
11
-24.2022
21
-7.57598
0
LINE
8
BLACK
6
CONTINUOUS
10
-24.2022
20
-7.57598
11
-24.25
21
-7.5855
0
LINE
8
BLACK
6
CONTINUOUS
10
-24.25
20
-7.5855
11
-24.2978
21
-7.57598
0
LINE
8
BLACK
6
CONTINUOUS
10
-24.2978
20
-7.57598
11
-24.3384
21
-7.54889
0
LINE
8
BLACK
6
CONTINUOUS
10
-24.3384
20
-7.54889
11
-24.3655
21
-7.50833
0
LINE
8
BLACK
6
CONTINUOUS
10
-24.3655
20
-7.50833
11
-24.375
21
-7.4605
0
LINE
8
BLACK
6
CONTINUOUS
10
-24.375
20
-7.4605
11
-24.3655
21
-7.41266
0
LINE
8
BLACK
6
CONTINUOUS
10
-24.3655
20
-7.41266
11
-24.3384
21
-7.37211
0
LINE
8
BLACK
6
CONTINUOUS
10
-24.3384
20
-7.37211
11
-24.2978
21
-7.34502
0
LINE
8
BLACK
6
CONTINUOUS
10
-24.2978
20
-7.34502
11
-24.25
21
-7.3355
0
LINE
8
BLACK
6
CONTINUOUS
10
-24.25
20
-7.3355
11
-24.2022
21
-7.34502
0
LINE
8
BLACK
6
CONTINUOUS
10
-23.8022
20
-7.34502
11
-23.7616
21
-7.37211
0
LINE
8
BLACK
6
CONTINUOUS
10
-23.7616
20
-7.37211
11
-23.7345
21
-7.41266
0
LINE
8
BLACK
6
CONTINUOUS
10
-23.7345
20
-7.41266
11
-23.725
21
-7.4605
0
LINE
8
BLACK
6
CONTINUOUS
10
-23.725
20
-7.4605
11
-23.7345
21
-7.50833
0
LINE
8
BLACK
6
CONTINUOUS
10
-23.7345
20
-7.50833
11
-23.7616
21
-7.54889
0
LINE
8
BLACK
6
CONTINUOUS
10
-23.7616
20
-7.54889
11
-23.8022
21
-7.57598
0
LINE
8
BLACK
6
CONTINUOUS
10
-23.8022
20
-7.57598
11
-23.85
21
-7.5855
0
LINE
8
BLACK
6
CONTINUOUS
10
-23.85
20
-7.5855
11
-23.8978
21
-7.57598
0
LINE
8
BLACK
6
CONTINUOUS
10
-23.8978
20
-7.57598
11
-23.9384
21
-7.54889
0
LINE
8
BLACK
6
CONTINUOUS
10
-23.9384
20
-7.54889
11
-23.9655
21
-7.50833
0
LINE
8
BLACK
6
CONTINUOUS
10
-23.9655
20
-7.50833
11
-23.975
21
-7.4605
0
LINE
8
BLACK
6
CONTINUOUS
10
-23.975
20
-7.4605
11
-23.9655
21
-7.41266
0
LINE
8
BLACK
6
CONTINUOUS
10
-23.9655
20
-7.41266
11
-23.9384
21
-7.37211
0
LINE
8
BLACK
6
CONTINUOUS
10
-23.9384
20
-7.37211
11
-23.8978
21
-7.34502
0
LINE
8
BLACK
6
CONTINUOUS
10
-23.8978
20
-7.34502
11
-23.85
21
-7.3355
0
LINE
8
BLACK
6
CONTINUOUS
10
-23.85
20
-7.3355
11
-23.8022
21
-7.34502
  0
ENDSEC
  0
EOF
