  0
SECTION
  2
HEADER
  9
$ANGBASE
  50
0.0
  9
$ANGDIR
  70
1
  9
$MEASUREMENT
  70
1
  0
ENDSEC
  0
SECTION
  2
TABLES
  0
TABLE
  2
LTYPE
  70
4
  0
LTYPE
  5
40F
  2
CONTINUOUS
  70
0
  3
Solid line
  72
65
  73
0
  40
0.0
  0
LTYPE
  5
410
  2
DASHDOT
 70
0
  3
Dash Dot ____ _ ____ _
 72
65
 73
4
 40
2.0
 49
1.25
 49
-0.25
 49
0.25
 49
-0.25
  0
LTYPE
  5
411
  2
DASHED
 70
0
  3
Dashed __ __ __ __ __
 72
65
 73
2
 40
0.75
 49
0.5
 49
-0.25
  0
LTYPE
  5
43B
  2
DOTTED
 70
0
  3
Dotted .  .  .  .
 72
65
 73
2
 40
0.2
 49
0.0
 49
-0.2
  0
ENDTAB
  0
TABLE
  2
STYLE
  70
4
  0
STYLE
  2
KICAD
  70
0
  40
0
  41
1
  42
1
  50
0
  71
0
  3
isocp.shx
  0
STYLE
  2
KICADB
  70
0
  40
0
  41
1
  42
1
  50
0
  71
0
  3
isocp.shx
  0
STYLE
  2
KICADI
  70
0
  40
0
  41
1
  42
1
  50
15
  71
0
  3
isocp.shx
  0
STYLE
  2
KICADBI
  70
0
  40
0
  41
1
  42
1
  50
15
  71
0
  3
isocp.shx
  0
ENDTAB
  0
TABLE
  2
LAYER
  70
1
  0
LAYER
  2
BLACK
  70
0
  62
7
  6
CONTINUOUS
  0
ENDTAB
  0
ENDSEC
  0
SECTION
  2
ENTITIES
0
LINE
8
BLACK
6
CONTINUOUS
10
-49.1777
20
-10.0868
11
-49.0685
21
-10.1012
0
LINE
8
BLACK
6
CONTINUOUS
10
-49.0685
20
-10.1012
11
-49.0373
21
-10.1096
0
LINE
8
BLACK
6
CONTINUOUS
10
-49.0373
20
-10.1096
11
-48.9469
21
-10.147
0
LINE
8
BLACK
6
CONTINUOUS
10
-48.9469
20
-10.147
11
-48.9188
21
-10.1632
0
LINE
8
BLACK
6
CONTINUOUS
10
-48.9188
20
-10.1632
11
-48.8412
21
-10.2228
0
LINE
8
BLACK
6
CONTINUOUS
10
-48.8412
20
-10.2228
11
-48.8183
21
-10.2457
0
LINE
8
BLACK
6
CONTINUOUS
10
-48.8183
20
-10.2457
11
-48.7587
21
-10.3233
0
LINE
8
BLACK
6
CONTINUOUS
10
-48.7587
20
-10.3233
11
-48.7425
21
-10.3514
0
LINE
8
BLACK
6
CONTINUOUS
10
-48.7425
20
-10.3514
11
-48.7051
21
-10.4418
0
LINE
8
BLACK
6
CONTINUOUS
10
-48.7051
20
-10.4418
11
-48.6967
21
-10.473
0
LINE
8
BLACK
6
CONTINUOUS
10
-48.6967
20
-10.473
11
-48.6823
21
-10.5822
0
LINE
8
BLACK
6
CONTINUOUS
10
-48.6823
20
-10.5822
11
-48.6818
21
-10.5903
0
LINE
8
BLACK
6
CONTINUOUS
10
-48.6818
20
-10.5903
11
-48.6818
21
-11.0863
0
LINE
8
BLACK
6
CONTINUOUS
10
-48.6818
20
-11.0863
11
-48.6589
21
-11.2011
0
LINE
8
BLACK
6
CONTINUOUS
10
-48.6589
20
-11.2011
11
-48.5939
21
-11.2984
0
LINE
8
BLACK
6
CONTINUOUS
10
-48.5939
20
-11.2984
11
-48.5939
21
-11.2984
0
LINE
8
BLACK
6
CONTINUOUS
10
-48.5939
20
-11.2984
11
-48.4928
21
-11.366
0
LINE
8
BLACK
6
CONTINUOUS
10
-48.4928
20
-11.366
11
-48.448
21
-11.4196
0
LINE
8
BLACK
6
CONTINUOUS
10
-48.448
20
-11.4196
11
-48.4377
21
-11.4693
0
LINE
8
BLACK
6
CONTINUOUS
10
-48.4377
20
-11.4693
11
-48.4425
21
-13.507
0
LINE
8
BLACK
6
CONTINUOUS
10
-48.4425
20
-13.507
11
-48.4623
21
-13.574
0
LINE
8
BLACK
6
CONTINUOUS
10
-48.4623
20
-13.574
11
-48.4976
21
-13.6098
0
LINE
8
BLACK
6
CONTINUOUS
10
-48.4976
20
-13.6098
11
-48.5939
21
-13.6741
0
LINE
8
BLACK
6
CONTINUOUS
10
-48.5939
20
-13.6741
11
-48.5939
21
-13.6741
0
LINE
8
BLACK
6
CONTINUOUS
10
-48.5939
20
-13.6741
11
-48.6589
21
-13.7715
0
LINE
8
BLACK
6
CONTINUOUS
10
-48.6589
20
-13.7715
11
-48.6818
21
-13.8863
0
LINE
8
BLACK
6
CONTINUOUS
10
-48.6818
20
-13.8863
11
-48.6818
21
-14.3822
0
LINE
8
BLACK
6
CONTINUOUS
10
-48.6818
20
-14.3822
11
-48.6823
21
-14.3903
0
LINE
8
BLACK
6
CONTINUOUS
10
-48.6823
20
-14.3903
11
-48.6967
21
-14.4995
0
LINE
8
BLACK
6
CONTINUOUS
10
-48.6967
20
-14.4995
11
-48.705
21
-14.5308
0
LINE
8
BLACK
6
CONTINUOUS
10
-48.705
20
-14.5308
11
-48.7425
21
-14.6212
0
LINE
8
BLACK
6
CONTINUOUS
10
-48.7425
20
-14.6212
11
-48.7587
21
-14.6492
0
LINE
8
BLACK
6
CONTINUOUS
10
-48.7587
20
-14.6492
11
-48.8183
21
-14.7269
0
LINE
8
BLACK
6
CONTINUOUS
10
-48.8183
20
-14.7269
11
-48.8411
21
-14.7498
0
LINE
8
BLACK
6
CONTINUOUS
10
-48.8411
20
-14.7498
11
-48.9188
21
-14.8094
0
LINE
8
BLACK
6
CONTINUOUS
10
-48.9188
20
-14.8094
11
-48.9468
21
-14.8256
0
LINE
8
BLACK
6
CONTINUOUS
10
-48.9468
20
-14.8256
11
-49.0373
21
-14.863
0
LINE
8
BLACK
6
CONTINUOUS
10
-49.0373
20
-14.863
11
-49.0685
21
-14.8714
0
LINE
8
BLACK
6
CONTINUOUS
10
-49.0685
20
-14.8714
11
-49.1777
21
-14.8857
0
LINE
8
BLACK
6
CONTINUOUS
10
-49.1777
20
-14.8857
11
-49.1858
21
-14.8863
0
LINE
8
BLACK
6
CONTINUOUS
10
-49.1858
20
-14.8863
11
-51.3777
21
-14.8863
0
LINE
8
BLACK
6
CONTINUOUS
10
-51.3777
20
-14.8863
11
-51.3858
21
-14.8857
0
LINE
8
BLACK
6
CONTINUOUS
10
-51.3858
20
-14.8857
11
-51.495
21
-14.8714
0
LINE
8
BLACK
6
CONTINUOUS
10
-51.495
20
-14.8714
11
-51.5263
21
-14.863
0
LINE
8
BLACK
6
CONTINUOUS
10
-51.5263
20
-14.863
11
-51.6167
21
-14.8255
0
LINE
8
BLACK
6
CONTINUOUS
10
-51.6167
20
-14.8255
11
-51.6447
21
-14.8094
0
LINE
8
BLACK
6
CONTINUOUS
10
-51.6447
20
-14.8094
11
-51.7224
21
-14.7498
0
LINE
8
BLACK
6
CONTINUOUS
10
-51.7224
20
-14.7498
11
-51.7453
21
-14.7269
0
LINE
8
BLACK
6
CONTINUOUS
10
-51.7453
20
-14.7269
11
-51.8049
21
-14.6492
0
LINE
8
BLACK
6
CONTINUOUS
10
-51.8049
20
-14.6492
11
-51.821
21
-14.6212
0
LINE
8
BLACK
6
CONTINUOUS
10
-51.821
20
-14.6212
11
-51.8585
21
-14.5308
0
LINE
8
BLACK
6
CONTINUOUS
10
-51.8585
20
-14.5308
11
-51.8669
21
-14.4995
0
LINE
8
BLACK
6
CONTINUOUS
10
-51.8669
20
-14.4995
11
-51.8812
21
-14.3903
0
LINE
8
BLACK
6
CONTINUOUS
10
-51.8812
20
-14.3903
11
-51.8818
21
-14.3822
0
LINE
8
BLACK
6
CONTINUOUS
10
-51.8818
20
-14.3822
11
-51.8818
21
-10.5903
0
LINE
8
BLACK
6
CONTINUOUS
10
-51.8818
20
-10.5903
11
-51.8812
21
-10.5822
0
LINE
8
BLACK
6
CONTINUOUS
10
-51.8812
20
-10.5822
11
-51.8669
21
-10.4731
0
LINE
8
BLACK
6
CONTINUOUS
10
-51.8669
20
-10.4731
11
-51.8585
21
-10.4418
0
LINE
8
BLACK
6
CONTINUOUS
10
-51.8585
20
-10.4418
11
-51.821
21
-10.3514
0
LINE
8
BLACK
6
CONTINUOUS
10
-51.821
20
-10.3514
11
-51.8048
21
-10.3233
0
LINE
8
BLACK
6
CONTINUOUS
10
-51.8048
20
-10.3233
11
-51.7452
21
-10.2457
0
LINE
8
BLACK
6
CONTINUOUS
10
-51.7452
20
-10.2457
11
-51.7224
21
-10.2228
0
LINE
8
BLACK
6
CONTINUOUS
10
-51.7224
20
-10.2228
11
-51.6447
21
-10.1632
0
LINE
8
BLACK
6
CONTINUOUS
10
-51.6447
20
-10.1632
11
-51.6167
21
-10.147
0
LINE
8
BLACK
6
CONTINUOUS
10
-51.6167
20
-10.147
11
-51.5262
21
-10.1096
0
LINE
8
BLACK
6
CONTINUOUS
10
-51.5262
20
-10.1096
11
-51.495
21
-10.1012
0
LINE
8
BLACK
6
CONTINUOUS
10
-51.495
20
-10.1012
11
-51.3858
21
-10.0868
0
LINE
8
BLACK
6
CONTINUOUS
10
-51.3858
20
-10.0868
11
-51.3777
21
-10.0863
0
LINE
8
BLACK
6
CONTINUOUS
10
-51.3777
20
-10.0863
11
-49.1858
21
-10.0863
0
LINE
8
BLACK
6
CONTINUOUS
10
-49.1858
20
-10.0863
11
-49.1777
21
-10.0868
0
LINE
8
BLACK
6
CONTINUOUS
10
-23.357
20
-7.06113
11
-23.3112
21
-7.11394
0
LINE
8
BLACK
6
CONTINUOUS
10
-23.3112
20
-7.11394
11
-23.3
21
-7.16545
0
LINE
8
BLACK
6
CONTINUOUS
10
-23.3
20
-7.16545
11
-23.3
21
-8.02921
0
LINE
8
BLACK
6
CONTINUOUS
10
-23.3
20
-8.02921
11
-23.3024
21
-8.05344
0
LINE
8
BLACK
6
CONTINUOUS
10
-23.3024
20
-8.05344
11
-23.3104
21
-8.0938
0
LINE
8
BLACK
6
CONTINUOUS
10
-23.3104
20
-8.0938
11
-23.3289
21
-8.13847
0
LINE
8
BLACK
6
CONTINUOUS
10
-23.3289
20
-8.13847
11
-23.3449
21
-8.16235
0
LINE
8
BLACK
6
CONTINUOUS
10
-23.3449
20
-8.16235
11
-23.3791
21
-8.19655
0
LINE
8
BLACK
6
CONTINUOUS
10
-23.3791
20
-8.19655
11
-23.403
21
-8.2125
0
LINE
8
BLACK
6
CONTINUOUS
10
-23.403
20
-8.2125
11
-23.4477
21
-8.23102
0
LINE
8
BLACK
6
CONTINUOUS
10
-23.4477
20
-8.23102
11
-23.488
21
-8.23906
0
LINE
8
BLACK
6
CONTINUOUS
10
-23.488
20
-8.23906
11
-23.5122
21
-8.24145
0
LINE
8
BLACK
6
CONTINUOUS
10
-23.5122
20
-8.24145
11
-24.5878
21
-8.24145
0
LINE
8
BLACK
6
CONTINUOUS
10
-24.5878
20
-8.24145
11
-24.612
21
-8.23906
0
LINE
8
BLACK
6
CONTINUOUS
10
-24.612
20
-8.23906
11
-24.6524
21
-8.23103
0
LINE
8
BLACK
6
CONTINUOUS
10
-24.6524
20
-8.23103
11
-24.697
21
-8.21252
0
LINE
8
BLACK
6
CONTINUOUS
10
-24.697
20
-8.21252
11
-24.7209
21
-8.19658
0
LINE
8
BLACK
6
CONTINUOUS
10
-24.7209
20
-8.19658
11
-24.7551
21
-8.16236
0
LINE
8
BLACK
6
CONTINUOUS
10
-24.7551
20
-8.16236
11
-24.7711
21
-8.1385
0
LINE
8
BLACK
6
CONTINUOUS
10
-24.7711
20
-8.1385
11
-24.7896
21
-8.09378
0
LINE
8
BLACK
6
CONTINUOUS
10
-24.7896
20
-8.09378
11
-24.7976
21
-8.05341
0
LINE
8
BLACK
6
CONTINUOUS
10
-24.7976
20
-8.05341
11
-24.8
21
-8.02924
0
LINE
8
BLACK
6
CONTINUOUS
10
-24.8
20
-8.02924
11
-24.8
21
-7.16545
0
LINE
8
BLACK
6
CONTINUOUS
10
-24.8
20
-7.16545
11
-24.7803
21
-7.09841
0
LINE
8
BLACK
6
CONTINUOUS
10
-24.7803
20
-7.09841
11
-24.7275
21
-7.05266
0
LINE
8
BLACK
6
CONTINUOUS
10
-24.7275
20
-7.05266
11
-24.676
21
-7.04145
0
LINE
8
BLACK
6
CONTINUOUS
10
-24.676
20
-7.04145
11
-23.424
21
-7.04145
0
LINE
8
BLACK
6
CONTINUOUS
10
-23.424
20
-7.04145
11
-23.357
21
-7.06113
  0
ENDSEC
  0
EOF
