  0
SECTION
  2
HEADER
  9
$ANGBASE
  50
0.0
  9
$ANGDIR
  70
1
  9
$MEASUREMENT
  70
1
  0
ENDSEC
  0
SECTION
  2
TABLES
  0
TABLE
  2
LTYPE
  70
4
  0
LTYPE
  5
40F
  2
CONTINUOUS
  70
0
  3
Solid line
  72
65
  73
0
  40
0.0
  0
LTYPE
  5
410
  2
DASHDOT
 70
0
  3
Dash Dot ____ _ ____ _
 72
65
 73
4
 40
2.0
 49
1.25
 49
-0.25
 49
0.25
 49
-0.25
  0
LTYPE
  5
411
  2
DASHED
 70
0
  3
Dashed __ __ __ __ __
 72
65
 73
2
 40
0.75
 49
0.5
 49
-0.25
  0
LTYPE
  5
43B
  2
DOTTED
 70
0
  3
Dotted .  .  .  .
 72
65
 73
2
 40
0.2
 49
0.0
 49
-0.2
  0
ENDTAB
  0
TABLE
  2
STYLE
  70
4
  0
STYLE
  2
KICAD
  70
0
  40
0
  41
1
  42
1
  50
0
  71
0
  3
isocp.shx
  0
STYLE
  2
KICADB
  70
0
  40
0
  41
1
  42
1
  50
0
  71
0
  3
isocp.shx
  0
STYLE
  2
KICADI
  70
0
  40
0
  41
1
  42
1
  50
15
  71
0
  3
isocp.shx
  0
STYLE
  2
KICADBI
  70
0
  40
0
  41
1
  42
1
  50
15
  71
0
  3
isocp.shx
  0
ENDTAB
  0
TABLE
  2
LAYER
  70
1
  0
LAYER
  2
BLACK
  70
0
  62
7
  6
CONTINUOUS
  0
ENDTAB
  0
ENDSEC
  0
SECTION
  2
ENTITIES
0
LINE
8
BLACK
6
CONTINUOUS
10
-52.1684
20
-13.8037
11
-52.0569
21
-13.8605
0
LINE
8
BLACK
6
CONTINUOUS
10
-52.0569
20
-13.8605
11
-51.9684
21
-13.949
0
LINE
8
BLACK
6
CONTINUOUS
10
-51.9684
20
-13.949
11
-51.9116
21
-14.0605
0
LINE
8
BLACK
6
CONTINUOUS
10
-51.9116
20
-14.0605
11
-51.892
21
-14.1841
0
LINE
8
BLACK
6
CONTINUOUS
10
-51.892
20
-14.1841
11
-51.9116
21
-14.3077
0
LINE
8
BLACK
6
CONTINUOUS
10
-51.9116
20
-14.3077
11
-51.9684
21
-14.4192
0
LINE
8
BLACK
6
CONTINUOUS
10
-51.9684
20
-14.4192
11
-52.0569
21
-14.5077
0
LINE
8
BLACK
6
CONTINUOUS
10
-52.0569
20
-14.5077
11
-52.1684
21
-14.5645
0
LINE
8
BLACK
6
CONTINUOUS
10
-52.1684
20
-14.5645
11
-52.292
21
-14.5841
0
LINE
8
BLACK
6
CONTINUOUS
10
-52.292
20
-14.5841
11
-52.4156
21
-14.5645
0
LINE
8
BLACK
6
CONTINUOUS
10
-52.4156
20
-14.5645
11
-52.5271
21
-14.5077
0
LINE
8
BLACK
6
CONTINUOUS
10
-52.5271
20
-14.5077
11
-52.6156
21
-14.4192
0
LINE
8
BLACK
6
CONTINUOUS
10
-52.6156
20
-14.4192
11
-52.6724
21
-14.3077
0
LINE
8
BLACK
6
CONTINUOUS
10
-52.6724
20
-14.3077
11
-52.692
21
-14.1841
0
LINE
8
BLACK
6
CONTINUOUS
10
-52.692
20
-14.1841
11
-52.6724
21
-14.0605
0
LINE
8
BLACK
6
CONTINUOUS
10
-52.6724
20
-14.0605
11
-52.6156
21
-13.949
0
LINE
8
BLACK
6
CONTINUOUS
10
-52.6156
20
-13.949
11
-52.5271
21
-13.8605
0
LINE
8
BLACK
6
CONTINUOUS
10
-52.5271
20
-13.8605
11
-52.4156
21
-13.8037
0
LINE
8
BLACK
6
CONTINUOUS
10
-52.4156
20
-13.8037
11
-52.292
21
-13.7841
0
LINE
8
BLACK
6
CONTINUOUS
10
-52.292
20
-13.7841
11
-52.1684
21
-13.8037
0
LINE
8
BLACK
6
CONTINUOUS
10
-24.0076
20
-7.09307
11
-23.99
21
-7.1355
0
LINE
8
BLACK
6
CONTINUOUS
10
-23.99
20
-7.1355
11
-24.0076
21
-7.17793
0
LINE
8
BLACK
6
CONTINUOUS
10
-24.0076
20
-7.17793
11
-24.05
21
-7.1955
0
LINE
8
BLACK
6
CONTINUOUS
10
-24.05
20
-7.1955
11
-24.515
21
-7.1955
0
LINE
8
BLACK
6
CONTINUOUS
10
-24.515
20
-7.1955
11
-24.515
21
-8.1255
0
LINE
8
BLACK
6
CONTINUOUS
10
-24.515
20
-8.1255
11
-23.585
21
-8.1255
0
LINE
8
BLACK
6
CONTINUOUS
10
-23.585
20
-8.1255
11
-23.585
21
-7.6605
0
LINE
8
BLACK
6
CONTINUOUS
10
-23.585
20
-7.6605
11
-23.5674
21
-7.61807
0
LINE
8
BLACK
6
CONTINUOUS
10
-23.5674
20
-7.61807
11
-23.525
21
-7.6005
0
LINE
8
BLACK
6
CONTINUOUS
10
-23.525
20
-7.6005
11
-23.4826
21
-7.61807
0
LINE
8
BLACK
6
CONTINUOUS
10
-23.4826
20
-7.61807
11
-23.465
21
-7.6605
0
LINE
8
BLACK
6
CONTINUOUS
10
-23.465
20
-7.6605
11
-23.465
21
-8.1855
0
LINE
8
BLACK
6
CONTINUOUS
10
-23.465
20
-8.1855
11
-23.4826
21
-8.22793
0
LINE
8
BLACK
6
CONTINUOUS
10
-23.4826
20
-8.22793
11
-23.525
21
-8.2455
0
LINE
8
BLACK
6
CONTINUOUS
10
-23.525
20
-8.2455
11
-24.575
21
-8.2455
0
LINE
8
BLACK
6
CONTINUOUS
10
-24.575
20
-8.2455
11
-24.6174
21
-8.22793
0
LINE
8
BLACK
6
CONTINUOUS
10
-24.6174
20
-8.22793
11
-24.635
21
-8.1855
0
LINE
8
BLACK
6
CONTINUOUS
10
-24.635
20
-8.1855
11
-24.635
21
-7.1355
0
LINE
8
BLACK
6
CONTINUOUS
10
-24.635
20
-7.1355
11
-24.6174
21
-7.09307
0
LINE
8
BLACK
6
CONTINUOUS
10
-24.6174
20
-7.09307
11
-24.575
21
-7.0755
0
LINE
8
BLACK
6
CONTINUOUS
10
-24.575
20
-7.0755
11
-24.05
21
-7.0755
0
LINE
8
BLACK
6
CONTINUOUS
10
-24.05
20
-7.0755
11
-24.0076
21
-7.09307
  0
ENDSEC
  0
EOF
