  0
SECTION
  2
HEADER
  9
$ANGBASE
  50
0.0
  9
$ANGDIR
  70
1
  9
$MEASUREMENT
  70
1
  0
ENDSEC
  0
SECTION
  2
TABLES
  0
TABLE
  2
LTYPE
  70
4
  0
LTYPE
  5
40F
  2
CONTINUOUS
  70
0
  3
Solid line
  72
65
  73
0
  40
0.0
  0
LTYPE
  5
410
  2
DASHDOT
 70
0
  3
Dash Dot ____ _ ____ _
 72
65
 73
4
 40
2.0
 49
1.25
 49
-0.25
 49
0.25
 49
-0.25
  0
LTYPE
  5
411
  2
DASHED
 70
0
  3
Dashed __ __ __ __ __
 72
65
 73
2
 40
0.75
 49
0.5
 49
-0.25
  0
LTYPE
  5
43B
  2
DOTTED
 70
0
  3
Dotted .  .  .  .
 72
65
 73
2
 40
0.2
 49
0.0
 49
-0.2
  0
ENDTAB
  0
TABLE
  2
STYLE
  70
4
  0
STYLE
  2
KICAD
  70
0
  40
0
  41
1
  42
1
  50
0
  71
0
  3
isocp.shx
  0
STYLE
  2
KICADB
  70
0
  40
0
  41
1
  42
1
  50
0
  71
0
  3
isocp.shx
  0
STYLE
  2
KICADI
  70
0
  40
0
  41
1
  42
1
  50
15
  71
0
  3
isocp.shx
  0
STYLE
  2
KICADBI
  70
0
  40
0
  41
1
  42
1
  50
15
  71
0
  3
isocp.shx
  0
ENDTAB
  0
TABLE
  2
LAYER
  70
1
  0
LAYER
  2
BLACK
  70
0
  62
7
  6
CONTINUOUS
  0
ENDTAB
  0
ENDSEC
  0
SECTION
  2
ENTITIES
0
LINE
8
BLACK
6
CONTINUOUS
10
-48.792
20
-10.4591
11
-48.7743
21
-10.4664
0
LINE
8
BLACK
6
CONTINUOUS
10
-48.7743
20
-10.4664
11
-48.767
21
-10.4841
0
LINE
8
BLACK
6
CONTINUOUS
10
-48.767
20
-10.4841
11
-48.767
21
-14.4841
0
LINE
8
BLACK
6
CONTINUOUS
10
-48.767
20
-14.4841
11
-48.7743
21
-14.5018
0
LINE
8
BLACK
6
CONTINUOUS
10
-48.7743
20
-14.5018
11
-48.792
21
-14.5091
0
LINE
8
BLACK
6
CONTINUOUS
10
-48.792
20
-14.5091
11
-51.792
21
-14.5091
0
LINE
8
BLACK
6
CONTINUOUS
10
-51.792
20
-14.5091
11
-51.8097
21
-14.5018
0
LINE
8
BLACK
6
CONTINUOUS
10
-51.8097
20
-14.5018
11
-51.817
21
-14.4841
0
LINE
8
BLACK
6
CONTINUOUS
10
-51.817
20
-14.4841
11
-51.817
21
-10.4841
0
LINE
8
BLACK
6
CONTINUOUS
10
-51.817
20
-10.4841
11
-51.8097
21
-10.4664
0
LINE
8
BLACK
6
CONTINUOUS
10
-51.8097
20
-10.4664
11
-51.792
21
-10.4591
0
LINE
8
BLACK
6
CONTINUOUS
10
-51.792
20
-10.4591
11
-48.792
21
-10.4591
0
LINE
8
BLACK
6
CONTINUOUS
10
-51.767
20
-10.5091
11
-51.767
21
-14.4591
0
LINE
8
BLACK
6
CONTINUOUS
10
-51.767
20
-14.4591
11
-48.817
21
-14.4591
0
LINE
8
BLACK
6
CONTINUOUS
10
-48.817
20
-14.4591
11
-48.817
21
-10.5091
0
LINE
8
BLACK
6
CONTINUOUS
10
-48.817
20
-10.5091
11
-51.767
21
-10.5091
0
LINE
8
BLACK
6
CONTINUOUS
10
-23.65
20
-7.2355
11
-23.6323
21
-7.24282
0
LINE
8
BLACK
6
CONTINUOUS
10
-23.6323
20
-7.24282
11
-23.625
21
-7.2605
0
LINE
8
BLACK
6
CONTINUOUS
10
-23.625
20
-7.2605
11
-23.625
21
-8.0605
0
LINE
8
BLACK
6
CONTINUOUS
10
-23.625
20
-8.0605
11
-23.6323
21
-8.07818
0
LINE
8
BLACK
6
CONTINUOUS
10
-23.6323
20
-8.07818
11
-23.65
21
-8.0855
0
LINE
8
BLACK
6
CONTINUOUS
10
-23.65
20
-8.0855
11
-24.45
21
-8.0855
0
LINE
8
BLACK
6
CONTINUOUS
10
-24.45
20
-8.0855
11
-24.4677
21
-8.07818
0
LINE
8
BLACK
6
CONTINUOUS
10
-24.4677
20
-8.07818
11
-24.475
21
-8.0605
0
LINE
8
BLACK
6
CONTINUOUS
10
-24.475
20
-8.0605
11
-24.475
21
-7.2605
0
LINE
8
BLACK
6
CONTINUOUS
10
-24.475
20
-7.2605
11
-24.4677
21
-7.24282
0
LINE
8
BLACK
6
CONTINUOUS
10
-24.4677
20
-7.24282
11
-24.45
21
-7.2355
0
LINE
8
BLACK
6
CONTINUOUS
10
-24.45
20
-7.2355
11
-23.65
21
-7.2355
0
LINE
8
BLACK
6
CONTINUOUS
10
-24.425
20
-7.2855
11
-24.425
21
-8.0355
0
LINE
8
BLACK
6
CONTINUOUS
10
-24.425
20
-8.0355
11
-23.675
21
-8.0355
0
LINE
8
BLACK
6
CONTINUOUS
10
-23.675
20
-8.0355
11
-23.675
21
-7.2855
0
LINE
8
BLACK
6
CONTINUOUS
10
-23.675
20
-7.2855
11
-24.425
21
-7.2855
  0
ENDSEC
  0
EOF
