  0
SECTION
  2
HEADER
  9
$ANGBASE
  50
0.0
  9
$ANGDIR
  70
1
  9
$MEASUREMENT
  70
1
  0
ENDSEC
  0
SECTION
  2
TABLES
  0
TABLE
  2
LTYPE
  70
4
  0
LTYPE
  5
40F
  2
CONTINUOUS
  70
0
  3
Solid line
  72
65
  73
0
  40
0.0
  0
LTYPE
  5
410
  2
DASHDOT
 70
0
  3
Dash Dot ____ _ ____ _
 72
65
 73
4
 40
2.0
 49
1.25
 49
-0.25
 49
0.25
 49
-0.25
  0
LTYPE
  5
411
  2
DASHED
 70
0
  3
Dashed __ __ __ __ __
 72
65
 73
2
 40
0.75
 49
0.5
 49
-0.25
  0
LTYPE
  5
43B
  2
DOTTED
 70
0
  3
Dotted .  .  .  .
 72
65
 73
2
 40
0.2
 49
0.0
 49
-0.2
  0
ENDTAB
  0
TABLE
  2
STYLE
  70
4
  0
STYLE
  2
KICAD
  70
0
  40
0
  41
1
  42
1
  50
0
  71
0
  3
isocp.shx
  0
STYLE
  2
KICADB
  70
0
  40
0
  41
1
  42
1
  50
0
  71
0
  3
isocp.shx
  0
STYLE
  2
KICADI
  70
0
  40
0
  41
1
  42
1
  50
15
  71
0
  3
isocp.shx
  0
STYLE
  2
KICADBI
  70
0
  40
0
  41
1
  42
1
  50
15
  71
0
  3
isocp.shx
  0
ENDTAB
  0
TABLE
  2
LAYER
  70
1
  0
LAYER
  2
BLACK
  70
0
  62
7
  6
CONTINUOUS
  0
ENDTAB
  0
ENDSEC
  0
SECTION
  2
ENTITIES
0
LINE
8
BLACK
6
CONTINUOUS
10
-5.36543
20
-4.7719
11
-5.35732
21
-4.77732
0
LINE
8
BLACK
6
CONTINUOUS
10
-5.35732
20
-4.77732
11
-5.3519
21
-4.78543
0
LINE
8
BLACK
6
CONTINUOUS
10
-5.3519
20
-4.78543
11
-5.35
21
-4.795
0
LINE
8
BLACK
6
CONTINUOUS
10
-5.35
20
-4.795
11
-5.35
21
-5.245
0
LINE
8
BLACK
6
CONTINUOUS
10
-5.35
20
-5.245
11
-5.3519
21
-5.25457
0
LINE
8
BLACK
6
CONTINUOUS
10
-5.3519
20
-5.25457
11
-5.35732
21
-5.26268
0
LINE
8
BLACK
6
CONTINUOUS
10
-5.35732
20
-5.26268
11
-5.36543
21
-5.2681
0
LINE
8
BLACK
6
CONTINUOUS
10
-5.36543
20
-5.2681
11
-5.375
21
-5.27
0
LINE
8
BLACK
6
CONTINUOUS
10
-5.375
20
-5.27
11
-5.725
21
-5.27
0
LINE
8
BLACK
6
CONTINUOUS
10
-5.725
20
-5.27
11
-5.73457
21
-5.2681
0
LINE
8
BLACK
6
CONTINUOUS
10
-5.73457
20
-5.2681
11
-5.74268
21
-5.26268
0
LINE
8
BLACK
6
CONTINUOUS
10
-5.74268
20
-5.26268
11
-5.7481
21
-5.25457
0
LINE
8
BLACK
6
CONTINUOUS
10
-5.7481
20
-5.25457
11
-5.75
21
-5.245
0
LINE
8
BLACK
6
CONTINUOUS
10
-5.75
20
-5.245
11
-5.75
21
-4.795
0
LINE
8
BLACK
6
CONTINUOUS
10
-5.75
20
-4.795
11
-5.7481
21
-4.78543
0
LINE
8
BLACK
6
CONTINUOUS
10
-5.7481
20
-4.78543
11
-5.74268
21
-4.77732
0
LINE
8
BLACK
6
CONTINUOUS
10
-5.74268
20
-4.77732
11
-5.73457
21
-4.7719
0
LINE
8
BLACK
6
CONTINUOUS
10
-5.73457
20
-4.7719
11
-5.725
21
-4.77
0
LINE
8
BLACK
6
CONTINUOUS
10
-5.725
20
-4.77
11
-5.375
21
-4.77
0
LINE
8
BLACK
6
CONTINUOUS
10
-5.375
20
-4.77
11
-5.36543
21
-4.7719
0
LINE
8
BLACK
6
CONTINUOUS
10
-4.56543
20
-4.7719
11
-4.55732
21
-4.77732
0
LINE
8
BLACK
6
CONTINUOUS
10
-4.55732
20
-4.77732
11
-4.5519
21
-4.78543
0
LINE
8
BLACK
6
CONTINUOUS
10
-4.5519
20
-4.78543
11
-4.55
21
-4.795
0
LINE
8
BLACK
6
CONTINUOUS
10
-4.55
20
-4.795
11
-4.55
21
-5.245
0
LINE
8
BLACK
6
CONTINUOUS
10
-4.55
20
-5.245
11
-4.5519
21
-5.25457
0
LINE
8
BLACK
6
CONTINUOUS
10
-4.5519
20
-5.25457
11
-4.55732
21
-5.26268
0
LINE
8
BLACK
6
CONTINUOUS
10
-4.55732
20
-5.26268
11
-4.56543
21
-5.2681
0
LINE
8
BLACK
6
CONTINUOUS
10
-4.56543
20
-5.2681
11
-4.575
21
-5.27
0
LINE
8
BLACK
6
CONTINUOUS
10
-4.575
20
-5.27
11
-4.925
21
-5.27
0
LINE
8
BLACK
6
CONTINUOUS
10
-4.925
20
-5.27
11
-4.93457
21
-5.2681
0
LINE
8
BLACK
6
CONTINUOUS
10
-4.93457
20
-5.2681
11
-4.94268
21
-5.26268
0
LINE
8
BLACK
6
CONTINUOUS
10
-4.94268
20
-5.26268
11
-4.9481
21
-5.25457
0
LINE
8
BLACK
6
CONTINUOUS
10
-4.9481
20
-5.25457
11
-4.95
21
-5.245
0
LINE
8
BLACK
6
CONTINUOUS
10
-4.95
20
-5.245
11
-4.95
21
-4.795
0
LINE
8
BLACK
6
CONTINUOUS
10
-4.95
20
-4.795
11
-4.9481
21
-4.78543
0
LINE
8
BLACK
6
CONTINUOUS
10
-4.9481
20
-4.78543
11
-4.94268
21
-4.77732
0
LINE
8
BLACK
6
CONTINUOUS
10
-4.94268
20
-4.77732
11
-4.93457
21
-4.7719
0
LINE
8
BLACK
6
CONTINUOUS
10
-4.93457
20
-4.7719
11
-4.925
21
-4.77
0
LINE
8
BLACK
6
CONTINUOUS
10
-4.925
20
-4.77
11
-4.575
21
-4.77
0
LINE
8
BLACK
6
CONTINUOUS
10
-4.575
20
-4.77
11
-4.56543
21
-4.7719
0
LINE
8
BLACK
6
CONTINUOUS
10
-0.072292
20
-3.68518
11
0.04743
21
-3.76212
0
LINE
8
BLACK
6
CONTINUOUS
10
0.04743
20
-3.76212
11
0.140627
21
-3.86968
0
LINE
8
BLACK
6
CONTINUOUS
10
0.140627
20
-3.86968
11
0.199746
21
-3.99913
0
LINE
8
BLACK
6
CONTINUOUS
10
0.199746
20
-3.99913
11
0.22
21
-4.14
0
LINE
8
BLACK
6
CONTINUOUS
10
0.22
20
-4.14
11
0.199746
21
-4.28087
0
LINE
8
BLACK
6
CONTINUOUS
10
0.199746
20
-4.28087
11
0.140627
21
-4.41032
0
LINE
8
BLACK
6
CONTINUOUS
10
0.140627
20
-4.41032
11
0.04743
21
-4.51788
0
LINE
8
BLACK
6
CONTINUOUS
10
0.04743
20
-4.51788
11
-0.072292
21
-4.59482
0
LINE
8
BLACK
6
CONTINUOUS
10
-0.072292
20
-4.59482
11
-0.208843
21
-4.63491
0
LINE
8
BLACK
6
CONTINUOUS
10
-0.208843
20
-4.63491
11
-0.351157
21
-4.63491
0
LINE
8
BLACK
6
CONTINUOUS
10
-0.351157
20
-4.63491
11
-0.487708
21
-4.59482
0
LINE
8
BLACK
6
CONTINUOUS
10
-0.487708
20
-4.59482
11
-0.60743
21
-4.51788
0
LINE
8
BLACK
6
CONTINUOUS
10
-0.60743
20
-4.51788
11
-0.700627
21
-4.41032
0
LINE
8
BLACK
6
CONTINUOUS
10
-0.700627
20
-4.41032
11
-0.759746
21
-4.28087
0
LINE
8
BLACK
6
CONTINUOUS
10
-0.759746
20
-4.28087
11
-0.78
21
-4.14
0
LINE
8
BLACK
6
CONTINUOUS
10
-0.78
20
-4.14
11
-0.759746
21
-3.99913
0
LINE
8
BLACK
6
CONTINUOUS
10
-0.759746
20
-3.99913
11
-0.700627
21
-3.86968
0
LINE
8
BLACK
6
CONTINUOUS
10
-0.700627
20
-3.86968
11
-0.60743
21
-3.76212
0
LINE
8
BLACK
6
CONTINUOUS
10
-0.60743
20
-3.76212
11
-0.487708
21
-3.68518
0
LINE
8
BLACK
6
CONTINUOUS
10
-0.487708
20
-3.68518
11
-0.351157
21
-3.64509
0
LINE
8
BLACK
6
CONTINUOUS
10
-0.351157
20
-3.64509
11
-0.208843
21
-3.64509
0
LINE
8
BLACK
6
CONTINUOUS
10
-0.208843
20
-3.64509
11
-0.072292
21
-3.68518
0
LINE
8
BLACK
6
CONTINUOUS
10
-5.6
20
-4.2
11
-5.6
21
-4.55
0
LINE
8
BLACK
6
CONTINUOUS
10
-5.6
20
-4.55
11
-5.9
21
-4.55
0
LINE
8
BLACK
6
CONTINUOUS
10
-5.9
20
-4.55
11
-5.9
21
-4.2
0
LINE
8
BLACK
6
CONTINUOUS
10
-5.9
20
-4.2
11
-5.75
21
-4.05
0
LINE
8
BLACK
6
CONTINUOUS
10
-5.75
20
-4.05
11
-5.6
21
-4.05
0
LINE
8
BLACK
6
CONTINUOUS
10
-5.6
20
-4.05
11
-5.6
21
-4.2
0
LINE
8
BLACK
6
CONTINUOUS
10
-5.1
20
-4.55
11
-5.4
21
-4.55
0
LINE
8
BLACK
6
CONTINUOUS
10
-5.4
20
-4.55
11
-5.4
21
-3.85
0
LINE
8
BLACK
6
CONTINUOUS
10
-5.4
20
-3.85
11
-5.1
21
-3.85
0
LINE
8
BLACK
6
CONTINUOUS
10
-5.1
20
-3.85
11
-5.1
21
-4.55
0
LINE
8
BLACK
6
CONTINUOUS
10
-4.6
20
-4.55
11
-4.9
21
-4.55
0
LINE
8
BLACK
6
CONTINUOUS
10
-4.9
20
-4.55
11
-4.9
21
-3.85
0
LINE
8
BLACK
6
CONTINUOUS
10
-4.9
20
-3.85
11
-4.6
21
-3.85
0
LINE
8
BLACK
6
CONTINUOUS
10
-4.6
20
-3.85
11
-4.6
21
-4.55
0
LINE
8
BLACK
6
CONTINUOUS
10
-4.1
20
-4.55
11
-4.4
21
-4.55
0
LINE
8
BLACK
6
CONTINUOUS
10
-4.4
20
-4.55
11
-4.4
21
-3.85
0
LINE
8
BLACK
6
CONTINUOUS
10
-4.4
20
-3.85
11
-4.1
21
-3.85
0
LINE
8
BLACK
6
CONTINUOUS
10
-4.1
20
-3.85
11
-4.1
21
-4.55
0
LINE
8
BLACK
6
CONTINUOUS
10
-3.6
20
-4.2
11
-3.6
21
-4.55
0
LINE
8
BLACK
6
CONTINUOUS
10
-3.6
20
-4.55
11
-3.9
21
-4.55
0
LINE
8
BLACK
6
CONTINUOUS
10
-3.9
20
-4.55
11
-3.9
21
-4.2
0
LINE
8
BLACK
6
CONTINUOUS
10
-3.9
20
-4.2
11
-3.9
21
-4.05
0
LINE
8
BLACK
6
CONTINUOUS
10
-3.9
20
-4.05
11
-3.75
21
-4.05
0
LINE
8
BLACK
6
CONTINUOUS
10
-3.75
20
-4.05
11
-3.6
21
-4.2
0
LINE
8
BLACK
6
CONTINUOUS
10
-2.31543
20
-4.0219
11
-2.30732
21
-4.02732
0
LINE
8
BLACK
6
CONTINUOUS
10
-2.30732
20
-4.02732
11
-2.3019
21
-4.03543
0
LINE
8
BLACK
6
CONTINUOUS
10
-2.3019
20
-4.03543
11
-2.3
21
-4.045
0
LINE
8
BLACK
6
CONTINUOUS
10
-2.3
20
-4.045
11
-2.3
21
-4.395
0
LINE
8
BLACK
6
CONTINUOUS
10
-2.3
20
-4.395
11
-2.3019
21
-4.40457
0
LINE
8
BLACK
6
CONTINUOUS
10
-2.3019
20
-4.40457
11
-2.30732
21
-4.41268
0
LINE
8
BLACK
6
CONTINUOUS
10
-2.30732
20
-4.41268
11
-2.31543
21
-4.4181
0
LINE
8
BLACK
6
CONTINUOUS
10
-2.31543
20
-4.4181
11
-2.325
21
-4.42
0
LINE
8
BLACK
6
CONTINUOUS
10
-2.325
20
-4.42
11
-2.775
21
-4.42
0
LINE
8
BLACK
6
CONTINUOUS
10
-2.775
20
-4.42
11
-2.78457
21
-4.4181
0
LINE
8
BLACK
6
CONTINUOUS
10
-2.78457
20
-4.4181
11
-2.79268
21
-4.41268
0
LINE
8
BLACK
6
CONTINUOUS
10
-2.79268
20
-4.41268
11
-2.7981
21
-4.40457
0
LINE
8
BLACK
6
CONTINUOUS
10
-2.7981
20
-4.40457
11
-2.8
21
-4.395
0
LINE
8
BLACK
6
CONTINUOUS
10
-2.8
20
-4.395
11
-2.8
21
-4.045
0
LINE
8
BLACK
6
CONTINUOUS
10
-2.8
20
-4.045
11
-2.7981
21
-4.03543
0
LINE
8
BLACK
6
CONTINUOUS
10
-2.7981
20
-4.03543
11
-2.79268
21
-4.02732
0
LINE
8
BLACK
6
CONTINUOUS
10
-2.79268
20
-4.02732
11
-2.78457
21
-4.0219
0
LINE
8
BLACK
6
CONTINUOUS
10
-2.78457
20
-4.0219
11
-2.775
21
-4.02
0
LINE
8
BLACK
6
CONTINUOUS
10
-2.775
20
-4.02
11
-2.325
21
-4.02
0
LINE
8
BLACK
6
CONTINUOUS
10
-2.325
20
-4.02
11
-2.31543
21
-4.0219
0
LINE
8
BLACK
6
CONTINUOUS
10
-5.9
20
-3.9
11
-6.05
21
-4.05
0
LINE
8
BLACK
6
CONTINUOUS
10
-6.05
20
-4.05
11
-6.4
21
-4.05
0
LINE
8
BLACK
6
CONTINUOUS
10
-6.4
20
-4.05
11
-6.4
21
-3.75
0
LINE
8
BLACK
6
CONTINUOUS
10
-6.4
20
-3.75
11
-6.05
21
-3.75
0
LINE
8
BLACK
6
CONTINUOUS
10
-6.05
20
-3.75
11
-5.9
21
-3.75
0
LINE
8
BLACK
6
CONTINUOUS
10
-5.9
20
-3.75
11
-5.9
21
-3.9
0
LINE
8
BLACK
6
CONTINUOUS
10
-3.1
20
-4.05
11
-3.45
21
-4.05
0
LINE
8
BLACK
6
CONTINUOUS
10
-3.45
20
-4.05
11
-3.6
21
-3.9
0
LINE
8
BLACK
6
CONTINUOUS
10
-3.6
20
-3.9
11
-3.6
21
-3.75
0
LINE
8
BLACK
6
CONTINUOUS
10
-3.6
20
-3.75
11
-3.45
21
-3.75
0
LINE
8
BLACK
6
CONTINUOUS
10
-3.45
20
-3.75
11
-3.1
21
-3.75
0
LINE
8
BLACK
6
CONTINUOUS
10
-3.1
20
-3.75
11
-3.1
21
-4.05
0
LINE
8
BLACK
6
CONTINUOUS
10
-2.31543
20
-3.2219
11
-2.30732
21
-3.22732
0
LINE
8
BLACK
6
CONTINUOUS
10
-2.30732
20
-3.22732
11
-2.3019
21
-3.23543
0
LINE
8
BLACK
6
CONTINUOUS
10
-2.3019
20
-3.23543
11
-2.3
21
-3.245
0
LINE
8
BLACK
6
CONTINUOUS
10
-2.3
20
-3.245
11
-2.3
21
-3.595
0
LINE
8
BLACK
6
CONTINUOUS
10
-2.3
20
-3.595
11
-2.3019
21
-3.60457
0
LINE
8
BLACK
6
CONTINUOUS
10
-2.3019
20
-3.60457
11
-2.30732
21
-3.61268
0
LINE
8
BLACK
6
CONTINUOUS
10
-2.30732
20
-3.61268
11
-2.31543
21
-3.6181
0
LINE
8
BLACK
6
CONTINUOUS
10
-2.31543
20
-3.6181
11
-2.325
21
-3.62
0
LINE
8
BLACK
6
CONTINUOUS
10
-2.325
20
-3.62
11
-2.775
21
-3.62
0
LINE
8
BLACK
6
CONTINUOUS
10
-2.775
20
-3.62
11
-2.78457
21
-3.6181
0
LINE
8
BLACK
6
CONTINUOUS
10
-2.78457
20
-3.6181
11
-2.79268
21
-3.61268
0
LINE
8
BLACK
6
CONTINUOUS
10
-2.79268
20
-3.61268
11
-2.7981
21
-3.60457
0
LINE
8
BLACK
6
CONTINUOUS
10
-2.7981
20
-3.60457
11
-2.8
21
-3.595
0
LINE
8
BLACK
6
CONTINUOUS
10
-2.8
20
-3.595
11
-2.8
21
-3.245
0
LINE
8
BLACK
6
CONTINUOUS
10
-2.8
20
-3.245
11
-2.7981
21
-3.23543
0
LINE
8
BLACK
6
CONTINUOUS
10
-2.7981
20
-3.23543
11
-2.79268
21
-3.22732
0
LINE
8
BLACK
6
CONTINUOUS
10
-2.79268
20
-3.22732
11
-2.78457
21
-3.2219
0
LINE
8
BLACK
6
CONTINUOUS
10
-2.78457
20
-3.2219
11
-2.775
21
-3.22
0
LINE
8
BLACK
6
CONTINUOUS
10
-2.775
20
-3.22
11
-2.325
21
-3.22
0
LINE
8
BLACK
6
CONTINUOUS
10
-2.325
20
-3.22
11
-2.31543
21
-3.2219
0
LINE
8
BLACK
6
CONTINUOUS
10
-5.7
20
-3.55
11
-6.4
21
-3.55
0
LINE
8
BLACK
6
CONTINUOUS
10
-6.4
20
-3.55
11
-6.4
21
-3.25
0
LINE
8
BLACK
6
CONTINUOUS
10
-6.4
20
-3.25
11
-5.7
21
-3.25
0
LINE
8
BLACK
6
CONTINUOUS
10
-5.7
20
-3.25
11
-5.7
21
-3.55
0
LINE
8
BLACK
6
CONTINUOUS
10
-3.1
20
-3.55
11
-3.8
21
-3.55
0
LINE
8
BLACK
6
CONTINUOUS
10
-3.8
20
-3.55
11
-3.8
21
-3.25
0
LINE
8
BLACK
6
CONTINUOUS
10
-3.8
20
-3.25
11
-3.1
21
-3.25
0
LINE
8
BLACK
6
CONTINUOUS
10
-3.1
20
-3.25
11
-3.1
21
-3.55
0
LINE
8
BLACK
6
CONTINUOUS
10
0.825432
20
-2.64038
11
0.922875
21
-2.6853
0
LINE
8
BLACK
6
CONTINUOUS
10
0.922875
20
-2.6853
11
1.40829
21
-3.03797
0
LINE
8
BLACK
6
CONTINUOUS
10
1.40829
20
-3.03797
11
1.48112
21
-3.11676
0
LINE
8
BLACK
6
CONTINUOUS
10
1.48112
20
-3.11676
11
1.51826
21
-3.21743
0
LINE
8
BLACK
6
CONTINUOUS
10
1.51826
20
-3.21743
11
1.51405
21
-3.32465
0
LINE
8
BLACK
6
CONTINUOUS
10
1.51405
20
-3.32465
11
1.46912
21
-3.42209
0
LINE
8
BLACK
6
CONTINUOUS
10
1.46912
20
-3.42209
11
1.39033
21
-3.49493
0
LINE
8
BLACK
6
CONTINUOUS
10
1.39033
20
-3.49493
11
1.28966
21
-3.53206
0
LINE
8
BLACK
6
CONTINUOUS
10
1.28966
20
-3.53206
11
1.18245
21
-3.52785
0
LINE
8
BLACK
6
CONTINUOUS
10
1.18245
20
-3.52785
11
1.085
21
-3.48293
0
LINE
8
BLACK
6
CONTINUOUS
10
1.085
20
-3.48293
11
0.599593
21
-3.13026
0
LINE
8
BLACK
6
CONTINUOUS
10
0.599593
20
-3.13026
11
0.526758
21
-3.05146
0
LINE
8
BLACK
6
CONTINUOUS
10
0.526758
20
-3.05146
11
0.48962
21
-2.9508
0
LINE
8
BLACK
6
CONTINUOUS
10
0.48962
20
-2.9508
11
0.493832
21
-2.84358
0
LINE
8
BLACK
6
CONTINUOUS
10
0.493832
20
-2.84358
11
0.538755
21
-2.74614
0
LINE
8
BLACK
6
CONTINUOUS
10
0.538755
20
-2.74614
11
0.617547
21
-2.6733
0
LINE
8
BLACK
6
CONTINUOUS
10
0.617547
20
-2.6733
11
0.718215
21
-2.63616
0
LINE
8
BLACK
6
CONTINUOUS
10
0.718215
20
-2.63616
11
0.825432
21
-2.64038
0
LINE
8
BLACK
6
CONTINUOUS
10
-5.7
20
-3.05
11
-6.4
21
-3.05
0
LINE
8
BLACK
6
CONTINUOUS
10
-6.4
20
-3.05
11
-6.4
21
-2.75
0
LINE
8
BLACK
6
CONTINUOUS
10
-6.4
20
-2.75
11
-5.7
21
-2.75
0
LINE
8
BLACK
6
CONTINUOUS
10
-5.7
20
-2.75
11
-5.7
21
-3.05
0
LINE
8
BLACK
6
CONTINUOUS
10
-3.1
20
-3.05
11
-3.8
21
-3.05
0
LINE
8
BLACK
6
CONTINUOUS
10
-3.8
20
-3.05
11
-3.8
21
-2.75
0
LINE
8
BLACK
6
CONTINUOUS
10
-3.8
20
-2.75
11
-3.1
21
-2.75
0
LINE
8
BLACK
6
CONTINUOUS
10
-3.1
20
-2.75
11
-3.1
21
-3.05
0
LINE
8
BLACK
6
CONTINUOUS
10
-2.31543
20
-2.6419
11
-2.30732
21
-2.64732
0
LINE
8
BLACK
6
CONTINUOUS
10
-2.30732
20
-2.64732
11
-2.3019
21
-2.65543
0
LINE
8
BLACK
6
CONTINUOUS
10
-2.3019
20
-2.65543
11
-2.3
21
-2.665
0
LINE
8
BLACK
6
CONTINUOUS
10
-2.3
20
-2.665
11
-2.3
21
-3.015
0
LINE
8
BLACK
6
CONTINUOUS
10
-2.3
20
-3.015
11
-2.3019
21
-3.02457
0
LINE
8
BLACK
6
CONTINUOUS
10
-2.3019
20
-3.02457
11
-2.30732
21
-3.03268
0
LINE
8
BLACK
6
CONTINUOUS
10
-2.30732
20
-3.03268
11
-2.31543
21
-3.0381
0
LINE
8
BLACK
6
CONTINUOUS
10
-2.31543
20
-3.0381
11
-2.325
21
-3.04
0
LINE
8
BLACK
6
CONTINUOUS
10
-2.325
20
-3.04
11
-2.775
21
-3.04
0
LINE
8
BLACK
6
CONTINUOUS
10
-2.775
20
-3.04
11
-2.78457
21
-3.0381
0
LINE
8
BLACK
6
CONTINUOUS
10
-2.78457
20
-3.0381
11
-2.79268
21
-3.03268
0
LINE
8
BLACK
6
CONTINUOUS
10
-2.79268
20
-3.03268
11
-2.7981
21
-3.02457
0
LINE
8
BLACK
6
CONTINUOUS
10
-2.7981
20
-3.02457
11
-2.8
21
-3.015
0
LINE
8
BLACK
6
CONTINUOUS
10
-2.8
20
-3.015
11
-2.8
21
-2.665
0
LINE
8
BLACK
6
CONTINUOUS
10
-2.8
20
-2.665
11
-2.7981
21
-2.65543
0
LINE
8
BLACK
6
CONTINUOUS
10
-2.7981
20
-2.65543
11
-2.79268
21
-2.64732
0
LINE
8
BLACK
6
CONTINUOUS
10
-2.79268
20
-2.64732
11
-2.78457
21
-2.6419
0
LINE
8
BLACK
6
CONTINUOUS
10
-2.78457
20
-2.6419
11
-2.775
21
-2.64
0
LINE
8
BLACK
6
CONTINUOUS
10
-2.775
20
-2.64
11
-2.325
21
-2.64
0
LINE
8
BLACK
6
CONTINUOUS
10
-2.325
20
-2.64
11
-2.31543
21
-2.6419
0
LINE
8
BLACK
6
CONTINUOUS
10
-5.7
20
-2.55
11
-6.4
21
-2.55
0
LINE
8
BLACK
6
CONTINUOUS
10
-6.4
20
-2.55
11
-6.4
21
-2.25
0
LINE
8
BLACK
6
CONTINUOUS
10
-6.4
20
-2.25
11
-5.7
21
-2.25
0
LINE
8
BLACK
6
CONTINUOUS
10
-5.7
20
-2.25
11
-5.7
21
-2.55
0
LINE
8
BLACK
6
CONTINUOUS
10
-3.1
20
-2.55
11
-3.8
21
-2.55
0
LINE
8
BLACK
6
CONTINUOUS
10
-3.8
20
-2.55
11
-3.8
21
-2.25
0
LINE
8
BLACK
6
CONTINUOUS
10
-3.8
20
-2.25
11
-3.1
21
-2.25
0
LINE
8
BLACK
6
CONTINUOUS
10
-3.1
20
-2.25
11
-3.1
21
-2.55
0
LINE
8
BLACK
6
CONTINUOUS
10
1.57192
20
-1.61292
11
1.66936
21
-1.65785
0
LINE
8
BLACK
6
CONTINUOUS
10
1.66936
20
-1.65785
11
2.15477
21
-2.01052
0
LINE
8
BLACK
6
CONTINUOUS
10
2.15477
20
-2.01052
11
2.22761
21
-2.08931
0
LINE
8
BLACK
6
CONTINUOUS
10
2.22761
20
-2.08931
11
2.26475
21
-2.18998
0
LINE
8
BLACK
6
CONTINUOUS
10
2.26475
20
-2.18998
11
2.26053
21
-2.2972
0
LINE
8
BLACK
6
CONTINUOUS
10
2.26053
20
-2.2972
11
2.21561
21
-2.39464
0
LINE
8
BLACK
6
CONTINUOUS
10
2.21561
20
-2.39464
11
2.13682
21
-2.46747
0
LINE
8
BLACK
6
CONTINUOUS
10
2.13682
20
-2.46747
11
2.03615
21
-2.50461
0
LINE
8
BLACK
6
CONTINUOUS
10
2.03615
20
-2.50461
11
1.92893
21
-2.5004
0
LINE
8
BLACK
6
CONTINUOUS
10
1.92893
20
-2.5004
11
1.83149
21
-2.45548
0
LINE
8
BLACK
6
CONTINUOUS
10
1.83149
20
-2.45548
11
1.34608
21
-2.10281
0
LINE
8
BLACK
6
CONTINUOUS
10
1.34608
20
-2.10281
11
1.27324
21
-2.02401
0
LINE
8
BLACK
6
CONTINUOUS
10
1.27324
20
-2.02401
11
1.23611
21
-1.92334
0
LINE
8
BLACK
6
CONTINUOUS
10
1.23611
20
-1.92334
11
1.24032
21
-1.81613
0
LINE
8
BLACK
6
CONTINUOUS
10
1.24032
20
-1.81613
11
1.28524
21
-1.71869
0
LINE
8
BLACK
6
CONTINUOUS
10
1.28524
20
-1.71869
11
1.36403
21
-1.64585
0
LINE
8
BLACK
6
CONTINUOUS
10
1.36403
20
-1.64585
11
1.4647
21
-1.60871
0
LINE
8
BLACK
6
CONTINUOUS
10
1.4647
20
-1.60871
11
1.57192
21
-1.61292
0
LINE
8
BLACK
6
CONTINUOUS
10
-2.31543
20
-1.8419
11
-2.30732
21
-1.84732
0
LINE
8
BLACK
6
CONTINUOUS
10
-2.30732
20
-1.84732
11
-2.3019
21
-1.85543
0
LINE
8
BLACK
6
CONTINUOUS
10
-2.3019
20
-1.85543
11
-2.3
21
-1.865
0
LINE
8
BLACK
6
CONTINUOUS
10
-2.3
20
-1.865
11
-2.3
21
-2.215
0
LINE
8
BLACK
6
CONTINUOUS
10
-2.3
20
-2.215
11
-2.3019
21
-2.22457
0
LINE
8
BLACK
6
CONTINUOUS
10
-2.3019
20
-2.22457
11
-2.30732
21
-2.23268
0
LINE
8
BLACK
6
CONTINUOUS
10
-2.30732
20
-2.23268
11
-2.31543
21
-2.2381
0
LINE
8
BLACK
6
CONTINUOUS
10
-2.31543
20
-2.2381
11
-2.325
21
-2.24
0
LINE
8
BLACK
6
CONTINUOUS
10
-2.325
20
-2.24
11
-2.775
21
-2.24
0
LINE
8
BLACK
6
CONTINUOUS
10
-2.775
20
-2.24
11
-2.78457
21
-2.2381
0
LINE
8
BLACK
6
CONTINUOUS
10
-2.78457
20
-2.2381
11
-2.79268
21
-2.23268
0
LINE
8
BLACK
6
CONTINUOUS
10
-2.79268
20
-2.23268
11
-2.7981
21
-2.22457
0
LINE
8
BLACK
6
CONTINUOUS
10
-2.7981
20
-2.22457
11
-2.8
21
-2.215
0
LINE
8
BLACK
6
CONTINUOUS
10
-2.8
20
-2.215
11
-2.8
21
-1.865
0
LINE
8
BLACK
6
CONTINUOUS
10
-2.8
20
-1.865
11
-2.7981
21
-1.85543
0
LINE
8
BLACK
6
CONTINUOUS
10
-2.7981
20
-1.85543
11
-2.79268
21
-1.84732
0
LINE
8
BLACK
6
CONTINUOUS
10
-2.79268
20
-1.84732
11
-2.78457
21
-1.8419
0
LINE
8
BLACK
6
CONTINUOUS
10
-2.78457
20
-1.8419
11
-2.775
21
-1.84
0
LINE
8
BLACK
6
CONTINUOUS
10
-2.775
20
-1.84
11
-2.325
21
-1.84
0
LINE
8
BLACK
6
CONTINUOUS
10
-2.325
20
-1.84
11
-2.31543
21
-1.8419
0
LINE
8
BLACK
6
CONTINUOUS
10
-5.9
20
-1.9
11
-5.9
21
-2.05
0
LINE
8
BLACK
6
CONTINUOUS
10
-5.9
20
-2.05
11
-6.05
21
-2.05
0
LINE
8
BLACK
6
CONTINUOUS
10
-6.05
20
-2.05
11
-6.4
21
-2.05
0
LINE
8
BLACK
6
CONTINUOUS
10
-6.4
20
-2.05
11
-6.4
21
-1.75
0
LINE
8
BLACK
6
CONTINUOUS
10
-6.4
20
-1.75
11
-6.05
21
-1.75
0
LINE
8
BLACK
6
CONTINUOUS
10
-6.05
20
-1.75
11
-5.9
21
-1.9
0
LINE
8
BLACK
6
CONTINUOUS
10
-3.1
20
-2.05
11
-3.45
21
-2.05
0
LINE
8
BLACK
6
CONTINUOUS
10
-3.45
20
-2.05
11
-3.6
21
-2.05
0
LINE
8
BLACK
6
CONTINUOUS
10
-3.6
20
-2.05
11
-3.6
21
-1.9
0
LINE
8
BLACK
6
CONTINUOUS
10
-3.6
20
-1.9
11
-3.45
21
-1.75
0
LINE
8
BLACK
6
CONTINUOUS
10
-3.45
20
-1.75
11
-3.1
21
-1.75
0
LINE
8
BLACK
6
CONTINUOUS
10
-3.1
20
-1.75
11
-3.1
21
-2.05
0
LINE
8
BLACK
6
CONTINUOUS
10
-5.1
20
-1.95
11
-5.4
21
-1.95
0
LINE
8
BLACK
6
CONTINUOUS
10
-5.4
20
-1.95
11
-5.4
21
-1.25
0
LINE
8
BLACK
6
CONTINUOUS
10
-5.4
20
-1.25
11
-5.1
21
-1.25
0
LINE
8
BLACK
6
CONTINUOUS
10
-5.1
20
-1.25
11
-5.1
21
-1.95
0
LINE
8
BLACK
6
CONTINUOUS
10
-4.6
20
-1.95
11
-4.9
21
-1.95
0
LINE
8
BLACK
6
CONTINUOUS
10
-4.9
20
-1.95
11
-4.9
21
-1.25
0
LINE
8
BLACK
6
CONTINUOUS
10
-4.9
20
-1.25
11
-4.6
21
-1.25
0
LINE
8
BLACK
6
CONTINUOUS
10
-4.6
20
-1.25
11
-4.6
21
-1.95
0
LINE
8
BLACK
6
CONTINUOUS
10
-4.1
20
-1.95
11
-4.4
21
-1.95
0
LINE
8
BLACK
6
CONTINUOUS
10
-4.4
20
-1.95
11
-4.4
21
-1.25
0
LINE
8
BLACK
6
CONTINUOUS
10
-4.4
20
-1.25
11
-4.1
21
-1.25
0
LINE
8
BLACK
6
CONTINUOUS
10
-4.1
20
-1.25
11
-4.1
21
-1.95
0
LINE
8
BLACK
6
CONTINUOUS
10
-5.6
20
-1.6
11
-5.6
21
-1.75
0
LINE
8
BLACK
6
CONTINUOUS
10
-5.6
20
-1.75
11
-5.75
21
-1.75
0
LINE
8
BLACK
6
CONTINUOUS
10
-5.75
20
-1.75
11
-5.9
21
-1.6
0
LINE
8
BLACK
6
CONTINUOUS
10
-5.9
20
-1.6
11
-5.9
21
-1.25
0
LINE
8
BLACK
6
CONTINUOUS
10
-5.9
20
-1.25
11
-5.6
21
-1.25
0
LINE
8
BLACK
6
CONTINUOUS
10
-5.6
20
-1.25
11
-5.6
21
-1.6
0
LINE
8
BLACK
6
CONTINUOUS
10
-3.6
20
-1.6
11
-3.75
21
-1.75
0
LINE
8
BLACK
6
CONTINUOUS
10
-3.75
20
-1.75
11
-3.9
21
-1.75
0
LINE
8
BLACK
6
CONTINUOUS
10
-3.9
20
-1.75
11
-3.9
21
-1.6
0
LINE
8
BLACK
6
CONTINUOUS
10
-3.9
20
-1.6
11
-3.9
21
-1.25
0
LINE
8
BLACK
6
CONTINUOUS
10
-3.9
20
-1.25
11
-3.6
21
-1.25
0
LINE
8
BLACK
6
CONTINUOUS
10
-3.6
20
-1.25
11
-3.6
21
-1.6
0
LINE
8
BLACK
6
CONTINUOUS
10
2.31841
20
-0.585472
11
2.41585
21
-0.630395
0
LINE
8
BLACK
6
CONTINUOUS
10
2.41585
20
-0.630395
11
2.90126
21
-0.983066
0
LINE
8
BLACK
6
CONTINUOUS
10
2.90126
20
-0.983066
11
2.97409
21
-1.06186
0
LINE
8
BLACK
6
CONTINUOUS
10
2.97409
20
-1.06186
11
3.01123
21
-1.16253
0
LINE
8
BLACK
6
CONTINUOUS
10
3.01123
20
-1.16253
11
3.00702
21
-1.26974
0
LINE
8
BLACK
6
CONTINUOUS
10
3.00702
20
-1.26974
11
2.9621
21
-1.36719
0
LINE
8
BLACK
6
CONTINUOUS
10
2.9621
20
-1.36719
11
2.88331
21
-1.44002
0
LINE
8
BLACK
6
CONTINUOUS
10
2.88331
20
-1.44002
11
2.78264
21
-1.47716
0
LINE
8
BLACK
6
CONTINUOUS
10
2.78264
20
-1.47716
11
2.67542
21
-1.47295
0
LINE
8
BLACK
6
CONTINUOUS
10
2.67542
20
-1.47295
11
2.57798
21
-1.42802
0
LINE
8
BLACK
6
CONTINUOUS
10
2.57798
20
-1.42802
11
2.09257
21
-1.07535
0
LINE
8
BLACK
6
CONTINUOUS
10
2.09257
20
-1.07535
11
2.01973
21
-0.996561
0
LINE
8
BLACK
6
CONTINUOUS
10
2.01973
20
-0.996561
11
1.98259
21
-0.895893
0
LINE
8
BLACK
6
CONTINUOUS
10
1.98259
20
-0.895893
11
1.98681
21
-0.788676
0
LINE
8
BLACK
6
CONTINUOUS
10
1.98681
20
-0.788676
11
2.03173
21
-0.691233
0
LINE
8
BLACK
6
CONTINUOUS
10
2.03173
20
-0.691233
11
2.11052
21
-0.618398
0
LINE
8
BLACK
6
CONTINUOUS
10
2.11052
20
-0.618398
11
2.21119
21
-0.58126
0
LINE
8
BLACK
6
CONTINUOUS
10
2.21119
20
-0.58126
11
2.31841
21
-0.585472
0
LINE
8
BLACK
6
CONTINUOUS
10
-4.7626
20
-0.301418
11
-4.71393
21
-0.333934
0
LINE
8
BLACK
6
CONTINUOUS
10
-4.71393
20
-0.333934
11
-4.68142
21
-0.382597
0
LINE
8
BLACK
6
CONTINUOUS
10
-4.68142
20
-0.382597
11
-4.67
21
-0.44
0
LINE
8
BLACK
6
CONTINUOUS
10
-4.67
20
-0.44
11
-4.67
21
-0.94
0
LINE
8
BLACK
6
CONTINUOUS
10
-4.67
20
-0.94
11
-4.68142
21
-0.997403
0
LINE
8
BLACK
6
CONTINUOUS
10
-4.68142
20
-0.997403
11
-4.71393
21
-1.04607
0
LINE
8
BLACK
6
CONTINUOUS
10
-4.71393
20
-1.04607
11
-4.7626
21
-1.07858
0
LINE
8
BLACK
6
CONTINUOUS
10
-4.7626
20
-1.07858
11
-4.82
21
-1.09
0
LINE
8
BLACK
6
CONTINUOUS
10
-4.82
20
-1.09
11
-5.12
21
-1.09
0
LINE
8
BLACK
6
CONTINUOUS
10
-5.12
20
-1.09
11
-5.1774
21
-1.07858
0
LINE
8
BLACK
6
CONTINUOUS
10
-5.1774
20
-1.07858
11
-5.22607
21
-1.04607
0
LINE
8
BLACK
6
CONTINUOUS
10
-5.22607
20
-1.04607
11
-5.25858
21
-0.997403
0
LINE
8
BLACK
6
CONTINUOUS
10
-5.25858
20
-0.997403
11
-5.27
21
-0.94
0
LINE
8
BLACK
6
CONTINUOUS
10
-5.27
20
-0.94
11
-5.27
21
-0.44
0
LINE
8
BLACK
6
CONTINUOUS
10
-5.27
20
-0.44
11
-5.25858
21
-0.382597
0
LINE
8
BLACK
6
CONTINUOUS
10
-5.25858
20
-0.382597
11
-5.22607
21
-0.333934
0
LINE
8
BLACK
6
CONTINUOUS
10
-5.22607
20
-0.333934
11
-5.1774
21
-0.301418
0
LINE
8
BLACK
6
CONTINUOUS
10
-5.1774
20
-0.301418
11
-5.12
21
-0.29
0
LINE
8
BLACK
6
CONTINUOUS
10
-5.12
20
-0.29
11
-4.82
21
-0.29
0
LINE
8
BLACK
6
CONTINUOUS
10
-4.82
20
-0.29
11
-4.7626
21
-0.301418
0
LINE
8
BLACK
6
CONTINUOUS
10
-3.4626
20
-0.301418
11
-3.41393
21
-0.333934
0
LINE
8
BLACK
6
CONTINUOUS
10
-3.41393
20
-0.333934
11
-3.38142
21
-0.382597
0
LINE
8
BLACK
6
CONTINUOUS
10
-3.38142
20
-0.382597
11
-3.37
21
-0.44
0
LINE
8
BLACK
6
CONTINUOUS
10
-3.37
20
-0.44
11
-3.37
21
-0.94
0
LINE
8
BLACK
6
CONTINUOUS
10
-3.37
20
-0.94
11
-3.38142
21
-0.997403
0
LINE
8
BLACK
6
CONTINUOUS
10
-3.38142
20
-0.997403
11
-3.41393
21
-1.04607
0
LINE
8
BLACK
6
CONTINUOUS
10
-3.41393
20
-1.04607
11
-3.4626
21
-1.07858
0
LINE
8
BLACK
6
CONTINUOUS
10
-3.4626
20
-1.07858
11
-3.52
21
-1.09
0
LINE
8
BLACK
6
CONTINUOUS
10
-3.52
20
-1.09
11
-3.82
21
-1.09
0
LINE
8
BLACK
6
CONTINUOUS
10
-3.82
20
-1.09
11
-3.8774
21
-1.07858
0
LINE
8
BLACK
6
CONTINUOUS
10
-3.8774
20
-1.07858
11
-3.92607
21
-1.04607
0
LINE
8
BLACK
6
CONTINUOUS
10
-3.92607
20
-1.04607
11
-3.95858
21
-0.997403
0
LINE
8
BLACK
6
CONTINUOUS
10
-3.95858
20
-0.997403
11
-3.97
21
-0.94
0
LINE
8
BLACK
6
CONTINUOUS
10
-3.97
20
-0.94
11
-3.97
21
-0.44
0
LINE
8
BLACK
6
CONTINUOUS
10
-3.97
20
-0.44
11
-3.95858
21
-0.382597
0
LINE
8
BLACK
6
CONTINUOUS
10
-3.95858
20
-0.382597
11
-3.92607
21
-0.333934
0
LINE
8
BLACK
6
CONTINUOUS
10
-3.92607
20
-0.333934
11
-3.8774
21
-0.301418
0
LINE
8
BLACK
6
CONTINUOUS
10
-3.8774
20
-0.301418
11
-3.82
21
-0.29
0
LINE
8
BLACK
6
CONTINUOUS
10
-3.82
20
-0.29
11
-3.52
21
-0.29
0
LINE
8
BLACK
6
CONTINUOUS
10
-3.52
20
-0.29
11
-3.4626
21
-0.301418
0
LINE
8
BLACK
6
CONTINUOUS
10
3.06489
20
0.441979
11
3.16234
21
0.397056
0
LINE
8
BLACK
6
CONTINUOUS
10
3.16234
20
0.397056
11
3.64775
21
0.044385
0
LINE
8
BLACK
6
CONTINUOUS
10
3.64775
20
0.044385
11
3.72058
21
-0.034408
0
LINE
8
BLACK
6
CONTINUOUS
10
3.72058
20
-0.034408
11
3.75772
21
-0.135076
0
LINE
8
BLACK
6
CONTINUOUS
10
3.75772
20
-0.135076
11
3.75351
21
-0.242293
0
LINE
8
BLACK
6
CONTINUOUS
10
3.75351
20
-0.242293
11
3.70858
21
-0.339736
0
LINE
8
BLACK
6
CONTINUOUS
10
3.70858
20
-0.339736
11
3.62979
21
-0.412571
0
LINE
8
BLACK
6
CONTINUOUS
10
3.62979
20
-0.412571
11
3.52912
21
-0.449709
0
LINE
8
BLACK
6
CONTINUOUS
10
3.52912
20
-0.449709
11
3.42191
21
-0.445497
0
LINE
8
BLACK
6
CONTINUOUS
10
3.42191
20
-0.445497
11
3.32446
21
-0.400574
0
LINE
8
BLACK
6
CONTINUOUS
10
3.32446
20
-0.400574
11
2.83905
21
-0.047902
0
LINE
8
BLACK
6
CONTINUOUS
10
2.83905
20
-0.047902
11
2.76622
21
0.03089
0
LINE
8
BLACK
6
CONTINUOUS
10
2.76622
20
0.03089
11
2.72908
21
0.131558
0
LINE
8
BLACK
6
CONTINUOUS
10
2.72908
20
0.131558
11
2.73329
21
0.238775
0
LINE
8
BLACK
6
CONTINUOUS
10
2.73329
20
0.238775
11
2.77822
21
0.336218
0
LINE
8
BLACK
6
CONTINUOUS
10
2.77822
20
0.336218
11
2.85701
21
0.409053
0
LINE
8
BLACK
6
CONTINUOUS
10
2.85701
20
0.409053
11
2.95768
21
0.446191
0
LINE
8
BLACK
6
CONTINUOUS
10
2.95768
20
0.446191
11
3.06489
21
0.441979
0
LINE
8
BLACK
6
CONTINUOUS
10
-3.42191
20
0.445497
11
-3.32447
21
0.400574
0
LINE
8
BLACK
6
CONTINUOUS
10
-3.32447
20
0.400574
11
-2.83905
21
0.047903
0
LINE
8
BLACK
6
CONTINUOUS
10
-2.83905
20
0.047903
11
-2.76622
21
-0.03089
0
LINE
8
BLACK
6
CONTINUOUS
10
-2.76622
20
-0.03089
11
-2.72908
21
-0.131558
0
LINE
8
BLACK
6
CONTINUOUS
10
-2.72908
20
-0.131558
11
-2.73329
21
-0.238775
0
LINE
8
BLACK
6
CONTINUOUS
10
-2.73329
20
-0.238775
11
-2.77822
21
-0.336218
0
LINE
8
BLACK
6
CONTINUOUS
10
-2.77822
20
-0.336218
11
-2.85701
21
-0.409053
0
LINE
8
BLACK
6
CONTINUOUS
10
-2.85701
20
-0.409053
11
-2.95768
21
-0.446191
0
LINE
8
BLACK
6
CONTINUOUS
10
-2.95768
20
-0.446191
11
-3.06489
21
-0.441979
0
LINE
8
BLACK
6
CONTINUOUS
10
-3.06489
20
-0.441979
11
-3.16234
21
-0.397056
0
LINE
8
BLACK
6
CONTINUOUS
10
-3.16234
20
-0.397056
11
-3.64775
21
-0.044384
0
LINE
8
BLACK
6
CONTINUOUS
10
-3.64775
20
-0.044384
11
-3.72058
21
0.034408
0
LINE
8
BLACK
6
CONTINUOUS
10
-3.72058
20
0.034408
11
-3.75772
21
0.135076
0
LINE
8
BLACK
6
CONTINUOUS
10
-3.75772
20
0.135076
11
-3.75351
21
0.242293
0
LINE
8
BLACK
6
CONTINUOUS
10
-3.75351
20
0.242293
11
-3.70858
21
0.339736
0
LINE
8
BLACK
6
CONTINUOUS
10
-3.70858
20
0.339736
11
-3.62979
21
0.412571
0
LINE
8
BLACK
6
CONTINUOUS
10
-3.62979
20
0.412571
11
-3.52912
21
0.449709
0
LINE
8
BLACK
6
CONTINUOUS
10
-3.52912
20
0.449709
11
-3.42191
21
0.445497
0
LINE
8
BLACK
6
CONTINUOUS
10
-4.68543
20
0.338097
11
-4.67732
21
0.332678
0
LINE
8
BLACK
6
CONTINUOUS
10
-4.67732
20
0.332678
11
-4.6719
21
0.324567
0
LINE
8
BLACK
6
CONTINUOUS
10
-4.6719
20
0.324567
11
-4.67
21
0.315
0
LINE
8
BLACK
6
CONTINUOUS
10
-4.67
20
0.315
11
-4.67
21
-0.135
0
LINE
8
BLACK
6
CONTINUOUS
10
-4.67
20
-0.135
11
-4.6719
21
-0.144567
0
LINE
8
BLACK
6
CONTINUOUS
10
-4.6719
20
-0.144567
11
-4.67732
21
-0.152678
0
LINE
8
BLACK
6
CONTINUOUS
10
-4.67732
20
-0.152678
11
-4.68543
21
-0.158097
0
LINE
8
BLACK
6
CONTINUOUS
10
-4.68543
20
-0.158097
11
-4.695
21
-0.16
0
LINE
8
BLACK
6
CONTINUOUS
10
-4.695
20
-0.16
11
-5.045
21
-0.16
0
LINE
8
BLACK
6
CONTINUOUS
10
-5.045
20
-0.16
11
-5.05457
21
-0.158097
0
LINE
8
BLACK
6
CONTINUOUS
10
-5.05457
20
-0.158097
11
-5.06268
21
-0.152678
0
LINE
8
BLACK
6
CONTINUOUS
10
-5.06268
20
-0.152678
11
-5.0681
21
-0.144567
0
LINE
8
BLACK
6
CONTINUOUS
10
-5.0681
20
-0.144567
11
-5.07
21
-0.135
0
LINE
8
BLACK
6
CONTINUOUS
10
-5.07
20
-0.135
11
-5.07
21
0.315
0
LINE
8
BLACK
6
CONTINUOUS
10
-5.07
20
0.315
11
-5.0681
21
0.324567
0
LINE
8
BLACK
6
CONTINUOUS
10
-5.0681
20
0.324567
11
-5.06268
21
0.332678
0
LINE
8
BLACK
6
CONTINUOUS
10
-5.06268
20
0.332678
11
-5.05457
21
0.338097
0
LINE
8
BLACK
6
CONTINUOUS
10
-5.05457
20
0.338097
11
-5.045
21
0.34
0
LINE
8
BLACK
6
CONTINUOUS
10
-5.045
20
0.34
11
-4.695
21
0.34
0
LINE
8
BLACK
6
CONTINUOUS
10
-4.695
20
0.34
11
-4.68543
21
0.338097
0
LINE
8
BLACK
6
CONTINUOUS
10
-3.88543
20
0.338097
11
-3.87732
21
0.332678
0
LINE
8
BLACK
6
CONTINUOUS
10
-3.87732
20
0.332678
11
-3.8719
21
0.324567
0
LINE
8
BLACK
6
CONTINUOUS
10
-3.8719
20
0.324567
11
-3.87
21
0.315
0
LINE
8
BLACK
6
CONTINUOUS
10
-3.87
20
0.315
11
-3.87
21
-0.135
0
LINE
8
BLACK
6
CONTINUOUS
10
-3.87
20
-0.135
11
-3.8719
21
-0.144567
0
LINE
8
BLACK
6
CONTINUOUS
10
-3.8719
20
-0.144567
11
-3.87732
21
-0.152678
0
LINE
8
BLACK
6
CONTINUOUS
10
-3.87732
20
-0.152678
11
-3.88543
21
-0.158097
0
LINE
8
BLACK
6
CONTINUOUS
10
-3.88543
20
-0.158097
11
-3.895
21
-0.16
0
LINE
8
BLACK
6
CONTINUOUS
10
-3.895
20
-0.16
11
-4.245
21
-0.16
0
LINE
8
BLACK
6
CONTINUOUS
10
-4.245
20
-0.16
11
-4.25457
21
-0.158097
0
LINE
8
BLACK
6
CONTINUOUS
10
-4.25457
20
-0.158097
11
-4.26268
21
-0.152678
0
LINE
8
BLACK
6
CONTINUOUS
10
-4.26268
20
-0.152678
11
-4.2681
21
-0.144567
0
LINE
8
BLACK
6
CONTINUOUS
10
-4.2681
20
-0.144567
11
-4.27
21
-0.135
0
LINE
8
BLACK
6
CONTINUOUS
10
-4.27
20
-0.135
11
-4.27
21
0.315
0
LINE
8
BLACK
6
CONTINUOUS
10
-4.27
20
0.315
11
-4.2681
21
0.324567
0
LINE
8
BLACK
6
CONTINUOUS
10
-4.2681
20
0.324567
11
-4.26268
21
0.332678
0
LINE
8
BLACK
6
CONTINUOUS
10
-4.26268
20
0.332678
11
-4.25457
21
0.338097
0
LINE
8
BLACK
6
CONTINUOUS
10
-4.25457
20
0.338097
11
-4.245
21
0.34
0
LINE
8
BLACK
6
CONTINUOUS
10
-4.245
20
0.34
11
-3.895
21
0.34
0
LINE
8
BLACK
6
CONTINUOUS
10
-3.895
20
0.34
11
-3.88543
21
0.338097
0
LINE
8
BLACK
6
CONTINUOUS
10
-2.67542
20
1.47295
11
-2.57798
21
1.42802
0
LINE
8
BLACK
6
CONTINUOUS
10
-2.57798
20
1.42802
11
-2.09257
21
1.07535
0
LINE
8
BLACK
6
CONTINUOUS
10
-2.09257
20
1.07535
11
-2.01973
21
0.996561
0
LINE
8
BLACK
6
CONTINUOUS
10
-2.01973
20
0.996561
11
-1.98259
21
0.895893
0
LINE
8
BLACK
6
CONTINUOUS
10
-1.98259
20
0.895893
11
-1.98681
21
0.788676
0
LINE
8
BLACK
6
CONTINUOUS
10
-1.98681
20
0.788676
11
-2.03173
21
0.691233
0
LINE
8
BLACK
6
CONTINUOUS
10
-2.03173
20
0.691233
11
-2.11052
21
0.618398
0
LINE
8
BLACK
6
CONTINUOUS
10
-2.11052
20
0.618398
11
-2.21119
21
0.58126
0
LINE
8
BLACK
6
CONTINUOUS
10
-2.21119
20
0.58126
11
-2.31841
21
0.585472
0
LINE
8
BLACK
6
CONTINUOUS
10
-2.31841
20
0.585472
11
-2.41585
21
0.630395
0
LINE
8
BLACK
6
CONTINUOUS
10
-2.41585
20
0.630395
11
-2.90126
21
0.983067
0
LINE
8
BLACK
6
CONTINUOUS
10
-2.90126
20
0.983067
11
-2.97409
21
1.06186
0
LINE
8
BLACK
6
CONTINUOUS
10
-2.97409
20
1.06186
11
-3.01123
21
1.16253
0
LINE
8
BLACK
6
CONTINUOUS
10
-3.01123
20
1.16253
11
-3.00702
21
1.26974
0
LINE
8
BLACK
6
CONTINUOUS
10
-3.00702
20
1.26974
11
-2.9621
21
1.36719
0
LINE
8
BLACK
6
CONTINUOUS
10
-2.9621
20
1.36719
11
-2.88331
21
1.44002
0
LINE
8
BLACK
6
CONTINUOUS
10
-2.88331
20
1.44002
11
-2.78264
21
1.47716
0
LINE
8
BLACK
6
CONTINUOUS
10
-2.78264
20
1.47716
11
-2.67542
21
1.47295
0
LINE
8
BLACK
6
CONTINUOUS
10
-1.92893
20
2.5004
11
-1.83149
21
2.45548
0
LINE
8
BLACK
6
CONTINUOUS
10
-1.83149
20
2.45548
11
-1.34608
21
2.10281
0
LINE
8
BLACK
6
CONTINUOUS
10
-1.34608
20
2.10281
11
-1.27324
21
2.02401
0
LINE
8
BLACK
6
CONTINUOUS
10
-1.27324
20
2.02401
11
-1.23611
21
1.92334
0
LINE
8
BLACK
6
CONTINUOUS
10
-1.23611
20
1.92334
11
-1.24032
21
1.81613
0
LINE
8
BLACK
6
CONTINUOUS
10
-1.24032
20
1.81613
11
-1.28524
21
1.71869
0
LINE
8
BLACK
6
CONTINUOUS
10
-1.28524
20
1.71869
11
-1.36403
21
1.64585
0
LINE
8
BLACK
6
CONTINUOUS
10
-1.36403
20
1.64585
11
-1.4647
21
1.60871
0
LINE
8
BLACK
6
CONTINUOUS
10
-1.4647
20
1.60871
11
-1.57192
21
1.61292
0
LINE
8
BLACK
6
CONTINUOUS
10
-1.57192
20
1.61292
11
-1.66936
21
1.65785
0
LINE
8
BLACK
6
CONTINUOUS
10
-1.66936
20
1.65785
11
-2.15477
21
2.01052
0
LINE
8
BLACK
6
CONTINUOUS
10
-2.15477
20
2.01052
11
-2.22761
21
2.08931
0
LINE
8
BLACK
6
CONTINUOUS
10
-2.22761
20
2.08931
11
-2.26475
21
2.18998
0
LINE
8
BLACK
6
CONTINUOUS
10
-2.26475
20
2.18998
11
-2.26053
21
2.2972
0
LINE
8
BLACK
6
CONTINUOUS
10
-2.26053
20
2.2972
11
-2.21561
21
2.39464
0
LINE
8
BLACK
6
CONTINUOUS
10
-2.21561
20
2.39464
11
-2.13682
21
2.46747
0
LINE
8
BLACK
6
CONTINUOUS
10
-2.13682
20
2.46747
11
-2.03615
21
2.50461
0
LINE
8
BLACK
6
CONTINUOUS
10
-2.03615
20
2.50461
11
-1.92893
21
2.5004
0
LINE
8
BLACK
6
CONTINUOUS
10
-1.18245
20
3.52785
11
-1.085
21
3.48293
0
LINE
8
BLACK
6
CONTINUOUS
10
-1.085
20
3.48293
11
-0.599593
21
3.13026
0
LINE
8
BLACK
6
CONTINUOUS
10
-0.599593
20
3.13026
11
-0.526758
21
3.05146
0
LINE
8
BLACK
6
CONTINUOUS
10
-0.526758
20
3.05146
11
-0.48962
21
2.9508
0
LINE
8
BLACK
6
CONTINUOUS
10
-0.48962
20
2.9508
11
-0.493832
21
2.84358
0
LINE
8
BLACK
6
CONTINUOUS
10
-0.493832
20
2.84358
11
-0.538755
21
2.74614
0
LINE
8
BLACK
6
CONTINUOUS
10
-0.538755
20
2.74614
11
-0.617547
21
2.6733
0
LINE
8
BLACK
6
CONTINUOUS
10
-0.617547
20
2.6733
11
-0.718215
21
2.63616
0
LINE
8
BLACK
6
CONTINUOUS
10
-0.718215
20
2.63616
11
-0.825432
21
2.64038
0
LINE
8
BLACK
6
CONTINUOUS
10
-0.825432
20
2.64038
11
-0.922876
21
2.6853
0
LINE
8
BLACK
6
CONTINUOUS
10
-0.922876
20
2.6853
11
-1.40829
21
3.03797
0
LINE
8
BLACK
6
CONTINUOUS
10
-1.40829
20
3.03797
11
-1.48112
21
3.11676
0
LINE
8
BLACK
6
CONTINUOUS
10
-1.48112
20
3.11676
11
-1.51826
21
3.21743
0
LINE
8
BLACK
6
CONTINUOUS
10
-1.51826
20
3.21743
11
-1.51405
21
3.32465
0
LINE
8
BLACK
6
CONTINUOUS
10
-1.51405
20
3.32465
11
-1.46912
21
3.42209
0
LINE
8
BLACK
6
CONTINUOUS
10
-1.46912
20
3.42209
11
-1.39033
21
3.49493
0
LINE
8
BLACK
6
CONTINUOUS
10
-1.39033
20
3.49493
11
-1.28966
21
3.53206
0
LINE
8
BLACK
6
CONTINUOUS
10
-1.28966
20
3.53206
11
-1.18245
21
3.52785
0
LINE
8
BLACK
6
CONTINUOUS
10
-18.3926
20
9.23858
11
-18.3439
21
9.20607
0
LINE
8
BLACK
6
CONTINUOUS
10
-18.3439
20
9.20607
11
-18.3114
21
9.1574
0
LINE
8
BLACK
6
CONTINUOUS
10
-18.3114
20
9.1574
11
-18.3
21
9.1
0
LINE
8
BLACK
6
CONTINUOUS
10
-18.3
20
9.1
11
-18.3
21
8.4
0
LINE
8
BLACK
6
CONTINUOUS
10
-18.3
20
8.4
11
-18.3114
21
8.3426
0
LINE
8
BLACK
6
CONTINUOUS
10
-18.3114
20
8.3426
11
-18.3439
21
8.29393
0
LINE
8
BLACK
6
CONTINUOUS
10
-18.3439
20
8.29393
11
-18.3926
21
8.26142
0
LINE
8
BLACK
6
CONTINUOUS
10
-18.3926
20
8.26142
11
-18.45
21
8.25
0
LINE
8
BLACK
6
CONTINUOUS
10
-18.45
20
8.25
11
-18.75
21
8.25
0
LINE
8
BLACK
6
CONTINUOUS
10
-18.75
20
8.25
11
-18.8074
21
8.26142
0
LINE
8
BLACK
6
CONTINUOUS
10
-18.8074
20
8.26142
11
-18.8561
21
8.29393
0
LINE
8
BLACK
6
CONTINUOUS
10
-18.8561
20
8.29393
11
-18.8886
21
8.3426
0
LINE
8
BLACK
6
CONTINUOUS
10
-18.8886
20
8.3426
11
-18.9
21
8.4
0
LINE
8
BLACK
6
CONTINUOUS
10
-18.9
20
8.4
11
-18.9
21
9.1
0
LINE
8
BLACK
6
CONTINUOUS
10
-18.9
20
9.1
11
-18.8886
21
9.1574
0
LINE
8
BLACK
6
CONTINUOUS
10
-18.8886
20
9.1574
11
-18.8561
21
9.20607
0
LINE
8
BLACK
6
CONTINUOUS
10
-18.8561
20
9.20607
11
-18.8074
21
9.23858
0
LINE
8
BLACK
6
CONTINUOUS
10
-18.8074
20
9.23858
11
-18.75
21
9.25
0
LINE
8
BLACK
6
CONTINUOUS
10
-18.75
20
9.25
11
-18.45
21
9.25
0
LINE
8
BLACK
6
CONTINUOUS
10
-18.45
20
9.25
11
-18.3926
21
9.23858
0
LINE
8
BLACK
6
CONTINUOUS
10
-16.8926
20
9.23858
11
-16.8439
21
9.20607
0
LINE
8
BLACK
6
CONTINUOUS
10
-16.8439
20
9.20607
11
-16.8114
21
9.1574
0
LINE
8
BLACK
6
CONTINUOUS
10
-16.8114
20
9.1574
11
-16.8
21
9.1
0
LINE
8
BLACK
6
CONTINUOUS
10
-16.8
20
9.1
11
-16.8
21
8.4
0
LINE
8
BLACK
6
CONTINUOUS
10
-16.8
20
8.4
11
-16.8114
21
8.3426
0
LINE
8
BLACK
6
CONTINUOUS
10
-16.8114
20
8.3426
11
-16.8439
21
8.29393
0
LINE
8
BLACK
6
CONTINUOUS
10
-16.8439
20
8.29393
11
-16.8926
21
8.26142
0
LINE
8
BLACK
6
CONTINUOUS
10
-16.8926
20
8.26142
11
-16.95
21
8.25
0
LINE
8
BLACK
6
CONTINUOUS
10
-16.95
20
8.25
11
-17.25
21
8.25
0
LINE
8
BLACK
6
CONTINUOUS
10
-17.25
20
8.25
11
-17.3074
21
8.26142
0
LINE
8
BLACK
6
CONTINUOUS
10
-17.3074
20
8.26142
11
-17.3561
21
8.29393
0
LINE
8
BLACK
6
CONTINUOUS
10
-17.3561
20
8.29393
11
-17.3886
21
8.3426
0
LINE
8
BLACK
6
CONTINUOUS
10
-17.3886
20
8.3426
11
-17.4
21
8.4
0
LINE
8
BLACK
6
CONTINUOUS
10
-17.4
20
8.4
11
-17.4
21
9.1
0
LINE
8
BLACK
6
CONTINUOUS
10
-17.4
20
9.1
11
-17.3886
21
9.1574
0
LINE
8
BLACK
6
CONTINUOUS
10
-17.3886
20
9.1574
11
-17.3561
21
9.20607
0
LINE
8
BLACK
6
CONTINUOUS
10
-17.3561
20
9.20607
11
-17.3074
21
9.23858
0
LINE
8
BLACK
6
CONTINUOUS
10
-17.3074
20
9.23858
11
-17.25
21
9.25
0
LINE
8
BLACK
6
CONTINUOUS
10
-17.25
20
9.25
11
-16.95
21
9.25
0
LINE
8
BLACK
6
CONTINUOUS
10
-16.95
20
9.25
11
-16.8926
21
9.23858
0
LINE
8
BLACK
6
CONTINUOUS
10
-15.3926
20
9.23858
11
-15.3439
21
9.20607
0
LINE
8
BLACK
6
CONTINUOUS
10
-15.3439
20
9.20607
11
-15.3114
21
9.1574
0
LINE
8
BLACK
6
CONTINUOUS
10
-15.3114
20
9.1574
11
-15.3
21
9.1
0
LINE
8
BLACK
6
CONTINUOUS
10
-15.3
20
9.1
11
-15.3
21
8.4
0
LINE
8
BLACK
6
CONTINUOUS
10
-15.3
20
8.4
11
-15.3114
21
8.3426
0
LINE
8
BLACK
6
CONTINUOUS
10
-15.3114
20
8.3426
11
-15.3439
21
8.29393
0
LINE
8
BLACK
6
CONTINUOUS
10
-15.3439
20
8.29393
11
-15.3926
21
8.26142
0
LINE
8
BLACK
6
CONTINUOUS
10
-15.3926
20
8.26142
11
-15.45
21
8.25
0
LINE
8
BLACK
6
CONTINUOUS
10
-15.45
20
8.25
11
-15.75
21
8.25
0
LINE
8
BLACK
6
CONTINUOUS
10
-15.75
20
8.25
11
-15.8074
21
8.26142
0
LINE
8
BLACK
6
CONTINUOUS
10
-15.8074
20
8.26142
11
-15.8561
21
8.29393
0
LINE
8
BLACK
6
CONTINUOUS
10
-15.8561
20
8.29393
11
-15.8886
21
8.3426
0
LINE
8
BLACK
6
CONTINUOUS
10
-15.8886
20
8.3426
11
-15.9
21
8.4
0
LINE
8
BLACK
6
CONTINUOUS
10
-15.9
20
8.4
11
-15.9
21
9.1
0
LINE
8
BLACK
6
CONTINUOUS
10
-15.9
20
9.1
11
-15.8886
21
9.1574
0
LINE
8
BLACK
6
CONTINUOUS
10
-15.8886
20
9.1574
11
-15.8561
21
9.20607
0
LINE
8
BLACK
6
CONTINUOUS
10
-15.8561
20
9.20607
11
-15.8074
21
9.23858
0
LINE
8
BLACK
6
CONTINUOUS
10
-15.8074
20
9.23858
11
-15.75
21
9.25
0
LINE
8
BLACK
6
CONTINUOUS
10
-15.75
20
9.25
11
-15.45
21
9.25
0
LINE
8
BLACK
6
CONTINUOUS
10
-15.45
20
9.25
11
-15.3926
21
9.23858
0
LINE
8
BLACK
6
CONTINUOUS
10
-21.4047
20
9.7967
11
-22.3953
21
9.7967
0
LINE
8
BLACK
6
CONTINUOUS
10
-22.3953
20
9.7967
11
-22.3953
21
10.4063
0
LINE
8
BLACK
6
CONTINUOUS
10
-22.3953
20
10.4063
11
-21.4047
21
10.4063
0
LINE
8
BLACK
6
CONTINUOUS
10
-21.4047
20
10.4063
11
-21.4047
21
9.7967
0
LINE
8
BLACK
6
CONTINUOUS
10
-16.9923
20
10.9958
11
-16.8726
21
10.9189
0
LINE
8
BLACK
6
CONTINUOUS
10
-16.8726
20
10.9189
11
-16.7794
21
10.8113
0
LINE
8
BLACK
6
CONTINUOUS
10
-16.7794
20
10.8113
11
-16.7203
21
10.6819
0
LINE
8
BLACK
6
CONTINUOUS
10
-16.7203
20
10.6819
11
-16.7
21
10.541
0
LINE
8
BLACK
6
CONTINUOUS
10
-16.7
20
10.541
11
-16.7203
21
10.4001
0
LINE
8
BLACK
6
CONTINUOUS
10
-16.7203
20
10.4001
11
-16.7794
21
10.2707
0
LINE
8
BLACK
6
CONTINUOUS
10
-16.7794
20
10.2707
11
-16.8726
21
10.1631
0
LINE
8
BLACK
6
CONTINUOUS
10
-16.8726
20
10.1631
11
-16.9923
21
10.0862
0
LINE
8
BLACK
6
CONTINUOUS
10
-16.9923
20
10.0862
11
-17.1288
21
10.0461
0
LINE
8
BLACK
6
CONTINUOUS
10
-17.1288
20
10.0461
11
-17.2712
21
10.0461
0
LINE
8
BLACK
6
CONTINUOUS
10
-17.2712
20
10.0461
11
-17.4077
21
10.0862
0
LINE
8
BLACK
6
CONTINUOUS
10
-17.4077
20
10.0862
11
-17.5274
21
10.1631
0
LINE
8
BLACK
6
CONTINUOUS
10
-17.5274
20
10.1631
11
-17.6206
21
10.2707
0
LINE
8
BLACK
6
CONTINUOUS
10
-17.6206
20
10.2707
11
-17.6797
21
10.4001
0
LINE
8
BLACK
6
CONTINUOUS
10
-17.6797
20
10.4001
11
-17.7
21
10.541
0
LINE
8
BLACK
6
CONTINUOUS
10
-17.7
20
10.541
11
-17.6797
21
10.6819
0
LINE
8
BLACK
6
CONTINUOUS
10
-17.6797
20
10.6819
11
-17.6206
21
10.8113
0
LINE
8
BLACK
6
CONTINUOUS
10
-17.6206
20
10.8113
11
-17.5274
21
10.9189
0
LINE
8
BLACK
6
CONTINUOUS
10
-17.5274
20
10.9189
11
-17.4077
21
10.9958
0
LINE
8
BLACK
6
CONTINUOUS
10
-17.4077
20
10.9958
11
-17.2712
21
11.0359
0
LINE
8
BLACK
6
CONTINUOUS
10
-17.2712
20
11.0359
11
-17.1288
21
11.0359
0
LINE
8
BLACK
6
CONTINUOUS
10
-17.1288
20
11.0359
11
-16.9923
21
10.9958
0
LINE
8
BLACK
6
CONTINUOUS
10
-21.4047
20
11.1937
11
-22.3953
21
11.1937
0
LINE
8
BLACK
6
CONTINUOUS
10
-22.3953
20
11.1937
11
-22.3953
21
11.8033
0
LINE
8
BLACK
6
CONTINUOUS
10
-22.3953
20
11.8033
11
-21.4047
21
11.8033
0
LINE
8
BLACK
6
CONTINUOUS
10
-21.4047
20
11.8033
11
-21.4047
21
11.1937
0
LINE
8
BLACK
6
CONTINUOUS
10
-16.9823
20
12.2648
11
-16.8626
21
12.1879
0
LINE
8
BLACK
6
CONTINUOUS
10
-16.8626
20
12.1879
11
-16.7694
21
12.0803
0
LINE
8
BLACK
6
CONTINUOUS
10
-16.7694
20
12.0803
11
-16.7103
21
11.9509
0
LINE
8
BLACK
6
CONTINUOUS
10
-16.7103
20
11.9509
11
-16.69
21
11.81
0
LINE
8
BLACK
6
CONTINUOUS
10
-16.69
20
11.81
11
-16.7103
21
11.6691
0
LINE
8
BLACK
6
CONTINUOUS
10
-16.7103
20
11.6691
11
-16.7694
21
11.5397
0
LINE
8
BLACK
6
CONTINUOUS
10
-16.7694
20
11.5397
11
-16.8626
21
11.4321
0
LINE
8
BLACK
6
CONTINUOUS
10
-16.8626
20
11.4321
11
-16.9823
21
11.3552
0
LINE
8
BLACK
6
CONTINUOUS
10
-16.9823
20
11.3552
11
-17.1188
21
11.3151
0
LINE
8
BLACK
6
CONTINUOUS
10
-17.1188
20
11.3151
11
-17.2612
21
11.3151
0
LINE
8
BLACK
6
CONTINUOUS
10
-17.2612
20
11.3151
11
-17.3977
21
11.3552
0
LINE
8
BLACK
6
CONTINUOUS
10
-17.3977
20
11.3552
11
-17.5174
21
11.4321
0
LINE
8
BLACK
6
CONTINUOUS
10
-17.5174
20
11.4321
11
-17.6106
21
11.5397
0
LINE
8
BLACK
6
CONTINUOUS
10
-17.6106
20
11.5397
11
-17.6697
21
11.6691
0
LINE
8
BLACK
6
CONTINUOUS
10
-17.6697
20
11.6691
11
-17.69
21
11.81
0
LINE
8
BLACK
6
CONTINUOUS
10
-17.69
20
11.81
11
-17.6697
21
11.9509
0
LINE
8
BLACK
6
CONTINUOUS
10
-17.6697
20
11.9509
11
-17.6106
21
12.0803
0
LINE
8
BLACK
6
CONTINUOUS
10
-17.6106
20
12.0803
11
-17.5174
21
12.1879
0
LINE
8
BLACK
6
CONTINUOUS
10
-17.5174
20
12.1879
11
-17.3977
21
12.2648
0
LINE
8
BLACK
6
CONTINUOUS
10
-17.3977
20
12.2648
11
-17.2612
21
12.3049
0
LINE
8
BLACK
6
CONTINUOUS
10
-17.2612
20
12.3049
11
-17.1188
21
12.3049
0
LINE
8
BLACK
6
CONTINUOUS
10
-17.1188
20
12.3049
11
-16.9823
21
12.2648
0
LINE
8
BLACK
6
CONTINUOUS
10
-16.9823
20
13.5348
11
-16.8626
21
13.4579
0
LINE
8
BLACK
6
CONTINUOUS
10
-16.8626
20
13.4579
11
-16.7694
21
13.3503
0
LINE
8
BLACK
6
CONTINUOUS
10
-16.7694
20
13.3503
11
-16.7103
21
13.2209
0
LINE
8
BLACK
6
CONTINUOUS
10
-16.7103
20
13.2209
11
-16.69
21
13.08
0
LINE
8
BLACK
6
CONTINUOUS
10
-16.69
20
13.08
11
-16.7103
21
12.9391
0
LINE
8
BLACK
6
CONTINUOUS
10
-16.7103
20
12.9391
11
-16.7694
21
12.8097
0
LINE
8
BLACK
6
CONTINUOUS
10
-16.7694
20
12.8097
11
-16.8626
21
12.7021
0
LINE
8
BLACK
6
CONTINUOUS
10
-16.8626
20
12.7021
11
-16.9823
21
12.6252
0
LINE
8
BLACK
6
CONTINUOUS
10
-16.9823
20
12.6252
11
-17.1188
21
12.5851
0
LINE
8
BLACK
6
CONTINUOUS
10
-17.1188
20
12.5851
11
-17.2612
21
12.5851
0
LINE
8
BLACK
6
CONTINUOUS
10
-17.2612
20
12.5851
11
-17.3977
21
12.6252
0
LINE
8
BLACK
6
CONTINUOUS
10
-17.3977
20
12.6252
11
-17.5174
21
12.7021
0
LINE
8
BLACK
6
CONTINUOUS
10
-17.5174
20
12.7021
11
-17.6106
21
12.8097
0
LINE
8
BLACK
6
CONTINUOUS
10
-17.6106
20
12.8097
11
-17.6697
21
12.9391
0
LINE
8
BLACK
6
CONTINUOUS
10
-17.6697
20
12.9391
11
-17.69
21
13.08
0
LINE
8
BLACK
6
CONTINUOUS
10
-17.69
20
13.08
11
-17.6697
21
13.2209
0
LINE
8
BLACK
6
CONTINUOUS
10
-17.6697
20
13.2209
11
-17.6106
21
13.3503
0
LINE
8
BLACK
6
CONTINUOUS
10
-17.6106
20
13.3503
11
-17.5174
21
13.4579
0
LINE
8
BLACK
6
CONTINUOUS
10
-17.5174
20
13.4579
11
-17.3977
21
13.5348
0
LINE
8
BLACK
6
CONTINUOUS
10
-17.3977
20
13.5348
11
-17.2612
21
13.5749
0
LINE
8
BLACK
6
CONTINUOUS
10
-17.2612
20
13.5749
11
-17.1188
21
13.5749
0
LINE
8
BLACK
6
CONTINUOUS
10
-17.1188
20
13.5749
11
-16.9823
21
13.5348
0
LINE
8
BLACK
6
CONTINUOUS
10
-20.8116
20
14.8394
11
-20.7133
21
14.7935
0
LINE
8
BLACK
6
CONTINUOUS
10
-20.7133
20
14.7935
11
-20.6365
21
14.7167
0
LINE
8
BLACK
6
CONTINUOUS
10
-20.6365
20
14.7167
11
-20.5906
21
14.6184
0
LINE
8
BLACK
6
CONTINUOUS
10
-20.5906
20
14.6184
11
-20.58
21
14.5375
0
LINE
8
BLACK
6
CONTINUOUS
10
-20.58
20
14.5375
11
-20.58
21
13.3625
0
LINE
8
BLACK
6
CONTINUOUS
10
-20.58
20
13.3625
11
-20.5906
21
13.2816
0
LINE
8
BLACK
6
CONTINUOUS
10
-20.5906
20
13.2816
11
-20.6365
21
13.1833
0
LINE
8
BLACK
6
CONTINUOUS
10
-20.6365
20
13.1833
11
-20.7133
21
13.1065
0
LINE
8
BLACK
6
CONTINUOUS
10
-20.7133
20
13.1065
11
-20.8116
21
13.0606
0
LINE
8
BLACK
6
CONTINUOUS
10
-20.8116
20
13.0606
11
-20.8925
21
13.05
0
LINE
8
BLACK
6
CONTINUOUS
10
-20.8925
20
13.05
11
-21.5175
21
13.05
0
LINE
8
BLACK
6
CONTINUOUS
10
-21.5175
20
13.05
11
-21.5984
21
13.0606
0
LINE
8
BLACK
6
CONTINUOUS
10
-21.5984
20
13.0606
11
-21.6967
21
13.1065
0
LINE
8
BLACK
6
CONTINUOUS
10
-21.6967
20
13.1065
11
-21.7735
21
13.1833
0
LINE
8
BLACK
6
CONTINUOUS
10
-21.7735
20
13.1833
11
-21.8194
21
13.2816
0
LINE
8
BLACK
6
CONTINUOUS
10
-21.8194
20
13.2816
11
-21.83
21
13.3625
0
LINE
8
BLACK
6
CONTINUOUS
10
-21.83
20
13.3625
11
-21.83
21
14.5375
0
LINE
8
BLACK
6
CONTINUOUS
10
-21.83
20
14.5375
11
-21.8194
21
14.6184
0
LINE
8
BLACK
6
CONTINUOUS
10
-21.8194
20
14.6184
11
-21.7735
21
14.7167
0
LINE
8
BLACK
6
CONTINUOUS
10
-21.7735
20
14.7167
11
-21.6967
21
14.7935
0
LINE
8
BLACK
6
CONTINUOUS
10
-21.6967
20
14.7935
11
-21.5984
21
14.8394
0
LINE
8
BLACK
6
CONTINUOUS
10
-21.5984
20
14.8394
11
-21.5175
21
14.85
0
LINE
8
BLACK
6
CONTINUOUS
10
-21.5175
20
14.85
11
-20.8925
21
14.85
0
LINE
8
BLACK
6
CONTINUOUS
10
-20.8925
20
14.85
11
-20.8116
21
14.8394
0
LINE
8
BLACK
6
CONTINUOUS
10
-12.6016
20
14.8394
11
-12.5033
21
14.7935
0
LINE
8
BLACK
6
CONTINUOUS
10
-12.5033
20
14.7935
11
-12.4265
21
14.7167
0
LINE
8
BLACK
6
CONTINUOUS
10
-12.4265
20
14.7167
11
-12.3806
21
14.6184
0
LINE
8
BLACK
6
CONTINUOUS
10
-12.3806
20
14.6184
11
-12.37
21
14.5375
0
LINE
8
BLACK
6
CONTINUOUS
10
-12.37
20
14.5375
11
-12.37
21
13.3625
0
LINE
8
BLACK
6
CONTINUOUS
10
-12.37
20
13.3625
11
-12.3806
21
13.2816
0
LINE
8
BLACK
6
CONTINUOUS
10
-12.3806
20
13.2816
11
-12.4265
21
13.1833
0
LINE
8
BLACK
6
CONTINUOUS
10
-12.4265
20
13.1833
11
-12.5033
21
13.1065
0
LINE
8
BLACK
6
CONTINUOUS
10
-12.5033
20
13.1065
11
-12.6016
21
13.0606
0
LINE
8
BLACK
6
CONTINUOUS
10
-12.6016
20
13.0606
11
-12.6825
21
13.05
0
LINE
8
BLACK
6
CONTINUOUS
10
-12.6825
20
13.05
11
-13.3075
21
13.05
0
LINE
8
BLACK
6
CONTINUOUS
10
-13.3075
20
13.05
11
-13.3884
21
13.0606
0
LINE
8
BLACK
6
CONTINUOUS
10
-13.3884
20
13.0606
11
-13.4867
21
13.1065
0
LINE
8
BLACK
6
CONTINUOUS
10
-13.4867
20
13.1065
11
-13.5635
21
13.1833
0
LINE
8
BLACK
6
CONTINUOUS
10
-13.5635
20
13.1833
11
-13.6094
21
13.2816
0
LINE
8
BLACK
6
CONTINUOUS
10
-13.6094
20
13.2816
11
-13.62
21
13.3625
0
LINE
8
BLACK
6
CONTINUOUS
10
-13.62
20
13.3625
11
-13.62
21
14.5375
0
LINE
8
BLACK
6
CONTINUOUS
10
-13.62
20
14.5375
11
-13.6094
21
14.6184
0
LINE
8
BLACK
6
CONTINUOUS
10
-13.6094
20
14.6184
11
-13.5635
21
14.7167
0
LINE
8
BLACK
6
CONTINUOUS
10
-13.5635
20
14.7167
11
-13.4867
21
14.7935
0
LINE
8
BLACK
6
CONTINUOUS
10
-13.4867
20
14.7935
11
-13.3884
21
14.8394
0
LINE
8
BLACK
6
CONTINUOUS
10
-13.3884
20
14.8394
11
-13.3075
21
14.85
0
LINE
8
BLACK
6
CONTINUOUS
10
-13.3075
20
14.85
11
-12.6825
21
14.85
0
LINE
8
BLACK
6
CONTINUOUS
10
-12.6825
20
14.85
11
-12.6016
21
14.8394
  0
ENDSEC
  0
EOF
